<?xml version="1.0" encoding="utf-8"?>
<!-- Generator: Adobe Illustrator 16.0.0, SVG Export Plug-In . SVG Version: 6.00 Build 0)  -->
<!DOCTYPE svg PUBLIC "-//W3C//DTD SVG 1.1//EN" "http://www.w3.org/Graphics/SVG/1.1/DTD/svg11.dtd">
<svg version="1.1" id="Calque_1" xmlns="http://www.w3.org/2000/svg" xmlns:xlink="http://www.w3.org/1999/xlink" x="0px" y="0px"
	 width="3056px" height="593px" viewBox="0 0 3056 593" enable-background="new 0 0 3056 593" xml:space="preserve">
<g id="Calque_1_1_">
</g>
<g>
	<polygon fill="#8DC63F" points="192.224,430.716 222.961,429.452 170.375,293.801 156.556,325.732 	"/>
	<polygon fill="#0066B3" points="156.554,325.732 160.502,265.312 218.317,217.945 261.125,215.08 	"/>
	<polygon fill="#BFD730" points="269.911,297.616 340.392,276.273 263.358,212.574 218.317,217.945 	"/>
	<polygon fill="#F37021" points="340.392,276.273 269.911,297.623 359.819,178.72 435.565,161.768 	"/>
	<polygon fill="#522E91" points="238.608,422.194 226.705,419.822 192.221,430.716 224.162,432.552 	"/>
	<polygon fill="#F067A6" points="284.981,523.695 257.835,517.756 226.707,419.822 241.798,419.906 	"/>
	<polygon fill="#A3238E" points="315.751,530.777 282.942,512.52 312.571,426.884 351.653,410.789 	"/>
	<polygon fill="#00A651" points="350.742,446.115 312.571,426.879 353.383,406.697 436.126,407.397 	"/>
	<polygon fill="#00AEEF" points="442.28,407.451 350.742,446.115 481.665,199.271 487.496,328.375 	"/>
	<polygon fill="#ED1164" points="487.496,328.375 485.477,192.094 439.438,156.86 359.598,178.785 	"/>
	<polygon fill="#ED1164" points="315.751,530.777 282.942,512.52 594.693,468.68 648.275,483.293 	"/>
	<polygon fill="#F37021" points="918.479,491.367 949.867,476.285 594.693,468.68 648.275,483.293 	"/>
	<polygon fill="#BFD730" points="918.479,491.367 949.867,476.285 935.806,444.207 918.698,458.802 	"/>
	<polygon fill="#0066B3" points="1067.041,491.271 1052.979,471.289 935.806,444.207 918.698,458.802 	"/>
	<polygon fill="#8DC63F" points="1067.041,491.271 1052.979,471.289 1612.742,449.835 1668.613,471.679 	"/>
	<polygon fill="#522E91" points="1855.745,508.146 1841.684,488.165 1612.742,449.835 1668.613,471.679 	"/>
	<polygon fill="#F067A6" points="1855.745,508.146 1841.684,488.165 2343.402,449.195 2312.949,463.155 	"/>
	<polygon fill="#A3238E" points="3074.063,505.019 3074.063,454.068 2343.402,449.195 2312.949,463.155 	"/>
	<polygon fill="#A3238E" points="284.981,523.695 257.835,517.756 103.165,513.071 89.106,527.133 	"/>
	<polygon fill="#00AEEF" points="-19.063,508.384 -19.063,475.576 103.165,513.071 89.106,527.133 	"/>
</g>
<g>
	<g>
		<path fill="#414141" d="M1324.443,352.417v-38.395h4.098v34.728h19.629v3.667H1324.443z"/>
		<path fill="#414141" d="M1369.685,352.417v-2.534c-2.157,2.156-4.098,2.857-7.657,2.857c-3.667,0-5.824-0.701-7.496-2.427
			c-1.294-1.294-1.995-3.289-1.995-5.392c0-4.638,3.236-7.657,9.167-7.657h7.98v-2.535c0-3.882-1.941-5.823-6.794-5.823
			c-3.397,0-5.123,0.809-6.687,3.02l-2.642-2.427c2.373-3.073,5.069-3.937,9.383-3.937c7.118,0,10.623,3.074,10.623,8.844v18.011
			H1369.685z M1369.685,340.176h-7.441c-3.99,0-5.932,1.618-5.932,4.691c0,3.074,1.887,4.53,6.093,4.53
			c2.265,0,4.26-0.162,5.932-1.779c0.917-0.863,1.348-2.373,1.348-4.584V340.176z"/>
		<path fill="#414141" d="M1396.215,318.337v-4.368h4.368v4.368H1396.215z M1396.43,352.417v-26.531h3.883v26.531H1396.43z"/>
		<path fill="#414141" d="M1444.153,352.417v-16.339c0-4.691-2.535-7.064-6.525-7.064c-3.883,0-6.633,2.427-6.633,6.633v16.771
			h-3.882v-16.339c0-4.691-2.535-7.064-6.525-7.064c-3.991,0-6.633,2.427-6.633,7.064v16.339h-3.883v-26.531h3.883v2.912
			c1.887-2.157,4.53-3.235,7.496-3.235c3.667,0,6.525,1.51,8.143,4.422c2.049-2.912,5.015-4.422,8.736-4.422
			c2.858,0,5.23,0.917,6.848,2.48c1.887,1.834,2.858,4.314,2.858,7.388v16.986H1444.153z"/>
		<path fill="#414141" d="M1475.32,350.422c-1.402,1.402-3.774,2.318-6.471,2.318c-2.912,0-5.339-0.701-7.496-3.451v14.991h-3.883
			v-38.395h3.883v3.128c2.157-2.804,4.583-3.451,7.496-3.451c2.696,0,5.069,0.917,6.471,2.318c2.696,2.696,3.235,7.118,3.235,11.271
			S1478.017,347.726,1475.32,350.422z M1468.041,329.014c-5.77,0-6.687,4.961-6.687,10.138s0.917,10.138,6.687,10.138
			s6.633-4.961,6.633-10.138S1473.811,329.014,1468.041,329.014z"/>
		<path fill="#414141" d="M1501.689,330.955c-1.456-1.456-2.535-1.941-4.584-1.941c-3.882,0-6.363,3.074-6.363,7.118v16.285h-3.883
			v-26.531h3.883v3.235c1.456-2.21,4.368-3.559,7.441-3.559c2.535,0,4.476,0.593,6.363,2.48L1501.689,330.955z"/>
		<path fill="#414141" d="M1511.988,340.176c0,5.824,2.75,9.168,7.819,9.168c3.074,0,4.854-0.917,6.957-3.021l2.642,2.319
			c-2.696,2.696-5.177,4.098-9.706,4.098c-7.01,0-11.594-4.206-11.594-13.589c0-8.574,4.152-13.589,10.893-13.589
			c6.849,0,10.893,4.961,10.893,12.834v1.779H1511.988z M1525.199,332.843c-1.024-2.427-3.397-3.991-6.201-3.991
			s-5.177,1.564-6.201,3.991c-0.593,1.456-0.701,2.265-0.809,4.422h14.021C1525.9,335.107,1525.792,334.299,1525.199,332.843z"/>
		<path fill="#414141" d="M1555.128,352.417v-16.339c0-4.691-2.535-7.064-6.525-7.064s-6.579,2.427-6.579,7.064v16.339h-3.882
			v-26.531h3.882v2.912c1.888-2.157,4.477-3.235,7.442-3.235c2.857,0,5.177,0.863,6.794,2.48c1.888,1.834,2.75,4.314,2.75,7.388
			v16.986H1555.128z"/>
		<path fill="#414141" d="M1575.888,352.417c-4.529,0-6.795-3.182-6.795-7.118v-16.285h-3.343v-2.966h3.343v-8.305h3.883v8.305
			h5.662v2.966h-5.662v16.178c0,2.427,1.133,3.882,3.613,3.882h2.049v3.344H1575.888z"/>
		<path fill="#414141" d="M1601.394,352.417v-2.534c-2.157,2.156-4.099,2.857-7.657,2.857c-3.667,0-5.824-0.701-7.496-2.427
			c-1.294-1.294-1.995-3.289-1.995-5.392c0-4.638,3.235-7.657,9.167-7.657h7.981v-2.535c0-3.882-1.941-5.823-6.795-5.823
			c-3.397,0-5.123,0.809-6.687,3.02l-2.643-2.427c2.373-3.073,5.069-3.937,9.383-3.937c7.118,0,10.623,3.074,10.623,8.844v18.011
			H1601.394z M1601.394,340.176h-7.441c-3.991,0-5.933,1.618-5.933,4.691c0,3.074,1.888,4.53,6.094,4.53
			c2.265,0,4.26-0.162,5.932-1.779c0.917-0.863,1.349-2.373,1.349-4.584V340.176z"/>
		<path fill="#414141" d="M1630.565,340.176c0,5.824,2.75,9.168,7.818,9.168c3.074,0,4.854-0.917,6.956-3.021l2.643,2.319
			c-2.696,2.696-5.177,4.098-9.706,4.098c-7.011,0-11.594-4.206-11.594-13.589c0-8.574,4.152-13.589,10.893-13.589
			c6.849,0,10.893,4.961,10.893,12.834v1.779H1630.565z M1643.776,332.843c-1.024-2.427-3.397-3.991-6.201-3.991
			s-5.177,1.564-6.201,3.991c-0.594,1.456-0.701,2.265-0.809,4.422h14.02C1644.478,335.107,1644.37,334.299,1643.776,332.843z"/>
		<path fill="#414141" d="M1671.169,352.417l-6.363-10.3l-6.471,10.3h-4.691l9.006-13.535l-8.628-12.996h4.691l6.093,9.814
			l5.986-9.814h4.691l-8.628,12.996l9.005,13.535H1671.169z"/>
		<path fill="#414141" d="M1700.342,350.422c-1.402,1.402-3.774,2.318-6.471,2.318c-2.912,0-5.339-0.701-7.496-3.451v14.991h-3.882
			v-38.395h3.882v3.128c2.157-2.804,4.584-3.451,7.496-3.451c2.696,0,5.068,0.917,6.471,2.318c2.696,2.696,3.235,7.118,3.235,11.271
			S1703.038,347.726,1700.342,350.422z M1693.062,329.014c-5.771,0-6.688,4.961-6.688,10.138s0.917,10.138,6.688,10.138
			c5.77,0,6.632-4.961,6.632-10.138S1698.832,329.014,1693.062,329.014z"/>
		<path fill="#414141" d="M1726.711,330.955c-1.456-1.456-2.534-1.941-4.584-1.941c-3.882,0-6.363,3.074-6.363,7.118v16.285h-3.882
			v-26.531h3.882v3.235c1.456-2.21,4.368-3.559,7.442-3.559c2.534,0,4.476,0.593,6.362,2.48L1726.711,330.955z"/>
		<path fill="#414141" d="M1737.011,340.176c0,5.824,2.75,9.168,7.818,9.168c3.074,0,4.854-0.917,6.956-3.021l2.643,2.319
			c-2.696,2.696-5.177,4.098-9.706,4.098c-7.011,0-11.594-4.206-11.594-13.589c0-8.574,4.152-13.589,10.893-13.589
			c6.849,0,10.893,4.961,10.893,12.834v1.779H1737.011z M1750.222,332.843c-1.024-2.427-3.397-3.991-6.201-3.991
			s-5.177,1.564-6.201,3.991c-0.594,1.456-0.701,2.265-0.809,4.422h14.02C1750.923,335.107,1750.815,334.299,1750.222,332.843z
			 M1745.099,320.386h-3.559l4.745-8.25h4.638L1745.099,320.386z"/>
		<path fill="#414141" d="M1771.521,352.74c-4.477,0-7.981-1.024-10.894-3.828l2.589-2.589c2.103,2.211,4.961,3.074,8.25,3.074
			c4.368,0,7.064-1.564,7.064-4.691c0-2.319-1.348-3.613-4.422-3.883l-4.368-0.378c-5.177-0.431-7.927-2.75-7.927-7.117
			c0-4.854,4.099-7.766,9.761-7.766c3.774,0,7.172,0.917,9.545,2.858l-2.535,2.534c-1.887-1.456-4.313-2.104-7.063-2.104
			c-3.883,0-5.932,1.672-5.932,4.368c0,2.265,1.294,3.613,4.637,3.883l4.261,0.377c4.637,0.432,7.818,2.211,7.818,7.173
			C1782.306,349.774,1777.938,352.74,1771.521,352.74z"/>
		<path fill="#414141" d="M1818.165,330.955c-1.456-1.456-2.534-1.941-4.584-1.941c-3.883,0-6.363,3.074-6.363,7.118v16.285h-3.882
			v-26.531h3.882v3.235c1.456-2.21,4.368-3.559,7.442-3.559c2.534,0,4.476,0.593,6.362,2.48L1818.165,330.955z"/>
		<path fill="#414141" d="M1828.464,340.176c0,5.824,2.75,9.168,7.818,9.168c3.074,0,4.854-0.917,6.956-3.021l2.643,2.319
			c-2.696,2.696-5.177,4.098-9.706,4.098c-7.011,0-11.594-4.206-11.594-13.589c0-8.574,4.152-13.589,10.893-13.589
			c6.849,0,10.893,4.961,10.893,12.834v1.779H1828.464z M1841.675,332.843c-1.024-2.427-3.397-3.991-6.201-3.991
			s-5.177,1.564-6.201,3.991c-0.594,1.456-0.701,2.265-0.809,4.422h14.02C1842.376,335.107,1842.269,334.299,1841.675,332.843z"/>
		<path fill="#414141" d="M1862.975,352.74c-4.477,0-7.981-1.024-10.894-3.828l2.589-2.589c2.103,2.211,4.961,3.074,8.25,3.074
			c4.368,0,7.064-1.564,7.064-4.691c0-2.319-1.348-3.613-4.422-3.883l-4.368-0.378c-5.177-0.431-7.927-2.75-7.927-7.117
			c0-4.854,4.099-7.766,9.761-7.766c3.774,0,7.172,0.917,9.545,2.858l-2.535,2.534c-1.887-1.456-4.313-2.104-7.063-2.104
			c-3.883,0-5.932,1.672-5.932,4.368c0,2.265,1.294,3.613,4.637,3.883l4.261,0.377c4.637,0.432,7.818,2.211,7.818,7.173
			C1873.759,349.774,1869.392,352.74,1862.975,352.74z"/>
		<path fill="#414141" d="M1883.789,340.176c0,5.824,2.75,9.168,7.818,9.168c3.074,0,4.854-0.917,6.956-3.021l2.643,2.319
			c-2.696,2.696-5.177,4.098-9.706,4.098c-7.011,0-11.594-4.206-11.594-13.589c0-8.574,4.152-13.589,10.893-13.589
			c6.849,0,10.893,4.961,10.893,12.834v1.779H1883.789z M1897,332.843c-1.024-2.427-3.397-3.991-6.201-3.991
			s-5.177,1.564-6.201,3.991c-0.594,1.456-0.701,2.265-0.809,4.422h14.02C1897.701,335.107,1897.594,334.299,1897,332.843z"/>
		<path fill="#414141" d="M1924.771,330.955c-1.456-1.456-2.534-1.941-4.584-1.941c-3.882,0-6.363,3.074-6.363,7.118v16.285h-3.882
			v-26.531h3.882v3.235c1.456-2.21,4.368-3.559,7.442-3.559c2.534,0,4.476,0.593,6.362,2.48L1924.771,330.955z"/>
		<path fill="#414141" d="M1941.541,352.417h-3.451l-9.707-26.531h4.206l7.227,21.301l7.279-21.301h4.206L1941.541,352.417z"/>
		<path fill="#414141" d="M1971.792,352.417v-2.534c-2.157,2.156-4.099,2.857-7.657,2.857c-3.667,0-5.824-0.701-7.496-2.427
			c-1.294-1.294-1.995-3.289-1.995-5.392c0-4.638,3.235-7.657,9.167-7.657h7.981v-2.535c0-3.882-1.941-5.823-6.795-5.823
			c-3.397,0-5.123,0.809-6.687,3.02l-2.643-2.427c2.373-3.073,5.069-3.937,9.383-3.937c7.118,0,10.623,3.074,10.623,8.844v18.011
			H1971.792z M1971.792,340.176h-7.441c-3.991,0-5.933,1.618-5.933,4.691c0,3.074,1.888,4.53,6.094,4.53
			c2.265,0,4.26-0.162,5.932-1.779c0.917-0.863,1.349-2.373,1.349-4.584V340.176z"/>
		<path fill="#414141" d="M2000.964,352.417v-3.182c-2.157,2.804-4.638,3.505-7.55,3.505c-2.696,0-5.068-0.916-6.471-2.318
			c-2.696-2.696-3.235-7.118-3.235-11.271s0.539-8.574,3.235-11.271c1.402-1.401,3.774-2.318,6.471-2.318
			c2.912,0,5.339,0.647,7.496,3.397v-14.938h3.883v38.395H2000.964z M1994.277,329.014c-5.771,0-6.687,4.961-6.687,10.138
			s0.916,10.138,6.687,10.138c5.77,0,6.633-4.961,6.633-10.138S2000.047,329.014,1994.277,329.014z"/>
		<path fill="#414141" d="M2029.544,352.417v-2.534c-2.157,2.156-4.099,2.857-7.657,2.857c-3.667,0-5.824-0.701-7.496-2.427
			c-1.294-1.294-1.995-3.289-1.995-5.392c0-4.638,3.235-7.657,9.167-7.657h7.981v-2.535c0-3.882-1.941-5.823-6.795-5.823
			c-3.397,0-5.123,0.809-6.687,3.02l-2.643-2.427c2.373-3.073,5.069-3.937,9.383-3.937c7.118,0,10.623,3.074,10.623,8.844v18.011
			H2029.544z M2029.544,340.176h-7.441c-3.991,0-5.933,1.618-5.933,4.691c0,3.074,1.888,4.53,6.094,4.53
			c2.265,0,4.26-0.162,5.932-1.779c0.917-0.863,1.349-2.373,1.349-4.584V340.176z"/>
		<path fill="#414141" d="M2071.334,352.417v-2.534c-2.157,2.156-4.099,2.857-7.657,2.857c-3.667,0-5.824-0.701-7.496-2.427
			c-1.294-1.294-1.995-3.289-1.995-5.392c0-4.638,3.235-7.657,9.167-7.657h7.981v-2.535c0-3.882-1.941-5.823-6.795-5.823
			c-3.397,0-5.123,0.809-6.687,3.02l-2.643-2.427c2.373-3.073,5.069-3.937,9.383-3.937c7.118,0,10.623,3.074,10.623,8.844v18.011
			H2071.334z M2071.334,340.176h-7.441c-3.991,0-5.933,1.618-5.933,4.691c0,3.074,1.888,4.53,6.094,4.53
			c2.265,0,4.26-0.162,5.932-1.779c0.917-0.863,1.349-2.373,1.349-4.584V340.176z"/>
		<path fill="#414141" d="M2104.711,352.417c-4.638,0-6.741-3.02-6.741-7.064v-31.33h3.883v31.169c0,2.588,0.863,3.882,3.559,3.882
			h2.104v3.344H2104.711z"/>
		<path fill="#414141" d="M2131.134,349.721c-1.834,1.834-4.368,3.02-7.604,3.02s-5.77-1.186-7.604-3.02
			c-2.696-2.75-3.235-6.471-3.235-10.569c0-4.098,0.539-7.819,3.235-10.569c1.834-1.833,4.368-3.02,7.604-3.02
			s5.77,1.187,7.604,3.02c2.696,2.75,3.235,6.472,3.235,10.569C2134.369,343.25,2133.83,346.971,2131.134,349.721z
			 M2128.384,330.955c-1.24-1.24-2.966-1.941-4.854-1.941s-3.559,0.701-4.799,1.941c-1.941,1.941-2.157,5.23-2.157,8.196
			s0.216,6.256,2.157,8.196c1.24,1.24,2.911,1.941,4.799,1.941s3.613-0.701,4.854-1.941c1.941-1.94,2.103-5.23,2.103-8.196
			S2130.325,332.896,2128.384,330.955z"/>
		<path fill="#414141" d="M2151.032,352.74c-4.477,0-7.981-1.024-10.894-3.828l2.589-2.589c2.103,2.211,4.961,3.074,8.25,3.074
			c4.368,0,7.064-1.564,7.064-4.691c0-2.319-1.348-3.613-4.422-3.883l-4.368-0.378c-5.177-0.431-7.927-2.75-7.927-7.117
			c0-4.854,4.099-7.766,9.761-7.766c3.774,0,7.172,0.917,9.545,2.858l-2.535,2.534c-1.887-1.456-4.313-2.104-7.063-2.104
			c-3.883,0-5.932,1.672-5.932,4.368c0,2.265,1.294,3.613,4.637,3.883l4.261,0.377c4.637,0.432,7.818,2.211,7.818,7.173
			C2161.816,349.774,2157.449,352.74,2151.032,352.74z"/>
		<path fill="#414141" d="M2200.694,350.422c-1.402,1.402-3.774,2.318-6.471,2.318c-2.912,0-5.339-0.701-7.496-3.451v14.991h-3.882
			v-38.395h3.882v3.128c2.157-2.804,4.584-3.451,7.496-3.451c2.696,0,5.068,0.917,6.471,2.318c2.696,2.696,3.235,7.118,3.235,11.271
			S2203.391,347.726,2200.694,350.422z M2193.415,329.014c-5.771,0-6.688,4.961-6.688,10.138s0.917,10.138,6.688,10.138
			c5.77,0,6.632-4.961,6.632-10.138S2199.185,329.014,2193.415,329.014z"/>
		<path fill="#414141" d="M2227.063,330.955c-1.456-1.456-2.534-1.941-4.584-1.941c-3.883,0-6.363,3.074-6.363,7.118v16.285h-3.882
			v-26.531h3.882v3.235c1.456-2.21,4.368-3.559,7.442-3.559c2.534,0,4.476,0.593,6.362,2.48L2227.063,330.955z"/>
		<path fill="#414141" d="M2251.976,349.721c-1.834,1.834-4.368,3.02-7.604,3.02s-5.77-1.186-7.604-3.02
			c-2.696-2.75-3.235-6.471-3.235-10.569c0-4.098,0.539-7.819,3.235-10.569c1.834-1.833,4.368-3.02,7.604-3.02
			s5.77,1.187,7.604,3.02c2.696,2.75,3.235,6.472,3.235,10.569C2255.211,343.25,2254.672,346.971,2251.976,349.721z
			 M2249.226,330.955c-1.24-1.24-2.966-1.941-4.854-1.941s-3.559,0.701-4.799,1.941c-1.941,1.941-2.157,5.23-2.157,8.196
			s0.216,6.256,2.157,8.196c1.24,1.24,2.911,1.941,4.799,1.941s3.613-0.701,4.854-1.941c1.941-1.94,2.103-5.23,2.103-8.196
			S2251.167,332.896,2249.226,330.955z"/>
		<path fill="#414141" d="M2268.261,329.014v23.403h-3.883v-23.403h-3.397v-2.966h3.397v-5.015c0-3.937,2.211-7.118,6.741-7.118
			h2.804v3.343h-2.104c-2.48,0-3.559,1.456-3.559,3.883v4.907h5.662v2.966H2268.261z"/>
		<path fill="#414141" d="M2282.874,340.176c0,5.824,2.75,9.168,7.818,9.168c3.074,0,4.854-0.917,6.956-3.021l2.643,2.319
			c-2.696,2.696-5.177,4.098-9.706,4.098c-7.011,0-11.594-4.206-11.594-13.589c0-8.574,4.152-13.589,10.893-13.589
			c6.849,0,10.893,4.961,10.893,12.834v1.779H2282.874z M2296.085,332.843c-1.024-2.427-3.397-3.991-6.201-3.991
			s-5.177,1.564-6.201,3.991c-0.594,1.456-0.701,2.265-0.809,4.422h14.02C2296.786,335.107,2296.679,334.299,2296.085,332.843z"/>
		<path fill="#414141" d="M2317.386,352.74c-4.477,0-7.981-1.024-10.894-3.828l2.589-2.589c2.103,2.211,4.961,3.074,8.25,3.074
			c4.368,0,7.064-1.564,7.064-4.691c0-2.319-1.348-3.613-4.422-3.883l-4.368-0.378c-5.177-0.431-7.927-2.75-7.927-7.117
			c0-4.854,4.099-7.766,9.761-7.766c3.774,0,7.172,0.917,9.545,2.858l-2.535,2.534c-1.887-1.456-4.313-2.104-7.063-2.104
			c-3.883,0-5.932,1.672-5.932,4.368c0,2.265,1.294,3.613,4.637,3.883l4.261,0.377c4.637,0.432,7.818,2.211,7.818,7.173
			C2328.17,349.774,2323.803,352.74,2317.386,352.74z"/>
		<path fill="#414141" d="M2335.557,318.337v-4.368h4.368v4.368H2335.557z M2335.772,352.417v-26.531h3.882v26.531H2335.772z"/>
		<path fill="#414141" d="M2366.455,349.721c-1.834,1.834-4.368,3.02-7.604,3.02s-5.77-1.186-7.604-3.02
			c-2.696-2.75-3.235-6.471-3.235-10.569c0-4.098,0.539-7.819,3.235-10.569c1.834-1.833,4.368-3.02,7.604-3.02
			s5.77,1.187,7.604,3.02c2.696,2.75,3.235,6.472,3.235,10.569C2369.69,343.25,2369.151,346.971,2366.455,349.721z
			 M2363.705,330.955c-1.24-1.24-2.966-1.941-4.854-1.941s-3.559,0.701-4.8,1.941c-1.94,1.941-2.156,5.23-2.156,8.196
			s0.216,6.256,2.156,8.196c1.241,1.24,2.912,1.941,4.8,1.941s3.613-0.701,4.854-1.941c1.941-1.94,2.103-5.23,2.103-8.196
			S2365.646,332.896,2363.705,330.955z"/>
		<path fill="#414141" d="M2394.98,352.417v-16.339c0-4.691-2.535-7.064-6.525-7.064s-6.579,2.427-6.579,7.064v16.339h-3.882
			v-26.531h3.882v2.912c1.888-2.157,4.477-3.235,7.442-3.235c2.857,0,5.177,0.863,6.794,2.48c1.888,1.834,2.75,4.314,2.75,7.388
			v16.986H2394.98z"/>
		<path fill="#414141" d="M2423.345,352.417v-2.534c-2.157,2.156-4.099,2.857-7.657,2.857c-3.667,0-5.824-0.701-7.496-2.427
			c-1.294-1.294-1.995-3.289-1.995-5.392c0-4.638,3.235-7.657,9.167-7.657h7.981v-2.535c0-3.882-1.941-5.823-6.795-5.823
			c-3.397,0-5.123,0.809-6.687,3.02l-2.643-2.427c2.373-3.073,5.069-3.937,9.383-3.937c7.118,0,10.623,3.074,10.623,8.844v18.011
			H2423.345z M2423.345,340.176h-7.441c-3.991,0-5.933,1.618-5.933,4.691c0,3.074,1.888,4.53,6.094,4.53
			c2.265,0,4.26-0.162,5.932-1.779c0.917-0.863,1.349-2.373,1.349-4.584V340.176z"/>
		<path fill="#414141" d="M2443.296,352.417c-4.638,0-6.741-3.02-6.741-7.064v-31.33h3.883v31.169c0,2.588,0.862,3.882,3.559,3.882
			h2.104v3.344H2443.296z"/>
		<path fill="#414141" d="M2455.104,340.176c0,5.824,2.75,9.168,7.818,9.168c3.074,0,4.854-0.917,6.956-3.021l2.643,2.319
			c-2.696,2.696-5.177,4.098-9.706,4.098c-7.011,0-11.594-4.206-11.594-13.589c0-8.574,4.152-13.589,10.893-13.589
			c6.849,0,10.893,4.961,10.893,12.834v1.779H2455.104z M2468.315,332.843c-1.024-2.427-3.397-3.991-6.201-3.991
			s-5.177,1.564-6.201,3.991c-0.594,1.456-0.701,2.265-0.809,4.422h14.02C2469.017,335.107,2468.909,334.299,2468.315,332.843z"/>
		<path fill="#414141" d="M2489.616,352.74c-4.477,0-7.981-1.024-10.894-3.828l2.589-2.589c2.103,2.211,4.961,3.074,8.25,3.074
			c4.368,0,7.064-1.564,7.064-4.691c0-2.319-1.348-3.613-4.422-3.883l-4.368-0.378c-5.177-0.431-7.927-2.75-7.927-7.117
			c0-4.854,4.099-7.766,9.761-7.766c3.774,0,7.172,0.917,9.545,2.858l-2.535,2.534c-1.887-1.456-4.313-2.104-7.063-2.104
			c-3.883,0-5.932,1.672-5.932,4.368c0,2.265,1.294,3.613,4.637,3.883l4.261,0.377c4.637,0.432,7.818,2.211,7.818,7.173
			C2500.4,349.774,2496.033,352.74,2489.616,352.74z"/>
		<path fill="#414141" d="M2537.283,352.417v-3.182c-2.157,2.804-4.638,3.505-7.55,3.505c-2.696,0-5.068-0.916-6.471-2.318
			c-2.696-2.696-3.235-7.118-3.235-11.271s0.539-8.574,3.235-11.271c1.402-1.401,3.774-2.318,6.471-2.318
			c2.912,0,5.339,0.647,7.496,3.397v-14.938h3.883v38.395H2537.283z M2530.597,329.014c-5.771,0-6.687,4.961-6.687,10.138
			s0.916,10.138,6.687,10.138c5.77,0,6.633-4.961,6.633-10.138S2536.366,329.014,2530.597,329.014z"/>
		<path fill="#414141" d="M2553.245,340.176c0,5.824,2.75,9.168,7.818,9.168c3.074,0,4.854-0.917,6.956-3.021l2.643,2.319
			c-2.696,2.696-5.177,4.098-9.706,4.098c-7.011,0-11.594-4.206-11.594-13.589c0-8.574,4.152-13.589,10.893-13.589
			c6.849,0,10.893,4.961,10.893,12.834v1.779H2553.245z M2566.456,332.843c-1.024-2.427-3.397-3.991-6.201-3.991
			s-5.177,1.564-6.201,3.991c-0.594,1.456-0.701,2.265-0.809,4.422h14.02C2567.157,335.107,2567.05,334.299,2566.456,332.843z"/>
		<path fill="#414141" d="M2599.458,352.417c-4.638,0-6.741-3.02-6.741-7.064v-31.33h3.883v31.169c0,2.588,0.862,3.882,3.559,3.882
			h2.104v3.344H2599.458z"/>
		<path fill="#414141" d="M2623.885,352.417v-2.534c-2.157,2.156-4.099,2.857-7.657,2.857c-3.667,0-5.824-0.701-7.496-2.427
			c-1.294-1.294-1.995-3.289-1.995-5.392c0-4.638,3.235-7.657,9.167-7.657h7.981v-2.535c0-3.882-1.941-5.823-6.795-5.823
			c-3.397,0-5.123,0.809-6.687,3.02l-2.643-2.427c2.373-3.073,5.069-3.937,9.383-3.937c7.118,0,10.623,3.074,10.623,8.844v18.011
			H2623.885z M2623.885,340.176h-7.441c-3.991,0-5.933,1.618-5.933,4.691c0,3.074,1.888,4.53,6.094,4.53
			c2.265,0,4.26-0.162,5.932-1.779c0.917-0.863,1.349-2.373,1.349-4.584V340.176z"/>
		<path fill="#414141" d="M2645.562,352.74c-4.477,0-7.981-1.024-10.894-3.828l2.589-2.589c2.103,2.211,4.961,3.074,8.25,3.074
			c4.368,0,7.064-1.564,7.064-4.691c0-2.319-1.348-3.613-4.422-3.883l-4.368-0.378c-5.177-0.431-7.927-2.75-7.927-7.117
			c0-4.854,4.099-7.766,9.761-7.766c3.774,0,7.172,0.917,9.545,2.858l-2.535,2.534c-1.887-1.456-4.313-2.104-7.063-2.104
			c-3.883,0-5.932,1.672-5.932,4.368c0,2.265,1.294,3.613,4.637,3.883l4.261,0.377c4.637,0.432,7.818,2.211,7.818,7.173
			C2656.346,349.774,2651.979,352.74,2645.562,352.74z"/>
		<path fill="#414141" d="M2692.421,352.417v-2.534c-2.157,2.156-4.099,2.857-7.657,2.857c-3.667,0-5.824-0.701-7.496-2.427
			c-1.294-1.294-1.995-3.289-1.995-5.392c0-4.638,3.235-7.657,9.167-7.657h7.981v-2.535c0-3.882-1.941-5.823-6.795-5.823
			c-3.397,0-5.123,0.809-6.687,3.02l-2.643-2.427c2.373-3.073,5.069-3.937,9.383-3.937c7.118,0,10.623,3.074,10.623,8.844v18.011
			H2692.421z M2692.421,340.176h-7.441c-3.991,0-5.933,1.618-5.933,4.691c0,3.074,1.888,4.53,6.094,4.53
			c2.265,0,4.26-0.162,5.932-1.779c0.917-0.863,1.349-2.373,1.349-4.584V340.176z"/>
		<path fill="#414141" d="M2720.568,330.955c-1.456-1.456-2.534-1.941-4.584-1.941c-3.882,0-6.363,3.074-6.363,7.118v16.285h-3.882
			v-26.531h3.882v3.235c1.456-2.21,4.368-3.559,7.442-3.559c2.534,0,4.476,0.593,6.362,2.48L2720.568,330.955z"/>
		<path fill="#414141" d="M2735.882,352.417c-4.529,0-6.795-3.182-6.795-7.118v-16.285h-3.343v-2.966h3.343v-8.305h3.883v8.305
			h5.662v2.966h-5.662v16.178c0,2.427,1.133,3.882,3.613,3.882h2.049v3.344H2735.882z"/>
		<path fill="#414141" d="M2748.769,340.176c0,5.824,2.75,9.168,7.818,9.168c3.074,0,4.854-0.917,6.956-3.021l2.643,2.319
			c-2.696,2.696-5.177,4.098-9.706,4.098c-7.011,0-11.594-4.206-11.594-13.589c0-8.574,4.152-13.589,10.893-13.589
			c6.849,0,10.893,4.961,10.893,12.834v1.779H2748.769z M2761.979,332.843c-1.024-2.427-3.397-3.991-6.201-3.991
			s-5.177,1.564-6.201,3.991c-0.594,1.456-0.701,2.265-0.809,4.422h14.02C2762.681,335.107,2762.573,334.299,2761.979,332.843z"/>
		<path fill="#414141" d="M2783.28,352.74c-4.477,0-7.981-1.024-10.894-3.828l2.589-2.589c2.103,2.211,4.961,3.074,8.25,3.074
			c4.368,0,7.064-1.564,7.064-4.691c0-2.319-1.348-3.613-4.422-3.883l-4.368-0.378c-5.177-0.431-7.927-2.75-7.927-7.117
			c0-4.854,4.099-7.766,9.761-7.766c3.774,0,7.172,0.917,9.545,2.858l-2.535,2.534c-1.887-1.456-4.313-2.104-7.063-2.104
			c-3.883,0-5.932,1.672-5.932,4.368c0,2.265,1.294,3.613,4.637,3.883l4.261,0.377c4.637,0.432,7.818,2.211,7.818,7.173
			C2794.064,349.774,2789.697,352.74,2783.28,352.74z"/>
		<path fill="#414141" d="M2823.614,364.604c-3.99,0-6.201-1.024-9.005-3.559l2.534-2.48c1.941,1.726,3.289,2.643,6.363,2.643
			c5.123,0,7.279-3.613,7.279-8.143v-4.152c-2.156,2.75-4.583,3.451-7.441,3.451c-2.696,0-5.015-0.971-6.417-2.373
			c-2.643-2.643-3.235-6.74-3.235-11.055c0-4.313,0.593-8.412,3.235-11.055c1.402-1.401,3.774-2.318,6.471-2.318
			c2.912,0,5.285,0.647,7.442,3.451v-3.128h3.828v27.34C2834.669,359.805,2830.57,364.604,2823.614,364.604z M2824.208,329.014
			c-5.771,0-6.633,4.961-6.633,9.922s0.862,9.923,6.633,9.923c5.77,0,6.578-4.962,6.578-9.923S2829.978,329.014,2824.208,329.014z"
			/>
		<path fill="#414141" d="M2859.204,330.955c-1.456-1.456-2.534-1.941-4.584-1.941c-3.883,0-6.363,3.074-6.363,7.118v16.285h-3.882
			v-26.531h3.882v3.235c1.456-2.21,4.368-3.559,7.442-3.559c2.534,0,4.476,0.593,6.362,2.48L2859.204,330.955z"/>
		<path fill="#414141" d="M2882.121,352.417v-2.534c-2.157,2.156-4.099,2.857-7.657,2.857c-3.667,0-5.824-0.701-7.496-2.427
			c-1.294-1.294-1.995-3.289-1.995-5.392c0-4.638,3.235-7.657,9.167-7.657h7.981v-2.535c0-3.882-1.941-5.823-6.795-5.823
			c-3.397,0-5.123,0.809-6.687,3.02l-2.643-2.427c2.373-3.073,5.069-3.937,9.383-3.937c7.118,0,10.623,3.074,10.623,8.844v18.011
			H2882.121z M2882.121,340.176h-7.441c-3.991,0-5.933,1.618-5.933,4.691c0,3.074,1.888,4.53,6.094,4.53
			c2.265,0,4.26-0.162,5.932-1.779c0.917-0.863,1.349-2.373,1.349-4.584V340.176z M2876.729,320.386h-3.56l4.746-8.25h4.637
			L2876.729,320.386z"/>
		<path fill="#414141" d="M2900.131,329.014v23.403h-3.883v-23.403h-3.397v-2.966h3.397v-5.015c0-3.937,2.211-7.118,6.74-7.118
			h2.805v3.343h-2.104c-2.48,0-3.559,1.456-3.559,3.883v4.907h5.662v2.966H2900.131z M2911.832,317.959v-3.99h4.422v3.99H2911.832z
			 M2912.102,352.417v-26.369h3.883v26.369H2912.102z"/>
		<path fill="#414141" d="M2936.044,352.74c-6.687,0-11.755-4.529-11.755-13.589s5.068-13.589,11.755-13.589
			c3.667,0,5.986,0.971,8.736,3.937l-2.643,2.48c-1.995-2.211-3.559-2.966-6.094-2.966c-2.588,0-4.745,1.024-6.146,3.02
			c-1.24,1.726-1.726,3.775-1.726,7.118c0,3.344,0.485,5.393,1.726,7.118c1.401,1.995,3.559,3.02,6.146,3.02
			c2.535,0,4.099-0.809,6.094-3.02l2.643,2.534C2942.03,351.77,2939.711,352.74,2936.044,352.74z"/>
		<path fill="#414141" d="M2967.212,352.417v-2.534c-2.157,2.156-4.099,2.857-7.657,2.857c-3.667,0-5.824-0.701-7.496-2.427
			c-1.294-1.294-1.995-3.289-1.995-5.392c0-4.638,3.235-7.657,9.167-7.657h7.981v-2.535c0-3.882-1.941-5.823-6.795-5.823
			c-3.397,0-5.123,0.809-6.687,3.02l-2.643-2.427c2.373-3.073,5.069-3.937,9.383-3.937c7.118,0,10.623,3.074,10.623,8.844v18.011
			H2967.212z M2967.212,340.176h-7.441c-3.991,0-5.933,1.618-5.933,4.691c0,3.074,1.888,4.53,6.094,4.53
			c2.265,0,4.26-0.162,5.932-1.779c0.917-0.863,1.349-2.373,1.349-4.584V340.176z"/>
		<path fill="#414141" d="M2988.889,352.74c-4.477,0-7.981-1.024-10.894-3.828l2.589-2.589c2.103,2.211,4.961,3.074,8.25,3.074
			c4.368,0,7.064-1.564,7.064-4.691c0-2.319-1.348-3.613-4.422-3.883l-4.368-0.378c-5.177-0.431-7.927-2.75-7.927-7.117
			c0-4.854,4.099-7.766,9.761-7.766c3.774,0,7.172,0.917,9.545,2.858l-2.535,2.534c-1.887-1.456-4.313-2.104-7.063-2.104
			c-3.883,0-5.932,1.672-5.932,4.368c0,2.265,1.294,3.613,4.637,3.883l4.261,0.377c4.637,0.432,7.818,2.211,7.818,7.173
			C2999.673,349.774,2995.306,352.74,2988.889,352.74z"/>
	</g>
	<g>
		<g>
			<path fill="#FFFFFF" d="M2421.507,184.05h570.463c4.536,0,8.204,3.606,8.204,8.152v71.185c0,4.507-3.668,8.172-8.204,8.172
				h-973.249c-4.527,0-8.13-3.665-8.13-8.172v-71.185c0-4.546,3.603-8.152,8.13-8.152h368.647"/>
			<path fill="#414141" d="M1983.664,182.784h-78.334v22.492h27.956v66.984h22.394v-66.984h27.984V182.784z M1902.029,210.747
				c0-7.671-2.696-14.173-8.239-19.701c-5.429-5.494-12.03-8.262-19.669-8.262h-61.569v89.477h22.419v-66.984h36.913
				c2.128,0,3.95,0.714,5.457,2.251c1.56,1.537,2.288,3.331,2.288,5.506v59.228h22.4V210.747z M1804.812,182.784h-22.446v89.475
				l22.446,0.002V182.784z M1749.961,225.18c-1.503,1.502-3.357,2.3-5.494,2.3h-36.872v-22.205h36.872
				c2.16,0,3.991,0.714,5.479,2.251c1.542,1.511,2.288,3.331,2.288,5.452v6.723C1752.234,221.854,1751.488,223.694,1749.961,225.18
				 M1774.658,210.745c0-7.68-2.75-14.213-8.23-19.704c-5.479-5.491-12.059-8.257-19.713-8.257h-61.558l0.009,89.475h22.429v-22.338
				l29.085,22.338h32.428l-31.314-22.338h8.943c7.656,0,14.212-2.77,19.664-8.206c5.508-5.501,8.258-12.075,8.258-19.819V210.745z
				 M1653.869,225.18c-1.529,1.502-3.347,2.3-5.498,2.3h-36.904v-22.205l36.904-0.067c2.151,0.067,3.969,0.781,5.498,2.318
				c1.506,1.511,2.286,3.331,2.286,5.452v6.723C1656.155,221.854,1655.375,223.668,1653.869,225.18 M1678.569,210.745
				c0-7.68-2.73-14.213-8.296-19.704c-5.428-5.491-12.006-8.257-19.631-8.257h-61.597v89.475h22.421v-22.338l39.223-0.053
				c7.605,0.053,14.156-2.717,19.584-8.153c5.557-5.501,8.296-12.091,8.296-19.819V210.745z M1522.101,249.921
				c-1.842,0-3.422-0.675-4.755-2.052c-1.362-1.305-2.038-2.867-2.038-4.649c0.009-1.765,0.676-3.283,2.038-4.627
				c1.333-1.324,2.921-1.987,4.755-1.987l37.926,0.012v13.304H1522.101z M1582.472,210.745c0-7.671-2.756-14.178-8.269-19.704
				c-5.484-5.491-12.063-8.257-19.713-8.257h-55.93v22.49h54.826c1.791,0,3.331,0.64,4.625,2c1.354,1.272,2.016,2.858,2.016,4.63
				v6.752h-41.316c-7.052,0-13.133,2.708-18.175,8.137c-5.055,5.437-7.566,11.688-7.566,18.668
				c0.029,7.096,2.512,13.334,7.566,18.791c5.042,5.373,11.124,8.007,18.175,8.007h63.761V210.745z M1462.004,227.532l30.457-44.748
				h-28.578l-16.158,26.041l-16.178-26.041l-28.452,0.032l30.396,44.716l-30.396,44.727h28.452l16.178-26.01l16.158,26.01h28.578
				L1462.004,227.532z M1402.548,249.921h-55.945v-13.315h44.75v-17.949h-44.75v-13.382h50.309v-22.49l-72.819,0.032v89.442h78.456
				V249.921z"/>
			<path fill="#3E3E3D" d="M3014.089,195.658c0-0.259,0.074-0.424,0.084-0.699c0.371-4.092,3.778-7.323,7.974-7.323
				c0.251,0,0.48,0,0.761,0.061c4.066,0.336,7.316,3.78,7.316,7.962c0,0.221,0,0.522-0.061,0.687
				c-0.348,4.161-3.797,7.386-7.979,7.386c-0.275,0-0.51,0-0.778-0.059C3017.351,203.336,3014.089,199.861,3014.089,195.658
				 M3022.184,188.333c-3.839,0-6.963,2.956-7.353,6.7v0.625c0,3.864,2.963,7.006,6.681,7.316h0.672c3.82,0,6.94-2.872,7.303-6.672
				c0.009-0.213,0.009-0.424,0.027-0.645c0-3.806-2.948-6.91-6.679-7.325H3022.184"/>
			<path fill="#3E3E3D" d="M3024.613,195.52c-0.176,0.139-0.292,0.211-0.594,0.211h-3.738v-2.271h3.738
				c0.302,0,0.418,0.09,0.594,0.248c0.158,0.171,0.216,0.356,0.216,0.577v0.675C3024.829,195.158,3024.771,195.351,3024.613,195.52
				 M3027.107,193.999c0-0.763-0.241-1.409-0.837-1.998c-0.567-0.524-1.198-0.793-1.949-0.793h-6.31v9.057h2.27v-2.207l2.987,2.207
				h3.283l-3.184-2.207h0.953c0.751,0,1.382-0.312,1.949-0.857c0.596-0.582,0.837-1.233,0.837-2.042V193.999z"/>
			<g>
				<path fill="#E4005A" d="M2040.545,252.737c-0.832,0-1.469-0.361-1.469-1.193c0-0.295,0.076-0.64,0.213-0.983l12.092-35.062
					c-1.697,1.273-4.365,3.035-5.636,3.035c-0.847,0-1.466-0.638-1.466-1.338c0.062-1.407,6.95-4.975,9.613-8.146
					c1.062-1.277,2.812-2.117,4.02-2.117c0.84,0,1.466,0.362,1.466,1.266c0,0.221-0.065,0.573-0.209,0.928l-13.771,40.022
					C2044.699,251.314,2042.168,252.737,2040.545,252.737z"/>
				<path fill="#E4005A" d="M2081.375,206.934c0.846,0,1.536,0.432,1.536,0.918c0,0.348-0.343,0.772-1.257,1.134
					c-13.486,5.531-18.762,19.517-18.762,29.913c0,8.005,3.092,11.166,7.663,11.166c6.954,0,14.257-9.898,14.257-22.48
					c0-6.741-2.666-10.462-4.92-12.777c-0.498-0.494-0.765-0.979-0.765-1.398c0-1.066,1.4-1.836,3.712-1.836
					c5.203,0,7.872,8.157,7.872,13.197c0,21.15-13.763,27.968-21.567,27.968c-8.709,0-12.562-6.183-12.562-13.906
					C2056.582,221.969,2070.767,206.934,2081.375,206.934z"/>
				<path fill="#E4005A" d="M2117.841,206.934c0.827,0,1.546,0.432,1.546,0.918c0,0.348-0.352,0.772-1.261,1.134
					c-13.485,5.531-18.761,19.517-18.761,29.913c0,8.005,3.092,11.166,7.664,11.166c6.954,0,14.256-9.898,14.256-22.48
					c0-6.741-2.675-10.462-4.91-12.777c-0.51-0.494-0.773-0.979-0.773-1.398c0-1.066,1.387-1.836,3.728-1.836
					c5.181,0,7.845,8.157,7.845,13.197c0,21.15-13.774,27.968-21.555,27.968c-8.709,0-12.568-6.183-12.568-13.906
					C2093.051,221.969,2107.229,206.934,2117.841,206.934z"/>
				<path fill="#E4005A" d="M2163.791,208.199c0.625-0.834,2.037-1.266,3.092-1.266c0.834,0,1.549,0.285,1.549,0.84
					c0,0.152-0.059,0.359-0.293,0.646l-31.873,43.057c-0.621,0.837-1.962,1.261-3.023,1.261c-0.904,0-1.606-0.292-1.606-0.849
					c0-0.141,0.062-0.345,0.28-0.64L2163.791,208.199z M2136.543,223.516c0,3.857,1.486,4.986,3.236,4.986
					c3.306,0,6.245-5.476,6.245-10.673c0-4.775-2.452-5.552-2.452-6.468c0-0.77,0.978-1.604,2.392-1.604
					c2.74,0,4.271,3.512,4.271,6.382c0,11.856-8.017,14.821-11.363,14.821c-4.016,0-6.816-2.67-6.816-7.374
					c0-9.136,7.512-16.581,13-16.581c0.685,0,1.258,0.429,1.258,0.92c0,0.348-0.288,0.77-0.988,1.06
					C2139.427,211.361,2136.543,217.196,2136.543,223.516z M2152.691,245.294c0,3.855,1.483,4.981,3.248,4.981
					c3.301,0,6.249-5.482,6.249-10.682c0-4.771-2.46-5.54-2.46-6.453c0-0.781,0.98-1.623,2.389-1.623
					c2.726,0,4.276,3.515,4.276,6.398c0,11.856-8.009,14.821-11.38,14.821c-3.998,0-6.819-2.673-6.819-7.374
					c0-9.145,7.528-16.579,13-16.579c0.709,0,1.271,0.41,1.271,0.906c0,0.357-0.276,0.774-0.983,1.06
					C2155.582,233.141,2152.691,238.968,2152.691,245.294z"/>
			</g>
			<g>
				<path fill="#3B3A39" d="M2178.487,288.07c-1.392,3.878-5.366,6.375-7.979,6.375c-1.261,0-2.13-0.628-2.13-2.001
					c0-0.496,0.118-1.119,0.38-1.877l22.301-64.919c0.248-0.759,0.508-1.375,0.508-1.76c0-0.236-0.133-0.496-0.508-0.496
					c-0.253,0-0.742,0.26-1.361,0.26c-0.621,0-1.497-0.378-1.497-1.266c0-2.098,5.716-6.973,12.091-6.973
					c1.243,0,2.252,0.755,2.252,2.125c0,0.494-0.133,1.117-0.379,1.866l-1.497,4.247c4.615-5.494,9.597-8.238,13.948-8.238
					c6.492,0,9.604,6.105,9.604,11.21c0,4.998-2.248,10.48-4.877,14.472c0,0,1.024,0.116,1.766,0.116
					c4.354,0,5.986-1.741,8.364-4.358c0.485-0.628,1.349-0.987,2.101-0.987c0.742,0,1.377,0.359,1.377,1.238
					c0,0.871-0.506,1.998-1.752,3.486c-3.857,4.487-7.345,5.867-10.708,5.867c-1.62,0-3.125-0.376-4.61-0.879
					c-4.627,5.865-10.858,7.235-14.217,7.235c-3.492,0-6.227-1.76-6.227-4.991c0-2.624,1.74-8.601,10.836-8.601
					c1.873,0,3.992,0.248,6.617,0.737c1.352-3.35,2.106-7.467,2.106-10.589c0-4.233-1.374-7.48-4.991-7.48
					c-4.983,0-11.951,9.355-14.822,17.833L2178.487,288.07z M2202.039,246.583c0,1.24,0.761,2.239,2.357,2.239
					c1.998,0,4.49-1.75,6.498-4.87c-1.632-0.489-3.25-1.117-4.748-1.117C2203.398,242.835,2202.039,244.71,2202.039,246.583z"/>
				<path fill="#3B3A39" d="M2235.425,229.248c-3.495-2.234-4.993-4.727-4.993-8.596c0-7.73,6.727-13.086,11.716-13.086
					c3.491,0,5.489,2.615,5.489,5.61c0,3.491-1.367,6.731-3.496,9.977c3.383,0.858,7.363,0.735,10.107,0.858
					c1.861,0.127,3.245,1.379,3.245,3.616c0,0.883-0.385,1.868-1.132,2.499c-1.742,1.745-8.838,8.466-8.838,13.704
					c0,2.001,0.846,2.88,2.232,2.88c3.11,0,8.971-4.004,13.955-9.857c0.514-0.628,1.369-0.987,2.133-0.987
					c0.741,0,1.354,0.359,1.354,1.238c0,0.871-0.489,1.998-1.729,3.486c-7.727,9.107-13.964,12.224-18.443,12.224
					c-5.262,0-8.122-4.245-8.122-7.984c0-2.974,1.752-7.354,7.111-12.089c-2.484-0.248-4.984-0.869-7.223-1.733
					c-2.617,3.479-5.48,7.101-7.604,9.583c-0.631,0.749-1.493,1.004-2.117,1.004c-0.756,0-1.374-0.383-1.374-1.382
					c0-0.742,0.496-1.861,1.745-3.359C2231.188,234.854,2233.422,231.872,2235.425,229.248z M2240.411,221.273
					c0.864-1.625,1.622-3.734,1.622-5.859c0-2.36-0.618-3.241-1.504-3.241c-1.377,0-2.484,1.991-2.484,3.862
					C2238.045,218.158,2239.279,220.289,2240.411,221.273z"/>
				<path fill="#3B3A39" d="M2296.108,228.249c0,4.11-1.372,8.732-4.228,12.847c0.613,0.116,1.355,0.116,1.983,0.116
					c3.116,0,6.108-1.252,8.858-4.358c0.493-0.628,1.111-0.987,2.102-0.987c0.761,0,1.385,0.359,1.385,1.238
					c0,0.871-0.508,1.998-1.741,3.486c-3.753,4.365-8.243,6.247-12.587,6.247c-1.377,0-2.863-0.255-4.252-0.635
					c-4.604,4.367-10.223,6.611-15.08,6.611c-7.605,0-11.846-5.742-11.846-12.72c0-5.111,2.127-11.102,6.243-15.956
					c2.868-3.358,5.856-5.604,6.853-5.604c0.997,0,1.743,0.999,1.743,2.118c0,0.369-0.12,0.867-0.496,1.238
					c-2.872,2.999-5.489,8.484-5.489,14.335c0,6.243,2.992,11.1,7.357,11.1c2.123,0,4.483-1.122,6.473-3.106
					c-4.986-3.007-8.591-8.484-8.591-14.971c0-5.855,3.36-13.834,10.839-13.834c2.249,0,4.609,0.876,6.611,2.872
					C2294.854,220.78,2296.108,224.392,2296.108,228.249z M2279.16,227.373c0,4.617,3.234,9.237,7.588,11.85
					c1.016-2.496,1.514-5.353,1.514-7.977c0-4.74-1.514-9.727-4.875-9.727C2280.417,221.52,2279.16,224.521,2279.16,227.373z"/>
				<path fill="#3B3A39" d="M2317.022,252.313c1.372,2.862,1.998,7.349,1.998,11.09c0,16.199-11.841,31.167-19.69,31.167
					c-5.488,0-7.604-5.985-7.604-13.346c0-11.087,4.24-27.291,8.346-42.758c10.607-40.379,28.541-66.921,35.662-66.921
					c1.994,0,3.102,1.868,3.102,5.98c0,24.549-17.31,55.596-29.148,66.564c-0.758,0.739-1.887,1.611-2.874,2.62
					c-3.495,13.461-6.493,27.772-6.493,35.263c0,3.486,1.131,5.366,2.754,5.366c3.363,0,7.221-7.615,7.221-23.937
					c0-7.109-1.246-9.097-1.246-10.334c0-1.009,0.496-2.015,1.998-2.754c7.098-3.604,15.201-7.355,20.449-13.462
					c0.492-0.628,1.361-0.987,2.107-0.987c0.747,0,1.38,0.359,1.38,1.238c0,0.871-0.511,1.998-1.741,3.486
					C2329.248,245.199,2323.885,248.822,2317.022,252.313z M2328.998,185.373c-2.873,0-12.834,26.928-20.191,53.729
					c13.324-14.711,20.945-44.617,20.945-51.114C2329.752,186.249,2329.489,185.373,2328.998,185.373z"/>
				<path fill="#3B3A39" d="M2366.132,235.866c0.747,0,1.38,0.359,1.38,1.238c0,0.871-0.506,1.998-1.751,3.486
					c-6.243,7.232-15.079,12.224-23.442,12.224c-8.091,0-14.199-5.362-14.199-13.221c0-11.345,9.35-24.18,23.174-24.18
					c6.248,0,9.223,3.736,9.223,7.612c0,6.718-9.346,15.197-18.068,19.194c-0.496,0.248-0.999,0.361-1.365,0.361
					c-0.994,0-1.74-0.607-1.74-1.486c0-0.756,0.484-1.625,1.74-2.629c7.854-6.233,10.467-11.843,10.467-15.192
					c0-2.369-1.12-3.5-2.861-3.5c-5.363,0-11.47,9.597-11.47,18.081c0,5.734,3.732,8.855,9.105,8.855
					c5.226,0,11.827-2.998,17.696-9.857C2364.51,236.226,2365.391,235.866,2366.132,235.866z"/>
				<path fill="#3B3A39" d="M2371.979,226.884c-1.38-1.994-2.488-4.497-2.488-7.109c0-7.358,8.348-13.707,13.715-13.707
					c2.234,0,3.857,1.131,3.857,3.854c0,3.876-4.105,9.354-6.982,12.979c3.609,4.472,8.356,9.703,8.356,15.565
					c0,0.636-0.137,2.249-0.385,3.128c3.247-0.137,5.231-1.127,8.353-4.741c0.505-0.628,1.369-0.987,2.133-0.987
					c0.732,0,1.372,0.359,1.372,1.238c0,0.871-0.517,1.998-1.757,3.486c-4.621,5.491-8.225,6.861-11.719,6.861
					c-0.38,0-1.121-0.127-1.121-0.127c-3.373,3.982-8.479,5.489-13.471,5.489c-4.479,0-8.592-2.499-8.592-5.617
					c0-3.366,4.609-6.481,13.084-6.481c1.391,0,3.111,0.125,4.362,0.258c-0.241-3.869-3.356-7.229-6.365-10.847l-8.579,10.464
					c-0.506,0.621-1.257,1.004-2.015,1.004c-0.862,0-1.483-0.383-1.483-1.382c0-0.742,0.505-1.861,1.742-3.359
					C2366.231,234.244,2369.361,230.24,2371.979,226.884z M2379.203,245.832c-1.998-0.508-3.861-1.002-5.851-1.002
					c-2.243,0-3.12,1.002-3.12,1.881c0,1.112,1.122,2.236,3.12,2.236C2375.465,248.947,2377.59,247.577,2379.203,245.832z
					 M2377.467,219.405c1.736-2.496,3.111-4.981,3.229-6.738c0-0.865-0.241-1.368-0.876-1.368c-1.245,0-3.486,2.133-3.486,4.377
					C2376.334,217.036,2376.589,217.794,2377.467,219.405z"/>
				<path fill="#3B3A39" d="M2403.734,242.96c-0.232,0.871-0.494,1.87-0.494,2.496c0,1.002,0.375,1.616,1.244,1.616
					c1.893,0,6.728-3.241,12.723-10.219c0.76-0.859,1.488-0.987,2.116-0.987c0.874,0,1.5,0.359,1.5,1.238
					c0,0.751-0.501,1.998-1.88,3.486c-6.836,8.104-13.705,12.224-18.059,12.224c-4.629,0-6.729-2.745-6.729-6.982
					c0-1.37,0.237-2.997,0.742-4.62c1.868-6.481,4.979-12.455,6.345-15.318c0.387-0.89,0.633-1.372,0.633-1.755
					c0-0.363-0.246-0.486-0.633-0.486c-0.357,0-0.737,0.123-1.113,0.123c-0.869,0-1.745-0.383-1.745-1.264
					c0-2.482,6.606-7.098,12.968-7.098c1.736,0,2.486,0.755,2.486,1.873c0,1.62-1.365,4.232-2.739,7.234
					C2408.729,229.631,2405.728,236.226,2403.734,242.96z M2418.572,201.211c0,3.356-3.488,7.104-7.597,7.104
					c-2.874,0-5.104-1.986-5.104-4.613c0-3.613,3.854-7.1,7.715-7.1C2416.33,196.603,2418.572,198.225,2418.572,201.211z"/>
				<path fill="#3B3A39" d="M2449.605,228.249c0,4.11-1.373,8.732-4.242,12.847c0.627,0.116,1.383,0.116,2.002,0.116
					c3.106,0,6.105-1.252,8.842-4.358c0.486-0.628,1.124-0.987,2.123-0.987c0.742,0,1.37,0.359,1.37,1.238
					c0,0.871-0.503,1.998-1.745,3.486c-3.734,4.365-8.23,6.247-12.592,6.247c-1.366,0-2.861-0.255-4.238-0.635
					c-4.611,4.367-10.213,6.611-15.077,6.611c-7.594,0-11.843-5.742-11.843-12.72c0-5.111,2.121-11.102,6.23-15.956
					c2.863-3.358,5.863-5.604,6.851-5.604c1.009,0,1.753,0.999,1.753,2.118c0,0.369-0.131,0.867-0.502,1.238
					c-2.865,2.999-5.475,8.484-5.475,14.335c0,6.243,2.985,11.1,7.339,11.1c2.128,0,4.511-1.122,6.483-3.106
					c-4.977-3.007-8.59-8.484-8.59-14.971c0-5.855,3.358-13.834,10.851-13.834c2.229,0,4.595,0.876,6.588,2.872
					C2448.354,220.78,2449.605,224.392,2449.605,228.249z M2432.652,227.373c0,4.617,3.243,9.237,7.602,11.85
					c1.004-2.496,1.502-5.353,1.502-7.977c0-4.74-1.502-9.727-4.871-9.727C2433.902,221.52,2432.652,224.521,2432.652,227.373z"/>
				<path fill="#3B3A39" d="M2482.484,245.324c0,0.999,0.263,1.748,1.127,1.748c2.003,0,6.736-3.241,12.723-10.219
					c0.625-0.628,1.367-0.987,2.111-0.987c0.879,0,1.488,0.359,1.488,1.365c0,0.744-0.609,1.871-1.854,3.359
					c-6.851,8.104-13.716,12.224-18.081,12.224c-4.477,0-6.594-2.745-6.594-6.855c0-1.374,0.239-2.999,0.738-4.747
					c2.611-9.222,6.729-14.947,6.729-16.69c0-0.51-0.24-0.746-0.611-0.746c-2.879,0-14.22,10.341-16.574,17.198l-1.888,5.484
					c-1.242,3.857-5.356,6.356-7.97,6.356c-1.254,0-2.135-0.633-2.135-1.999c0-0.5,0.127-1.117,0.392-1.868l7.978-23.299
					c0.252-0.759,0.493-1.375,0.493-1.76c0-0.236-0.128-0.496-0.493-0.496c-0.248,0-0.764,0.137-1.125,0.137
					c-0.869,0-1.752-0.376-1.752-1.261c0-1.979,6.001-6.854,12.1-6.854c1.223,0,2.117,0.621,2.117,2.125
					c0,0.494-0.119,1.117-0.367,1.866l-2.871,8.348c6.221-7.101,15.201-12.339,20.186-12.339c2.105,0,3.616,1.117,3.616,3.368
					c0,1.247-0.614,3.361-1.745,5.739c-2.369,4.85-5.484,12.089-7.36,18.438C2482.605,243.831,2482.484,244.71,2482.484,245.324z"/>
				<path fill="#3B3A39" d="M2519.25,252.814c-3.727,0-5.617-1.999-6.002-4.991c-2.857,3.231-6.344,4.991-9.821,4.991
					c-5.744,0-10.61-4.868-10.61-11.356c0-11.331,11.598-26.044,26.302-26.044c6.247,0,11.093,2.498,11.093,7.487
					c0,6.215-5.48,7.474-7.479,7.474c-1.734,0-4.492-0.511-4.492-2.126c0-1.743,3.871-0.751,3.871-4.72
					c0-2.508-2.49-3.378-4.996-3.378c-8.957,0-15.45,12.453-15.45,20.188c0,3.491,1.38,6.985,4.627,6.985
					c2.62,0,6.834-3.735,8.978-9.217c1.361-3.742,5.223-6.236,7.834-6.236c1.377,0,2.262,0.621,2.262,1.998
					c0,0.496-0.139,1.113-0.396,1.864c-0.488,1.622-3.111,9.096-3.111,10.225c0,0.624,0.254,1.113,1.004,1.113
					c1.869,0,6.728-3.241,12.706-10.219c0.503-0.628,1.384-0.987,2.13-0.987c0.742,0,1.377,0.359,1.377,1.238
					c0,0.871-0.51,1.998-1.742,3.486C2530.453,248.694,2523.613,252.814,2519.25,252.814z"/>
				<path fill="#3B3A39" d="M2543.407,236.226c0.376,7.364,1.88,9.978,3.743,9.978c2.863,0,7.113-3.982,11.712-9.35
					c0.624-0.628,1.384-0.987,2.138-0.987c0.859,0,1.497,0.359,1.497,1.365c0,0.744-0.638,1.871-1.89,3.359
					c-7.467,8.857-12.972,12.224-17.2,12.224c-6.099,0-8.844-7.358-8.844-15.71c0-30.423,20.433-65.559,27.934-65.559
					c1.72,0,2.858,1.868,2.858,5.98C2565.355,192.733,2553.888,222.144,2543.407,236.226z M2543.407,229.371
					c8.724-15.693,12.85-39.376,12.85-41.383c0-1.991-0.251-2.856-0.763-2.856c-2.354,0-8.719,19.064-11.213,34.776
					C2543.783,223.274,2543.407,226.624,2543.407,229.371z"/>
				<path fill="#3B3A39" d="M2593.516,235.866c0.732,0,1.37,0.359,1.37,1.238c0,0.871-0.501,1.998-1.755,3.486
					c-6.227,7.232-15.07,12.224-23.43,12.224c-8.1,0-14.207-5.362-14.207-13.221c0-11.345,9.354-24.18,23.186-24.18
					c6.227,0,9.229,3.736,9.229,7.612c0,6.718-9.355,15.197-18.082,19.194c-0.5,0.248-1.003,0.361-1.369,0.361
					c-0.994,0-1.75-0.607-1.75-1.486c0-0.756,0.51-1.625,1.75-2.629c7.85-6.233,10.476-11.843,10.476-15.192
					c0-2.369-1.129-3.5-2.874-3.5c-5.355,0-11.455,9.597-11.455,18.081c0,5.734,3.727,8.855,9.09,8.855
					c5.239,0,11.846-2.998,17.701-9.857C2591.881,236.226,2592.756,235.866,2593.516,235.866z"/>
				<path fill="#3B3A39" d="M2599.357,226.884c-1.504-2.246-2.622-4.497-2.622-7.109c0-7.358,8.601-13.707,13.839-13.707
					c2.23,0,3.857,1.131,3.857,3.854c0,3.876-4.109,9.354-7.102,13.104c3.611,4.472,8.477,9.715,8.477,15.44
					c6.618,0.879,11.331,3.626,11.331,8.244c0,2.494-2.232,7.84-4.599,7.84c-0.504,0-0.881-0.244-0.881-0.874
					c0-0.862,0.767-1.616,0.767-3.238c0-3.113-2.749-5.482-7.751-6.607c-2.615,6.739-9.465,8.983-15.316,8.983
					c-2.867,0-8.854-1.252-8.854-5.114c0-3.748,5.861-7.74,17.074-9.107c-1.113-2.988-3.605-5.605-5.852-8.466l-8.605,10.464
					c-0.508,0.621-1.365,1.004-2.115,1.004c-0.742,0-1.373-0.383-1.373-1.382c0-0.742,0.496-1.861,1.748-3.359
					C2593.615,234.244,2596.735,230.24,2599.357,226.884z M2607.82,243.085c-4.986,0-10.837,0.378-10.837,3.626
					c0,1.49,0.99,2.359,2.757,2.359C2603.213,249.07,2606.836,246.838,2607.82,243.085z M2603.593,215.676
					c0,1.36,0.493,2.482,1.259,3.729c1.613-2.496,3.097-4.981,3.215-6.738c0-0.865-0.246-1.368-0.859-1.368
					C2605.707,211.299,2603.593,213.55,2603.593,215.676z"/>
				<path fill="#3B3A39" d="M2656.026,233.769c3.011-12.047,9.942-22.688,12.948-22.688c0.837,0,1.407,0.897,1.407,3.002
					c0,7.831-5.897,22.963-11.272,30.191c0.194,3.797,0.952,5.137,1.912,5.137c1.483,0,3.658-2.052,6.092-4.799
					c0.27-0.338,0.719-0.521,1.099-0.521c0.376,0,0.696,0.184,0.696,0.645c0,0.44-0.241,1.021-0.891,1.794
					c-3.848,4.551-6.792,6.285-8.908,6.285c-1.932,0-3.201-1.412-3.911-3.528c-2.179,2.239-4.675,3.528-6.981,3.528
					c-3.346,0-5.781-2.706-5.781-6.479c0-6.347,6.295-12.689,11.926-12.689C2654.557,233.646,2655.261,233.646,2656.026,233.769z
					 M2649.871,250.049c1.35,0,3.088-1.018,4.809-2.951c-0.065-0.763-0.123-1.537-0.123-2.362c0-1.092,0.058-2.307,0.123-3.403
					c-0.766-0.12-1.594-0.442-1.594-1.089c0-0.763,2.043-0.332,2.043-2.364c0-1.025-0.899-1.41-1.595-1.41
					c-3.798,0-6.483,4.611-6.483,9.092C2647.051,248.321,2648.154,250.049,2649.871,250.049z M2659.109,240.76
					c4.553-8.076,6.597-20.253,6.597-21.287c0-1.02-0.127-1.47-0.38-1.47c-1.217,0-4.548,9.814-5.77,17.884
					C2659.304,237.478,2659.109,239.988,2659.109,240.76z"/>
				<path fill="#3B3A39" d="M2684.931,244.091c0.39,0,0.714,0.184,0.714,0.645c0,0.44-0.26,1.021-0.904,1.794
					c-3.194,3.714-7.747,6.285-12.04,6.285c-4.163,0-7.312-2.766-7.312-6.795c0-5.835,4.812-12.43,11.911-12.43
					c3.222,0,4.742,1.91,4.742,3.888c0,3.478-4.803,7.826-9.291,9.882c-0.255,0.13-0.519,0.192-0.704,0.192
					c-0.513,0-0.904-0.311-0.904-0.77c0-0.375,0.264-0.823,0.904-1.347c4.05-3.201,5.4-6.09,5.4-7.819
					c0-1.217-0.586-1.794-1.474-1.794c-2.764,0-5.904,4.938-5.904,9.291c0,2.958,1.917,4.553,4.676,4.553
					c2.702,0,6.092-1.544,9.096-5.054C2684.092,244.274,2684.555,244.091,2684.931,244.091z"/>
				<path fill="#3B3A39" d="M2693.962,246.203c0,0-0.064-0.705-0.064-1.468c0-15.651,10.459-33.715,14.36-33.715
					c0.842,0,1.412,0.958,1.412,3.062c0,7.831-5.897,23.021-11.294,30.261c0.206,3.728,0.974,5.067,2.003,5.067
					c1.409,0,3.723-2.052,6.026-4.799c0.255-0.338,0.705-0.521,1.09-0.521c0.38,0,0.7,0.184,0.7,0.645
					c0,0.44-0.25,1.021-0.899,1.794c-3.839,4.551-6.783,6.285-8.92,6.285c-2.158,0-3.51-1.925-4.085-4.493
					c-0.267,0.188-0.837,0.647-1.4,1.022c-0.653,0.459-1.358,0.705-1.678,0.705c-0.575,0-0.899-0.327-0.899-0.763
					c0-0.255,0.125-0.506,0.464-0.776C2691.665,247.941,2693.002,246.973,2693.962,246.203z M2704.613,218.003
					c-1.222,0-4.49,9.814-5.774,17.884c-0.257,1.79-0.37,3.459-0.463,4.931c4.566-8.009,6.618-20.311,6.618-21.345
					C2704.994,218.453,2704.804,218.003,2704.613,218.003z"/>
				<path fill="#3B3A39" d="M2718.195,252.814c-1.929,0-2.879-1.036-3.083-2.571c-1.475,1.657-3.269,2.571-5.054,2.571
					c-2.958,0-5.445-2.499-5.445-5.842c0-5.828,5.956-13.383,13.52-13.383c3.197,0,5.698,1.264,5.698,3.839
					c0,3.196-2.803,3.846-3.844,3.846c-0.901,0-2.311-0.262-2.311-1.09c0-0.901,1.993-0.392,1.993-2.438
					c0-1.277-1.279-1.731-2.56-1.731c-4.615,0-7.96,6.414-7.96,10.393c0,1.794,0.719,3.581,2.369,3.581
					c1.358,0,3.547-1.917,4.61-4.747c0.712-1.922,2.701-3.202,4.048-3.202c0.704,0,1.152,0.315,1.152,1.029
					c0,0.251-0.059,0.575-0.195,0.951c-0.253,0.834-1.59,4.685-1.59,5.267c0,0.312,0.125,0.574,0.519,0.574
					c0.965,0,3.459-1.659,6.533-5.248c0.25-0.338,0.702-0.521,1.089-0.521c0.371,0,0.698,0.184,0.698,0.645
					c0,0.44-0.258,1.021-0.899,1.794C2723.968,250.693,2720.435,252.814,2718.195,252.814z"/>
				<path fill="#3B3A39" d="M2730.69,239.48c-0.774-1.154-1.345-2.316-1.345-3.658c0-3.781,4.414-7.042,7.116-7.042
					c1.15,0,1.982,0.562,1.982,1.981c0,1.979-2.116,4.801-3.658,6.716c1.876,2.315,4.367,5.007,4.367,7.958
					c3.396,0.447,5.83,1.868,5.83,4.23c0,1.284-1.154,4.041-2.362,4.041c-0.267,0-0.451-0.126-0.451-0.443
					c0-0.449,0.38-0.842,0.38-1.669c0-1.606-1.419-2.814-3.974-3.394c-1.349,3.463-4.879,4.613-7.886,4.613
					c-1.479,0-4.558-0.656-4.558-2.632c0-1.924,3.027-3.979,8.785-4.685c-0.569-1.546-1.854-2.874-3.004-4.354l-4.43,5.385
					c-0.267,0.322-0.707,0.499-1.078,0.499c-0.396,0-0.709-0.177-0.709-0.693c0-0.376,0.241-0.967,0.885-1.723
					C2727.732,243.264,2729.346,241.212,2730.69,239.48z M2735.058,247.805c-2.573,0-5.589,0.199-5.589,1.861
					c0,0.772,0.508,1.224,1.411,1.224C2732.679,250.89,2734.543,249.722,2735.058,247.805z M2732.864,233.706
					c0,0.7,0.263,1.281,0.643,1.924c0.842-1.289,1.602-2.566,1.667-3.459c0-0.447-0.116-0.695-0.445-0.695
					C2733.964,231.476,2732.864,232.604,2732.864,233.706z"/>
				<path fill="#3B3A39" d="M2765.239,252.814c-1.919,0-2.877-1.036-3.083-2.571c-1.465,1.657-3.262,2.571-5.065,2.571
					c-2.935,0-5.436-2.499-5.436-5.842c0-5.828,5.955-13.383,13.52-13.383c3.203,0,5.697,1.264,5.697,3.839
					c0,3.196-2.812,3.846-3.848,3.846c-0.895,0-2.288-0.262-2.288-1.09c0-0.901,1.982-0.392,1.982-2.438
					c0-1.277-1.303-1.731-2.578-1.731c-4.604,0-7.938,6.414-7.938,10.393c0,1.794,0.698,3.581,2.369,3.581
					c1.345,0,3.523-1.917,4.608-4.747c0.71-1.922,2.703-3.202,4.038-3.202c0.705,0,1.159,0.315,1.159,1.029
					c0,0.251-0.069,0.575-0.199,0.951c-0.255,0.834-1.602,4.685-1.602,5.267c0,0.312,0.142,0.574,0.517,0.574
					c0.967,0,3.459-1.659,6.542-5.248c0.253-0.338,0.704-0.521,1.09-0.521c0.38,0,0.704,0.184,0.704,0.645
					c0,0.44-0.271,1.021-0.899,1.794C2771.007,250.693,2767.485,252.814,2765.239,252.814z"/>
				<path fill="#3B3A39" d="M2776.714,240.692c-1.812-1.156-2.568-2.425-2.568-4.423c0-3.978,3.459-6.723,6.018-6.723
					c1.804,0,2.824,1.352,2.824,2.875c0,1.801-0.703,3.465-1.797,5.132c1.736,0.44,3.785,0.383,5.199,0.44
					c0.955,0.072,1.665,0.71,1.665,1.876c0,0.436-0.195,0.947-0.585,1.274c-0.895,0.895-4.543,4.354-4.543,7.057
					c0,1.026,0.452,1.465,1.149,1.465c1.604,0,4.611-2.049,7.17-5.054c0.267-0.338,0.724-0.521,1.104-0.521
					c0.371,0,0.702,0.184,0.702,0.645c0,0.44-0.264,1.021-0.901,1.794c-3.971,4.664-7.175,6.285-9.485,6.285
					c-2.691,0-4.166-2.18-4.166-4.11c0-1.537,0.888-3.771,3.653-6.22c-1.284-0.13-2.56-0.445-3.711-0.89
					c-1.356,1.796-2.826,3.646-3.911,4.935c-0.324,0.381-0.76,0.499-1.094,0.499c-0.39,0-0.705-0.177-0.705-0.693
					c0-0.376,0.253-0.967,0.904-1.723C2774.53,243.574,2775.696,242.039,2776.714,240.692z M2779.269,236.599
					c0.452-0.83,0.832-1.929,0.832-3.009c0-1.23-0.317-1.678-0.763-1.678c-0.702,0-1.293,1.024-1.293,1.993
					C2778.045,234.987,2778.698,236.072,2779.269,236.599z"/>
				<path fill="#3B3A39" d="M2813.233,226.219c0,0.825-1.284,1.975-2.703,1.975h-7.158c-2.184,6.095-5.206,12.184-8.071,16.081
					c0.181,3.797,0.955,5.137,1.915,5.137c1.404,0,3.644-2.052,6.018-4.799c0.324-0.338,0.778-0.521,1.085-0.521
					c0.447,0,0.774,0.184,0.774,0.645c0,0.378-0.26,1.021-0.965,1.794c-3.834,4.551-6.718,6.285-8.906,6.285
					c-3.071,0-4.483-3.783-4.483-8.079c0-5.521,1.275-11.287,3.148-16.542h-4.173c-0.7,0-1.026-0.253-1.026-0.649
					c0-0.815,1.279-1.973,2.754-1.973h3.458c3.331-8.336,7.963-14.49,10.193-14.49c0.899,0,1.47,0.897,1.47,3.002
					c0,3.019-0.874,7.19-2.3,11.488h7.941C2812.985,225.571,2813.233,225.824,2813.233,226.219z M2795.301,240.76
					c2.109-3.778,3.704-8.533,4.803-12.566h-2.754C2796.256,232.171,2795.301,237.429,2795.301,240.76z M2801.497,218.003
					c-0.698,0-2.112,3.271-3.387,7.568h2.626c0.761-3.217,1.157-5.635,1.157-6.099
					C2801.894,218.453,2801.759,218.003,2801.497,218.003z"/>
				<path fill="#3B3A39" d="M2821.053,244.091c0.387,0,0.709,0.184,0.709,0.645c0,0.44-0.271,1.021-0.899,1.794
					c-3.196,3.714-7.749,6.285-12.045,6.285c-4.175,0-7.312-2.766-7.312-6.795c0-5.835,4.806-12.43,11.923-12.43
					c3.21,0,4.752,1.91,4.752,3.888c0,3.478-4.824,7.826-9.31,9.882c-0.248,0.13-0.51,0.192-0.7,0.192
					c-0.52,0-0.891-0.311-0.891-0.77c0-0.375,0.248-0.823,0.891-1.347c4.033-3.201,5.395-6.09,5.395-7.819
					c0-1.217-0.58-1.794-1.479-1.794c-2.77,0-5.904,4.938-5.904,9.291c0,2.958,1.934,4.553,4.688,4.553
					c2.696,0,6.088-1.544,9.094-5.054C2820.229,244.274,2820.682,244.091,2821.053,244.091z"/>
				<path fill="#3B3A39" d="M2824.063,239.48c-0.77-1.154-1.344-2.316-1.344-3.658c0-3.781,4.418-7.042,7.114-7.042
					c1.151,0,1.975,0.562,1.975,1.981c0,1.979-2.103,4.801-3.648,6.716c1.87,2.315,4.365,5.007,4.365,7.958
					c3.407,0.447,5.827,1.868,5.827,4.23c0,1.284-1.154,4.041-2.369,4.041c-0.245,0-0.444-0.126-0.444-0.443
					c0-0.449,0.394-0.842,0.394-1.669c0-1.606-1.423-2.814-3.987-3.394c-1.345,3.463-4.88,4.613-7.882,4.613
					c-1.47,0-4.553-0.656-4.553-2.632c0-1.924,3.017-3.979,8.781-4.685c-0.57-1.546-1.854-2.874-3.014-4.354l-4.416,5.385
					c-0.262,0.322-0.714,0.499-1.099,0.499c-0.371,0-0.697-0.177-0.697-0.693c0-0.376,0.255-0.967,0.896-1.723
					C2821.125,243.264,2822.72,241.212,2824.063,239.48z M2828.422,247.805c-2.573,0-5.577,0.199-5.577,1.861
					c0,0.772,0.52,1.224,1.409,1.224C2826.044,250.89,2827.912,249.722,2828.422,247.805z M2826.243,233.706
					c0,0.7,0.241,1.281,0.642,1.924c0.837-1.289,1.598-2.566,1.674-3.459c0-0.447-0.137-0.695-0.456-0.695
					C2827.342,231.476,2826.243,232.604,2826.243,233.706z"/>
				<path fill="#3B3A39" d="M2873.365,237.616c1.655,0.45,3.645,0.378,5.047,0.45c1.036,0.071,1.679,0.901,1.679,1.845
					c0,0.466-0.204,0.979-0.575,1.301c-0.904,0.897-4.544,4.423-4.544,7.047c0,0.969,0.438,1.407,1.125,1.407
					c1.61,0,4.627-2.049,7.186-5.054c0.263-0.338,0.714-0.521,1.099-0.521c0.371,0,0.774,0.253,0.774,0.717
					c0,0.368-0.317,0.948-0.978,1.722c-3.969,4.736-7.168,6.343-9.468,6.343c-2.717,0-4.182-2.179-4.182-4.092
					c0-1.613,0.895-3.848,3.728-6.296c-1.358-0.13-2.698-0.445-3.927-0.89c-4.87,6.092-8.503,9.543-11.653,12.112
					c-1.166,4.427-2.302,9.103-3.088,13.199c-1.212,6.416-5.109,10-8.586,10c-3.327,0-4.871-3.264-4.871-6.468
					c0-5.64,4.748-11.092,11.869-16.08l0.886-3.408c-1.345,1.208-2.875,1.864-4.349,1.864c-3.019,0-5.508-2.499-5.508-5.842
					c0-5.698,5.952-13.383,13.589-13.383c3.139,0,5.638,1.264,5.638,3.839c0,3.196-2.812,3.846-3.854,3.846
					c-0.89,0-2.299-0.262-2.299-1.09c0-0.839,2.042-0.392,2.042-2.373c0-1.28-1.279-1.797-2.636-1.797
					c-4.154,0-7.939,5.842-7.939,10.393c0,1.794,0.7,3.581,2.378,3.581c1.407,0,3.464-1.917,4.676-4.747
					c0.64-1.922,2.698-3.202,4.038-3.202c0.636,0,1.164,0.315,1.164,1.085c0,0.267-0.069,0.589-0.211,0.896
					c-0.508,1.541-1.275,4.052-1.853,5.969c3.408-2.821,5.837-5.376,8.846-9.363c-1.671-1.145-2.432-2.357-2.432-4.283
					c0-3.982,3.457-6.734,6.022-6.734c1.797,0,2.821,1.22,2.821,2.814C2875.021,234.223,2874.45,235.95,2873.365,237.616z
					 M2853.161,258.326c-3.723,2.814-6.662,7.499-6.662,12.312c0,2.617,1.145,3.575,2.049,3.575c1.022,0,1.664-1.53,2.318-4.676
					C2851.555,265.881,2852.396,261.973,2853.161,258.326z M2871.372,236.654c0.371-0.886,0.761-1.984,0.761-3.009
					c0-1.224-0.312-1.733-0.761-1.733c-0.589,0-1.352,0.829-1.352,1.993C2870.021,234.854,2870.596,235.887,2871.372,236.654z"/>
				<path fill="#3B3A39" d="M2895.075,252.814c-1.918,0-2.896-1.036-3.067-2.571c-1.488,1.657-3.282,2.571-5.067,2.571
					c-2.944,0-5.462-2.499-5.462-5.842c0-5.828,5.972-13.383,13.538-13.383c3.189,0,5.7,1.264,5.7,3.839
					c0,3.196-2.816,3.846-3.851,3.846c-0.892,0-2.295-0.262-2.295-1.09c0-0.901,1.984-0.392,1.984-2.438
					c0-1.277-1.296-1.731-2.58-1.731c-4.61,0-7.943,6.414-7.943,10.393c0,1.794,0.709,3.581,2.369,3.581
					c1.36,0,3.539-1.917,4.608-4.747c0.718-1.922,2.707-3.202,4.049-3.202c0.717,0,1.147,0.315,1.147,1.029
					c0,0.251-0.053,0.575-0.181,0.951c-0.25,0.834-1.604,4.685-1.604,5.267c0,0.312,0.134,0.574,0.523,0.574
					c0.955,0,3.459-1.659,6.517-5.248c0.275-0.338,0.723-0.521,1.107-0.521c0.376,0,0.688,0.184,0.688,0.645
					c0,0.44-0.25,1.021-0.899,1.794C2900.835,250.693,2897.325,252.814,2895.075,252.814z M2891.169,230.762
					c-0.445,0-0.71-0.324-0.71-0.7c0-0.582,0.459-1.224,1.178-1.674l9.655-5.834c0.257-0.199,0.515-0.26,0.776-0.26
					c0.515,0,0.832,0.452,0.832,0.904c0,0.134-0.071,0.194-0.071,0.317l-0.955,2.703c-0.255,0.77-0.51,1.077-1.419,1.397
					l-8.712,3.021C2891.549,230.692,2891.358,230.762,2891.169,230.762z"/>
				<path fill="#3B3A39" d="M2918.865,241.856c1.011-2.123,1.584-3.403,1.584-3.719c0-0.201-0.123-0.326-0.318-0.326
					c-0.12,0-0.382,0.125-0.64,0.125c-0.44,0-0.774-0.26-0.774-0.698c0-0.454,0.52-1.166,1.294-1.738
					c1.409-1.022,3.324-1.91,5.309-1.91c0.908,0,1.289,0.376,1.289,0.943c0,0.71-0.643,2.065-1.407,3.734
					c-1.217,2.622-2.757,6.076-3.721,9.483c-0.13,0.45-0.255,0.897-0.255,1.218c0,0.507,0.194,0.892,0.648,0.892
					c0.963,0,3.445-1.659,6.528-5.248c0.246-0.338,0.705-0.521,1.09-0.521s0.714,0.184,0.714,0.645c0,0.44-0.27,1.021-0.909,1.794
					c-3.521,4.164-7.061,6.285-9.286,6.285c-2.374,0-3.528-1.343-3.528-3.471c0-0.438,0.061-0.897,0.195-1.402
					c-2.124,1.986-3.983,3.009-5.833,4.286c0.765,1.998,1.085,3.982,1.085,5.969c0,8.396-6.099,16.017-10.19,16.017
					c-2.816,0-3.848-3.074-3.848-6.788c0-5.709,2.116-14.038,4.228-21.989c5.448-20.768,14.753-34.415,18.396-34.415
					c1.021,0,1.598,0.958,1.598,3.062c0,12.646-8.913,28.599-15.052,34.238l-1.479,1.4c-1.731,6.871-3.338,14.762-3.338,18.151
					c0,1.727,0.655,2.705,1.406,2.705c1.348,0,3.102-2.643,3.596-8.093c0.135-1.279,0.19-2.685,0.19-4.289
					c0-2.049-0.19-3.72-0.503-4.545c-0.062-0.265-0.118-0.513-0.118-0.643c0-0.526,0.245-1.036,1.001-1.483
					C2912.442,248.648,2916.604,246.474,2918.865,241.856z M2917.066,218.133c-1.483,0-6.611,13.779-10.39,27.623
					c6.854-7.618,10.766-22.945,10.766-26.283C2917.442,218.587,2917.312,218.133,2917.066,218.133z M2929.044,226.276
					c0,1.72-1.794,3.64-3.915,3.64c-1.479,0-2.631-1.016-2.631-2.372c0-1.848,1.989-3.646,3.976-3.646
					C2927.883,223.897,2929.044,224.73,2929.044,226.276z"/>
				<path fill="#3B3A39" d="M2931.281,245.113c0,2.958,1.91,4.553,4.683,4.553c2.685,0,6.09-1.544,9.097-5.054
					c0.252-0.338,0.7-0.521,1.099-0.521c0.371,0,0.709,0.184,0.709,0.645c0,0.44-0.267,1.021-0.908,1.794
					c-3.139,3.714-7.759,6.285-12.045,6.285c-4.229,0-7.307-2.766-7.307-6.795c0-6.149,5.118-12.43,11.919-12.43
					c2.814,0,4.942,1.653,4.942,3.964c0,2.631-2.313,5.07-4.821,5.07c-1.537,0-2.43-0.965-2.43-1.807
					c0-0.44,0.381-1.024,1.024-1.024c0.13,0,0.251,0,0.312,0c0.329,0,1.474-0.13,1.474-1.981c0-0.904-0.38-1.925-1.655-1.925
					C2934.096,235.887,2931.281,241.08,2931.281,245.113z"/>
				<path fill="#3B3A39" d="M2956.857,252.814c-1.932,0-2.877-1.036-3.086-2.571c-1.47,1.657-3.264,2.571-5.054,2.571
					c-2.957,0-5.456-2.499-5.456-5.842c0-5.828,5.971-13.383,13.528-13.383c3.208,0,5.695,1.264,5.695,3.839
					c0,3.196-2.807,3.846-3.846,3.846c-0.879,0-2.285-0.262-2.285-1.09c0-0.901,1.979-0.392,1.979-2.438
					c0-1.277-1.284-1.731-2.571-1.731c-4.608,0-7.948,6.414-7.948,10.393c0,1.794,0.7,3.581,2.369,3.581
					c1.347,0,3.523-1.917,4.612-4.747c0.715-1.922,2.694-3.202,4.05-3.202c0.698,0,1.152,0.315,1.152,1.029
					c0,0.251-0.067,0.575-0.194,0.951c-0.26,0.834-1.6,4.685-1.6,5.267c0,0.312,0.13,0.574,0.52,0.574
					c0.955,0,3.458-1.659,6.534-5.248c0.253-0.338,0.705-0.521,1.085-0.521c0.385,0,0.702,0.184,0.702,0.645
					c0,0.44-0.245,1.021-0.896,1.794C2962.627,250.693,2959.09,252.814,2956.857,252.814z"/>
				<path fill="#3B3A39" d="M2969.34,239.48c-0.76-1.154-1.337-2.316-1.337-3.658c0-3.781,4.416-7.042,7.121-7.042
					c1.152,0,1.978,0.562,1.978,1.981c0,1.979-2.109,4.801-3.658,6.716c1.861,2.315,4.377,5.007,4.377,7.958
					c3.379,0.447,5.818,1.868,5.818,4.23c0,1.284-1.154,4.041-2.365,4.041c-0.264,0-0.459-0.126-0.459-0.443
					c0-0.449,0.385-0.842,0.385-1.669c0-1.606-1.409-2.814-3.968-3.394c-1.336,3.463-4.871,4.613-7.892,4.613
					c-1.47,0-4.548-0.656-4.548-2.632c0-1.924,3.021-3.979,8.79-4.685c-0.565-1.546-1.854-2.874-3.021-4.354l-4.413,5.385
					c-0.248,0.322-0.7,0.499-1.099,0.499c-0.378,0-0.71-0.177-0.71-0.693c0-0.376,0.267-0.967,0.909-1.723
					C2966.41,243.264,2968.003,241.212,2969.34,239.48z M2973.717,247.805c-2.56,0-5.582,0.199-5.582,1.861
					c0,0.772,0.515,1.224,1.409,1.224C2971.343,250.89,2973.193,249.722,2973.717,247.805z M2971.528,233.706
					c0,0.7,0.255,1.281,0.646,1.924c0.842-1.289,1.598-2.566,1.66-3.459c0-0.447-0.118-0.695-0.457-0.695
					C2972.623,231.476,2971.528,232.604,2971.528,233.706z"/>
			</g>
			<path fill="none" stroke="#3E3E3D" stroke-width="0.4565" d="M2161.736,271.559h-146.199c-4.521,0-8.131-3.665-8.131-8.172
				v-71.185c0-4.546,3.609-8.152,8.131-8.152h292.908"/>
			<line fill="none" stroke="#3E3E3D" stroke-width="0.4565" x1="2286.145" y1="271.559" x2="2195.268" y2="271.559"/>
			<line fill="none" stroke="#3E3E3D" stroke-width="0.4565" x1="2834.225" y1="271.559" x2="2324.871" y2="271.559"/>
			<line fill="none" stroke="#3E3E3D" stroke-width="0.4565" x1="2891.266" y1="271.559" x2="2859.042" y2="271.559"/>
			<path fill="none" stroke="#3E3E3D" stroke-width="0.4565" d="M2574.85,184.05h417.12c4.536,0,8.204,3.606,8.204,8.152v71.185
				c0,4.507-3.668,8.172-8.204,8.172h-76.892"/>
			<line fill="none" stroke="#3E3E3D" stroke-width="0.4565" x1="2351.595" y1="184.05" x2="2537.809" y2="184.05"/>
		</g>
	</g>
</g>
<rect id="_x3C_Tranche_x3E_" x="-116.484" y="5.93" fill="none" width="3287.969" height="526.073"/>
</svg>
