<?xml version="1.0" encoding="UTF-8" standalone="no"?>
<!-- Generator: Adobe Illustrator 16.0.0, SVG Export Plug-In . SVG Version: 6.00 Build 0)  -->

<svg
   xmlns:dc="http://purl.org/dc/elements/1.1/"
   xmlns:cc="http://creativecommons.org/ns#"
   xmlns:rdf="http://www.w3.org/1999/02/22-rdf-syntax-ns#"
   xmlns:svg="http://www.w3.org/2000/svg"
   xmlns="http://www.w3.org/2000/svg"
   xmlns:sodipodi="http://sodipodi.sourceforge.net/DTD/sodipodi-0.dtd"
   xmlns:inkscape="http://www.inkscape.org/namespaces/inkscape"
   version="1.1"
   id="Calque_1"
   x="0px"
   y="0px"
   width="744.09448"
   height="106.29921"
   viewBox="0 142.804 744.09448 106.29921"
   enable-background="new 0 142.804 3056 389.199"
   xml:space="preserve"
   inkscape:version="0.48.2 r9819"
   sodipodi:docname="header.svg"><metadata
   id="metadata17699"><rdf:RDF><cc:Work
       rdf:about=""><dc:format>image/svg+xml</dc:format><dc:type
         rdf:resource="http://purl.org/dc/dcmitype/StillImage" /><dc:title /></cc:Work></rdf:RDF></metadata><defs
   id="defs17697" /><sodipodi:namedview
   pagecolor="#000000"
   bordercolor="#666666"
   borderopacity="1"
   objecttolerance="10"
   gridtolerance="10"
   guidetolerance="10"
   inkscape:pageopacity="0"
   inkscape:pageshadow="2"
   inkscape:window-width="1680"
   inkscape:window-height="948"
   id="namedview17695"
   showgrid="false"
   units="cm"
   inkscape:zoom="0.83297919"
   inkscape:cx="281.03735"
   inkscape:cy="-237.58416"
   inkscape:window-x="0"
   inkscape:window-y="0"
   inkscape:window-maximized="1"
   inkscape:current-layer="Calque_1" />



<g
   id="g17701"
   transform="matrix(0.24090815,0,0,0.24090815,3.5779446,185.09256)"><g
     transform="translate(0,-282.89941)"
     id="Calque_1_1_">
</g><g
     transform="translate(0,-282.89941)"
     id="g17436">
	<polygon
   style="fill:#8dc63f"
   id="polygon17438"
   points="156.556,325.732 192.224,430.716 222.961,429.452 170.375,293.801 " />
	<polygon
   style="fill:#0066b3"
   id="polygon17440"
   points="261.125,215.08 156.554,325.732 160.502,265.312 218.317,217.945 " />
	<polygon
   style="fill:#bfd730"
   id="polygon17442"
   points="218.317,217.945 269.911,297.616 340.392,276.273 263.358,212.574 " />
	<polygon
   style="fill:#f37021"
   id="polygon17444"
   points="435.565,161.768 340.392,276.273 269.911,297.623 359.819,178.72 " />
	<polygon
   style="fill:#522e91"
   id="polygon17446"
   points="224.162,432.552 238.608,422.194 226.705,419.822 192.221,430.716 " />
	<polygon
   style="fill:#f067a6"
   id="polygon17448"
   points="241.798,419.906 284.981,523.694 257.835,517.756 226.707,419.822 " />
	<polygon
   style="fill:#a3238e"
   id="polygon17450"
   points="351.653,410.789 315.751,530.776 282.942,512.521 312.571,426.884 " />
	<polygon
   style="fill:#00a651"
   id="polygon17452"
   points="436.126,407.396 350.742,446.115 312.571,426.879 353.383,406.697 " />
	<polygon
   style="fill:#00aeef"
   id="polygon17454"
   points="487.496,328.375 442.28,407.451 350.742,446.115 481.665,199.271 " />
	<polygon
   style="fill:#ed1164"
   id="polygon17456"
   points="359.598,178.785 487.496,328.375 485.478,192.094 439.438,156.86 " />
	<polygon
   style="fill:#ed1164"
   id="polygon17458"
   points="648.274,483.293 315.751,530.776 282.942,512.521 594.692,468.681 " />
	<polygon
   style="fill:#f37021"
   id="polygon17460"
   points="648.274,483.293 918.479,491.367 949.867,476.285 594.692,468.681 " />
	<polygon
   style="fill:#bfd730"
   id="polygon17462"
   points="918.698,458.802 918.479,491.367 949.867,476.285 935.806,444.207 " />
	<polygon
   style="fill:#0066b3"
   id="polygon17464"
   points="918.698,458.802 1067.041,491.271 1052.979,471.289 935.806,444.207 " />
	<polygon
   style="fill:#8dc63f"
   id="polygon17466"
   points="1668.613,471.679 1067.041,491.271 1052.979,471.289 1612.742,449.835 " />
	<polygon
   style="fill:#522e91"
   id="polygon17468"
   points="1668.613,471.679 1855.745,508.146 1841.685,488.165 1612.742,449.835 " />
	<polygon
   style="fill:#f067a6"
   id="polygon17470"
   points="2312.949,463.155 1855.745,508.146 1841.685,488.165 2343.402,449.194 " />
	<polygon
   style="fill:#a3238e"
   id="polygon17472"
   points="2312.949,463.155 3074.063,505.019 3074.063,454.067 2343.402,449.194 " />
	<polygon
   style="fill:#a3238e"
   id="polygon17474"
   points="89.106,527.133 284.981,523.694 257.835,517.756 103.165,513.071 " />
	<polygon
   style="fill:#00aeef"
   id="polygon17476"
   points="89.106,527.133 -19.063,508.384 -19.063,475.576 103.165,513.071 " />
</g><g
     transform="translate(0,-282.89941)"
     id="g17478">
	<g
   id="g17480">
		<path
   style="fill:#414141"
   inkscape:connector-curvature="0"
   id="path17482"
   d="m 1324.442,352.417 v -38.396 h 4.099 v 34.729 h 19.629 v 3.667 h -23.728 z" />
		<path
   style="fill:#414141"
   inkscape:connector-curvature="0"
   id="path17484"
   d="m 1369.685,352.417 v -2.534 c -2.156,2.156 -4.098,2.857 -7.656,2.857 -3.667,0 -5.824,-0.701 -7.496,-2.428 -1.294,-1.293 -1.995,-3.289 -1.995,-5.392 0,-4.638 3.235,-7.657 9.167,-7.657 h 7.98 v -2.535 c 0,-3.881 -1.941,-5.822 -6.795,-5.822 -3.396,0 -5.123,0.809 -6.687,3.02 l -2.642,-2.427 c 2.373,-3.073 5.068,-3.937 9.383,-3.937 7.118,0 10.623,3.073 10.623,8.844 v 18.011 h -3.882 z m 0,-12.241 h -7.44 c -3.99,0 -5.933,1.618 -5.933,4.691 0,3.074 1.888,4.529 6.094,4.529 2.265,0 4.26,-0.162 5.932,-1.778 0.917,-0.863 1.348,-2.373 1.348,-4.584 v -2.858 z" />
		<path
   style="fill:#414141"
   inkscape:connector-curvature="0"
   id="path17486"
   d="m 1396.215,318.337 v -4.368 h 4.368 v 4.368 h -4.368 z m 0.216,34.08 v -26.531 h 3.883 v 26.531 h -3.883 z" />
		<path
   style="fill:#414141"
   inkscape:connector-curvature="0"
   id="path17488"
   d="m 1444.153,352.417 v -16.339 c 0,-4.691 -2.535,-7.064 -6.525,-7.064 -3.883,0 -6.633,2.428 -6.633,6.633 v 16.771 h -3.883 v -16.339 c 0,-4.69 -2.534,-7.063 -6.524,-7.063 -3.991,0 -6.633,2.426 -6.633,7.063 v 16.339 h -3.884 v -26.531 h 3.884 v 2.912 c 1.887,-2.156 4.53,-3.234 7.495,-3.234 3.668,0 6.525,1.51 8.144,4.422 2.049,-2.912 5.015,-4.422 8.735,-4.422 2.858,0 5.23,0.916 6.849,2.479 1.887,1.834 2.858,4.313 2.858,7.388 v 16.986 l -3.883,-0.001 0,0 z" />
		<path
   style="fill:#414141"
   inkscape:connector-curvature="0"
   id="path17490"
   d="m 1475.319,350.422 c -1.401,1.402 -3.773,2.318 -6.471,2.318 -2.912,0 -5.339,-0.701 -7.496,-3.451 v 14.99 h -3.883 v -38.395 h 3.883 v 3.129 c 2.157,-2.805 4.584,-3.451 7.496,-3.451 2.696,0 5.069,0.916 6.471,2.317 2.697,2.696 3.235,7.118 3.235,11.271 10e-4,4.155 -0.537,8.577 -3.235,11.272 z m -7.278,-21.408 c -5.771,0 -6.687,4.961 -6.687,10.139 0,5.177 0.916,10.138 6.687,10.138 5.771,0 6.633,-4.961 6.633,-10.138 0,-5.178 -0.862,-10.139 -6.633,-10.139 z" />
		<path
   style="fill:#414141"
   inkscape:connector-curvature="0"
   id="path17492"
   d="m 1501.688,330.955 c -1.455,-1.456 -2.535,-1.941 -4.584,-1.941 -3.881,0 -6.362,3.074 -6.362,7.118 v 16.285 h -3.884 v -26.531 h 3.884 v 3.235 c 1.456,-2.21 4.368,-3.559 7.44,-3.559 2.535,0 4.477,0.592 6.363,2.479 l -2.857,2.914 z" />
		<path
   style="fill:#414141"
   inkscape:connector-curvature="0"
   id="path17494"
   d="m 1511.988,340.176 c 0,5.824 2.75,9.168 7.819,9.168 3.073,0 4.854,-0.917 6.957,-3.021 l 2.642,2.319 c -2.696,2.695 -5.177,4.098 -9.706,4.098 -7.01,0 -11.594,-4.206 -11.594,-13.59 0,-8.573 4.151,-13.588 10.893,-13.588 6.849,0 10.893,4.961 10.893,12.834 v 1.778 l -17.904,0.002 0,0 z m 13.211,-7.333 c -1.024,-2.427 -3.397,-3.991 -6.201,-3.991 -2.804,0 -5.177,1.564 -6.201,3.991 -0.593,1.456 -0.701,2.265 -0.81,4.423 h 14.021 c -0.109,-2.159 -0.216,-2.967 -0.809,-4.423 z" />
		<path
   style="fill:#414141"
   inkscape:connector-curvature="0"
   id="path17496"
   d="m 1555.128,352.417 v -16.339 c 0,-4.691 -2.535,-7.064 -6.525,-7.064 -3.989,0 -6.578,2.428 -6.578,7.064 v 16.339 h -3.883 v -26.531 h 3.883 v 2.912 c 1.888,-2.157 4.477,-3.235 7.441,-3.235 2.857,0 5.178,0.863 6.794,2.48 1.888,1.834 2.75,4.314 2.75,7.389 v 16.985 h -3.882 z" />
		<path
   style="fill:#414141"
   inkscape:connector-curvature="0"
   id="path17498"
   d="m 1575.888,352.417 c -4.529,0 -6.795,-3.183 -6.795,-7.118 v -16.285 h -3.343 v -2.966 h 3.343 v -8.305 h 3.883 v 8.305 h 5.662 v 2.966 h -5.662 v 16.178 c 0,2.428 1.133,3.883 3.613,3.883 h 2.049 v 3.344 l -2.75,-0.002 0,0 z" />
		<path
   style="fill:#414141"
   inkscape:connector-curvature="0"
   id="path17500"
   d="m 1601.394,352.417 v -2.534 c -2.156,2.156 -4.099,2.857 -7.656,2.857 -3.667,0 -5.824,-0.701 -7.496,-2.428 -1.294,-1.293 -1.995,-3.289 -1.995,-5.392 0,-4.638 3.235,-7.657 9.167,-7.657 h 7.98 v -2.535 c 0,-3.881 -1.94,-5.822 -6.795,-5.822 -3.396,0 -5.123,0.809 -6.687,3.02 l -2.644,-2.427 c 2.373,-3.073 5.069,-3.937 9.384,-3.937 7.118,0 10.623,3.073 10.623,8.844 v 18.011 h -3.881 z m 0,-12.241 h -7.44 c -3.991,0 -5.933,1.618 -5.933,4.691 0,3.074 1.888,4.529 6.094,4.529 2.265,0 4.26,-0.162 5.932,-1.778 0.917,-0.863 1.35,-2.373 1.35,-4.584 v -2.858 h 0 z" />
		<path
   style="fill:#414141"
   inkscape:connector-curvature="0"
   id="path17502"
   d="m 1630.565,340.176 c 0,5.824 2.75,9.168 7.817,9.168 3.074,0 4.854,-0.917 6.956,-3.021 l 2.643,2.319 c -2.695,2.695 -5.177,4.098 -9.705,4.098 -7.012,0 -11.595,-4.206 -11.595,-13.59 0,-8.573 4.152,-13.588 10.894,-13.588 6.849,0 10.893,4.961 10.893,12.834 v 1.778 l -17.903,0.002 0,0 z m 13.211,-7.333 c -1.024,-2.427 -3.397,-3.991 -6.201,-3.991 -2.805,0 -5.178,1.564 -6.201,3.991 -0.594,1.456 -0.701,2.265 -0.809,4.423 h 14.02 c -0.107,-2.159 -0.215,-2.967 -0.809,-4.423 z" />
		<path
   style="fill:#414141"
   inkscape:connector-curvature="0"
   id="path17504"
   d="m 1671.169,352.417 -6.363,-10.3 -6.471,10.3 h -4.691 l 9.006,-13.535 -8.627,-12.996 h 4.69 l 6.093,9.814 5.986,-9.814 h 4.691 l -8.629,12.996 9.006,13.535 h -4.691 z" />
		<path
   style="fill:#414141"
   inkscape:connector-curvature="0"
   id="path17506"
   d="m 1700.342,350.422 c -1.401,1.402 -3.774,2.318 -6.471,2.318 -2.912,0 -5.339,-0.701 -7.496,-3.451 v 14.99 h -3.882 v -38.395 h 3.882 v 3.129 c 2.157,-2.805 4.584,-3.451 7.496,-3.451 2.696,0 5.067,0.916 6.471,2.317 2.696,2.696 3.235,7.118 3.235,11.271 0,4.155 -0.539,8.577 -3.235,11.272 z m -7.28,-21.408 c -5.771,0 -6.688,4.961 -6.688,10.139 0,5.177 0.917,10.138 6.688,10.138 5.771,0 6.633,-4.961 6.633,-10.138 -10e-4,-5.178 -0.863,-10.139 -6.633,-10.139 z" />
		<path
   style="fill:#414141"
   inkscape:connector-curvature="0"
   id="path17508"
   d="m 1726.711,330.955 c -1.456,-1.456 -2.534,-1.941 -4.584,-1.941 -3.882,0 -6.362,3.074 -6.362,7.118 v 16.285 h -3.883 v -26.531 h 3.883 v 3.235 c 1.455,-2.21 4.367,-3.559 7.441,-3.559 2.534,0 4.477,0.592 6.362,2.479 l -2.857,2.914 z" />
		<path
   style="fill:#414141"
   inkscape:connector-curvature="0"
   id="path17510"
   d="m 1737.011,340.176 c 0,5.824 2.75,9.168 7.818,9.168 3.074,0 4.854,-0.917 6.956,-3.021 l 2.643,2.319 c -2.696,2.695 -5.177,4.098 -9.706,4.098 -7.011,0 -11.594,-4.206 -11.594,-13.59 0,-8.573 4.152,-13.588 10.893,-13.588 6.85,0 10.894,4.961 10.894,12.834 v 1.778 l -17.904,0.002 0,0 z m 13.211,-7.333 c -1.023,-2.427 -3.396,-3.991 -6.201,-3.991 -2.804,0 -5.177,1.564 -6.201,3.991 -0.594,1.456 -0.7,2.265 -0.809,4.423 h 14.021 c -0.109,-2.159 -0.217,-2.967 -0.81,-4.423 z m -5.123,-12.457 h -3.559 l 4.745,-8.25 h 4.638 l -5.824,8.25 z" />
		<path
   style="fill:#414141"
   inkscape:connector-curvature="0"
   id="path17512"
   d="m 1771.521,352.74 c -4.477,0 -7.98,-1.024 -10.894,-3.828 l 2.589,-2.589 c 2.104,2.211 4.961,3.073 8.25,3.073 4.368,0 7.064,-1.563 7.064,-4.69 0,-2.319 -1.349,-3.613 -4.422,-3.883 l -4.369,-0.378 c -5.176,-0.432 -7.926,-2.75 -7.926,-7.117 0,-4.854 4.099,-7.766 9.76,-7.766 3.774,0 7.173,0.916 9.546,2.857 l -2.535,2.534 c -1.888,-1.456 -4.313,-2.104 -7.063,-2.104 -3.883,0 -5.932,1.672 -5.932,4.368 0,2.265 1.294,3.613 4.637,3.884 l 4.262,0.377 c 4.637,0.432 7.817,2.211 7.817,7.172 10e-4,5.123 -4.367,8.09 -10.784,8.09 z" />
		<path
   style="fill:#414141"
   inkscape:connector-curvature="0"
   id="path17514"
   d="m 1818.165,330.955 c -1.456,-1.456 -2.534,-1.941 -4.584,-1.941 -3.883,0 -6.363,3.074 -6.363,7.118 v 16.285 h -3.882 v -26.531 h 3.882 v 3.235 c 1.456,-2.21 4.368,-3.559 7.442,-3.559 2.534,0 4.476,0.592 6.362,2.479 l -2.857,2.914 z" />
		<path
   style="fill:#414141"
   inkscape:connector-curvature="0"
   id="path17516"
   d="m 1828.464,340.176 c 0,5.824 2.75,9.168 7.818,9.168 3.074,0 4.854,-0.917 6.956,-3.021 l 2.643,2.319 c -2.696,2.695 -5.177,4.098 -9.706,4.098 -7.011,0 -11.594,-4.206 -11.594,-13.59 0,-8.573 4.152,-13.588 10.893,-13.588 6.85,0 10.893,4.961 10.893,12.834 v 1.778 l -17.903,0.002 0,0 z m 13.211,-7.333 c -1.023,-2.427 -3.396,-3.991 -6.201,-3.991 -2.804,0 -5.177,1.564 -6.201,3.991 -0.594,1.456 -0.701,2.265 -0.809,4.423 h 14.02 c -0.108,-2.159 -0.215,-2.967 -0.809,-4.423 z" />
		<path
   style="fill:#414141"
   inkscape:connector-curvature="0"
   id="path17518"
   d="m 1862.976,352.74 c -4.478,0 -7.981,-1.024 -10.895,-3.828 l 2.589,-2.589 c 2.103,2.211 4.961,3.073 8.25,3.073 4.368,0 7.063,-1.563 7.063,-4.69 0,-2.319 -1.348,-3.613 -4.422,-3.883 l -4.367,-0.378 c -5.178,-0.432 -7.928,-2.75 -7.928,-7.117 0,-4.854 4.1,-7.766 9.762,-7.766 3.773,0 7.172,0.916 9.545,2.857 l -2.535,2.534 c -1.887,-1.456 -4.313,-2.104 -7.063,-2.104 -3.883,0 -5.932,1.672 -5.932,4.368 0,2.265 1.294,3.613 4.637,3.884 l 4.261,0.377 c 4.637,0.432 7.818,2.211 7.818,7.172 0,5.123 -4.367,8.09 -10.783,8.09 z" />
		<path
   style="fill:#414141"
   inkscape:connector-curvature="0"
   id="path17520"
   d="m 1883.789,340.176 c 0,5.824 2.75,9.168 7.817,9.168 3.074,0 4.854,-0.917 6.957,-3.021 l 2.643,2.319 c -2.696,2.695 -5.178,4.098 -9.706,4.098 -7.011,0 -11.595,-4.206 -11.595,-13.59 0,-8.573 4.152,-13.588 10.894,-13.588 6.849,0 10.894,4.961 10.894,12.834 v 1.778 l -17.904,0.002 0,0 z M 1897,332.843 c -1.024,-2.427 -3.397,-3.991 -6.201,-3.991 -2.804,0 -5.177,1.564 -6.201,3.991 -0.594,1.456 -0.7,2.265 -0.809,4.423 h 14.021 c -0.109,-2.159 -0.216,-2.967 -0.81,-4.423 z" />
		<path
   style="fill:#414141"
   inkscape:connector-curvature="0"
   id="path17522"
   d="m 1924.771,330.955 c -1.455,-1.456 -2.533,-1.941 -4.584,-1.941 -3.881,0 -6.362,3.074 -6.362,7.118 v 16.285 h -3.882 v -26.531 h 3.882 v 3.235 c 1.456,-2.21 4.368,-3.559 7.442,-3.559 2.533,0 4.476,0.592 6.361,2.479 l -2.857,2.914 z" />
		<path
   style="fill:#414141"
   inkscape:connector-curvature="0"
   id="path17524"
   d="m 1941.541,352.417 h -3.451 l -9.707,-26.531 h 4.206 l 7.227,21.302 7.279,-21.302 h 4.207 l -9.761,26.531 z" />
		<path
   style="fill:#414141"
   inkscape:connector-curvature="0"
   id="path17526"
   d="m 1971.792,352.417 v -2.534 c -2.157,2.156 -4.1,2.857 -7.657,2.857 -3.667,0 -5.823,-0.701 -7.495,-2.428 -1.295,-1.293 -1.996,-3.289 -1.996,-5.392 0,-4.638 3.235,-7.657 9.168,-7.657 h 7.98 v -2.535 c 0,-3.881 -1.941,-5.822 -6.795,-5.822 -3.396,0 -5.123,0.809 -6.688,3.02 l -2.643,-2.427 c 2.373,-3.073 5.068,-3.937 9.383,-3.937 7.118,0 10.623,3.073 10.623,8.844 v 18.011 h -3.88 z m 0,-12.241 h -7.441 c -3.99,0 -5.933,1.618 -5.933,4.691 0,3.074 1.888,4.529 6.094,4.529 2.265,0 4.261,-0.162 5.933,-1.778 0.916,-0.863 1.349,-2.373 1.349,-4.584 l 0,-2.858 0,0 z" />
		<path
   style="fill:#414141"
   inkscape:connector-curvature="0"
   id="path17528"
   d="m 2000.964,352.417 v -3.183 c -2.156,2.805 -4.638,3.506 -7.55,3.506 -2.696,0 -5.068,-0.916 -6.472,-2.318 -2.695,-2.695 -3.234,-7.117 -3.234,-11.271 0,-4.152 0.539,-8.573 3.234,-11.271 1.402,-1.401 3.774,-2.317 6.472,-2.317 2.912,0 5.339,0.646 7.496,3.396 v -14.938 h 3.883 v 38.395 l -3.829,10e-4 0,0 z m -6.688,-23.403 c -5.771,0 -6.687,4.961 -6.687,10.139 0,5.177 0.916,10.138 6.687,10.138 5.771,0 6.634,-4.961 6.634,-10.138 0,-5.178 -0.863,-10.139 -6.634,-10.139 z" />
		<path
   style="fill:#414141"
   inkscape:connector-curvature="0"
   id="path17530"
   d="m 2029.544,352.417 v -2.534 c -2.157,2.156 -4.1,2.857 -7.657,2.857 -3.667,0 -5.823,-0.701 -7.495,-2.428 -1.295,-1.293 -1.996,-3.289 -1.996,-5.392 0,-4.638 3.235,-7.657 9.168,-7.657 h 7.98 v -2.535 c 0,-3.881 -1.941,-5.822 -6.795,-5.822 -3.396,0 -5.123,0.809 -6.688,3.02 l -2.643,-2.427 c 2.373,-3.073 5.068,-3.937 9.383,-3.937 7.118,0 10.623,3.073 10.623,8.844 v 18.011 h -3.88 z m 0,-12.241 h -7.441 c -3.99,0 -5.933,1.618 -5.933,4.691 0,3.074 1.888,4.529 6.094,4.529 2.265,0 4.261,-0.162 5.933,-1.778 0.916,-0.863 1.349,-2.373 1.349,-4.584 l 0,-2.858 0,0 z" />
		<path
   style="fill:#414141"
   inkscape:connector-curvature="0"
   id="path17532"
   d="m 2071.334,352.417 v -2.534 c -2.157,2.156 -4.099,2.857 -7.657,2.857 -3.667,0 -5.824,-0.701 -7.496,-2.428 -1.294,-1.293 -1.995,-3.289 -1.995,-5.392 0,-4.638 3.235,-7.657 9.167,-7.657 h 7.981 v -2.535 c 0,-3.881 -1.941,-5.822 -6.795,-5.822 -3.397,0 -5.123,0.809 -6.688,3.02 l -2.643,-2.427 c 2.373,-3.073 5.069,-3.937 9.383,-3.937 7.118,0 10.623,3.073 10.623,8.844 v 18.011 h -3.88 z m 0,-12.241 h -7.44 c -3.991,0 -5.934,1.618 -5.934,4.691 0,3.074 1.888,4.529 6.094,4.529 2.266,0 4.26,-0.162 5.932,-1.778 0.918,-0.863 1.35,-2.373 1.35,-4.584 l 0,-2.858 0,0 z" />
		<path
   style="fill:#414141"
   inkscape:connector-curvature="0"
   id="path17534"
   d="m 2104.711,352.417 c -4.638,0 -6.741,-3.021 -6.741,-7.063 v -31.33 h 3.883 v 31.168 c 0,2.589 0.863,3.883 3.56,3.883 h 2.104 v 3.344 l -2.806,-0.002 0,0 z" />
		<path
   style="fill:#414141"
   inkscape:connector-curvature="0"
   id="path17536"
   d="m 2131.134,349.721 c -1.834,1.834 -4.367,3.021 -7.604,3.021 -3.237,0 -5.771,-1.187 -7.604,-3.021 -2.696,-2.75 -3.235,-6.471 -3.235,-10.568 0,-4.097 0.539,-7.819 3.235,-10.569 1.834,-1.833 4.368,-3.021 7.604,-3.021 3.236,0 5.77,1.188 7.604,3.021 2.696,2.75 3.235,6.472 3.235,10.569 0,4.097 -0.539,7.818 -3.235,10.568 z m -2.75,-18.766 c -1.24,-1.24 -2.966,-1.941 -4.854,-1.941 -1.889,0 -3.56,0.701 -4.799,1.941 -1.941,1.941 -2.157,5.23 -2.157,8.195 0,2.967 0.216,6.257 2.157,8.197 1.239,1.239 2.91,1.94 4.799,1.94 1.888,0 3.613,-0.701 4.854,-1.94 1.941,-1.94 2.104,-5.23 2.104,-8.197 -10e-4,-2.964 -0.163,-6.254 -2.104,-8.195 z" />
		<path
   style="fill:#414141"
   inkscape:connector-curvature="0"
   id="path17538"
   d="m 2151.032,352.74 c -4.478,0 -7.981,-1.024 -10.895,-3.828 l 2.59,-2.589 c 2.103,2.211 4.961,3.073 8.25,3.073 4.367,0 7.063,-1.563 7.063,-4.69 0,-2.319 -1.348,-3.613 -4.422,-3.883 l -4.368,-0.378 c -5.177,-0.432 -7.927,-2.75 -7.927,-7.117 0,-4.854 4.099,-7.766 9.761,-7.766 3.773,0 7.172,0.916 9.545,2.857 l -2.535,2.534 c -1.887,-1.456 -4.312,-2.104 -7.062,-2.104 -3.883,0 -5.932,1.672 -5.932,4.368 0,2.265 1.293,3.613 4.637,3.884 l 4.261,0.377 c 4.637,0.432 7.818,2.211 7.818,7.172 -10e-4,5.123 -4.367,8.09 -10.784,8.09 z" />
		<path
   style="fill:#414141"
   inkscape:connector-curvature="0"
   id="path17540"
   d="m 2200.694,350.422 c -1.402,1.402 -3.774,2.318 -6.471,2.318 -2.912,0 -5.34,-0.701 -7.496,-3.451 v 14.99 h -3.883 v -38.395 h 3.883 v 3.129 c 2.156,-2.805 4.584,-3.451 7.496,-3.451 2.695,0 5.067,0.916 6.471,2.317 2.695,2.696 3.234,7.118 3.234,11.271 0,4.155 -0.536,8.577 -3.234,11.272 z m -7.279,-21.408 c -5.771,0 -6.688,4.961 -6.688,10.139 0,5.177 0.916,10.138 6.688,10.138 5.77,0 6.632,-4.961 6.632,-10.138 0,-5.178 -0.862,-10.139 -6.632,-10.139 z" />
		<path
   style="fill:#414141"
   inkscape:connector-curvature="0"
   id="path17542"
   d="m 2227.063,330.955 c -1.457,-1.456 -2.534,-1.941 -4.584,-1.941 -3.884,0 -6.363,3.074 -6.363,7.118 v 16.285 h -3.883 v -26.531 h 3.883 v 3.235 c 1.456,-2.21 4.367,-3.559 7.441,-3.559 2.534,0 4.477,0.592 6.362,2.479 l -2.856,2.914 z" />
		<path
   style="fill:#414141"
   inkscape:connector-curvature="0"
   id="path17544"
   d="m 2251.976,349.721 c -1.834,1.834 -4.367,3.021 -7.604,3.021 -3.237,0 -5.77,-1.187 -7.604,-3.021 -2.696,-2.75 -3.235,-6.471 -3.235,-10.568 0,-4.097 0.539,-7.819 3.235,-10.569 1.834,-1.833 4.367,-3.021 7.604,-3.021 3.237,0 5.77,1.188 7.604,3.021 2.696,2.75 3.235,6.472 3.235,10.569 0,4.097 -0.539,7.818 -3.235,10.568 z m -2.75,-18.766 c -1.239,-1.24 -2.966,-1.941 -4.854,-1.941 -1.888,0 -3.559,0.701 -4.799,1.941 -1.941,1.941 -2.157,5.23 -2.157,8.195 0,2.967 0.216,6.257 2.157,8.197 1.24,1.239 2.91,1.94 4.799,1.94 1.889,0 3.613,-0.701 4.854,-1.94 1.941,-1.94 2.104,-5.23 2.104,-8.197 -10e-4,-2.964 -0.163,-6.254 -2.104,-8.195 z" />
		<path
   style="fill:#414141"
   inkscape:connector-curvature="0"
   id="path17546"
   d="m 2268.261,329.014 v 23.403 h -3.883 v -23.403 h -3.396 v -2.966 h 3.396 v -5.015 c 0,-3.938 2.211,-7.118 6.741,-7.118 h 2.804 v 3.343 h -2.104 c -2.48,0 -3.56,1.456 -3.56,3.883 v 4.907 h 5.662 v 2.966 h -5.66 z" />
		<path
   style="fill:#414141"
   inkscape:connector-curvature="0"
   id="path17548"
   d="m 2282.874,340.176 c 0,5.824 2.75,9.168 7.818,9.168 3.074,0 4.854,-0.917 6.956,-3.021 l 2.643,2.319 c -2.696,2.695 -5.177,4.098 -9.706,4.098 -7.011,0 -11.594,-4.206 -11.594,-13.59 0,-8.573 4.152,-13.588 10.893,-13.588 6.85,0 10.894,4.961 10.894,12.834 v 1.778 l -17.904,0.002 0,0 z m 13.211,-7.333 c -1.023,-2.427 -3.396,-3.991 -6.201,-3.991 -2.804,0 -5.177,1.564 -6.201,3.991 -0.594,1.456 -0.7,2.265 -0.809,4.423 h 14.02 c -0.108,-2.159 -0.215,-2.967 -0.809,-4.423 z" />
		<path
   style="fill:#414141"
   inkscape:connector-curvature="0"
   id="path17550"
   d="m 2317.386,352.74 c -4.477,0 -7.98,-1.024 -10.894,-3.828 l 2.589,-2.589 c 2.104,2.211 4.961,3.073 8.25,3.073 4.368,0 7.064,-1.563 7.064,-4.69 0,-2.319 -1.349,-3.613 -4.423,-3.883 l -4.368,-0.378 c -5.177,-0.432 -7.927,-2.75 -7.927,-7.117 0,-4.854 4.1,-7.766 9.761,-7.766 3.774,0 7.173,0.916 9.545,2.857 l -2.534,2.534 c -1.888,-1.456 -4.313,-2.104 -7.063,-2.104 -3.883,0 -5.932,1.672 -5.932,4.368 0,2.265 1.294,3.613 4.637,3.884 l 4.262,0.377 c 4.637,0.432 7.817,2.211 7.817,7.172 0,5.123 -4.367,8.09 -10.784,8.09 z" />
		<path
   style="fill:#414141"
   inkscape:connector-curvature="0"
   id="path17552"
   d="m 2335.557,318.337 v -4.368 h 4.368 v 4.368 h -4.368 z m 0.215,34.08 v -26.531 h 3.882 v 26.531 h -3.882 z" />
		<path
   style="fill:#414141"
   inkscape:connector-curvature="0"
   id="path17554"
   d="m 2366.455,349.721 c -1.834,1.834 -4.368,3.021 -7.604,3.021 -3.235,0 -5.77,-1.187 -7.604,-3.021 -2.696,-2.75 -3.235,-6.471 -3.235,-10.568 0,-4.097 0.539,-7.819 3.235,-10.569 1.834,-1.833 4.368,-3.021 7.604,-3.021 3.236,0 5.771,1.188 7.604,3.021 2.696,2.75 3.235,6.472 3.235,10.569 0,4.097 -0.539,7.818 -3.235,10.568 z m -2.75,-18.766 c -1.24,-1.24 -2.966,-1.941 -4.854,-1.941 -1.888,0 -3.559,0.701 -4.8,1.941 -1.939,1.941 -2.155,5.23 -2.155,8.195 0,2.967 0.216,6.257 2.155,8.197 1.241,1.239 2.912,1.94 4.8,1.94 1.889,0 3.613,-0.701 4.854,-1.94 1.94,-1.94 2.103,-5.23 2.103,-8.197 0,-2.964 -0.162,-6.254 -2.103,-8.195 z" />
		<path
   style="fill:#414141"
   inkscape:connector-curvature="0"
   id="path17556"
   d="m 2394.979,352.417 v -16.339 c 0,-4.691 -2.534,-7.064 -6.524,-7.064 -3.99,0 -6.579,2.428 -6.579,7.064 v 16.339 h -3.882 v -26.531 h 3.882 v 2.912 c 1.888,-2.157 4.477,-3.235 7.441,-3.235 2.857,0 5.178,0.863 6.795,2.48 1.888,1.834 2.75,4.314 2.75,7.389 v 16.985 h -3.883 z" />
		<path
   style="fill:#414141"
   inkscape:connector-curvature="0"
   id="path17558"
   d="m 2423.345,352.417 v -2.534 c -2.156,2.156 -4.099,2.857 -7.656,2.857 -3.668,0 -5.824,-0.701 -7.496,-2.428 -1.295,-1.293 -1.996,-3.289 -1.996,-5.392 0,-4.638 3.235,-7.657 9.168,-7.657 h 7.98 v -2.535 c 0,-3.881 -1.941,-5.822 -6.795,-5.822 -3.396,0 -5.123,0.809 -6.688,3.02 l -2.643,-2.427 c 2.373,-3.073 5.069,-3.937 9.383,-3.937 7.118,0 10.623,3.073 10.623,8.844 v 18.011 h -3.88 z m 0,-12.241 h -7.44 c -3.991,0 -5.934,1.618 -5.934,4.691 0,3.074 1.888,4.529 6.095,4.529 2.265,0 4.26,-0.162 5.932,-1.778 0.917,-0.863 1.349,-2.373 1.349,-4.584 l 0,-2.858 0,0 z" />
		<path
   style="fill:#414141"
   inkscape:connector-curvature="0"
   id="path17560"
   d="m 2443.296,352.417 c -4.638,0 -6.741,-3.021 -6.741,-7.063 v -31.33 h 3.884 v 31.168 c 0,2.589 0.861,3.883 3.559,3.883 h 2.104 v 3.344 l -2.806,-0.002 0,0 z" />
		<path
   style="fill:#414141"
   inkscape:connector-curvature="0"
   id="path17562"
   d="m 2455.104,340.176 c 0,5.824 2.75,9.168 7.817,9.168 3.074,0 4.854,-0.917 6.956,-3.021 l 2.644,2.319 c -2.696,2.695 -5.177,4.098 -9.706,4.098 -7.012,0 -11.594,-4.206 -11.594,-13.59 0,-8.573 4.151,-13.588 10.893,-13.588 6.85,0 10.893,4.961 10.893,12.834 v 1.778 l -17.903,0.002 0,0 z m 13.211,-7.333 c -1.024,-2.427 -3.397,-3.991 -6.201,-3.991 -2.805,0 -5.178,1.564 -6.201,3.991 -0.594,1.456 -0.701,2.265 -0.809,4.423 h 14.02 c -0.107,-2.159 -0.215,-2.967 -0.809,-4.423 z" />
		<path
   style="fill:#414141"
   inkscape:connector-curvature="0"
   id="path17564"
   d="m 2489.616,352.74 c -4.478,0 -7.981,-1.024 -10.895,-3.828 l 2.59,-2.589 c 2.103,2.211 4.961,3.073 8.25,3.073 4.367,0 7.063,-1.563 7.063,-4.69 0,-2.319 -1.348,-3.613 -4.422,-3.883 l -4.368,-0.378 c -5.177,-0.432 -7.927,-2.75 -7.927,-7.117 0,-4.854 4.099,-7.766 9.761,-7.766 3.773,0 7.172,0.916 9.545,2.857 l -2.535,2.534 c -1.887,-1.456 -4.312,-2.104 -7.062,-2.104 -3.883,0 -5.932,1.672 -5.932,4.368 0,2.265 1.293,3.613 4.637,3.884 l 4.261,0.377 c 4.637,0.432 7.818,2.211 7.818,7.172 0,5.123 -4.367,8.09 -10.784,8.09 z" />
		<path
   style="fill:#414141"
   inkscape:connector-curvature="0"
   id="path17566"
   d="m 2537.283,352.417 v -3.183 c -2.157,2.805 -4.638,3.506 -7.55,3.506 -2.696,0 -5.068,-0.916 -6.472,-2.318 -2.696,-2.695 -3.235,-7.117 -3.235,-11.271 0,-4.152 0.539,-8.573 3.235,-11.271 1.402,-1.401 3.774,-2.317 6.472,-2.317 2.912,0 5.339,0.646 7.496,3.396 v -14.938 h 3.883 v 38.395 l -3.829,10e-4 0,0 z m -6.686,-23.403 c -5.771,0 -6.687,4.961 -6.687,10.139 0,5.177 0.916,10.138 6.687,10.138 5.771,0 6.633,-4.961 6.633,-10.138 0,-5.178 -0.864,-10.139 -6.633,-10.139 z" />
		<path
   style="fill:#414141"
   inkscape:connector-curvature="0"
   id="path17568"
   d="m 2553.245,340.176 c 0,5.824 2.75,9.168 7.818,9.168 3.074,0 4.854,-0.917 6.956,-3.021 l 2.643,2.319 c -2.696,2.695 -5.177,4.098 -9.706,4.098 -7.011,0 -11.594,-4.206 -11.594,-13.59 0,-8.573 4.152,-13.588 10.893,-13.588 6.85,0 10.894,4.961 10.894,12.834 v 1.778 l -17.904,0.002 0,0 z m 13.211,-7.333 c -1.023,-2.427 -3.396,-3.991 -6.201,-3.991 -2.804,0 -5.177,1.564 -6.201,3.991 -0.594,1.456 -0.7,2.265 -0.809,4.423 h 14.02 c -0.108,-2.159 -0.215,-2.967 -0.809,-4.423 z" />
		<path
   style="fill:#414141"
   inkscape:connector-curvature="0"
   id="path17570"
   d="m 2599.458,352.417 c -4.638,0 -6.741,-3.021 -6.741,-7.063 v -31.33 h 3.884 v 31.168 c 0,2.589 0.861,3.883 3.559,3.883 h 2.104 v 3.344 l -2.806,-0.002 0,0 z" />
		<path
   style="fill:#414141"
   inkscape:connector-curvature="0"
   id="path17572"
   d="m 2623.885,352.417 v -2.534 c -2.157,2.156 -4.099,2.857 -7.657,2.857 -3.666,0 -5.823,-0.701 -7.496,-2.428 -1.293,-1.293 -1.994,-3.289 -1.994,-5.392 0,-4.638 3.234,-7.657 9.166,-7.657 h 7.981 v -2.535 c 0,-3.881 -1.94,-5.822 -6.795,-5.822 -3.397,0 -5.123,0.809 -6.687,3.02 l -2.644,-2.427 c 2.373,-3.073 5.069,-3.937 9.383,-3.937 7.118,0 10.623,3.073 10.623,8.844 v 18.011 h -3.88 z m 0,-12.241 h -7.44 c -3.991,0 -5.934,1.618 -5.934,4.691 0,3.074 1.889,4.529 6.094,4.529 2.266,0 4.261,-0.162 5.933,-1.778 0.917,-0.863 1.349,-2.373 1.349,-4.584 l 0,-2.858 0,0 z" />
		<path
   style="fill:#414141"
   inkscape:connector-curvature="0"
   id="path17574"
   d="m 2645.562,352.74 c -4.477,0 -7.98,-1.024 -10.894,-3.828 l 2.589,-2.589 c 2.104,2.211 4.961,3.073 8.25,3.073 4.368,0 7.064,-1.563 7.064,-4.69 0,-2.319 -1.348,-3.613 -4.422,-3.883 l -4.368,-0.378 c -5.177,-0.432 -7.927,-2.75 -7.927,-7.117 0,-4.854 4.099,-7.766 9.761,-7.766 3.773,0 7.172,0.916 9.545,2.857 l -2.535,2.534 c -1.887,-1.456 -4.313,-2.104 -7.063,-2.104 -3.883,0 -5.932,1.672 -5.932,4.368 0,2.265 1.294,3.613 4.637,3.884 l 4.262,0.377 c 4.637,0.432 7.818,2.211 7.818,7.172 0,5.123 -4.368,8.09 -10.785,8.09 z" />
		<path
   style="fill:#414141"
   inkscape:connector-curvature="0"
   id="path17576"
   d="m 2692.421,352.417 v -2.534 c -2.157,2.156 -4.1,2.857 -7.657,2.857 -3.667,0 -5.823,-0.701 -7.496,-2.428 -1.294,-1.293 -1.995,-3.289 -1.995,-5.392 0,-4.638 3.235,-7.657 9.167,-7.657 h 7.981 v -2.535 c 0,-3.881 -1.941,-5.822 -6.795,-5.822 -3.397,0 -5.123,0.809 -6.688,3.02 l -2.643,-2.427 c 2.373,-3.073 5.068,-3.937 9.383,-3.937 7.118,0 10.623,3.073 10.623,8.844 v 18.011 h -3.88 z m 0,-12.241 h -7.441 c -3.99,0 -5.933,1.618 -5.933,4.691 0,3.074 1.888,4.529 6.094,4.529 2.265,0 4.261,-0.162 5.933,-1.778 0.916,-0.863 1.349,-2.373 1.349,-4.584 l 0,-2.858 0,0 z" />
		<path
   style="fill:#414141"
   inkscape:connector-curvature="0"
   id="path17578"
   d="m 2720.568,330.955 c -1.456,-1.456 -2.534,-1.941 -4.584,-1.941 -3.882,0 -6.363,3.074 -6.363,7.118 v 16.285 h -3.882 v -26.531 h 3.882 v 3.235 c 1.456,-2.21 4.368,-3.559 7.442,-3.559 2.533,0 4.476,0.592 6.361,2.479 l -2.856,2.914 z" />
		<path
   style="fill:#414141"
   inkscape:connector-curvature="0"
   id="path17580"
   d="m 2735.882,352.417 c -4.529,0 -6.795,-3.183 -6.795,-7.118 v -16.285 h -3.343 v -2.966 h 3.343 v -8.305 h 3.883 v 8.305 h 5.662 v 2.966 h -5.662 v 16.178 c 0,2.428 1.134,3.883 3.613,3.883 h 2.049 v 3.344 l -2.75,-0.002 0,0 z" />
		<path
   style="fill:#414141"
   inkscape:connector-curvature="0"
   id="path17582"
   d="m 2748.769,340.176 c 0,5.824 2.75,9.168 7.818,9.168 3.074,0 4.854,-0.917 6.956,-3.021 l 2.644,2.319 c -2.696,2.695 -5.178,4.098 -9.706,4.098 -7.011,0 -11.595,-4.206 -11.595,-13.59 0,-8.573 4.152,-13.588 10.894,-13.588 6.849,0 10.894,4.961 10.894,12.834 v 1.778 l -17.905,0.002 0,0 z m 13.21,-7.333 c -1.024,-2.427 -3.397,-3.991 -6.201,-3.991 -2.805,0 -5.178,1.564 -6.201,3.991 -0.594,1.456 -0.701,2.265 -0.809,4.423 h 14.02 c -0.107,-2.159 -0.215,-2.967 -0.809,-4.423 z" />
		<path
   style="fill:#414141"
   inkscape:connector-curvature="0"
   id="path17584"
   d="m 2783.28,352.74 c -4.478,0 -7.981,-1.024 -10.895,-3.828 l 2.59,-2.589 c 2.103,2.211 4.961,3.073 8.25,3.073 4.367,0 7.063,-1.563 7.063,-4.69 0,-2.319 -1.348,-3.613 -4.422,-3.883 l -4.368,-0.378 c -5.177,-0.432 -7.927,-2.75 -7.927,-7.117 0,-4.854 4.099,-7.766 9.761,-7.766 3.773,0 7.172,0.916 9.545,2.857 l -2.535,2.534 c -1.887,-1.456 -4.312,-2.104 -7.062,-2.104 -3.883,0 -5.932,1.672 -5.932,4.368 0,2.265 1.293,3.613 4.637,3.884 l 4.261,0.377 c 4.637,0.432 7.818,2.211 7.818,7.172 -10e-4,5.123 -4.367,8.09 -10.784,8.09 z" />
		<path
   style="fill:#414141"
   inkscape:connector-curvature="0"
   id="path17586"
   d="m 2823.614,364.604 c -3.99,0 -6.201,-1.023 -9.005,-3.559 l 2.534,-2.48 c 1.94,1.727 3.289,2.644 6.362,2.644 5.123,0 7.279,-3.612 7.279,-8.144 v -4.151 c -2.156,2.75 -4.583,3.45 -7.44,3.45 -2.696,0 -5.016,-0.971 -6.418,-2.372 -2.643,-2.644 -3.234,-6.74 -3.234,-11.056 0,-4.312 0.593,-8.412 3.234,-11.055 1.402,-1.4 3.774,-2.318 6.472,-2.318 2.912,0 5.284,0.647 7.441,3.451 v -3.127 h 3.828 v 27.34 c 0,6.578 -4.097,11.377 -11.053,11.377 z m 0.594,-35.59 c -5.771,0 -6.633,4.961 -6.633,9.922 0,4.961 0.861,9.924 6.633,9.924 5.77,0 6.578,-4.963 6.578,-9.924 0,-4.961 -0.808,-9.922 -6.578,-9.922 z" />
		<path
   style="fill:#414141"
   inkscape:connector-curvature="0"
   id="path17588"
   d="m 2859.204,330.955 c -1.456,-1.456 -2.534,-1.941 -4.584,-1.941 -3.883,0 -6.363,3.074 -6.363,7.118 v 16.285 h -3.882 v -26.531 h 3.882 v 3.235 c 1.456,-2.21 4.368,-3.559 7.442,-3.559 2.534,0 4.476,0.592 6.362,2.479 l -2.857,2.914 z" />
		<path
   style="fill:#414141"
   inkscape:connector-curvature="0"
   id="path17590"
   d="m 2882.121,352.417 v -2.534 c -2.157,2.156 -4.099,2.857 -7.657,2.857 -3.667,0 -5.824,-0.701 -7.496,-2.428 -1.294,-1.293 -1.995,-3.289 -1.995,-5.392 0,-4.638 3.235,-7.657 9.167,-7.657 h 7.981 v -2.535 c 0,-3.881 -1.941,-5.822 -6.795,-5.822 -3.397,0 -5.123,0.809 -6.688,3.02 l -2.643,-2.427 c 2.373,-3.073 5.069,-3.937 9.383,-3.937 7.118,0 10.623,3.073 10.623,8.844 v 18.011 h -3.88 z m 0,-12.241 h -7.44 c -3.991,0 -5.934,1.618 -5.934,4.691 0,3.074 1.888,4.529 6.094,4.529 2.266,0 4.26,-0.162 5.932,-1.778 0.918,-0.863 1.35,-2.373 1.35,-4.584 l 0,-2.858 0,0 z m -5.392,-19.79 h -3.561 l 4.746,-8.25 h 4.637 l -5.822,8.25 z" />
		<path
   style="fill:#414141"
   inkscape:connector-curvature="0"
   id="path17592"
   d="m 2900.131,329.014 v 23.403 h -3.883 v -23.403 h -3.397 v -2.966 h 3.397 v -5.015 c 0,-3.938 2.211,-7.118 6.74,-7.118 h 2.805 v 3.343 h -2.104 c -2.479,0 -3.559,1.456 -3.559,3.883 v 4.907 h 5.662 v 2.966 h -5.661 z m 11.701,-11.055 v -3.99 h 4.422 v 3.99 h -4.422 z m 0.271,34.458 v -26.369 h 3.883 v 26.369 h -3.883 z" />
		<path
   style="fill:#414141"
   inkscape:connector-curvature="0"
   id="path17594"
   d="m 2936.044,352.74 c -6.688,0 -11.755,-4.529 -11.755,-13.59 0,-9.06 5.068,-13.588 11.755,-13.588 3.667,0 5.986,0.971 8.736,3.937 l -2.644,2.479 c -1.995,-2.211 -3.559,-2.965 -6.094,-2.965 -2.588,0 -4.745,1.023 -6.146,3.02 -1.24,1.726 -1.727,3.775 -1.727,7.117 0,3.345 0.485,5.394 1.727,7.119 1.4,1.994 3.559,3.02 6.146,3.02 2.535,0 4.099,-0.809 6.094,-3.02 l 2.644,2.533 c -2.75,2.968 -5.069,3.938 -8.736,3.938 z" />
		<path
   style="fill:#414141"
   inkscape:connector-curvature="0"
   id="path17596"
   d="m 2967.212,352.417 v -2.534 c -2.157,2.156 -4.1,2.857 -7.657,2.857 -3.667,0 -5.823,-0.701 -7.496,-2.428 -1.294,-1.293 -1.995,-3.289 -1.995,-5.392 0,-4.638 3.235,-7.657 9.167,-7.657 h 7.981 v -2.535 c 0,-3.881 -1.941,-5.822 -6.795,-5.822 -3.397,0 -5.123,0.809 -6.688,3.02 l -2.643,-2.427 c 2.373,-3.073 5.068,-3.937 9.383,-3.937 7.118,0 10.623,3.073 10.623,8.844 v 18.011 h -3.88 z m 0,-12.241 h -7.441 c -3.99,0 -5.933,1.618 -5.933,4.691 0,3.074 1.888,4.529 6.094,4.529 2.265,0 4.261,-0.162 5.933,-1.778 0.916,-0.863 1.349,-2.373 1.349,-4.584 l 0,-2.858 0,0 z" />
		<path
   style="fill:#414141"
   inkscape:connector-curvature="0"
   id="path17598"
   d="m 2988.889,352.74 c -4.477,0 -7.98,-1.024 -10.894,-3.828 l 2.589,-2.589 c 2.103,2.211 4.961,3.073 8.25,3.073 4.368,0 7.063,-1.563 7.063,-4.69 0,-2.319 -1.348,-3.613 -4.422,-3.883 l -4.367,-0.378 c -5.178,-0.432 -7.928,-2.75 -7.928,-7.117 0,-4.854 4.1,-7.766 9.762,-7.766 3.773,0 7.172,0.916 9.545,2.857 l -2.535,2.534 c -1.887,-1.456 -4.313,-2.104 -7.063,-2.104 -3.883,0 -5.932,1.672 -5.932,4.368 0,2.265 1.294,3.613 4.637,3.884 l 4.261,0.377 c 4.638,0.432 7.818,2.211 7.818,7.172 0,5.123 -4.367,8.09 -10.784,8.09 z" />
	</g>
	<g
   id="g17600">
		<g
   id="g17602">
			<path
   style="fill:#ffffff"
   inkscape:connector-curvature="0"
   id="path17604"
   d="m 2421.507,184.05 h 570.463 c 4.536,0 8.205,3.606 8.205,8.152 v 71.185 c 0,4.507 -3.668,8.172 -8.205,8.172 h -973.248 c -4.527,0 -8.131,-3.665 -8.131,-8.172 v -71.185 c 0,-4.546 3.604,-8.152 8.131,-8.152 h 368.646" />
			<path
   style="fill:#414141"
   inkscape:connector-curvature="0"
   id="path17606"
   d="m 1983.664,182.784 h -78.334 v 22.492 h 27.956 v 66.984 h 22.395 v -66.984 h 27.983 v -22.492 z m -81.635,27.963 c 0,-7.671 -2.696,-14.173 -8.239,-19.701 -5.429,-5.494 -12.03,-8.262 -19.669,-8.262 h -61.569 v 89.477 h 22.42 v -66.984 h 36.912 c 2.129,0 3.95,0.714 5.457,2.251 1.561,1.537 2.288,3.331 2.288,5.506 v 59.228 h 22.4 v -61.515 z m -97.217,-27.963 h -22.445 v 89.475 l 22.445,0.002 v -89.477 z m -54.851,42.396 c -1.503,1.502 -3.356,2.3 -5.494,2.3 h -36.872 v -22.205 h 36.872 c 2.16,0 3.991,0.714 5.479,2.251 1.542,1.511 2.287,3.331 2.287,5.452 v 6.723 c 0,2.153 -0.745,3.993 -2.272,5.479 m 24.697,-14.435 c 0,-7.68 -2.75,-14.213 -8.23,-19.704 -5.479,-5.491 -12.059,-8.257 -19.713,-8.257 h -61.558 l 0.01,89.475 h 22.429 v -22.338 l 29.085,22.338 h 32.429 l -31.314,-22.338 h 8.943 c 7.656,0 14.212,-2.77 19.664,-8.206 5.508,-5.501 8.258,-12.075 8.258,-19.819 l 0,-11.151 0,0 z m -120.789,14.435 c -1.529,1.502 -3.347,2.3 -5.498,2.3 h -36.904 v -22.205 l 36.904,-0.067 c 2.151,0.067 3.969,0.781 5.498,2.318 1.506,1.511 2.286,3.331 2.286,5.452 v 6.723 c 0,2.153 -0.78,3.967 -2.286,5.479 m 24.7,-14.435 c 0,-7.68 -2.73,-14.213 -8.297,-19.704 -5.428,-5.491 -12.006,-8.257 -19.631,-8.257 h -61.597 v 89.475 h 22.421 v -22.338 l 39.223,-0.053 c 7.605,0.053 14.156,-2.717 19.584,-8.153 5.558,-5.501 8.297,-12.091 8.297,-19.819 v -11.151 z m -156.468,39.176 c -1.842,0 -3.422,-0.675 -4.755,-2.052 -1.362,-1.305 -2.038,-2.867 -2.038,-4.649 0.01,-1.765 0.676,-3.283 2.038,-4.627 1.333,-1.324 2.921,-1.987 4.755,-1.987 l 37.926,0.012 v 13.304 l -37.926,-0.001 0,0 z m 60.371,-39.176 c 0,-7.671 -2.756,-14.178 -8.269,-19.704 -5.484,-5.491 -12.063,-8.257 -19.713,-8.257 h -55.931 v 22.49 h 54.826 c 1.791,0 3.331,0.64 4.625,2 1.354,1.272 2.016,2.858 2.016,4.63 v 6.752 h -41.315 c -7.052,0 -13.133,2.708 -18.175,8.137 -5.055,5.437 -7.566,11.688 -7.566,18.668 0.029,7.096 2.512,13.334 7.566,18.791 5.042,5.373 11.124,8.007 18.175,8.007 h 63.761 v -61.514 l 0,0 z m -120.468,16.787 30.457,-44.748 h -28.578 l -16.157,26.041 -16.179,-26.041 -28.452,0.032 30.396,44.716 -30.396,44.727 h 28.452 l 16.179,-26.01 16.157,26.01 h 28.578 l -30.457,-44.727 z m -59.456,22.389 h -55.945 v -13.315 h 44.75 v -17.949 h -44.75 v -13.382 h 50.31 v -22.49 l -72.819,0.032 v 89.442 h 78.456 l 0,-22.338 0,0 z" />
			<path
   style="fill:#3e3e3d"
   inkscape:connector-curvature="0"
   id="path17608"
   d="m 3014.089,195.658 c 0,-0.259 0.074,-0.424 0.084,-0.699 0.371,-4.092 3.778,-7.323 7.975,-7.323 0.251,0 0.479,0 0.761,0.061 4.065,0.336 7.315,3.78 7.315,7.962 0,0.221 0,0.522 -0.061,0.687 -0.348,4.161 -3.797,7.386 -7.979,7.386 -0.275,0 -0.511,0 -0.778,-0.059 -4.055,-0.337 -7.317,-3.812 -7.317,-8.015 m 8.096,-7.325 c -3.84,0 -6.963,2.956 -7.354,6.7 v 0.625 c 0,3.864 2.963,7.006 6.681,7.316 h 0.673 c 3.819,0 6.939,-2.872 7.303,-6.672 0.01,-0.213 0.01,-0.424 0.027,-0.645 0,-3.806 -2.948,-6.91 -6.68,-7.325 l -0.65,0.001" />
			<path
   style="fill:#3e3e3d"
   inkscape:connector-curvature="0"
   id="path17610"
   d="m 3024.613,195.52 c -0.177,0.139 -0.292,0.211 -0.595,0.211 h -3.737 v -2.271 h 3.737 c 0.303,0 0.418,0.09 0.595,0.248 0.157,0.171 0.216,0.356 0.216,0.577 v 0.675 c 0,0.198 -0.058,0.391 -0.216,0.56 m 2.493,-1.521 c 0,-0.763 -0.24,-1.409 -0.836,-1.998 -0.567,-0.524 -1.198,-0.793 -1.949,-0.793 h -6.311 v 9.057 h 2.271 v -2.207 l 2.987,2.207 h 3.282 l -3.184,-2.207 h 0.952 c 0.752,0 1.383,-0.312 1.949,-0.857 0.596,-0.582 0.837,-1.233 0.837,-2.042 l 0,-1.16 0,0 z" />
			<g
   id="g17612">
				<path
   style="fill:#e4005a"
   inkscape:connector-curvature="0"
   id="path17614"
   d="m 2040.545,252.737 c -0.832,0 -1.469,-0.361 -1.469,-1.193 0,-0.295 0.076,-0.64 0.213,-0.983 l 12.092,-35.062 c -1.696,1.273 -4.364,3.035 -5.636,3.035 -0.848,0 -1.466,-0.638 -1.466,-1.338 0.062,-1.407 6.95,-4.975 9.612,-8.146 1.062,-1.277 2.812,-2.117 4.021,-2.117 0.84,0 1.466,0.362 1.466,1.266 0,0.221 -0.064,0.573 -0.209,0.928 l -13.771,40.022 c -0.699,2.165 -3.23,3.588 -4.853,3.588 z" />
				<path
   style="fill:#e4005a"
   inkscape:connector-curvature="0"
   id="path17616"
   d="m 2081.375,206.934 c 0.846,0 1.536,0.432 1.536,0.918 0,0.348 -0.344,0.772 -1.258,1.134 -13.485,5.531 -18.762,19.517 -18.762,29.913 0,8.005 3.092,11.166 7.663,11.166 6.954,0 14.257,-9.898 14.257,-22.48 0,-6.741 -2.666,-10.462 -4.92,-12.777 -0.498,-0.494 -0.765,-0.979 -0.765,-1.398 0,-1.066 1.4,-1.836 3.712,-1.836 5.203,0 7.872,8.157 7.872,13.197 0,21.15 -13.763,27.968 -21.566,27.968 -8.709,0 -12.562,-6.183 -12.562,-13.906 0,-16.864 14.185,-31.899 24.793,-31.899 z" />
				<path
   style="fill:#e4005a"
   inkscape:connector-curvature="0"
   id="path17618"
   d="m 2117.841,206.934 c 0.827,0 1.546,0.432 1.546,0.918 0,0.348 -0.352,0.772 -1.261,1.134 -13.485,5.531 -18.761,19.517 -18.761,29.913 0,8.005 3.092,11.166 7.664,11.166 6.954,0 14.256,-9.898 14.256,-22.48 0,-6.741 -2.675,-10.462 -4.91,-12.777 -0.51,-0.494 -0.772,-0.979 -0.772,-1.398 0,-1.066 1.387,-1.836 3.728,-1.836 5.181,0 7.845,8.157 7.845,13.197 0,21.15 -13.773,27.968 -21.555,27.968 -8.709,0 -12.568,-6.183 -12.568,-13.906 0,-16.864 14.176,-31.899 24.788,-31.899 z" />
				<path
   style="fill:#e4005a"
   inkscape:connector-curvature="0"
   id="path17620"
   d="m 2163.791,208.199 c 0.625,-0.834 2.037,-1.266 3.092,-1.266 0.834,0 1.55,0.285 1.55,0.84 0,0.152 -0.06,0.359 -0.293,0.646 l -31.873,43.057 c -0.621,0.837 -1.963,1.261 -3.023,1.261 -0.904,0 -1.605,-0.292 -1.605,-0.849 0,-0.141 0.062,-0.345 0.279,-0.64 l 31.873,-43.049 z m -27.248,15.317 c 0,3.857 1.486,4.986 3.236,4.986 3.306,0 6.245,-5.476 6.245,-10.673 0,-4.775 -2.452,-5.552 -2.452,-6.468 0,-0.77 0.978,-1.604 2.392,-1.604 2.74,0 4.271,3.512 4.271,6.382 0,11.856 -8.018,14.821 -11.363,14.821 -4.016,0 -6.815,-2.67 -6.815,-7.374 0,-9.136 7.512,-16.581 13,-16.581 0.685,0 1.258,0.429 1.258,0.92 0,0.348 -0.288,0.77 -0.988,1.06 -5.9,2.376 -8.784,8.211 -8.784,14.531 z m 16.147,21.778 c 0,3.855 1.483,4.981 3.248,4.981 3.302,0 6.25,-5.482 6.25,-10.682 0,-4.771 -2.461,-5.54 -2.461,-6.453 0,-0.781 0.98,-1.623 2.39,-1.623 2.726,0 4.275,3.515 4.275,6.398 0,11.856 -8.009,14.821 -11.38,14.821 -3.998,0 -6.818,-2.673 -6.818,-7.374 0,-9.145 7.527,-16.579 13,-16.579 0.709,0 1.271,0.41 1.271,0.906 0,0.357 -0.276,0.774 -0.983,1.06 -5.9,2.392 -8.792,8.219 -8.792,14.545 z" />
			</g>
			<g
   id="g17622">
				<path
   style="fill:#3b3a39"
   inkscape:connector-curvature="0"
   id="path17624"
   d="m 2178.487,288.07 c -1.393,3.878 -5.366,6.375 -7.979,6.375 -1.261,0 -2.13,-0.628 -2.13,-2.001 0,-0.496 0.118,-1.119 0.38,-1.877 l 22.302,-64.919 c 0.248,-0.759 0.508,-1.375 0.508,-1.76 0,-0.236 -0.133,-0.496 -0.508,-0.496 -0.254,0 -0.742,0.26 -1.361,0.26 -0.621,0 -1.497,-0.378 -1.497,-1.266 0,-2.098 5.716,-6.973 12.091,-6.973 1.243,0 2.252,0.755 2.252,2.125 0,0.494 -0.133,1.117 -0.379,1.866 l -1.497,4.247 c 4.615,-5.494 9.597,-8.238 13.948,-8.238 6.492,0 9.604,6.105 9.604,11.21 0,4.998 -2.248,10.48 -4.877,14.472 0,0 1.024,0.116 1.767,0.116 4.354,0 5.985,-1.741 8.364,-4.358 0.484,-0.628 1.349,-0.987 2.101,-0.987 0.742,0 1.377,0.359 1.377,1.238 0,0.871 -0.506,1.998 -1.752,3.486 -3.856,4.487 -7.345,5.867 -10.708,5.867 -1.62,0 -3.125,-0.376 -4.61,-0.879 -4.627,5.865 -10.857,7.235 -14.217,7.235 -3.492,0 -6.228,-1.76 -6.228,-4.991 0,-2.624 1.74,-8.601 10.836,-8.601 1.873,0 3.992,0.248 6.617,0.737 1.353,-3.35 2.106,-7.467 2.106,-10.589 0,-4.233 -1.374,-7.48 -4.991,-7.48 -4.982,0 -11.951,9.355 -14.822,17.833 l -16.697,48.348 z m 23.552,-41.487 c 0,1.24 0.761,2.239 2.356,2.239 1.998,0 4.49,-1.75 6.498,-4.87 -1.632,-0.489 -3.25,-1.117 -4.748,-1.117 -2.748,0 -4.106,1.875 -4.106,3.748 z" />
				<path
   style="fill:#3b3a39"
   inkscape:connector-curvature="0"
   id="path17626"
   d="m 2235.425,229.248 c -3.495,-2.234 -4.992,-4.727 -4.992,-8.596 0,-7.73 6.727,-13.086 11.716,-13.086 3.491,0 5.489,2.615 5.489,5.61 0,3.491 -1.367,6.731 -3.496,9.977 3.383,0.858 7.362,0.735 10.106,0.858 1.861,0.127 3.245,1.379 3.245,3.616 0,0.883 -0.385,1.868 -1.132,2.499 -1.742,1.745 -8.838,8.466 -8.838,13.704 0,2.001 0.846,2.88 2.231,2.88 3.11,0 8.971,-4.004 13.955,-9.857 0.514,-0.628 1.369,-0.987 2.133,-0.987 0.741,0 1.354,0.359 1.354,1.238 0,0.871 -0.489,1.998 -1.729,3.486 -7.727,9.107 -13.964,12.224 -18.442,12.224 -5.263,0 -8.122,-4.245 -8.122,-7.984 0,-2.974 1.752,-7.354 7.111,-12.089 -2.484,-0.248 -4.984,-0.869 -7.224,-1.733 -2.616,3.479 -5.479,7.101 -7.604,9.583 -0.632,0.749 -1.493,1.004 -2.117,1.004 -0.756,0 -1.374,-0.383 -1.374,-1.382 0,-0.742 0.496,-1.861 1.745,-3.359 1.748,-2 3.982,-4.982 5.985,-7.606 z m 4.986,-7.975 c 0.863,-1.625 1.622,-3.734 1.622,-5.859 0,-2.36 -0.618,-3.241 -1.504,-3.241 -1.377,0 -2.484,1.991 -2.484,3.862 0,2.123 1.234,4.254 2.366,5.238 z" />
				<path
   style="fill:#3b3a39"
   inkscape:connector-curvature="0"
   id="path17628"
   d="m 2296.108,228.249 c 0,4.11 -1.373,8.732 -4.229,12.847 0.613,0.116 1.355,0.116 1.982,0.116 3.116,0 6.108,-1.252 8.858,-4.358 0.493,-0.628 1.111,-0.987 2.103,-0.987 0.761,0 1.385,0.359 1.385,1.238 0,0.871 -0.508,1.998 -1.741,3.486 -3.753,4.365 -8.243,6.247 -12.587,6.247 -1.377,0 -2.863,-0.255 -4.252,-0.635 -4.604,4.367 -10.223,6.611 -15.08,6.611 -7.605,0 -11.846,-5.742 -11.846,-12.72 0,-5.111 2.127,-11.102 6.242,-15.956 2.868,-3.358 5.856,-5.604 6.854,-5.604 0.998,0 1.743,0.999 1.743,2.118 0,0.369 -0.12,0.867 -0.496,1.238 -2.872,2.999 -5.489,8.484 -5.489,14.335 0,6.243 2.992,11.1 7.357,11.1 2.123,0 4.482,-1.122 6.473,-3.106 -4.986,-3.007 -8.592,-8.484 -8.592,-14.971 0,-5.855 3.36,-13.834 10.84,-13.834 2.249,0 4.608,0.876 6.611,2.872 2.61,2.494 3.864,6.106 3.864,9.963 z m -16.948,-0.876 c 0,4.617 3.233,9.237 7.588,11.85 1.016,-2.496 1.514,-5.353 1.514,-7.977 0,-4.74 -1.514,-9.727 -4.875,-9.727 -2.97,0.001 -4.227,3.002 -4.227,5.854 z" />
				<path
   style="fill:#3b3a39"
   inkscape:connector-curvature="0"
   id="path17630"
   d="m 2317.022,252.313 c 1.371,2.862 1.998,7.349 1.998,11.09 0,16.199 -11.842,31.167 -19.69,31.167 -5.488,0 -7.604,-5.985 -7.604,-13.346 0,-11.087 4.24,-27.291 8.347,-42.758 10.606,-40.379 28.541,-66.921 35.662,-66.921 1.993,0 3.102,1.868 3.102,5.98 0,24.549 -17.31,55.596 -29.147,66.564 -0.758,0.739 -1.887,1.611 -2.874,2.62 -3.495,13.461 -6.493,27.772 -6.493,35.263 0,3.486 1.131,5.366 2.754,5.366 3.363,0 7.221,-7.615 7.221,-23.937 0,-7.109 -1.246,-9.097 -1.246,-10.334 0,-1.009 0.496,-2.015 1.998,-2.754 7.098,-3.604 15.201,-7.355 20.449,-13.462 0.492,-0.628 1.361,-0.987 2.107,-0.987 0.746,0 1.379,0.359 1.379,1.238 0,0.871 -0.511,1.998 -1.74,3.486 -3.997,4.611 -9.36,8.234 -16.223,11.725 z m 11.976,-66.94 c -2.873,0 -12.834,26.928 -20.19,53.729 13.323,-14.711 20.944,-44.617 20.944,-51.114 0,-1.739 -0.263,-2.615 -0.754,-2.615 z" />
				<path
   style="fill:#3b3a39"
   inkscape:connector-curvature="0"
   id="path17632"
   d="m 2366.132,235.866 c 0.747,0 1.38,0.359 1.38,1.238 0,0.871 -0.506,1.998 -1.751,3.486 -6.242,7.232 -15.079,12.224 -23.441,12.224 -8.092,0 -14.199,-5.362 -14.199,-13.221 0,-11.345 9.35,-24.18 23.174,-24.18 6.248,0 9.223,3.736 9.223,7.612 0,6.718 -9.346,15.197 -18.067,19.194 -0.496,0.248 -0.999,0.361 -1.365,0.361 -0.994,0 -1.74,-0.607 -1.74,-1.486 0,-0.756 0.484,-1.625 1.74,-2.629 7.854,-6.233 10.467,-11.843 10.467,-15.192 0,-2.369 -1.12,-3.5 -2.86,-3.5 -5.363,0 -11.471,9.597 -11.471,18.081 0,5.734 3.732,8.855 9.105,8.855 5.226,0 11.826,-2.998 17.695,-9.857 0.488,-0.626 1.37,-0.986 2.11,-0.986 z" />
				<path
   style="fill:#3b3a39"
   inkscape:connector-curvature="0"
   id="path17634"
   d="m 2371.979,226.884 c -1.381,-1.994 -2.488,-4.497 -2.488,-7.109 0,-7.358 8.348,-13.707 13.715,-13.707 2.234,0 3.857,1.131 3.857,3.854 0,3.876 -4.105,9.354 -6.982,12.979 3.609,4.472 8.355,9.703 8.355,15.565 0,0.636 -0.137,2.249 -0.385,3.128 3.247,-0.137 5.231,-1.127 8.354,-4.741 0.505,-0.628 1.369,-0.987 2.133,-0.987 0.732,0 1.372,0.359 1.372,1.238 0,0.871 -0.517,1.998 -1.757,3.486 -4.621,5.491 -8.226,6.861 -11.719,6.861 -0.381,0 -1.121,-0.127 -1.121,-0.127 -3.373,3.982 -8.479,5.489 -13.472,5.489 -4.479,0 -8.592,-2.499 -8.592,-5.617 0,-3.366 4.608,-6.481 13.084,-6.481 1.392,0 3.111,0.125 4.362,0.258 -0.241,-3.869 -3.356,-7.229 -6.365,-10.847 l -8.579,10.464 c -0.506,0.621 -1.257,1.004 -2.015,1.004 -0.862,0 -1.483,-0.383 -1.483,-1.382 0,-0.742 0.505,-1.861 1.742,-3.359 2.236,-2.609 5.366,-6.613 7.984,-9.969 z m 7.224,18.948 c -1.998,-0.508 -3.861,-1.002 -5.852,-1.002 -2.243,0 -3.12,1.002 -3.12,1.881 0,1.112 1.122,2.236 3.12,2.236 2.114,0 4.239,-1.37 5.852,-3.115 z m -1.736,-26.427 c 1.736,-2.496 3.111,-4.981 3.229,-6.738 0,-0.865 -0.241,-1.368 -0.876,-1.368 -1.245,0 -3.486,2.133 -3.486,4.377 0,1.36 0.255,2.118 1.133,3.729 z" />
				<path
   style="fill:#3b3a39"
   inkscape:connector-curvature="0"
   id="path17636"
   d="m 2403.733,242.96 c -0.231,0.871 -0.493,1.87 -0.493,2.496 0,1.002 0.375,1.616 1.243,1.616 1.894,0 6.729,-3.241 12.724,-10.219 0.76,-0.859 1.487,-0.987 2.116,-0.987 0.873,0 1.5,0.359 1.5,1.238 0,0.751 -0.502,1.998 -1.881,3.486 -6.836,8.104 -13.705,12.224 -18.059,12.224 -4.629,0 -6.729,-2.745 -6.729,-6.982 0,-1.37 0.236,-2.997 0.741,-4.62 1.868,-6.481 4.979,-12.455 6.345,-15.318 0.388,-0.89 0.634,-1.372 0.634,-1.755 0,-0.363 -0.246,-0.486 -0.634,-0.486 -0.356,0 -0.736,0.123 -1.112,0.123 -0.869,0 -1.745,-0.383 -1.745,-1.264 0,-2.482 6.605,-7.098 12.968,-7.098 1.736,0 2.486,0.755 2.486,1.873 0,1.62 -1.365,4.232 -2.739,7.234 -2.369,5.11 -5.37,11.705 -7.365,18.439 z m 14.839,-41.749 c 0,3.356 -3.488,7.104 -7.597,7.104 -2.875,0 -5.104,-1.986 -5.104,-4.613 0,-3.613 3.854,-7.1 7.715,-7.1 2.744,0.001 4.986,1.623 4.986,4.609 z" />
				<path
   style="fill:#3b3a39"
   inkscape:connector-curvature="0"
   id="path17638"
   d="m 2449.604,228.249 c 0,4.11 -1.373,8.732 -4.241,12.847 0.627,0.116 1.383,0.116 2.002,0.116 3.105,0 6.104,-1.252 8.842,-4.358 0.486,-0.628 1.124,-0.987 2.123,-0.987 0.742,0 1.37,0.359 1.37,1.238 0,0.871 -0.503,1.998 -1.745,3.486 -3.733,4.365 -8.229,6.247 -12.592,6.247 -1.366,0 -2.861,-0.255 -4.238,-0.635 -4.611,4.367 -10.213,6.611 -15.077,6.611 -7.594,0 -11.843,-5.742 -11.843,-12.72 0,-5.111 2.121,-11.102 6.229,-15.956 2.863,-3.358 5.863,-5.604 6.852,-5.604 1.009,0 1.753,0.999 1.753,2.118 0,0.369 -0.131,0.867 -0.502,1.238 -2.865,2.999 -5.476,8.484 -5.476,14.335 0,6.243 2.985,11.1 7.34,11.1 2.128,0 4.511,-1.122 6.482,-3.106 -4.977,-3.007 -8.59,-8.484 -8.59,-14.971 0,-5.855 3.357,-13.834 10.852,-13.834 2.229,0 4.595,0.876 6.588,2.872 2.621,2.494 3.871,6.106 3.871,9.963 z m -16.952,-0.876 c 0,4.617 3.243,9.237 7.602,11.85 1.004,-2.496 1.502,-5.353 1.502,-7.977 0,-4.74 -1.502,-9.727 -4.871,-9.727 -2.983,0.001 -4.233,3.002 -4.233,5.854 z" />
				<path
   style="fill:#3b3a39"
   inkscape:connector-curvature="0"
   id="path17640"
   d="m 2482.483,245.324 c 0,0.999 0.264,1.748 1.127,1.748 2.004,0 6.736,-3.241 12.724,-10.219 0.625,-0.628 1.366,-0.987 2.11,-0.987 0.879,0 1.488,0.359 1.488,1.365 0,0.744 -0.608,1.871 -1.854,3.359 -6.852,8.104 -13.717,12.224 -18.081,12.224 -4.478,0 -6.595,-2.745 -6.595,-6.855 0,-1.374 0.239,-2.999 0.738,-4.747 2.611,-9.222 6.729,-14.947 6.729,-16.69 0,-0.51 -0.24,-0.746 -0.611,-0.746 -2.879,0 -14.22,10.341 -16.574,17.198 l -1.888,5.484 c -1.242,3.857 -5.355,6.356 -7.97,6.356 -1.254,0 -2.136,-0.633 -2.136,-1.999 0,-0.5 0.127,-1.117 0.393,-1.868 l 7.979,-23.299 c 0.252,-0.759 0.492,-1.375 0.492,-1.76 0,-0.236 -0.128,-0.496 -0.492,-0.496 -0.248,0 -0.765,0.137 -1.125,0.137 -0.869,0 -1.752,-0.376 -1.752,-1.261 0,-1.979 6,-6.854 12.1,-6.854 1.223,0 2.117,0.621 2.117,2.125 0,0.494 -0.119,1.117 -0.367,1.866 l -2.871,8.348 c 6.221,-7.101 15.201,-12.339 20.186,-12.339 2.105,0 3.616,1.117 3.616,3.368 0,1.247 -0.614,3.361 -1.745,5.739 -2.369,4.85 -5.483,12.089 -7.359,18.438 -0.258,0.872 -0.379,1.751 -0.379,2.365 z" />
				<path
   style="fill:#3b3a39"
   inkscape:connector-curvature="0"
   id="path17642"
   d="m 2519.25,252.814 c -3.728,0 -5.617,-1.999 -6.002,-4.991 -2.856,3.231 -6.344,4.991 -9.821,4.991 -5.744,0 -10.609,-4.868 -10.609,-11.356 0,-11.331 11.598,-26.044 26.302,-26.044 6.247,0 11.093,2.498 11.093,7.487 0,6.215 -5.48,7.474 -7.479,7.474 -1.734,0 -4.492,-0.511 -4.492,-2.126 0,-1.743 3.871,-0.751 3.871,-4.72 0,-2.508 -2.49,-3.378 -4.996,-3.378 -8.957,0 -15.45,12.453 -15.45,20.188 0,3.491 1.38,6.985 4.627,6.985 2.62,0 6.834,-3.735 8.978,-9.217 1.361,-3.742 5.224,-6.236 7.834,-6.236 1.377,0 2.263,0.621 2.263,1.998 0,0.496 -0.14,1.113 -0.396,1.864 -0.487,1.622 -3.11,9.096 -3.11,10.225 0,0.624 0.254,1.113 1.004,1.113 1.868,0 6.728,-3.241 12.705,-10.219 0.504,-0.628 1.385,-0.987 2.131,-0.987 0.741,0 1.377,0.359 1.377,1.238 0,0.871 -0.511,1.998 -1.742,3.486 -6.885,8.105 -13.725,12.225 -18.088,12.225 z" />
				<path
   style="fill:#3b3a39"
   inkscape:connector-curvature="0"
   id="path17644"
   d="m 2543.407,236.226 c 0.376,7.364 1.88,9.978 3.742,9.978 2.863,0 7.113,-3.982 11.713,-9.35 0.623,-0.628 1.384,-0.987 2.138,-0.987 0.858,0 1.497,0.359 1.497,1.365 0,0.744 -0.639,1.871 -1.891,3.359 -7.467,8.857 -12.972,12.224 -17.199,12.224 -6.1,0 -8.844,-7.358 -8.844,-15.71 0,-30.423 20.433,-65.559 27.934,-65.559 1.72,0 2.857,1.868 2.857,5.98 0,15.207 -11.466,44.618 -21.947,58.7 z m 0,-6.855 c 8.724,-15.693 12.85,-39.376 12.85,-41.383 0,-1.991 -0.251,-2.856 -0.763,-2.856 -2.354,0 -8.719,19.064 -11.213,34.776 -0.498,3.366 -0.874,6.716 -0.874,9.463 z" />
				<path
   style="fill:#3b3a39"
   inkscape:connector-curvature="0"
   id="path17646"
   d="m 2593.517,235.866 c 0.731,0 1.369,0.359 1.369,1.238 0,0.871 -0.5,1.998 -1.754,3.486 -6.228,7.232 -15.07,12.224 -23.431,12.224 -8.1,0 -14.207,-5.362 -14.207,-13.221 0,-11.345 9.354,-24.18 23.187,-24.18 6.227,0 9.229,3.736 9.229,7.612 0,6.718 -9.354,15.197 -18.082,19.194 -0.5,0.248 -1.003,0.361 -1.369,0.361 -0.993,0 -1.75,-0.607 -1.75,-1.486 0,-0.756 0.511,-1.625 1.75,-2.629 7.851,-6.233 10.477,-11.843 10.477,-15.192 0,-2.369 -1.129,-3.5 -2.874,-3.5 -5.354,0 -11.455,9.597 -11.455,18.081 0,5.734 3.728,8.855 9.09,8.855 5.239,0 11.847,-2.998 17.701,-9.857 0.483,-0.626 1.358,-0.986 2.119,-0.986 z" />
				<path
   style="fill:#3b3a39"
   inkscape:connector-curvature="0"
   id="path17648"
   d="m 2599.356,226.884 c -1.504,-2.246 -2.621,-4.497 -2.621,-7.109 0,-7.358 8.601,-13.707 13.839,-13.707 2.229,0 3.856,1.131 3.856,3.854 0,3.876 -4.108,9.354 -7.102,13.104 3.611,4.472 8.477,9.715 8.477,15.44 6.618,0.879 11.331,3.626 11.331,8.244 0,2.494 -2.231,7.84 -4.599,7.84 -0.504,0 -0.881,-0.244 -0.881,-0.874 0,-0.862 0.767,-1.616 0.767,-3.238 0,-3.113 -2.749,-5.482 -7.751,-6.607 -2.615,6.739 -9.465,8.983 -15.316,8.983 -2.866,0 -8.854,-1.252 -8.854,-5.114 0,-3.748 5.861,-7.74 17.074,-9.107 -1.113,-2.988 -3.605,-5.605 -5.853,-8.466 l -8.604,10.464 c -0.508,0.621 -1.365,1.004 -2.115,1.004 -0.742,0 -1.373,-0.383 -1.373,-1.382 0,-0.742 0.496,-1.861 1.748,-3.359 2.236,-2.61 5.356,-6.614 7.977,-9.97 z m 8.464,16.201 c -4.986,0 -10.837,0.378 -10.837,3.626 0,1.49 0.99,2.359 2.757,2.359 3.473,0 7.096,-2.232 8.08,-5.985 z m -4.227,-27.409 c 0,1.36 0.493,2.482 1.26,3.729 1.612,-2.496 3.097,-4.981 3.215,-6.738 0,-0.865 -0.246,-1.368 -0.859,-1.368 -1.502,0 -3.616,2.251 -3.616,4.377 z" />
				<path
   style="fill:#3b3a39"
   inkscape:connector-curvature="0"
   id="path17650"
   d="m 2656.026,233.769 c 3.011,-12.047 9.941,-22.688 12.947,-22.688 0.837,0 1.407,0.897 1.407,3.002 0,7.831 -5.897,22.963 -11.272,30.191 0.194,3.797 0.952,5.137 1.912,5.137 1.483,0 3.658,-2.052 6.093,-4.799 0.27,-0.338 0.719,-0.521 1.099,-0.521 0.376,0 0.696,0.184 0.696,0.645 0,0.44 -0.241,1.021 -0.892,1.794 -3.848,4.551 -6.791,6.285 -8.907,6.285 -1.933,0 -3.201,-1.412 -3.911,-3.528 -2.179,2.239 -4.675,3.528 -6.98,3.528 -3.347,0 -5.781,-2.706 -5.781,-6.479 0,-6.347 6.295,-12.689 11.926,-12.689 0.194,-0.001 0.898,-0.001 1.663,0.122 z m -6.155,16.28 c 1.351,0 3.088,-1.018 4.81,-2.951 -0.065,-0.763 -0.123,-1.537 -0.123,-2.362 0,-1.092 0.058,-2.307 0.123,-3.403 -0.767,-0.12 -1.595,-0.442 -1.595,-1.089 0,-0.763 2.043,-0.332 2.043,-2.364 0,-1.025 -0.898,-1.41 -1.595,-1.41 -3.798,0 -6.482,4.611 -6.482,9.092 0,2.759 1.102,4.487 2.819,4.487 z m 9.237,-9.289 c 4.554,-8.076 6.598,-20.253 6.598,-21.287 0,-1.02 -0.127,-1.47 -0.38,-1.47 -1.218,0 -4.548,9.814 -5.771,17.884 -0.251,1.591 -0.447,4.101 -0.447,4.873 z" />
				<path
   style="fill:#3b3a39"
   inkscape:connector-curvature="0"
   id="path17652"
   d="m 2684.931,244.091 c 0.391,0 0.715,0.184 0.715,0.645 0,0.44 -0.261,1.021 -0.904,1.794 -3.194,3.714 -7.747,6.285 -12.04,6.285 -4.163,0 -7.312,-2.766 -7.312,-6.795 0,-5.835 4.812,-12.43 11.911,-12.43 3.222,0 4.742,1.91 4.742,3.888 0,3.478 -4.803,7.826 -9.291,9.882 -0.255,0.13 -0.52,0.192 -0.704,0.192 -0.513,0 -0.904,-0.311 -0.904,-0.77 0,-0.375 0.264,-0.823 0.904,-1.347 4.05,-3.201 5.399,-6.09 5.399,-7.819 0,-1.217 -0.586,-1.794 -1.474,-1.794 -2.765,0 -5.904,4.938 -5.904,9.291 0,2.958 1.917,4.553 4.676,4.553 2.702,0 6.093,-1.544 9.097,-5.054 0.25,-0.338 0.713,-0.521 1.089,-0.521 z" />
				<path
   style="fill:#3b3a39"
   inkscape:connector-curvature="0"
   id="path17654"
   d="m 2693.962,246.203 c 0,0 -0.064,-0.705 -0.064,-1.468 0,-15.651 10.459,-33.715 14.36,-33.715 0.843,0 1.412,0.958 1.412,3.062 0,7.831 -5.896,23.021 -11.294,30.261 0.206,3.728 0.975,5.067 2.003,5.067 1.409,0 3.724,-2.052 6.026,-4.799 0.255,-0.338 0.705,-0.521 1.09,-0.521 0.38,0 0.7,0.184 0.7,0.645 0,0.44 -0.25,1.021 -0.899,1.794 -3.839,4.551 -6.783,6.285 -8.92,6.285 -2.158,0 -3.51,-1.925 -4.085,-4.493 -0.267,0.188 -0.837,0.647 -1.399,1.022 -0.653,0.459 -1.358,0.705 -1.678,0.705 -0.575,0 -0.899,-0.327 -0.899,-0.763 0,-0.255 0.125,-0.506 0.464,-0.776 0.886,-0.568 2.223,-1.536 3.183,-2.306 z m 10.651,-28.2 c -1.222,0 -4.49,9.814 -5.774,17.884 -0.257,1.79 -0.37,3.459 -0.463,4.931 4.566,-8.009 6.618,-20.311 6.618,-21.345 0,-1.02 -0.19,-1.47 -0.381,-1.47 z" />
				<path
   style="fill:#3b3a39"
   inkscape:connector-curvature="0"
   id="path17656"
   d="m 2718.195,252.814 c -1.929,0 -2.879,-1.036 -3.083,-2.571 -1.476,1.657 -3.27,2.571 -5.055,2.571 -2.957,0 -5.444,-2.499 -5.444,-5.842 0,-5.828 5.956,-13.383 13.52,-13.383 3.197,0 5.698,1.264 5.698,3.839 0,3.196 -2.803,3.846 -3.844,3.846 -0.901,0 -2.312,-0.262 -2.312,-1.09 0,-0.901 1.993,-0.392 1.993,-2.438 0,-1.277 -1.279,-1.731 -2.561,-1.731 -4.614,0 -7.959,6.414 -7.959,10.393 0,1.794 0.719,3.581 2.368,3.581 1.358,0 3.548,-1.917 4.61,-4.747 0.712,-1.922 2.701,-3.202 4.048,-3.202 0.704,0 1.152,0.315 1.152,1.029 0,0.251 -0.06,0.575 -0.195,0.951 -0.253,0.834 -1.59,4.685 -1.59,5.267 0,0.312 0.125,0.574 0.519,0.574 0.966,0 3.459,-1.659 6.533,-5.248 0.25,-0.338 0.702,-0.521 1.09,-0.521 0.371,0 0.697,0.184 0.697,0.645 0,0.44 -0.258,1.021 -0.898,1.794 -3.514,4.162 -7.047,6.283 -9.287,6.283 z" />
				<path
   style="fill:#3b3a39"
   inkscape:connector-curvature="0"
   id="path17658"
   d="m 2730.69,239.48 c -0.774,-1.154 -1.346,-2.316 -1.346,-3.658 0,-3.781 4.414,-7.042 7.116,-7.042 1.149,0 1.981,0.562 1.981,1.981 0,1.979 -2.115,4.801 -3.657,6.716 1.876,2.315 4.366,5.007 4.366,7.958 3.396,0.447 5.83,1.868 5.83,4.23 0,1.284 -1.153,4.041 -2.361,4.041 -0.268,0 -0.451,-0.126 -0.451,-0.443 0,-0.449 0.38,-0.842 0.38,-1.669 0,-1.606 -1.419,-2.814 -3.974,-3.394 -1.35,3.463 -4.879,4.613 -7.887,4.613 -1.479,0 -4.558,-0.656 -4.558,-2.632 0,-1.924 3.026,-3.979 8.784,-4.685 -0.568,-1.546 -1.854,-2.874 -3.004,-4.354 l -4.43,5.385 c -0.267,0.322 -0.707,0.499 -1.078,0.499 -0.396,0 -0.709,-0.177 -0.709,-0.693 0,-0.376 0.241,-0.967 0.886,-1.723 1.153,-1.346 2.768,-3.398 4.112,-5.13 z m 4.368,8.325 c -2.572,0 -5.589,0.199 -5.589,1.861 0,0.772 0.509,1.224 1.411,1.224 1.799,0 3.663,-1.168 4.178,-3.085 z m -2.194,-14.099 c 0,0.7 0.263,1.281 0.643,1.924 0.842,-1.289 1.603,-2.566 1.667,-3.459 0,-0.447 -0.116,-0.695 -0.444,-0.695 -0.766,0 -1.866,1.128 -1.866,2.23 z" />
				<path
   style="fill:#3b3a39"
   inkscape:connector-curvature="0"
   id="path17660"
   d="m 2765.239,252.814 c -1.919,0 -2.877,-1.036 -3.083,-2.571 -1.466,1.657 -3.263,2.571 -5.065,2.571 -2.935,0 -5.436,-2.499 -5.436,-5.842 0,-5.828 5.955,-13.383 13.52,-13.383 3.203,0 5.697,1.264 5.697,3.839 0,3.196 -2.812,3.846 -3.848,3.846 -0.896,0 -2.288,-0.262 -2.288,-1.09 0,-0.901 1.981,-0.392 1.981,-2.438 0,-1.277 -1.303,-1.731 -2.578,-1.731 -4.604,0 -7.938,6.414 -7.938,10.393 0,1.794 0.698,3.581 2.369,3.581 1.345,0 3.522,-1.917 4.607,-4.747 0.71,-1.922 2.703,-3.202 4.038,-3.202 0.705,0 1.159,0.315 1.159,1.029 0,0.251 -0.069,0.575 -0.199,0.951 -0.255,0.834 -1.602,4.685 -1.602,5.267 0,0.312 0.142,0.574 0.517,0.574 0.968,0 3.459,-1.659 6.542,-5.248 0.253,-0.338 0.704,-0.521 1.09,-0.521 0.381,0 0.705,0.184 0.705,0.645 0,0.44 -0.271,1.021 -0.899,1.794 -3.521,4.162 -7.043,6.283 -9.289,6.283 z" />
				<path
   style="fill:#3b3a39"
   inkscape:connector-curvature="0"
   id="path17662"
   d="m 2776.714,240.692 c -1.812,-1.156 -2.568,-2.425 -2.568,-4.423 0,-3.978 3.459,-6.723 6.019,-6.723 1.804,0 2.824,1.352 2.824,2.875 0,1.801 -0.703,3.465 -1.798,5.132 1.736,0.44 3.785,0.383 5.199,0.44 0.955,0.072 1.665,0.71 1.665,1.876 0,0.436 -0.194,0.947 -0.585,1.274 -0.895,0.895 -4.543,4.354 -4.543,7.057 0,1.026 0.452,1.465 1.149,1.465 1.604,0 4.61,-2.049 7.17,-5.054 0.267,-0.338 0.724,-0.521 1.104,-0.521 0.371,0 0.702,0.184 0.702,0.645 0,0.44 -0.264,1.021 -0.9,1.794 -3.972,4.664 -7.176,6.285 -9.485,6.285 -2.691,0 -4.166,-2.18 -4.166,-4.11 0,-1.537 0.888,-3.771 3.653,-6.22 -1.284,-0.13 -2.561,-0.445 -3.711,-0.89 -1.356,1.796 -2.826,3.646 -3.911,4.935 -0.324,0.381 -0.761,0.499 -1.095,0.499 -0.39,0 -0.705,-0.177 -0.705,-0.693 0,-0.376 0.254,-0.967 0.904,-1.723 0.894,-1.038 2.06,-2.573 3.078,-3.92 z m 2.555,-4.093 c 0.452,-0.83 0.832,-1.929 0.832,-3.009 0,-1.23 -0.316,-1.678 -0.763,-1.678 -0.702,0 -1.293,1.024 -1.293,1.993 0,1.082 0.653,2.167 1.224,2.694 z" />
				<path
   style="fill:#3b3a39"
   inkscape:connector-curvature="0"
   id="path17664"
   d="m 2813.233,226.219 c 0,0.825 -1.284,1.975 -2.703,1.975 h -7.158 c -2.184,6.095 -5.206,12.184 -8.071,16.081 0.181,3.797 0.955,5.137 1.915,5.137 1.404,0 3.645,-2.052 6.019,-4.799 0.323,-0.338 0.778,-0.521 1.085,-0.521 0.447,0 0.773,0.184 0.773,0.645 0,0.378 -0.26,1.021 -0.965,1.794 -3.834,4.551 -6.718,6.285 -8.906,6.285 -3.07,0 -4.482,-3.783 -4.482,-8.079 0,-5.521 1.274,-11.287 3.147,-16.542 h -4.173 c -0.7,0 -1.025,-0.253 -1.025,-0.649 0,-0.815 1.278,-1.973 2.754,-1.973 h 3.457 c 3.332,-8.336 7.963,-14.49 10.193,-14.49 0.899,0 1.471,0.897 1.471,3.002 0,3.019 -0.875,7.19 -2.301,11.488 h 7.941 c 0.781,-0.002 1.029,0.251 1.029,0.646 z m -17.932,14.541 c 2.109,-3.778 3.704,-8.533 4.804,-12.566 h -2.754 c -1.095,3.977 -2.05,9.235 -2.05,12.566 z m 6.196,-22.757 c -0.698,0 -2.112,3.271 -3.387,7.568 h 2.626 c 0.761,-3.217 1.157,-5.635 1.157,-6.099 10e-4,-1.019 -0.134,-1.469 -0.396,-1.469 z" />
				<path
   style="fill:#3b3a39"
   inkscape:connector-curvature="0"
   id="path17666"
   d="m 2821.053,244.091 c 0.388,0 0.709,0.184 0.709,0.645 0,0.44 -0.271,1.021 -0.898,1.794 -3.196,3.714 -7.749,6.285 -12.045,6.285 -4.175,0 -7.312,-2.766 -7.312,-6.795 0,-5.835 4.806,-12.43 11.923,-12.43 3.211,0 4.752,1.91 4.752,3.888 0,3.478 -4.823,7.826 -9.31,9.882 -0.248,0.13 -0.51,0.192 -0.7,0.192 -0.52,0 -0.891,-0.311 -0.891,-0.77 0,-0.375 0.248,-0.823 0.891,-1.347 4.033,-3.201 5.396,-6.09 5.396,-7.819 0,-1.217 -0.58,-1.794 -1.479,-1.794 -2.77,0 -5.904,4.938 -5.904,9.291 0,2.958 1.935,4.553 4.688,4.553 2.696,0 6.088,-1.544 9.094,-5.054 0.262,-0.338 0.715,-0.521 1.086,-0.521 z" />
				<path
   style="fill:#3b3a39"
   inkscape:connector-curvature="0"
   id="path17668"
   d="m 2824.063,239.48 c -0.771,-1.154 -1.345,-2.316 -1.345,-3.658 0,-3.781 4.418,-7.042 7.114,-7.042 1.15,0 1.975,0.562 1.975,1.981 0,1.979 -2.103,4.801 -3.647,6.716 1.87,2.315 4.365,5.007 4.365,7.958 3.407,0.447 5.827,1.868 5.827,4.23 0,1.284 -1.154,4.041 -2.369,4.041 -0.245,0 -0.444,-0.126 -0.444,-0.443 0,-0.449 0.394,-0.842 0.394,-1.669 0,-1.606 -1.423,-2.814 -3.986,-3.394 -1.346,3.463 -4.88,4.613 -7.883,4.613 -1.47,0 -4.553,-0.656 -4.553,-2.632 0,-1.924 3.018,-3.979 8.781,-4.685 -0.57,-1.546 -1.854,-2.874 -3.014,-4.354 l -4.416,5.385 c -0.262,0.322 -0.715,0.499 -1.1,0.499 -0.371,0 -0.697,-0.177 -0.697,-0.693 0,-0.376 0.256,-0.967 0.896,-1.723 1.164,-1.346 2.759,-3.398 4.102,-5.13 z m 4.359,8.325 c -2.573,0 -5.577,0.199 -5.577,1.861 0,0.772 0.521,1.224 1.409,1.224 1.79,0 3.658,-1.168 4.168,-3.085 z m -2.179,-14.099 c 0,0.7 0.24,1.281 0.642,1.924 0.837,-1.289 1.599,-2.566 1.675,-3.459 0,-0.447 -0.138,-0.695 -0.457,-0.695 -0.761,0 -1.86,1.128 -1.86,2.23 z" />
				<path
   style="fill:#3b3a39"
   inkscape:connector-curvature="0"
   id="path17670"
   d="m 2873.365,237.616 c 1.655,0.45 3.645,0.378 5.047,0.45 1.036,0.071 1.679,0.901 1.679,1.845 0,0.466 -0.204,0.979 -0.574,1.301 -0.904,0.897 -4.545,4.423 -4.545,7.047 0,0.969 0.438,1.407 1.125,1.407 1.61,0 4.627,-2.049 7.187,-5.054 0.263,-0.338 0.714,-0.521 1.099,-0.521 0.371,0 0.774,0.253 0.774,0.717 0,0.368 -0.317,0.948 -0.978,1.722 -3.97,4.736 -7.168,6.343 -9.469,6.343 -2.717,0 -4.182,-2.179 -4.182,-4.092 0,-1.613 0.895,-3.848 3.729,-6.296 -1.358,-0.13 -2.698,-0.445 -3.928,-0.89 -4.87,6.092 -8.503,9.543 -11.652,12.112 -1.166,4.427 -2.303,9.103 -3.088,13.199 -1.213,6.416 -5.109,10 -8.586,10 -3.327,0 -4.871,-3.264 -4.871,-6.468 0,-5.64 4.748,-11.092 11.868,-16.08 l 0.886,-3.408 c -1.345,1.208 -2.875,1.864 -4.349,1.864 -3.019,0 -5.508,-2.499 -5.508,-5.842 0,-5.698 5.952,-13.383 13.589,-13.383 3.139,0 5.638,1.264 5.638,3.839 0,3.196 -2.812,3.846 -3.854,3.846 -0.89,0 -2.3,-0.262 -2.3,-1.09 0,-0.839 2.043,-0.392 2.043,-2.373 0,-1.28 -1.279,-1.797 -2.637,-1.797 -4.154,0 -7.938,5.842 -7.938,10.393 0,1.794 0.7,3.581 2.378,3.581 1.406,0 3.464,-1.917 4.676,-4.747 0.64,-1.922 2.698,-3.202 4.038,-3.202 0.636,0 1.164,0.315 1.164,1.085 0,0.267 -0.069,0.589 -0.211,0.896 -0.508,1.541 -1.274,4.052 -1.853,5.969 3.407,-2.821 5.836,-5.376 8.846,-9.363 -1.671,-1.145 -2.432,-2.357 -2.432,-4.283 0,-3.982 3.457,-6.734 6.021,-6.734 1.797,0 2.821,1.22 2.821,2.814 0,1.8 -0.568,3.527 -1.653,5.193 z m -20.204,20.71 c -3.723,2.814 -6.662,7.499 -6.662,12.312 0,2.617 1.145,3.575 2.049,3.575 1.021,0 1.664,-1.53 2.318,-4.676 0.689,-3.656 1.53,-7.564 2.295,-11.211 z m 18.211,-21.672 c 0.371,-0.886 0.761,-1.984 0.761,-3.009 0,-1.224 -0.312,-1.733 -0.761,-1.733 -0.589,0 -1.352,0.829 -1.352,1.993 0,0.949 0.576,1.982 1.352,2.749 z" />
				<path
   style="fill:#3b3a39"
   inkscape:connector-curvature="0"
   id="path17672"
   d="m 2895.075,252.814 c -1.918,0 -2.896,-1.036 -3.067,-2.571 -1.487,1.657 -3.282,2.571 -5.066,2.571 -2.944,0 -5.462,-2.499 -5.462,-5.842 0,-5.828 5.972,-13.383 13.538,-13.383 3.188,0 5.7,1.264 5.7,3.839 0,3.196 -2.816,3.846 -3.852,3.846 -0.893,0 -2.295,-0.262 -2.295,-1.09 0,-0.901 1.984,-0.392 1.984,-2.438 0,-1.277 -1.297,-1.731 -2.58,-1.731 -4.61,0 -7.943,6.414 -7.943,10.393 0,1.794 0.709,3.581 2.369,3.581 1.359,0 3.539,-1.917 4.607,-4.747 0.718,-1.922 2.707,-3.202 4.049,-3.202 0.717,0 1.147,0.315 1.147,1.029 0,0.251 -0.054,0.575 -0.181,0.951 -0.25,0.834 -1.604,4.685 -1.604,5.267 0,0.312 0.134,0.574 0.522,0.574 0.955,0 3.459,-1.659 6.518,-5.248 0.275,-0.338 0.723,-0.521 1.107,-0.521 0.375,0 0.688,0.184 0.688,0.645 0,0.44 -0.25,1.021 -0.898,1.794 -3.521,4.162 -7.031,6.283 -9.281,6.283 z m -3.906,-22.052 c -0.445,0 -0.71,-0.324 -0.71,-0.7 0,-0.582 0.459,-1.224 1.178,-1.674 l 9.655,-5.834 c 0.257,-0.199 0.515,-0.26 0.775,-0.26 0.516,0 0.832,0.452 0.832,0.904 0,0.134 -0.07,0.194 -0.07,0.317 l -0.955,2.703 c -0.255,0.77 -0.51,1.077 -1.419,1.397 l -8.712,3.021 c -0.194,0.056 -0.385,0.126 -0.574,0.126 z" />
				<path
   style="fill:#3b3a39"
   inkscape:connector-curvature="0"
   id="path17674"
   d="m 2918.865,241.856 c 1.011,-2.123 1.584,-3.403 1.584,-3.719 0,-0.201 -0.123,-0.326 -0.318,-0.326 -0.12,0 -0.382,0.125 -0.64,0.125 -0.44,0 -0.774,-0.26 -0.774,-0.698 0,-0.454 0.521,-1.166 1.294,-1.738 1.409,-1.022 3.324,-1.91 5.31,-1.91 0.907,0 1.289,0.376 1.289,0.943 0,0.71 -0.644,2.065 -1.407,3.734 -1.217,2.622 -2.757,6.076 -3.721,9.483 -0.13,0.45 -0.255,0.897 -0.255,1.218 0,0.507 0.194,0.892 0.647,0.892 0.963,0 3.445,-1.659 6.528,-5.248 0.246,-0.338 0.705,-0.521 1.09,-0.521 0.386,0 0.714,0.184 0.714,0.645 0,0.44 -0.27,1.021 -0.908,1.794 -3.521,4.164 -7.062,6.285 -9.286,6.285 -2.374,0 -3.528,-1.343 -3.528,-3.471 0,-0.438 0.062,-0.897 0.195,-1.402 -2.124,1.986 -3.982,3.009 -5.833,4.286 0.765,1.998 1.085,3.982 1.085,5.969 0,8.396 -6.1,16.017 -10.189,16.017 -2.816,0 -3.849,-3.074 -3.849,-6.788 0,-5.709 2.116,-14.038 4.229,-21.989 5.448,-20.768 14.753,-34.415 18.396,-34.415 1.021,0 1.598,0.958 1.598,3.062 0,12.646 -8.912,28.599 -15.052,34.238 l -1.479,1.4 c -1.731,6.871 -3.338,14.762 -3.338,18.151 0,1.727 0.655,2.705 1.405,2.705 1.349,0 3.103,-2.643 3.597,-8.093 0.135,-1.279 0.189,-2.685 0.189,-4.289 0,-2.049 -0.189,-3.72 -0.503,-4.545 -0.062,-0.265 -0.117,-0.513 -0.117,-0.643 0,-0.526 0.244,-1.036 1,-1.483 4.624,-2.877 8.786,-5.051 11.047,-9.669 z m -1.8,-23.723 c -1.482,0 -6.61,13.779 -10.39,27.623 6.854,-7.618 10.767,-22.945 10.767,-26.283 0,-0.886 -0.13,-1.34 -0.377,-1.34 z m 11.979,8.143 c 0,1.72 -1.794,3.64 -3.915,3.64 -1.479,0 -2.631,-1.016 -2.631,-2.372 0,-1.848 1.989,-3.646 3.976,-3.646 1.409,-0.001 2.57,0.832 2.57,2.378 z" />
				<path
   style="fill:#3b3a39"
   inkscape:connector-curvature="0"
   id="path17676"
   d="m 2931.281,245.113 c 0,2.958 1.909,4.553 4.683,4.553 2.686,0 6.09,-1.544 9.098,-5.054 0.252,-0.338 0.699,-0.521 1.099,-0.521 0.371,0 0.709,0.184 0.709,0.645 0,0.44 -0.267,1.021 -0.908,1.794 -3.139,3.714 -7.759,6.285 -12.045,6.285 -4.229,0 -7.307,-2.766 -7.307,-6.795 0,-6.149 5.118,-12.43 11.919,-12.43 2.814,0 4.941,1.653 4.941,3.964 0,2.631 -2.312,5.07 -4.82,5.07 -1.537,0 -2.43,-0.965 -2.43,-1.807 0,-0.44 0.381,-1.024 1.023,-1.024 0.13,0 0.251,0 0.312,0 0.328,0 1.474,-0.13 1.474,-1.981 0,-0.904 -0.38,-1.925 -1.655,-1.925 -3.278,0 -6.093,5.193 -6.093,9.226 z" />
				<path
   style="fill:#3b3a39"
   inkscape:connector-curvature="0"
   id="path17678"
   d="m 2956.856,252.814 c -1.932,0 -2.877,-1.036 -3.086,-2.571 -1.47,1.657 -3.264,2.571 -5.054,2.571 -2.957,0 -5.456,-2.499 -5.456,-5.842 0,-5.828 5.971,-13.383 13.528,-13.383 3.208,0 5.695,1.264 5.695,3.839 0,3.196 -2.808,3.846 -3.847,3.846 -0.879,0 -2.284,-0.262 -2.284,-1.09 0,-0.901 1.979,-0.392 1.979,-2.438 0,-1.277 -1.284,-1.731 -2.571,-1.731 -4.607,0 -7.947,6.414 -7.947,10.393 0,1.794 0.699,3.581 2.369,3.581 1.347,0 3.522,-1.917 4.611,-4.747 0.715,-1.922 2.694,-3.202 4.051,-3.202 0.697,0 1.151,0.315 1.151,1.029 0,0.251 -0.066,0.575 -0.194,0.951 -0.26,0.834 -1.6,4.685 -1.6,5.267 0,0.312 0.13,0.574 0.52,0.574 0.955,0 3.459,-1.659 6.534,-5.248 0.253,-0.338 0.705,-0.521 1.085,-0.521 0.385,0 0.702,0.184 0.702,0.645 0,0.44 -0.245,1.021 -0.896,1.794 -3.519,4.162 -7.056,6.283 -9.29,6.283 z" />
				<path
   style="fill:#3b3a39"
   inkscape:connector-curvature="0"
   id="path17680"
   d="m 2969.34,239.48 c -0.76,-1.154 -1.337,-2.316 -1.337,-3.658 0,-3.781 4.416,-7.042 7.121,-7.042 1.152,0 1.979,0.562 1.979,1.981 0,1.979 -2.109,4.801 -3.658,6.716 1.861,2.315 4.377,5.007 4.377,7.958 3.379,0.447 5.818,1.868 5.818,4.23 0,1.284 -1.154,4.041 -2.365,4.041 -0.264,0 -0.459,-0.126 -0.459,-0.443 0,-0.449 0.385,-0.842 0.385,-1.669 0,-1.606 -1.408,-2.814 -3.968,-3.394 -1.336,3.463 -4.871,4.613 -7.892,4.613 -1.471,0 -4.549,-0.656 -4.549,-2.632 0,-1.924 3.021,-3.979 8.79,-4.685 -0.564,-1.546 -1.854,-2.874 -3.021,-4.354 l -4.413,5.385 c -0.248,0.322 -0.7,0.499 -1.1,0.499 -0.378,0 -0.71,-0.177 -0.71,-0.693 0,-0.376 0.268,-0.967 0.909,-1.723 1.163,-1.346 2.756,-3.398 4.093,-5.13 z m 4.377,8.325 c -2.56,0 -5.582,0.199 -5.582,1.861 0,0.772 0.515,1.224 1.409,1.224 1.799,0 3.649,-1.168 4.173,-3.085 z m -2.189,-14.099 c 0,0.7 0.255,1.281 0.646,1.924 0.843,-1.289 1.599,-2.566 1.66,-3.459 0,-0.447 -0.118,-0.695 -0.457,-0.695 -0.754,0 -1.849,1.128 -1.849,2.23 z" />
			</g>
			<path
   style="fill:none;stroke:#3e3e3d;stroke-width:0.45649999"
   inkscape:connector-curvature="0"
   id="path17682"
   d="m 2161.736,271.559 h -146.199 c -4.521,0 -8.131,-3.665 -8.131,-8.172 v -71.185 c 0,-4.546 3.608,-8.152 8.131,-8.152 h 292.908" />
			<line
   style="fill:none;stroke:#3e3e3d;stroke-width:0.45649999"
   id="line17684"
   y2="271.55899"
   x2="2195.269"
   y1="271.55899"
   x1="2286.146" />
			<line
   style="fill:none;stroke:#3e3e3d;stroke-width:0.45649999"
   id="line17686"
   y2="271.55899"
   x2="2324.8711"
   y1="271.55899"
   x1="2834.2261" />
			<line
   style="fill:none;stroke:#3e3e3d;stroke-width:0.45649999"
   id="line17688"
   y2="271.55899"
   x2="2859.042"
   y1="271.55899"
   x1="2891.2671" />
			<path
   style="fill:none;stroke:#3e3e3d;stroke-width:0.45649999"
   inkscape:connector-curvature="0"
   id="path17690"
   d="m 2574.851,184.05 h 417.119 c 4.536,0 8.205,3.606 8.205,8.152 v 71.185 c 0,4.507 -3.668,8.172 -8.205,8.172 h -76.892" />
			<line
   style="fill:none;stroke:#3e3e3d;stroke-width:0.45649999"
   id="line17692"
   y2="184.05"
   x2="2537.8101"
   y1="184.05"
   x1="2351.595" />
		</g>
	</g>
</g><rect
     style="fill:none"
     height="526.073"
     width="3287.969"
     y="-276.96933"
     x="-116.484"
     id="_x3C_Tranche_x3E_" /></g>
</svg>