<?xml version="1.0" encoding="UTF-8" standalone="no"?>
<!-- Generator: Adobe Illustrator 16.0.0, SVG Export Plug-In . SVG Version: 6.00 Build 0)  -->

<svg
   xmlns:dc="http://purl.org/dc/elements/1.1/"
   xmlns:cc="http://creativecommons.org/ns#"
   xmlns:rdf="http://www.w3.org/1999/02/22-rdf-syntax-ns#"
   xmlns:svg="http://www.w3.org/2000/svg"
   xmlns="http://www.w3.org/2000/svg"
   xmlns:sodipodi="http://sodipodi.sourceforge.net/DTD/sodipodi-0.dtd"
   xmlns:inkscape="http://www.inkscape.org/namespaces/inkscape"
   version="1.1"
   id="Calque_1"
   x="0px"
   y="0px"
   width="744.09448"
   height="106.29921"
   viewBox="0 0 744.09446 106.29921"
   enable-background="new 0 0 538.58 87.667"
   xml:space="preserve"
   inkscape:version="0.48.2 r9819"
   sodipodi:docname="header.svg"><metadata
   id="metadata110"><rdf:RDF><cc:Work
       rdf:about=""><dc:format>image/svg+xml</dc:format><dc:type
         rdf:resource="http://purl.org/dc/dcmitype/StillImage" /></cc:Work></rdf:RDF></metadata><defs
   id="defs108" /><sodipodi:namedview
   pagecolor="#ffffff"
   bordercolor="#666666"
   borderopacity="1"
   objecttolerance="10"
   gridtolerance="10"
   guidetolerance="10"
   inkscape:pageopacity="0"
   inkscape:pageshadow="2"
   inkscape:window-width="1680"
   inkscape:window-height="948"
   id="namedview106"
   showgrid="false"
   units="cm"
   inkscape:zoom="5.864781"
   inkscape:cx="154.82577"
   inkscape:cy="50.267468"
   inkscape:window-x="0"
   inkscape:window-y="0"
   inkscape:window-maximized="1"
   inkscape:current-layer="g3"
   inkscape:document-units="cm" />
<g
   id="g3"
   transform="translate(116,10.632109)">
	<path
   d="m 100.689,47.541 c -0.049,1.646 -0.634,2.756 -0.97,4.117 1.991,-0.441 5.459,-0.898 6.916,-0.843 0.981,0.509 0.728,2.237 0.348,3.711 -2.767,0.136 -4.842,0.474 -7.989,1.003 -1.045,2.777 -1.986,6.512 -2.663,10.17 -0.642,3.471 -1.621,9.895 0.854,12.029 2.475,2.134 6.113,-5.546 7.521,-5.012 0.885,0.336 1.002,2.178 0.29,3.604 -2.764,5.543 -12.309,7.154 -13.023,-2.633 -0.684,3.643 -3.933,7.145 -7.503,5.811 -5.107,-1.908 -2.188,-13.035 -1.453,-17.916 -0.872,-0.131 -1.491,2.153 -1.938,3.39 -1.544,4.276 -3.236,9.569 -3.872,15.25 -2.095,0.837 -3.853,-0.413 -3.874,-2.419 -2.002,2.005 -5.758,3.592 -8.231,1.936 -3.973,-2.66 -0.974,-10.757 -0.727,-15.253 -1.926,2.423 -7.68,1.614 -7.021,-2.662 -2.114,4.745 -3.237,10.48 -3.632,16.946 -2.182,0.244 -3.211,-0.662 -4.356,-1.451 1.201,-7.917 -0.062,-18.301 2.421,-24.939 1.665,-0.209 2.453,0.453 3.389,0.971 -0.044,3.507 -0.633,6.467 -0.968,9.686 2.449,-2.717 2.226,-8.104 4.113,-11.38 1.145,-0.481 2.972,-0.247 3.875,0.243 1.263,4.111 -4.457,10.905 -0.608,11.4 4.011,0.324 3.618,-6.698 5.45,-10.19 1.995,-0.14 3.449,0.261 4.358,1.21 -0.708,3.143 -1.605,6.544 -2.663,11.621 -0.564,2.706 -2.757,10.792 0.242,11.379 2.498,0.488 3.023,-2.812 3.873,-4.602 0.157,-5 0.323,-10.729 1.453,-15.25 0.652,-2.615 2.092,-5.703 4.862,-4.652 -0.819,5.275 -2.293,10.879 -2.199,16.029 2.56,-5.914 4.044,-12.9 7.506,-17.916 1.985,-0.049 3.097,0.777 4.114,1.695 0.187,5.696 -3.719,14.088 -3.146,20.336 0.126,1.373 0.673,2.992 1.936,3.146 3.041,0.374 2.038,-6.116 4.38,-5.191 -0.068,-6.121 1.406,-9.572 2.304,-14.728 -0.992,0.147 -2.106,0.438 -3.396,0.728 -0.843,-0.693 -1.166,-1.494 -1.128,-3.062 1.383,-0.471 3.48,-0.914 5.346,-1.473 0.938,-2.043 1.316,-4.651 2.421,-6.535 1.751,-0.058 2.672,0.717 3.388,1.696 z"
   id="path5"
   inkscape:connector-curvature="0"
   style="fill:#3c3c3b" />
	<path
   d="M 83.58,19.801 C 81.402,14.144 75.051,11.132 69.622,9.589 63.44,7.833 57.107,7.945 50.926,9.578 43.647,11.5 29.326,16.68 31.342,26.579 c 0.009,0.044 6.592,-1.847 6.396,-2.81 -1.062,-5.207 2.92,-10.039 7.807,-11.442 6.646,-1.908 13.676,-1.37 20.173,0.851 5.089,1.739 10.085,5.176 11.84,10.468 1.484,4.478 -0.505,9.01 -3.351,12.443 -6.5,7.839 -16.992,10.852 -27.193,11.638 0.737,-7.709 0.958,-15.455 0.409,-23.202 -0.129,-1.833 -1.092,-3.788 -1.801,-5.448 -0.161,-0.375 -1.753,-3.178 -1.728,-2.815 0.75,10.592 0.073,21.183 -1.42,31.675 -1.893,0.034 -3.754,0.004 -5.552,-0.076 C 29.6,47.535 21.017,46.408 14.88,42.101 10.658,39.139 10.223,34.303 13.726,30.582 c 0.228,-0.243 -2.161,0.488 -2.407,0.588 -1.163,0.473 -2.945,1.005 -3.836,1.952 -3.234,3.437 -3.458,7.678 0.033,11.002 5.002,4.763 13.868,5.747 20.396,6.406 4.733,0.478 9.489,0.416 14.197,-0.112 -1.077,6.963 -4.116,21.986 -5.701,28.826 -0.33,1.422 4.817,3.057 4.942,2.516 2.261,-9.758 4.389,-22.035 5.462,-32.02 7.924,-1.426 15.626,-4.167 22.719,-7.956 C 77.212,37.68 87.427,29.785 83.58,19.801 z"
   id="path7"
   inkscape:connector-curvature="0"
   style="fill:#3c3c3b" />
	<path
   d="m 68.991,42.84 c -0.165,1.812 -0.908,4.267 -1.158,6.215 -0.166,1.295 3.719,2.356 3.727,2.317 0.304,-1.856 0.708,-3.584 0.874,-5.395 0.047,-0.508 -1.254,-1.458 -1.565,-1.741 -0.108,-0.098 -1.875,-1.419 -1.878,-1.396 z"
   id="path9"
   inkscape:connector-curvature="0"
   style="fill:#3c3c3b" />
	<path
   d="m 135.467,64.591 c 0.728,8.072 -5.226,15.201 -13.294,15.929 -8.072,0.729 -15.202,-5.224 -15.928,-13.294 -0.729,-8.071 5.226,-15.201 13.294,-15.928 8.071,-0.724 15.201,5.226 15.928,13.293 z"
   id="path11"
   inkscape:connector-curvature="0"
   style="fill:#009fe3" />
	
		<linearGradient
   id="SVGID_1_"
   gradientUnits="userSpaceOnUse"
   x1="-2707.21"
   y1="4253.3335"
   x2="-2706.21"
   y2="4253.3335"
   gradientTransform="matrix(-3.8537,0.3471,-0.3471,-3.8537,-8836.6572,17397.91)">
		<stop
   offset="0"
   style="stop-color:#FFFFFF"
   id="stop14" />
		<stop
   offset="1"
   style="stop-color:#009FE3"
   id="stop16" />
	</linearGradient>
	<path
   d="m 121.586,72.078 c 1.244,-0.113 2.344,-0.664 3.16,-1.49 2.376,-2.694 2.376,-2.694 2.376,-2.694 l 3.672,3.063 c 0.208,0.176 0.474,0.252 0.724,0.228 0.255,-0.022 0.498,-0.142 0.675,-0.354 0.352,-0.418 0.292,-1.047 -0.126,-1.396 l -3.672,-3.064 3.064,-3.67 c 0.352,-0.422 0.295,-1.049 -0.124,-1.398 -0.424,-0.354 -1.051,-0.295 -1.401,0.125 l -3.064,3.669 c 0,0 0,0 -2.391,-1.94 -1.014,-0.882 -2.366,-1.369 -3.808,-1.24 -2.802,0.25 -4.878,2.739 -4.624,5.541 0.248,2.797 2.738,4.874 5.539,4.62 z m -0.735,-8.188 c 1.71,-0.155 3.228,1.113 3.385,2.824 0.151,1.713 -1.118,3.231 -2.828,3.386 -1.713,0.153 -3.229,-1.113 -3.382,-2.824 -0.155,-1.713 1.112,-3.234 2.825,-3.386 z"
   id="path18"
   inkscape:connector-curvature="0"
   style="fill:url(#SVGID_1_)" />
	<path
   d="m 114.772,62.364 -3.769,0.341 c -0.559,0.051 -0.969,0.541 -0.919,1.1 l 0.747,8.303 c 0.051,0.559 0.544,0.967 1.099,0.917 l 3.571,-0.321 c 1.755,-0.156 3.058,-1.717 2.897,-3.473 -0.074,-0.807 -0.438,-1.512 -0.987,-2.014 0.465,-0.619 0.683,-1.375 0.615,-2.137 -0.151,-1.644 -1.609,-2.864 -3.254,-2.716 z m 0.545,8.321 -2.557,0.23 -0.207,-2.268 2.561,-0.23 c 0.663,-0.062 1.212,0.369 1.267,0.996 0.055,0.647 -0.42,1.213 -1.064,1.272 z m -0.183,-4.305 -0.203,0.019 -2.559,0.229 -0.178,-1.998 2.757,-0.246 c 0.535,-0.049 1.008,0.345 1.053,0.875 0.051,0.553 -0.356,1.076 -0.87,1.121 z"
   id="path20"
   inkscape:connector-curvature="0"
   style="fill:#ffffff" />
<path
   style="fill:#ffffff;fill-opacity:1"
   inkscape:connector-curvature="0"
   id="path3861"
   d="m 121.586,72.078 c 1.244,-0.113 2.344,-0.664 3.16,-1.49 2.376,-2.694 2.376,-2.694 2.376,-2.694 l 3.672,3.063 c 0.208,0.176 0.474,0.252 0.724,0.228 0.255,-0.022 0.498,-0.142 0.675,-0.354 0.352,-0.418 0.292,-1.047 -0.126,-1.396 l -3.672,-3.064 3.064,-3.67 c 0.352,-0.422 0.295,-1.049 -0.124,-1.398 -0.424,-0.354 -1.051,-0.295 -1.401,0.125 l -3.064,3.669 c 0,0 0,0 -2.391,-1.94 -1.014,-0.882 -2.366,-1.369 -3.808,-1.24 -2.802,0.25 -4.878,2.739 -4.624,5.541 0.248,2.797 2.738,4.874 5.539,4.62 z m -0.735,-8.188 c 1.71,-0.155 3.228,1.113 3.385,2.824 0.151,1.713 -1.118,3.231 -2.828,3.386 -1.713,0.153 -3.229,-1.113 -3.382,-2.824 -0.155,-1.713 1.112,-3.234 2.825,-3.386 z" /><path
   style="fill:#ffffff"
   inkscape:connector-curvature="0"
   id="path3863"
   d="m 114.772,62.364 -3.769,0.341 c -0.559,0.051 -0.969,0.541 -0.919,1.1 l 0.747,8.303 c 0.051,0.559 0.544,0.967 1.099,0.917 l 3.571,-0.321 c 1.755,-0.156 3.058,-1.717 2.897,-3.473 -0.074,-0.807 -0.438,-1.512 -0.987,-2.014 0.465,-0.619 0.683,-1.375 0.615,-2.137 -0.151,-1.644 -1.609,-2.864 -3.254,-2.716 z m 0.545,8.321 -2.557,0.23 -0.207,-2.268 2.561,-0.23 c 0.663,-0.062 1.212,0.369 1.267,0.996 0.055,0.647 -0.42,1.213 -1.064,1.272 z m -0.183,-4.305 -0.203,0.019 -2.559,0.229 -0.178,-1.998 2.757,-0.246 c 0.535,-0.049 1.008,0.345 1.053,0.875 0.051,0.553 -0.356,1.076 -0.87,1.121 z" /></g>
<g
   id="g22"
   transform="translate(116,10.632109)">
	<path
   d="m 154.007,60.755 h 1.053 V 71.11 h 2.641 v 0.988 h -3.694 V 60.755 z"
   id="path24"
   inkscape:connector-curvature="0" />
	<path
   d="m 160.81,60.707 h 1.134 l 2.397,11.392 h -1.069 l -0.6,-2.933 h -2.625 l -0.583,2.933 h -1.037 l 2.383,-11.392 z m 1.701,7.501 -1.149,-5.703 -1.15,5.703 h 2.299 z"
   id="path26"
   inkscape:connector-curvature="0" />
	<path
   d="m 168.082,60.755 h 1.523 c 1.831,0 3.208,1.037 3.208,2.852 v 0.048 c 0,1.604 -0.923,2.351 -1.96,2.69 1.248,0.34 2.106,1.167 2.106,2.707 V 69.1 c 0,1.896 -1.426,2.998 -3.565,2.998 h -1.312 V 60.755 z m 1.426,5.153 c 1.458,0 2.252,-0.794 2.252,-2.154 V 63.72 c 0,-1.264 -0.843,-1.993 -2.105,-1.993 h -0.52 v 4.181 h 0.373 z m -0.032,5.218 c 1.491,0 2.431,-0.713 2.431,-2.074 v -0.049 c 0,-1.377 -0.875,-2.155 -2.351,-2.155 h -0.421 v 4.278 h 0.341 z"
   id="path28"
   inkscape:connector-curvature="0" />
	<path
   d="m 173.877,66.604 v -0.356 c 0,-3.742 1.183,-5.639 2.787,-5.639 1.604,0 2.771,1.896 2.771,5.639 v 0.356 c 0,3.744 -1.167,5.64 -2.771,5.64 -1.603,0 -2.787,-1.896 -2.787,-5.64 z m 4.505,0 v -0.356 c 0,-3.191 -0.745,-4.666 -1.718,-4.666 -0.972,0 -1.717,1.475 -1.717,4.666 v 0.356 c 0,3.192 0.745,4.667 1.717,4.667 0.973,0 1.718,-1.475 1.718,-4.667 z"
   id="path30"
   inkscape:connector-curvature="0" />
	<path
   d="m 180.864,57.903 h 0.826 l 1.151,2.123 h -0.811 l -0.761,-1.345 -0.762,1.345 h -0.778 l 1.135,-2.123 z m -0.113,2.852 h 1.053 v 11.343 h -1.053 V 60.755 z"
   id="path32"
   inkscape:connector-curvature="0" />
	<path
   d="m 184.561,61.744 h -1.718 v -0.988 h 4.505 v 0.988 h -1.733 v 10.354 h -1.054 l 0,-10.354 0,0 z"
   id="path34"
   inkscape:connector-curvature="0" />
	<path
   d="m 188.351,60.755 h 3.986 v 0.988 h -2.933 v 4.147 h 2.657 v 0.989 h -2.657 v 4.229 h 2.98 v 0.988 h -4.035 l 0.002,-11.341 0,0 z"
   id="path36"
   inkscape:connector-curvature="0" />
	<path
   d="m 200.258,71.417 c -0.421,0.535 -0.938,0.826 -1.539,0.826 -1.637,0 -2.804,-1.896 -2.804,-5.64 v -0.356 c 0,-3.742 1.183,-5.639 2.787,-5.639 1.604,0 2.771,1.896 2.771,5.639 v 0.356 c 0,1.799 -0.275,3.16 -0.746,4.101 l 0.972,1.102 -0.632,0.6 -0.809,-0.989 z m -0.583,-0.664 -1.118,-1.28 0.616,-0.583 0.843,1.037 c 0.259,-0.762 0.405,-1.881 0.405,-3.322 V 66.25 c 0,-3.192 -0.745,-4.668 -1.718,-4.668 -0.972,0 -1.717,1.476 -1.717,4.668 v 0.355 c 0,3.273 0.745,4.684 1.75,4.684 0.339,0 0.68,-0.163 0.939,-0.536 z"
   id="path38"
   inkscape:connector-curvature="0" />
	<path
   d="m 202.762,69.083 v -8.328 h 1.037 v 8.377 c 0,1.41 0.583,2.14 1.507,2.14 0.907,0 1.507,-0.729 1.507,-2.14 v -8.377 h 1.053 v 8.328 c 0,2.01 -1.021,3.16 -2.561,3.16 -1.538,0.001 -2.543,-1.15 -2.543,-3.16 z"
   id="path40"
   inkscape:connector-curvature="0" />
	<path
   d="m 209.447,60.755 h 1.053 v 11.343 h -1.053 V 60.755 z"
   id="path42"
   inkscape:connector-curvature="0" />
	<path
   d="m 214.825,60.755 h 1.053 V 71.11 h 2.641 v 0.988 h -3.694 V 60.755 z"
   id="path44"
   inkscape:connector-curvature="0" />
	<path
   d="m 219.525,60.755 h 1.054 v 11.343 h -1.054 V 60.755 z"
   id="path46"
   inkscape:connector-curvature="0" />
	<path
   d="m 222.184,60.755 h 1.523 c 1.831,0 3.208,1.037 3.208,2.852 v 0.048 c 0,1.604 -0.923,2.351 -1.96,2.69 1.248,0.34 2.106,1.167 2.106,2.707 V 69.1 c 0,1.896 -1.426,2.998 -3.565,2.998 h -1.312 V 60.755 z m 1.426,5.153 c 1.458,0 2.252,-0.794 2.252,-2.154 V 63.72 c 0,-1.264 -0.843,-1.993 -2.106,-1.993 h -0.519 v 4.181 h 0.373 z m -0.032,5.218 c 1.491,0 2.431,-0.713 2.431,-2.074 v -0.049 c 0,-1.377 -0.875,-2.155 -2.35,-2.155 h -0.421 v 4.278 h 0.34 z"
   id="path48"
   inkscape:connector-curvature="0" />
	<path
   d="m 228.262,60.755 h 3.986 v 0.988 h -2.933 v 4.147 h 2.658 v 0.989 h -2.658 v 4.229 h 2.981 v 0.988 h -4.035 l 0.001,-11.341 0,0 z m 0.405,-2.496 0.972,-0.52 1.232,2.35 h -0.648 l -1.556,-1.83 z"
   id="path50"
   inkscape:connector-curvature="0" />
	<path
   d="m 233.408,60.755 h 1.572 c 1.993,0 3.322,1.183 3.322,3.418 v 0.05 c 0,1.556 -0.681,2.641 -1.782,3.127 l 1.993,4.748 h -1.183 l -1.847,-4.44 c -0.146,0.032 -0.308,0.032 -0.47,0.032 h -0.551 v 4.408 h -1.053 l -0.001,-11.343 0,0 z m 1.588,5.995 c 1.361,0 2.252,-0.858 2.252,-2.512 V 64.19 c 0,-1.718 -0.94,-2.463 -2.301,-2.463 h -0.486 v 5.022 h 0.535 z"
   id="path52"
   inkscape:connector-curvature="0" />
	<path
   d="m 239.583,60.755 h 3.986 v 0.988 h -2.934 v 4.147 h 2.657 v 0.989 h -2.657 v 4.229 h 2.981 v 0.988 h -4.035 l 0.002,-11.341 0,0 z"
   id="path54"
   inkscape:connector-curvature="0" />
	<path
   d="m 247.439,60.755 h 1.053 V 71.11 h 2.641 v 0.988 h -3.694 V 60.755 z"
   id="path56"
   inkscape:connector-curvature="0" />
	<path
   d="m 252.101,60.755 h 3.986 v 0.988 h -2.933 v 4.147 h 2.658 v 0.989 h -2.658 v 4.229 h 2.98 v 0.988 H 252.1 l 0.001,-11.341 0,0 z"
   id="path58"
   inkscape:connector-curvature="0" />
	<path
   d="m 257.078,71.677 v -1.15 c 0.761,0.471 1.394,0.697 1.928,0.697 0.859,0 1.442,-0.535 1.442,-1.458 v -0.032 c 0,-0.826 -0.292,-1.377 -1.458,-2.9 -1.476,-1.896 -1.896,-2.562 -1.896,-3.695 v -0.032 c 0,-1.476 1.053,-2.496 2.366,-2.496 0.697,0 1.199,0.162 1.734,0.47 v 1.15 c -0.616,-0.404 -1.134,-0.6 -1.669,-0.6 -0.794,0 -1.377,0.566 -1.377,1.41 v 0.033 c 0,0.76 0.308,1.295 1.475,2.754 1.426,1.75 1.88,2.608 1.88,3.856 v 0.032 c 0,1.522 -1.07,2.527 -2.447,2.527 -0.698,0.001 -1.314,-0.21 -1.978,-0.566 z"
   id="path60"
   inkscape:connector-curvature="0" />
	<path
   d="m 265.063,66.587 v -0.323 c 0,-3.81 1.442,-5.575 3.111,-5.575 0.519,0 0.794,0.081 1.167,0.26 v 1.117 c -0.421,-0.242 -0.729,-0.355 -1.102,-0.355 -1.167,0 -2.106,1.441 -2.106,4.554 v 0.323 c 0,3.16 0.939,4.555 2.106,4.555 0.389,0 0.729,-0.113 1.134,-0.355 v 1.053 c -0.356,0.209 -0.746,0.324 -1.248,0.324 -1.716,-0.001 -3.062,-1.785 -3.062,-5.578 z"
   id="path62"
   inkscape:connector-curvature="0" />
	<path
   d="m 270.534,60.755 h 1.57 c 1.994,0 3.322,1.183 3.322,3.418 v 0.05 c 0,1.556 -0.681,2.641 -1.781,3.127 l 1.992,4.748 h -1.184 l -1.848,-4.44 c -0.146,0.032 -0.308,0.032 -0.47,0.032 h -0.552 v 4.408 H 270.53 V 60.755 h 0.004 z m 1.588,5.995 c 1.361,0 2.253,-0.858 2.253,-2.512 V 64.19 c 0,-1.718 -0.94,-2.463 -2.302,-2.463 h -0.486 v 5.022 h 0.535 z"
   id="path64"
   inkscape:connector-curvature="0" />
	<path
   d="m 276.709,60.755 h 3.986 v 0.988 h -2.934 v 4.147 h 2.657 v 0.989 h -2.657 v 4.229 h 2.981 v 0.988 h -4.035 l 0.002,-11.341 0,0 z m 2.593,-3.013 0.973,0.518 -1.571,1.832 h -0.647 l 1.245,-2.35 z"
   id="path66"
   inkscape:connector-curvature="0" />
	<path
   d="m 283.996,60.707 h 1.134 l 2.398,11.392 h -1.069 l -0.601,-2.933 h -2.625 l -0.584,2.933 h -1.036 l 2.383,-11.392 z m 1.701,7.501 -1.15,-5.703 -1.149,5.703 h 2.299 z"
   id="path68"
   inkscape:connector-curvature="0" />
	<path
   d="m 289.146,61.744 h -1.718 v -0.988 h 4.505 v 0.988 H 290.2 v 10.354 h -1.054 V 61.744 z"
   id="path70"
   inkscape:connector-curvature="0" />
	<path
   d="m 292.979,60.755 h 1.054 v 11.343 h -1.054 V 60.755 z"
   id="path72"
   inkscape:connector-curvature="0" />
	<path
   d="m 295.636,60.755 h 3.824 v 0.988 h -2.771 v 4.277 h 2.496 v 0.973 h -2.496 v 5.104 h -1.054 l 0.001,-11.342 0,0 z"
   id="path74"
   inkscape:connector-curvature="0" />
	<path
   d="m 300.224,71.677 v -1.15 c 0.763,0.471 1.395,0.697 1.929,0.697 0.858,0 1.441,-0.535 1.441,-1.458 v -0.032 c 0,-0.826 -0.291,-1.377 -1.458,-2.9 -1.475,-1.896 -1.896,-2.562 -1.896,-3.695 v -0.032 c 0,-1.476 1.054,-2.496 2.366,-2.496 0.696,0 1.198,0.162 1.733,0.47 v 1.15 c -0.616,-0.404 -1.135,-0.6 -1.67,-0.6 -0.794,0 -1.377,0.566 -1.377,1.41 v 0.033 c 0,0.76 0.308,1.295 1.476,2.754 1.426,1.75 1.879,2.608 1.879,3.856 v 0.032 c 0,1.522 -1.068,2.527 -2.446,2.527 -0.697,0.001 -1.313,-0.21 -1.977,-0.566 z"
   id="path76"
   inkscape:connector-curvature="0" />
</g>
<g
   id="g78"
   transform="translate(116,10.632109)">
	<g
   id="g80">
		<path
   d="M 424.604,70.225 V 64.9 h 0.662 v 5.355 c 0,0.902 0.373,1.369 0.965,1.369 0.58,0 0.963,-0.467 0.963,-1.369 V 64.9 h 0.674 v 5.325 c 0,1.284 -0.652,2.021 -1.637,2.021 -0.985,0 -1.627,-0.737 -1.627,-2.021 z"
   id="path82"
   inkscape:connector-curvature="0"
   style="fill:#9b9b9a" />
		<path
   d="m 428.93,64.9 h 0.675 l 2,5.439 V 64.9 h 0.651 v 7.252 h -0.632 l -2.052,-5.595 v 5.595 h -0.644 l 0.002,-7.252 0,0 z"
   id="path84"
   inkscape:connector-curvature="0"
   style="fill:#9b9b9a" />
		<path
   d="m 433.34,64.9 h 2.549 v 0.633 h -1.876 v 2.651 h 1.699 v 0.632 h -1.699 v 2.704 h 1.907 v 0.632 h -2.58 V 64.9 z"
   id="path86"
   inkscape:connector-curvature="0"
   style="fill:#9b9b9a" />
		<path
   d="m 438.146,71.882 v -0.734 c 0.487,0.301 0.892,0.445 1.233,0.445 0.549,0 0.922,-0.342 0.922,-0.932 V 70.64 c 0,-0.528 -0.187,-0.881 -0.933,-1.854 -0.943,-1.213 -1.212,-1.638 -1.212,-2.363 v -0.021 c 0,-0.942 0.673,-1.596 1.513,-1.596 0.445,0 0.768,0.104 1.107,0.3 v 0.736 c -0.394,-0.26 -0.726,-0.383 -1.066,-0.383 -0.508,0 -0.881,0.361 -0.881,0.9 v 0.021 c 0,0.486 0.197,0.828 0.943,1.761 0.91,1.119 1.2,1.668 1.2,2.466 v 0.021 c 0,0.974 -0.684,1.615 -1.563,1.615 -0.445,0.003 -0.839,-0.132 -1.263,-0.361 z"
   id="path88"
   inkscape:connector-curvature="0"
   style="fill:#9b9b9a" />
		<path
   d="m 441.621,68.64 v -0.229 c 0,-2.393 0.756,-3.604 1.782,-3.604 1.024,0 1.771,1.212 1.771,3.604 v 0.229 c 0,2.393 -0.746,3.605 -1.771,3.605 -1.026,10e-4 -1.782,-1.212 -1.782,-3.605 z m 2.88,0 v -0.229 c 0,-2.041 -0.477,-2.983 -1.098,-2.983 -0.622,0 -1.1,0.942 -1.1,2.983 v 0.229 c 0,2.041 0.478,2.984 1.1,2.984 0.621,0.001 1.098,-0.943 1.098,-2.984 z"
   id="path90"
   inkscape:connector-curvature="0"
   style="fill:#9b9b9a" />
		<path
   d="m 446.087,64.9 h 0.674 v 6.621 h 1.688 v 0.632 h -2.362 V 64.9 z"
   id="path92"
   inkscape:connector-curvature="0"
   style="fill:#9b9b9a" />
		<path
   d="M 449.035,70.225 V 64.9 h 0.663 v 5.355 c 0,0.902 0.373,1.369 0.964,1.369 0.58,0 0.963,-0.467 0.963,-1.369 V 64.9 h 0.674 v 5.325 c 0,1.284 -0.651,2.021 -1.637,2.021 -0.986,0 -1.627,-0.737 -1.627,-2.021 z"
   id="path94"
   inkscape:connector-curvature="0"
   style="fill:#9b9b9a" />
		<path
   d="M 454.099,65.533 H 453 V 64.9 h 2.881 v 0.633 h -1.108 v 6.62 h -0.674 v -6.62 z"
   id="path96"
   inkscape:connector-curvature="0"
   style="fill:#9b9b9a" />
		<path
   d="m 456.631,64.9 h 0.673 v 7.252 h -0.673 V 64.9 z"
   id="path98"
   inkscape:connector-curvature="0"
   style="fill:#9b9b9a" />
		<path
   d="m 458.242,68.64 v -0.229 c 0,-2.393 0.757,-3.604 1.782,-3.604 1.024,0 1.771,1.212 1.771,3.604 v 0.229 c 0,2.393 -0.746,3.605 -1.771,3.605 -1.025,10e-4 -1.782,-1.212 -1.782,-3.605 z m 2.881,0 v -0.229 c 0,-2.041 -0.478,-2.983 -1.099,-2.983 -0.621,0 -1.099,0.942 -1.099,2.983 v 0.229 c 0,2.041 0.478,2.984 1.099,2.984 0.621,0 1.099,-0.943 1.099,-2.984 z"
   id="path100"
   inkscape:connector-curvature="0"
   style="fill:#9b9b9a" />
		<path
   d="m 462.709,64.9 h 0.673 l 2,5.439 V 64.9 h 0.652 v 7.252 h -0.632 l -2.052,-5.595 v 5.595 h -0.643 l 0.002,-7.252 0,0 z"
   id="path102"
   inkscape:connector-curvature="0"
   style="fill:#9b9b9a" />
	</g>
	<path
   d="m 527.479,64.625 h -6.681 v 1.918 h 2.386 v 5.711 h 1.907 v -5.711 h 2.388 v -1.918 z m -6.96,2.384 c 0,-0.654 -0.229,-1.209 -0.703,-1.68 -0.463,-0.469 -1.025,-0.705 -1.677,-0.705 h -5.25 v 7.629 h 1.912 v -5.711 h 3.146 c 0.182,0 0.338,0.062 0.467,0.192 0.132,0.129 0.194,0.284 0.194,0.468 v 5.051 h 1.91 v -5.244 l 10e-4,0 z m -8.29,-2.384 h -1.914 v 7.629 h 1.914 v -7.629 z m -4.677,3.615 c -0.128,0.129 -0.285,0.196 -0.468,0.196 h -3.144 v -1.894 h 3.144 c 0.185,0 0.34,0.062 0.466,0.192 0.133,0.128 0.197,0.284 0.197,0.464 v 0.573 c 0,0.186 -0.064,0.341 -0.195,0.469 m 2.107,-1.231 c 0,-0.655 -0.235,-1.213 -0.703,-1.68 -0.466,-0.469 -1.028,-0.705 -1.68,-0.705 h -5.249 l 0.001,7.629 h 1.912 v -1.905 l 2.479,1.905 h 2.766 l -2.67,-1.905 h 0.763 c 0.651,0 1.213,-0.235 1.677,-0.7 0.47,-0.469 0.705,-1.029 0.705,-1.688 v -0.951 z m -10.301,1.231 c -0.131,0.129 -0.284,0.196 -0.469,0.196 h -3.146 v -1.894 l 3.146,-0.006 c 0.185,0.006 0.338,0.066 0.469,0.198 0.13,0.128 0.195,0.284 0.195,0.464 v 0.573 c 0.002,0.186 -0.065,0.339 -0.195,0.469 m 2.108,-1.231 c 0,-0.655 -0.232,-1.213 -0.708,-1.68 -0.463,-0.469 -1.022,-0.705 -1.673,-0.705 h -5.252 v 7.629 h 1.912 v -1.905 l 3.344,-0.004 c 0.648,0.004 1.206,-0.231 1.669,-0.696 0.474,-0.469 0.708,-1.031 0.708,-1.688 v -0.951 z m -13.341,3.34 c -0.157,0 -0.292,-0.057 -0.405,-0.174 -0.115,-0.111 -0.175,-0.244 -0.175,-0.397 0.002,-0.149 0.06,-0.278 0.175,-0.394 0.113,-0.113 0.249,-0.17 0.405,-0.17 h 3.233 v 1.135 h -3.233 z m 5.146,-3.34 c 0,-0.654 -0.233,-1.209 -0.705,-1.68 -0.467,-0.469 -1.026,-0.705 -1.68,-0.705 h -4.77 v 1.918 h 4.676 c 0.152,0 0.283,0.055 0.395,0.17 0.115,0.109 0.172,0.244 0.172,0.396 v 0.576 h -3.522 c -0.603,0 -1.12,0.229 -1.55,0.692 -0.432,0.465 -0.646,0.996 -0.646,1.592 0.002,0.604 0.215,1.137 0.646,1.602 0.43,0.458 0.947,0.684 1.55,0.684 h 5.437 V 67.01 h -0.003 z M 483,68.441 l 2.598,-3.814 h -2.437 l -1.378,2.22 -1.379,-2.22 -2.427,0.002 2.593,3.812 -2.593,3.812 h 2.427 l 1.379,-2.219 1.378,2.219 h 2.437 L 483,68.441 z m -5.067,1.908 h -4.771 v -1.135 h 3.813 v -1.529 h -3.813 v -1.143 h 4.289 v -1.916 l -6.209,0.002 v 7.625 h 6.688 v -1.904 h 0.003 z"
   id="path104"
   inkscape:connector-curvature="0"
   style="fill:#9b9b9a" />
</g>
</svg>