<?xml version="1.0" encoding="utf-8"?>
<!-- Generator: Adobe Illustrator 16.0.0, SVG Export Plug-In . SVG Version: 6.00 Build 0)  -->
<!DOCTYPE svg PUBLIC "-//W3C//DTD SVG 1.0//EN" "http://www.w3.org/TR/2001/REC-SVG-20010904/DTD/svg10.dtd">
<svg version="1.0" id="Calque_1" xmlns="http://www.w3.org/2000/svg" xmlns:xlink="http://www.w3.org/1999/xlink" x="0px" y="0px"
	 width="538.58px" height="87.667px" viewBox="0 0 538.58 87.667" enable-background="new 0 0 538.58 87.667" xml:space="preserve">
<g>
	<g>
		<path fill="#3C3C3B" d="M100.689,47.541c-0.049,1.646-0.634,2.756-0.97,4.117c1.991-0.441,5.459-0.898,6.916-0.843
			c0.981,0.509,0.728,2.237,0.348,3.711c-2.767,0.136-4.842,0.474-7.989,1.003c-1.045,2.777-1.986,6.512-2.663,10.17
			c-0.642,3.471-1.621,9.895,0.854,12.029c2.475,2.134,6.113-5.546,7.521-5.012c0.885,0.336,1.002,2.178,0.29,3.604
			c-2.764,5.543-12.309,7.154-13.023-2.633c-0.684,3.643-3.933,7.145-7.503,5.811c-5.107-1.908-2.188-13.035-1.453-17.916
			c-0.872-0.131-1.491,2.153-1.938,3.39c-1.544,4.276-3.236,9.569-3.872,15.25c-2.095,0.837-3.853-0.413-3.874-2.419
			c-2.002,2.005-5.758,3.592-8.231,1.936c-3.973-2.66-0.974-10.757-0.727-15.253c-1.926,2.423-7.68,1.614-7.021-2.662
			c-2.114,4.745-3.237,10.48-3.632,16.946c-2.182,0.244-3.211-0.662-4.356-1.451c1.201-7.917-0.062-18.301,2.421-24.939
			c1.665-0.209,2.453,0.453,3.389,0.971c-0.044,3.507-0.633,6.467-0.968,9.686c2.449-2.717,2.226-8.104,4.113-11.38
			c1.145-0.481,2.972-0.247,3.875,0.243c1.263,4.111-4.457,10.905-0.608,11.4c4.011,0.324,3.618-6.698,5.45-10.19
			c1.995-0.14,3.449,0.261,4.358,1.21c-0.708,3.143-1.605,6.544-2.663,11.621c-0.564,2.706-2.757,10.792,0.242,11.379
			c2.498,0.488,3.023-2.812,3.873-4.602c0.157-5,0.323-10.729,1.453-15.25c0.652-2.615,2.092-5.703,4.862-4.652
			c-0.819,5.275-2.293,10.879-2.199,16.029c2.56-5.914,4.044-12.9,7.506-17.916c1.985-0.049,3.097,0.777,4.114,1.695
			c0.187,5.696-3.719,14.088-3.146,20.336c0.126,1.373,0.673,2.992,1.936,3.146c3.041,0.374,2.038-6.116,4.38-5.191
			c-0.068-6.121,1.406-9.572,2.304-14.728c-0.992,0.147-2.106,0.438-3.396,0.728c-0.843-0.693-1.166-1.494-1.128-3.062
			c1.383-0.471,3.48-0.914,5.346-1.473c0.938-2.043,1.316-4.651,2.421-6.535C99.052,45.787,99.973,46.562,100.689,47.541z"/>
		<path fill="#3C3C3B" d="M83.58,19.801c-2.178-5.657-8.529-8.669-13.958-10.212C63.44,7.833,57.107,7.945,50.926,9.578
			c-7.279,1.922-21.6,7.102-19.584,17.001c0.009,0.044,6.592-1.847,6.396-2.81c-1.062-5.207,2.92-10.039,7.807-11.442
			c6.646-1.908,13.676-1.37,20.173,0.851c5.089,1.739,10.085,5.176,11.84,10.468c1.484,4.478-0.505,9.01-3.351,12.443
			c-6.5,7.839-16.992,10.852-27.193,11.638c0.737-7.709,0.958-15.455,0.409-23.202c-0.129-1.833-1.092-3.788-1.801-5.448
			c-0.161-0.375-1.753-3.178-1.728-2.815c0.75,10.592,0.073,21.183-1.42,31.675c-1.893,0.034-3.754,0.004-5.552-0.076
			c-7.322-0.326-15.905-1.453-22.042-5.76c-4.222-2.962-4.657-7.798-1.154-11.519c0.228-0.243-2.161,0.488-2.407,0.588
			c-1.163,0.473-2.945,1.005-3.836,1.952C4.249,36.559,4.025,40.8,7.516,44.124c5.002,4.763,13.868,5.747,20.396,6.406
			c4.733,0.478,9.489,0.416,14.197-0.112c-1.077,6.963-4.116,21.986-5.701,28.826c-0.33,1.422,4.817,3.057,4.942,2.516
			c2.261-9.758,4.389-22.035,5.462-32.02c7.924-1.426,15.626-4.167,22.719-7.956C77.212,37.68,87.427,29.785,83.58,19.801z"/>
		<g>
			<path fill="#3C3C3B" d="M68.991,42.84c-0.165,1.812-0.908,4.267-1.158,6.215c-0.166,1.295,3.719,2.356,3.727,2.317
				c0.304-1.856,0.708-3.584,0.874-5.395c0.047-0.508-1.254-1.458-1.565-1.741C70.761,44.138,68.994,42.817,68.991,42.84
				L68.991,42.84z"/>
		</g>
	</g>
	<path fill="#009FE3" d="M135.467,64.591c0.728,8.072-5.226,15.201-13.294,15.929c-8.072,0.729-15.202-5.224-15.928-13.294
		c-0.729-8.071,5.226-15.201,13.294-15.928C127.61,50.574,134.74,56.524,135.467,64.591z"/>
	<g>
		
			<linearGradient id="SVGID_1_" gradientUnits="userSpaceOnUse" x1="-2552.333" y1="3806.7046" x2="-2556.2021" y2="3806.7046" gradientTransform="matrix(0.996 -0.0897 -0.0897 -0.996 3003.5996 3629.6326)">
			<stop  offset="0" style="stop-color:#FFFFFF"/>
			<stop  offset="1" style="stop-color:#009FE3"/>
		</linearGradient>
		<path fill="url(#SVGID_1_)" d="M121.586,72.078c1.244-0.113,2.344-0.664,3.16-1.49c2.376-2.694,2.376-2.694,2.376-2.694
			l3.672,3.063c0.208,0.176,0.474,0.252,0.724,0.228c0.255-0.022,0.498-0.142,0.675-0.354c0.352-0.418,0.292-1.047-0.126-1.396
			l-3.672-3.064l3.064-3.67c0.352-0.422,0.295-1.049-0.124-1.398c-0.424-0.354-1.051-0.295-1.401,0.125l-3.064,3.669
			c0,0,0,0-2.391-1.94c-1.014-0.882-2.366-1.369-3.808-1.24c-2.802,0.25-4.878,2.739-4.624,5.541
			C116.295,70.255,118.785,72.332,121.586,72.078z M120.851,63.89c1.71-0.155,3.228,1.113,3.385,2.824
			c0.151,1.713-1.118,3.231-2.828,3.386c-1.713,0.153-3.229-1.113-3.382-2.824C117.871,65.563,119.138,64.042,120.851,63.89z"/>
		<g>
			<path fill="#FFFFFF" d="M114.772,62.364l-3.769,0.341c-0.559,0.051-0.969,0.541-0.919,1.1l0.747,8.303
				c0.051,0.559,0.544,0.967,1.099,0.917l3.571-0.321c1.755-0.156,3.058-1.717,2.897-3.473c-0.074-0.807-0.438-1.512-0.987-2.014
				c0.465-0.619,0.683-1.375,0.615-2.137C117.875,63.436,116.417,62.216,114.772,62.364z M115.317,70.685l-2.557,0.23l-0.207-2.268
				l2.561-0.23c0.663-0.062,1.212,0.369,1.267,0.996C116.436,70.06,115.961,70.626,115.317,70.685z M115.134,66.38l-0.203,0.019
				l-2.559,0.229l-0.178-1.998l2.757-0.246c0.535-0.049,1.008,0.345,1.053,0.875C116.055,65.812,115.648,66.335,115.134,66.38z"/>
		</g>
	</g>
</g>
<g>
	<path d="M154.007,60.755h1.053V71.11h2.641v0.988h-3.694V60.755z"/>
	<path d="M160.81,60.707h1.134l2.397,11.392h-1.069l-0.6-2.933h-2.625l-0.583,2.933h-1.037L160.81,60.707z M162.511,68.208
		l-1.149-5.703l-1.15,5.703H162.511z"/>
	<path d="M168.082,60.755h1.523c1.831,0,3.208,1.037,3.208,2.852v0.048c0,1.604-0.923,2.351-1.96,2.69
		c1.248,0.34,2.106,1.167,2.106,2.707V69.1c0,1.896-1.426,2.998-3.565,2.998h-1.312V60.755z M169.508,65.908
		c1.458,0,2.252-0.794,2.252-2.154V63.72c0-1.264-0.843-1.993-2.105-1.993h-0.52v4.181H169.508z M169.476,71.126
		c1.491,0,2.431-0.713,2.431-2.074v-0.049c0-1.377-0.875-2.155-2.351-2.155h-0.421v4.278H169.476z"/>
	<path d="M173.877,66.604v-0.356c0-3.742,1.183-5.639,2.787-5.639s2.771,1.896,2.771,5.639v0.356c0,3.744-1.167,5.64-2.771,5.64
		C175.061,72.244,173.877,70.348,173.877,66.604z M178.382,66.604v-0.356c0-3.191-0.745-4.666-1.718-4.666
		c-0.972,0-1.717,1.475-1.717,4.666v0.356c0,3.192,0.745,4.667,1.717,4.667C177.637,71.271,178.382,69.796,178.382,66.604z"/>
	<path d="M180.864,57.903h0.826l1.151,2.123h-0.811l-0.761-1.345l-0.762,1.345h-0.778L180.864,57.903z M180.751,60.755h1.053v11.343
		h-1.053V60.755z"/>
	<path d="M184.561,61.744h-1.718v-0.988h4.505v0.988h-1.733v10.354h-1.054L184.561,61.744L184.561,61.744z"/>
	<path d="M188.351,60.755h3.986v0.988h-2.933v4.147h2.657v0.989h-2.657v4.229h2.98v0.988h-4.035L188.351,60.755L188.351,60.755z"/>
	<path d="M200.258,71.417c-0.421,0.535-0.938,0.826-1.539,0.826c-1.637,0-2.804-1.896-2.804-5.64v-0.356
		c0-3.742,1.183-5.639,2.787-5.639c1.604,0,2.771,1.896,2.771,5.639v0.356c0,1.799-0.275,3.16-0.746,4.101l0.972,1.102l-0.632,0.6
		L200.258,71.417z M199.675,70.753l-1.118-1.28l0.616-0.583l0.843,1.037c0.259-0.762,0.405-1.881,0.405-3.322V66.25
		c0-3.192-0.745-4.668-1.718-4.668c-0.972,0-1.717,1.476-1.717,4.668v0.355c0,3.273,0.745,4.684,1.75,4.684
		C199.075,71.289,199.416,71.126,199.675,70.753z"/>
	<path d="M202.762,69.083v-8.328h1.037v8.377c0,1.41,0.583,2.14,1.507,2.14c0.907,0,1.507-0.729,1.507-2.14v-8.377h1.053v8.328
		c0,2.01-1.021,3.16-2.561,3.16C203.767,72.244,202.762,71.093,202.762,69.083z"/>
	<path d="M209.447,60.755h1.053v11.343h-1.053V60.755z"/>
	<path d="M214.825,60.755h1.053V71.11h2.641v0.988h-3.694V60.755z"/>
	<path d="M219.525,60.755h1.054v11.343h-1.054V60.755z"/>
	<path d="M222.184,60.755h1.523c1.831,0,3.208,1.037,3.208,2.852v0.048c0,1.604-0.923,2.351-1.96,2.69
		c1.248,0.34,2.106,1.167,2.106,2.707V69.1c0,1.896-1.426,2.998-3.565,2.998h-1.312V60.755z M223.61,65.908
		c1.458,0,2.252-0.794,2.252-2.154V63.72c0-1.264-0.843-1.993-2.106-1.993h-0.519v4.181H223.61z M223.578,71.126
		c1.491,0,2.431-0.713,2.431-2.074v-0.049c0-1.377-0.875-2.155-2.35-2.155h-0.421v4.278H223.578z"/>
	<path d="M228.262,60.755h3.986v0.988h-2.933v4.147h2.658v0.989h-2.658v4.229h2.981v0.988h-4.035L228.262,60.755L228.262,60.755z
		 M228.667,58.259l0.972-0.52l1.232,2.35h-0.648L228.667,58.259z"/>
	<path d="M233.408,60.755h1.572c1.993,0,3.322,1.183,3.322,3.418v0.05c0,1.556-0.681,2.641-1.782,3.127l1.993,4.748h-1.183
		l-1.847-4.44c-0.146,0.032-0.308,0.032-0.47,0.032h-0.551v4.408h-1.053L233.408,60.755L233.408,60.755z M234.996,66.75
		c1.361,0,2.252-0.858,2.252-2.512V64.19c0-1.718-0.94-2.463-2.301-2.463h-0.486v5.022H234.996z"/>
	<path d="M239.583,60.755h3.986v0.988h-2.934v4.147h2.657v0.989h-2.657v4.229h2.981v0.988h-4.035L239.583,60.755L239.583,60.755z"/>
	<path d="M247.439,60.755h1.053V71.11h2.641v0.988h-3.694V60.755z"/>
	<path d="M252.101,60.755h3.986v0.988h-2.933v4.147h2.658v0.989h-2.658v4.229h2.98v0.988H252.1L252.101,60.755L252.101,60.755z"/>
	<path d="M257.078,71.677v-1.15c0.761,0.471,1.394,0.697,1.928,0.697c0.859,0,1.442-0.535,1.442-1.458v-0.032
		c0-0.826-0.292-1.377-1.458-2.9c-1.476-1.896-1.896-2.562-1.896-3.695v-0.032c0-1.476,1.053-2.496,2.366-2.496
		c0.697,0,1.199,0.162,1.734,0.47v1.15c-0.616-0.404-1.134-0.6-1.669-0.6c-0.794,0-1.377,0.566-1.377,1.41v0.033
		c0,0.76,0.308,1.295,1.475,2.754c1.426,1.75,1.88,2.608,1.88,3.856v0.032c0,1.522-1.07,2.527-2.447,2.527
		C258.358,72.244,257.742,72.033,257.078,71.677z"/>
	<path d="M265.063,66.587v-0.323c0-3.81,1.442-5.575,3.111-5.575c0.519,0,0.794,0.081,1.167,0.26v1.117
		c-0.421-0.242-0.729-0.355-1.102-0.355c-1.167,0-2.106,1.441-2.106,4.554v0.323c0,3.16,0.939,4.555,2.106,4.555
		c0.389,0,0.729-0.113,1.134-0.355v1.053c-0.356,0.209-0.746,0.324-1.248,0.324C266.409,72.164,265.063,70.38,265.063,66.587z"/>
	<path d="M270.534,60.755h1.57c1.994,0,3.322,1.183,3.322,3.418v0.05c0,1.556-0.681,2.641-1.781,3.127l1.992,4.748h-1.184
		l-1.848-4.44c-0.146,0.032-0.308,0.032-0.47,0.032h-0.552v4.408h-1.053V60.755H270.534z M272.122,66.75
		c1.361,0,2.253-0.858,2.253-2.512V64.19c0-1.718-0.94-2.463-2.302-2.463h-0.486v5.022H272.122z"/>
	<path d="M276.709,60.755h3.986v0.988h-2.934v4.147h2.657v0.989h-2.657v4.229h2.981v0.988h-4.035L276.709,60.755L276.709,60.755z
		 M279.302,57.742l0.973,0.518l-1.571,1.832h-0.647L279.302,57.742z"/>
	<path d="M283.996,60.707h1.134l2.398,11.392h-1.069l-0.601-2.933h-2.625l-0.584,2.933h-1.036L283.996,60.707z M285.697,68.208
		l-1.15-5.703l-1.149,5.703H285.697z"/>
	<path d="M289.146,61.744h-1.718v-0.988h4.505v0.988h-1.733v10.354h-1.054V61.744z"/>
	<path d="M292.979,60.755h1.054v11.343h-1.054V60.755z"/>
	<path d="M295.636,60.755h3.824v0.988h-2.771v4.277h2.496v0.973h-2.496v5.104h-1.054L295.636,60.755L295.636,60.755z"/>
	<path d="M300.224,71.677v-1.15c0.763,0.471,1.395,0.697,1.929,0.697c0.858,0,1.441-0.535,1.441-1.458v-0.032
		c0-0.826-0.291-1.377-1.458-2.9c-1.475-1.896-1.896-2.562-1.896-3.695v-0.032c0-1.476,1.054-2.496,2.366-2.496
		c0.696,0,1.198,0.162,1.733,0.47v1.15c-0.616-0.404-1.135-0.6-1.67-0.6c-0.794,0-1.377,0.566-1.377,1.41v0.033
		c0,0.76,0.308,1.295,1.476,2.754c1.426,1.75,1.879,2.608,1.879,3.856v0.032c0,1.522-1.068,2.527-2.446,2.527
		C301.504,72.244,300.888,72.033,300.224,71.677z"/>
</g>
<g>
	<g>
		<path fill="#9B9B9A" d="M424.604,70.225V64.9h0.662v5.355c0,0.902,0.373,1.369,0.965,1.369c0.58,0,0.963-0.467,0.963-1.369V64.9
			h0.674v5.325c0,1.284-0.652,2.021-1.637,2.021C425.246,72.246,424.604,71.509,424.604,70.225z"/>
		<path fill="#9B9B9A" d="M428.93,64.9h0.675l2,5.439V64.9h0.651v7.252h-0.632l-2.052-5.595v5.595h-0.644L428.93,64.9L428.93,64.9z"
			/>
		<path fill="#9B9B9A" d="M433.34,64.9h2.549v0.633h-1.876v2.651h1.699v0.632h-1.699v2.704h1.907v0.632h-2.58V64.9z"/>
		<path fill="#9B9B9A" d="M438.146,71.882v-0.734c0.487,0.301,0.892,0.445,1.233,0.445c0.549,0,0.922-0.342,0.922-0.932V70.64
			c0-0.528-0.187-0.881-0.933-1.854c-0.943-1.213-1.212-1.638-1.212-2.363v-0.021c0-0.942,0.673-1.596,1.513-1.596
			c0.445,0,0.768,0.104,1.107,0.3v0.736c-0.394-0.26-0.726-0.383-1.066-0.383c-0.508,0-0.881,0.361-0.881,0.9v0.021
			c0,0.486,0.197,0.828,0.943,1.761c0.91,1.119,1.2,1.668,1.2,2.466v0.021c0,0.974-0.684,1.615-1.563,1.615
			C438.964,72.246,438.57,72.111,438.146,71.882z"/>
		<path fill="#9B9B9A" d="M441.621,68.64v-0.229c0-2.393,0.756-3.604,1.782-3.604c1.024,0,1.771,1.212,1.771,3.604v0.229
			c0,2.393-0.746,3.605-1.771,3.605C442.377,72.246,441.621,71.033,441.621,68.64z M444.501,68.64v-0.229
			c0-2.041-0.477-2.983-1.098-2.983c-0.622,0-1.1,0.942-1.1,2.983v0.229c0,2.041,0.478,2.984,1.1,2.984
			C444.024,71.625,444.501,70.681,444.501,68.64z"/>
		<path fill="#9B9B9A" d="M446.087,64.9h0.674v6.621h1.688v0.632h-2.362V64.9z"/>
		<path fill="#9B9B9A" d="M449.035,70.225V64.9h0.663v5.355c0,0.902,0.373,1.369,0.964,1.369c0.58,0,0.963-0.467,0.963-1.369V64.9
			h0.674v5.325c0,1.284-0.651,2.021-1.637,2.021S449.035,71.509,449.035,70.225z"/>
		<path fill="#9B9B9A" d="M454.099,65.533H453V64.9h2.881v0.633h-1.108v6.62h-0.674V65.533z"/>
		<path fill="#9B9B9A" d="M456.631,64.9h0.673v7.252h-0.673V64.9z"/>
		<path fill="#9B9B9A" d="M458.242,68.64v-0.229c0-2.393,0.757-3.604,1.782-3.604c1.024,0,1.771,1.212,1.771,3.604v0.229
			c0,2.393-0.746,3.605-1.771,3.605C458.999,72.246,458.242,71.033,458.242,68.64z M461.123,68.64v-0.229
			c0-2.041-0.478-2.983-1.099-2.983s-1.099,0.942-1.099,2.983v0.229c0,2.041,0.478,2.984,1.099,2.984S461.123,70.681,461.123,68.64z
			"/>
		<path fill="#9B9B9A" d="M462.709,64.9h0.673l2,5.439V64.9h0.652v7.252h-0.632l-2.052-5.595v5.595h-0.643L462.709,64.9
			L462.709,64.9z"/>
	</g>
	<path fill="#9B9B9A" d="M527.479,64.625h-6.681v1.918h2.386v5.711h1.907v-5.711h2.388V64.625z M520.519,67.009
		c0-0.654-0.229-1.209-0.703-1.68c-0.463-0.469-1.025-0.705-1.677-0.705h-5.25v7.629h1.912v-5.711h3.146
		c0.182,0,0.338,0.062,0.467,0.192c0.132,0.129,0.194,0.284,0.194,0.468v5.051h1.91V67.009L520.519,67.009z M512.229,64.625h-1.914
		v7.629h1.914V64.625z M507.552,68.24c-0.128,0.129-0.285,0.196-0.468,0.196h-3.144v-1.894h3.144c0.185,0,0.34,0.062,0.466,0.192
		c0.133,0.128,0.197,0.284,0.197,0.464v0.573C507.747,67.957,507.683,68.112,507.552,68.24 M509.659,67.009
		c0-0.655-0.235-1.213-0.703-1.68c-0.466-0.469-1.028-0.705-1.68-0.705h-5.249l0.001,7.629h1.912v-1.905l2.479,1.905h2.766
		l-2.67-1.905h0.763c0.651,0,1.213-0.235,1.677-0.7c0.47-0.469,0.705-1.029,0.705-1.688V67.009z M499.358,68.24
		c-0.131,0.129-0.284,0.196-0.469,0.196h-3.146v-1.894l3.146-0.006c0.185,0.006,0.338,0.066,0.469,0.198
		c0.13,0.128,0.195,0.284,0.195,0.464v0.573C499.555,67.957,499.488,68.11,499.358,68.24 M501.466,67.009
		c0-0.655-0.232-1.213-0.708-1.68c-0.463-0.469-1.022-0.705-1.673-0.705h-5.252v7.629h1.912v-1.905l3.344-0.004
		c0.648,0.004,1.206-0.231,1.669-0.696c0.474-0.469,0.708-1.031,0.708-1.688V67.009z M488.125,70.349
		c-0.157,0-0.292-0.057-0.405-0.174c-0.115-0.111-0.175-0.244-0.175-0.397c0.002-0.149,0.06-0.278,0.175-0.394
		c0.113-0.113,0.249-0.17,0.405-0.17h3.233v1.135H488.125z M493.271,67.009c0-0.654-0.233-1.209-0.705-1.68
		c-0.467-0.469-1.026-0.705-1.68-0.705h-4.77v1.918h4.676c0.152,0,0.283,0.055,0.395,0.17c0.115,0.109,0.172,0.244,0.172,0.396
		v0.576h-3.522c-0.603,0-1.12,0.229-1.55,0.692c-0.432,0.465-0.646,0.996-0.646,1.592c0.002,0.604,0.215,1.137,0.646,1.602
		c0.43,0.458,0.947,0.684,1.55,0.684h5.437v-5.244H493.271z M483,68.441l2.598-3.814h-2.437l-1.378,2.22l-1.379-2.22l-2.427,0.002
		l2.593,3.812l-2.593,3.812h2.427l1.379-2.219l1.378,2.219h2.437L483,68.441z M477.933,70.349h-4.771v-1.135h3.813v-1.529h-3.813
		v-1.143h4.289v-1.916l-6.209,0.002v7.625h6.688v-1.904H477.933z"/>
</g>
</svg>
