<?xml version="1.0" encoding="utf-8"?>
<!-- Generator: Adobe Illustrator 16.0.0, SVG Export Plug-In . SVG Version: 6.00 Build 0)  -->
<!DOCTYPE svg PUBLIC "-//W3C//DTD SVG 1.0//EN" "http://www.w3.org/TR/2001/REC-SVG-20010904/DTD/svg10.dtd">
<svg version="1.0" id="Calque_1" xmlns="http://www.w3.org/2000/svg" xmlns:xlink="http://www.w3.org/1999/xlink" x="0px" y="0px"
	 width="595.28px" height="765.35px" viewBox="0 0 595.28 765.35" enable-background="new 0 0 595.28 765.35" xml:space="preserve">
<rect y="0.184" fill="#FFFFFF" width="199.479" height="352.371"/>
<rect y="0.185" fill="#FFFFFF" width="199.479" height="352.37"/>
<g>
	<defs>
		<rect id="SVGID_1_" y="-13.812" width="188.525" height="366.367"/>
	</defs>
	<clipPath id="SVGID_2_">
		<use xlink:href="#SVGID_1_"  overflow="visible"/>
	</clipPath>
	<path clip-path="url(#SVGID_2_)" fill="#F6F6F6" d="M436.093,370.947h0.018v-2.882h-4.036c0.011,0.082,0.03,0.169,0.03,0.257
		c0,0.925-0.854,1.677-1.907,1.677c-1.051,0-1.904-0.752-1.904-1.677c0-0.088,0.015-0.175,0.026-0.257h-1.702
		c0.017,0.082,0.03,0.169,0.03,0.257c0,0.925-0.854,1.677-1.911,1.677c-1.05,0-1.901-0.752-1.901-1.677
		c0-0.088,0.016-0.175,0.029-0.257h-1.703c0.017,0.082,0.028,0.169,0.028,0.257c0,0.925-0.85,1.677-1.904,1.677
		s-1.906-0.752-1.906-1.677c0-0.088,0.016-0.175,0.029-0.257h-1.703c0.016,0.082,0.031,0.169,0.031,0.257
		c0,0.925-0.856,1.677-1.907,1.677c-1.053,0-1.904-0.752-1.904-1.677c0-0.088,0.012-0.175,0.025-0.257h-1.702
		c0.017,0.082,0.027,0.169,0.027,0.257c0,0.925-0.852,1.677-1.902,1.677c-1.056,0-1.909-0.752-1.909-1.677
		c0-0.088,0.017-0.175,0.033-0.257h-1.707c0.019,0.082,0.028,0.169,0.028,0.257c0,0.925-0.85,1.677-1.904,1.677
		c-1.054,0-1.903-0.752-1.903-1.677c0-0.088,0.012-0.175,0.027-0.257h-1.705c0.016,0.082,0.03,0.169,0.03,0.257
		c0,0.925-0.853,1.677-1.903,1.677c-1.054,0-1.905-0.752-1.905-1.677c0-0.088,0.014-0.175,0.03-0.257h-1.705
		c0.014,0.082,0.028,0.169,0.028,0.257c0,0.925-0.853,1.677-1.908,1.677c-1.05,0-1.901-0.752-1.901-1.677
		c0-0.088,0.014-0.175,0.027-0.257h-1.704c0.017,0.082,0.032,0.169,0.032,0.257c0,0.925-0.854,1.677-1.905,1.677
		c-1.054,0-1.907-0.752-1.907-1.677c0-0.088,0.012-0.175,0.027-0.257h-1.705c0.016,0.082,0.031,0.169,0.031,0.257
		c0,0.925-0.854,1.677-1.906,1.677s-1.905-0.752-1.905-1.677c0-0.088,0.016-0.175,0.029-0.257h-1.701
		c0.014,0.082,0.027,0.169,0.027,0.257c0,0.925-0.853,1.677-1.908,1.677c-1.051,0-1.903-0.752-1.903-1.677
		c0-0.088,0.015-0.175,0.027-0.257h-1.7c0.016,0.082,0.028,0.169,0.028,0.257c0,0.925-0.854,1.677-1.904,1.677
		c-1.055,0-1.908-0.752-1.908-1.677c0-0.088,0.016-0.175,0.03-0.257h-1.702c0.01,0.082,0.028,0.169,0.028,0.257
		c0,0.925-0.854,1.677-1.904,1.677c-1.054,0-1.907-0.752-1.907-1.677c0-0.088,0.015-0.175,0.03-0.257h-1.418
		c0.016,0.082,0.03,0.169,0.03,0.257c0,0.925-0.856,1.677-1.905,1.677c-1.054,0-1.904-0.752-1.904-1.677
		c0-0.088,0.013-0.175,0.026-0.257h-1.701c0.014,0.082,0.026,0.169,0.026,0.257c0,0.925-0.852,1.677-1.903,1.677
		c-1.054,0-1.908-0.752-1.908-1.677c0-0.088,0.017-0.175,0.031-0.257h-1.704c0.015,0.082,0.029,0.169,0.029,0.257
		c0,0.925-0.85,1.677-1.906,1.677c-1.052,0-1.905-0.752-1.905-1.677c0-0.088,0.018-0.175,0.032-0.257h-1.708
		c0.017,0.082,0.028,0.169,0.028,0.257c0,0.925-0.853,1.677-1.902,1.677c-1.056,0-1.907-0.752-1.907-1.677
		c0-0.088,0.014-0.175,0.03-0.257h-1.706c0.018,0.082,0.028,0.169,0.028,0.257c0,0.925-0.85,1.677-1.901,1.677
		c-1.056,0-1.905-0.752-1.905-1.677c0-0.088,0.009-0.175,0.029-0.257h-1.704c0.014,0.082,0.027,0.169,0.027,0.257
		c0,0.925-0.854,1.677-1.904,1.677c-1.057,0-1.906-0.752-1.906-1.677c0-0.088,0.012-0.175,0.03-0.257h-1.704
		c0.013,0.082,0.027,0.169,0.027,0.257c0,0.925-0.852,1.677-1.903,1.677s-1.907-0.752-1.907-1.677c0-0.088,0.014-0.175,0.029-0.257
		h-1.704c0.016,0.082,0.032,0.169,0.032,0.257c0,0.925-0.853,1.677-1.906,1.677s-1.907-0.752-1.907-1.677
		c0-0.088,0.012-0.175,0.028-0.257h-1.703c0.014,0.082,0.032,0.169,0.032,0.257c0,0.925-0.857,1.677-1.906,1.677
		c-1.053,0-1.906-0.752-1.906-1.677c0-0.088,0.015-0.175,0.027-0.257h-1.704c0.013,0.082,0.032,0.169,0.032,0.257
		c0,0.925-0.855,1.677-1.907,1.677s-1.906-0.752-1.906-1.677c0-0.088,0.015-0.175,0.029-0.257h-1.703
		c0.015,0.082,0.032,0.169,0.032,0.257c0,0.925-0.855,1.677-1.908,1.677c-1.055,0-1.908-0.752-1.908-1.677
		c0-0.088,0.018-0.175,0.034-0.257h-1.707c0.015,0.082,0.029,0.169,0.029,0.257c0,0.925-0.854,1.677-1.905,1.677
		c-1.053,0-1.906-0.752-1.906-1.677c0-0.088,0.016-0.175,0.031-0.257h-1.462c0.017,0.082,0.03,0.169,0.03,0.257
		c0,0.925-0.852,1.677-1.905,1.677c-1.052,0-1.906-0.752-1.906-1.677c0-0.088,0.017-0.175,0.03-0.257h-1.705
		c0.016,0.082,0.029,0.169,0.029,0.257c0,0.925-0.852,1.677-1.906,1.677c-1.051,0-1.904-0.752-1.904-1.677
		c0-0.088,0.012-0.175,0.031-0.257h-1.705c0.016,0.082,0.03,0.169,0.03,0.257c0,0.925-0.854,1.677-1.91,1.677
		c-1.05,0-1.901-0.752-1.901-1.677c0-0.088,0.012-0.175,0.026-0.257h-1.703c0.015,0.082,0.028,0.169,0.028,0.257
		c0,0.925-0.852,1.677-1.907,1.677c-1.049,0-1.903-0.752-1.903-1.677c0-0.088,0.018-0.175,0.028-0.257h-1.703
		c0.017,0.082,0.03,0.169,0.03,0.257c0,0.925-0.852,1.677-1.906,1.677c-1.051,0-1.906-0.752-1.906-1.677
		c0-0.088,0.021-0.175,0.031-0.257h-1.703c0.012,0.082,0.028,0.169,0.028,0.257c0,0.925-0.853,1.677-1.905,1.677
		c-1.054,0-1.908-0.752-1.908-1.677c0-0.088,0.018-0.175,0.03-0.257h-1.7c0.012,0.082,0.028,0.169,0.028,0.257
		c0,0.925-0.853,1.677-1.905,1.677c-1.054,0-1.908-0.752-1.908-1.677c0-0.088,0.018-0.175,0.028-0.257H258
		c0.018,0.082,0.03,0.169,0.03,0.257c0,0.925-0.851,1.677-1.905,1.677c-1.053,0-1.906-0.752-1.906-1.677
		c0-0.088,0.016-0.175,0.031-0.257h-1.705c0.015,0.082,0.031,0.169,0.031,0.257c0,0.925-0.855,1.677-1.906,1.677
		c-1.056,0-1.906-0.752-1.906-1.677c0-0.088,0.014-0.175,0.029-0.257h-1.703c0.012,0.082,0.027,0.169,0.027,0.257
		c0,0.925-0.852,1.677-1.904,1.677c-1.054,0-1.904-0.752-1.904-1.677c0-0.088,0.014-0.175,0.029-0.257h-1.707
		c0.019,0.082,0.031,0.169,0.031,0.257c0,0.925-0.853,1.677-1.906,1.677c-1.052,0-1.906-0.752-1.906-1.677
		c0-0.088,0.014-0.175,0.031-0.257h-1.707c0.017,0.082,0.03,0.169,0.03,0.257c0,0.925-0.851,1.677-1.903,1.677
		s-1.906-0.752-1.906-1.677c0-0.088,0.016-0.175,0.029-0.257h-1.705c0.013,0.082,0.029,0.169,0.029,0.257
		c0,0.925-0.854,1.677-1.904,1.677c-1.055,0-1.905-0.752-1.905-1.677c0-0.088,0.015-0.175,0.028-0.257h-1.461
		c0.016,0.082,0.029,0.169,0.029,0.257c0,0.925-0.851,1.677-1.904,1.677c-1.052,0-1.908-0.752-1.908-1.677
		c0-0.088,0.02-0.175,0.031-0.257h-1.705c0.015,0.082,0.033,0.169,0.033,0.257c0,0.925-0.854,1.677-1.908,1.677
		c-1.049,0-1.905-0.752-1.905-1.677c0-0.088,0.017-0.175,0.032-0.257h-1.705c0.013,0.082,0.029,0.169,0.029,0.257
		c0,0.925-0.854,1.677-1.908,1.677c-1.049,0-1.904-0.752-1.904-1.677c0-0.088,0.014-0.175,0.029-0.257h-1.703
		c0.014,0.082,0.029,0.169,0.029,0.257c0,0.925-0.855,1.677-1.908,1.677c-1.051,0-1.905-0.752-1.905-1.677
		c0-0.088,0.019-0.175,0.032-0.257h-1.707c0.017,0.082,0.033,0.169,0.033,0.257c0,0.925-0.855,1.677-1.908,1.677
		s-1.906-0.752-1.906-1.677c0-0.088,0.016-0.175,0.031-0.257h-1.704c0.015,0.082,0.03,0.169,0.03,0.257
		c0,0.925-0.855,1.677-1.908,1.677c-1.051,0-1.903-0.752-1.903-1.677c0-0.088,0.015-0.175,0.028-0.257h-1.705
		c0.016,0.082,0.029,0.169,0.029,0.257c0,0.925-0.852,1.677-1.906,1.677c-1.051,0-1.904-0.752-1.904-1.677
		c0-0.088,0.016-0.175,0.029-0.257h-1.704c0.018,0.082,0.028,0.169,0.028,0.257c0,0.925-0.852,1.677-1.904,1.677
		s-1.905-0.752-1.905-1.677c0-0.088,0.015-0.175,0.033-0.257h-1.707c0.013,0.082,0.03,0.169,0.03,0.257
		c0,0.925-0.852,1.677-1.907,1.677c-1.05,0-1.903-0.752-1.903-1.677c0-0.088,0.012-0.175,0.028-0.257h-1.707
		c0.017,0.082,0.032,0.169,0.032,0.257c0,0.925-0.855,1.677-1.906,1.677c-1.053,0-1.908-0.752-1.908-1.677
		c0-0.088,0.016-0.175,0.034-0.257h-1.707c0.017,0.082,0.03,0.169,0.03,0.257c0,0.925-0.854,1.677-1.906,1.677
		c-1.055,0-1.907-0.752-1.907-1.677c0-0.088,0.015-0.175,0.032-0.257h-1.704c0.013,0.082,0.028,0.169,0.028,0.257
		c0,0.925-0.852,1.677-1.905,1.677c-1.049,0-1.906-0.752-1.906-1.677c0-0.088,0.015-0.175,0.031-0.257h-1.419
		c0.016,0.082,0.033,0.169,0.033,0.257c0,0.925-0.854,1.677-1.908,1.677c-1.053,0-1.906-0.752-1.906-1.677
		c0-0.088,0.017-0.175,0.029-0.257h-1.701c0.011,0.082,0.025,0.169,0.025,0.257c0,0.925-0.849,1.677-1.905,1.677
		c-1.049,0-1.904-0.752-1.904-1.677c0-0.088,0.017-0.175,0.029-0.257h-1.703c0.015,0.082,0.03,0.169,0.03,0.257
		c0,0.925-0.853,1.677-1.906,1.677c-1.053,0-1.906-0.752-1.906-1.677c0-0.088,0.014-0.175,0.031-0.257h-1.705
		c0.013,0.082,0.031,0.169,0.031,0.257c0,0.925-0.854,1.677-1.905,1.677c-1.054,0-1.907-0.752-1.907-1.677
		c0-0.088,0.014-0.175,0.031-0.257h-1.705c0.013,0.082,0.027,0.169,0.027,0.257c0,0.925-0.854,1.677-1.907,1.677
		c-1.052,0-1.906-0.752-1.906-1.677c0-0.088,0.016-0.175,0.03-0.257h-1.704c0.016,0.082,0.031,0.169,0.031,0.257
		c0,0.925-0.855,1.677-1.905,1.677c-1.053,0-1.908-0.752-1.908-1.677c0-0.088,0.016-0.175,0.032-0.257h-1.706
		c0.014,0.082,0.03,0.169,0.03,0.257c0,0.925-0.851,1.677-1.904,1.677c-1.053,0-1.903-0.752-1.903-1.677
		c0-0.088,0.01-0.175,0.029-0.257h-1.705c0.014,0.082,0.027,0.169,0.027,0.257c0,0.925-0.85,1.677-1.905,1.677
		c-1.054,0-1.907-0.752-1.907-1.677c0-0.088,0.015-0.175,0.031-0.257h-1.706c0.016,0.082,0.031,0.169,0.031,0.257
		c0,0.925-0.852,1.677-1.908,1.677c-1.049,0-1.904-0.752-1.904-1.677c0-0.088,0.013-0.175,0.031-0.257h-1.703
		c0.013,0.082,0.028,0.169,0.028,0.257c0,0.925-0.853,1.677-1.908,1.677c-1.049,0-1.905-0.752-1.905-1.677
		c0-0.088,0.014-0.175,0.03-0.257h-1.7c0.011,0.082,0.024,0.169,0.024,0.257c0,0.925-0.851,1.677-1.905,1.677
		c-1.055,0-1.905-0.752-1.905-1.677c0-0.088,0.013-0.175,0.031-0.257h-1.704c0.013,0.082,0.029,0.169,0.029,0.257
		c0,0.925-0.854,1.677-1.904,1.677c-1.055,0-1.909-0.752-1.909-1.677c0-0.088,0.015-0.175,0.03-0.257h-1.703
		c0.013,0.082,0.028,0.169,0.028,0.257c0,0.925-0.851,1.677-1.903,1.677c-1.053,0-1.907-0.752-1.907-1.677
		c0-0.088,0.014-0.175,0.03-0.257h-4.036v2.882h0.018c1.051,0,1.905,0.749,1.905,1.673c0,0.93-0.854,1.676-1.905,1.676h-0.01
		l-0.008,1.45c0,0,0.01-0.003,0.018-0.003c1.051,0,1.905,0.747,1.905,1.677c0,0.925-0.854,1.674-1.905,1.674
		c-0.008,0-0.01-0.001-0.01-0.001l-0.008,1.45c0,0,0.01-0.004,0.018-0.004c1.051,0,1.905,0.752,1.905,1.675
		c0,0.925-0.854,1.682-1.905,1.682c-0.008,0-0.01-0.005-0.01-0.005l-0.008,1.45h0.018c1.051,0,1.905,0.748,1.905,1.674
		s-0.854,1.674-1.905,1.674c-0.008,0-0.01-0.002-0.01-0.002l-0.008,1.451c0,0,0.01-0.002,0.018-0.002
		c1.051,0,1.905,0.748,1.905,1.676c0,0.926-0.854,1.676-1.905,1.676c-0.008,0-0.01-0.002-0.01-0.002l-0.008,1.447
		c0,0,0.01-0.002,0.018-0.002c1.051,0,1.905,0.752,1.905,1.678s-0.854,1.676-1.905,1.676c-0.008,0-0.01,0-0.01,0l-0.008,1.447
		c0,0,0.01,0,0.018,0c1.051,0,1.905,0.75,1.905,1.676c0,0.924-0.854,1.676-1.905,1.676h-0.01l-0.008,1.443c0,0,0.01,0,0.018,0
		c1.051,0,1.905,0.75,1.905,1.68c0,0.924-0.854,1.672-1.905,1.672h-0.01l-0.008,1.449h0.018c1.051,0,1.905,0.748,1.905,1.672
		c0,0.928-0.854,1.678-1.905,1.678c-0.008,0-0.01-0.002-0.01-0.002l-0.008,1.449c0,0,0.01-0.002,0.018-0.002
		c1.051,0,1.905,0.75,1.905,1.676c0,0.928-0.854,1.678-1.905,1.678c-0.008,0-0.01-0.002-0.01-0.002l-0.008,1.449
		c0,0,0.01-0.002,0.018-0.002c1.051,0,1.905,0.752,1.905,1.676s-0.854,1.678-1.905,1.678c-0.008,0-0.01-0.002-0.01-0.002
		l-0.008,1.445c0,0,0.01,0,0.018,0c1.051,0,1.905,0.748,1.905,1.676c0,0.926-0.854,1.678-1.905,1.678
		c-0.008,0-0.01-0.004-0.01-0.004l-0.008,1.449c0,0,0.01,0,0.018,0c1.051,0,1.905,0.75,1.905,1.672c0,0.93-0.854,1.676-1.905,1.676
		c-0.008,0-0.01-0.002-0.01-0.002l-0.008,2.539h4.024c0.101-0.842,0.902-1.504,1.889-1.504c0.985,0,1.786,0.662,1.883,1.504h1.685
		c0.099-0.842,0.901-1.504,1.889-1.504c0.985,0,1.783,0.662,1.884,1.504h1.683c0.098-0.842,0.9-1.504,1.886-1.504
		c0.988,0,1.788,0.662,1.886,1.504h1.683c0.101-0.842,0.901-1.504,1.887-1.504c0.986,0,1.787,0.662,1.886,1.504h1.688
		c0.097-0.842,0.898-1.504,1.882-1.504c0.987,0,1.791,0.662,1.891,1.504h1.681c0.099-0.842,0.9-1.504,1.887-1.504
		c0.988,0,1.786,0.662,1.887,1.504h1.681c0.099-0.842,0.904-1.504,1.889-1.504c0.987,0,1.787,0.662,1.885,1.504h1.681
		c0.103-0.842,0.904-1.504,1.89-1.504c0.983,0,1.784,0.662,1.882,1.504h1.686c0.1-0.842,0.901-1.504,1.886-1.504
		c0.988,0,1.788,0.662,1.887,1.504h1.685c0.101-0.842,0.902-1.504,1.889-1.504c0.984,0,1.784,0.662,1.883,1.504h1.685
		c0.099-0.842,0.901-1.504,1.886-1.504c0.986,0,1.785,0.662,1.885,1.504h1.685c0.099-0.842,0.901-1.504,1.884-1.504
		c0.987,0,1.79,0.662,1.888,1.504h1.682c0.102-0.842,0.9-1.504,1.888-1.504c0.985,0,1.79,0.662,1.886,1.504h1.396
		c0.099-0.842,0.9-1.504,1.887-1.504c0.986,0,1.787,0.662,1.885,1.504h1.683c0.1-0.842,0.902-1.504,1.889-1.504
		c0.984,0,1.789,0.662,1.886,1.504h1.685c0.098-0.842,0.899-1.504,1.887-1.504c0.982,0,1.785,0.662,1.887,1.504h1.682
		c0.1-0.842,0.903-1.504,1.888-1.504c0.985,0,1.789,0.662,1.887,1.504h1.685c0.099-0.842,0.898-1.504,1.885-1.504
		s1.787,0.662,1.888,1.504h1.683c0.099-0.842,0.899-1.504,1.885-1.504c0.986,0,1.789,0.662,1.89,1.504h1.681
		c0.1-0.842,0.903-1.504,1.887-1.504c0.986,0,1.789,0.662,1.886,1.504h1.685c0.101-0.842,0.902-1.504,1.887-1.504
		c0.986,0,1.789,0.662,1.887,1.504h1.688c0.094-0.842,0.898-1.504,1.881-1.504c0.986,0,1.787,0.662,1.887,1.504h1.686
		c0.103-0.842,0.9-1.504,1.885-1.504c0.987,0,1.787,0.662,1.887,1.504h1.686c0.1-0.842,0.902-1.504,1.885-1.504
		c0.985,0,1.787,0.662,1.888,1.504h1.684c0.099-0.842,0.9-1.504,1.886-1.504c0.984,0,1.787,0.662,1.888,1.504h1.437
		c0.1-0.842,0.903-1.504,1.889-1.504s1.787,0.662,1.887,1.504h1.682c0.1-0.842,0.903-1.504,1.889-1.504
		c0.983,0,1.787,0.662,1.886,1.504h1.681c0.104-0.842,0.903-1.504,1.889-1.504c0.987,0,1.787,0.662,1.887,1.504h1.683
		c0.099-0.842,0.903-1.504,1.888-1.504c0.988,0,1.787,0.662,1.885,1.504h1.686c0.1-0.842,0.898-1.504,1.887-1.504
		c0.983,0,1.789,0.662,1.885,1.504h1.684c0.1-0.842,0.898-1.504,1.887-1.504c0.985,0,1.786,0.662,1.885,1.504h1.685
		c0.101-0.842,0.901-1.504,1.888-1.504c0.985,0,1.786,0.662,1.885,1.504h1.685c0.099-0.842,0.899-1.504,1.886-1.504
		c0.988,0,1.786,0.662,1.885,1.504h1.687c0.099-0.842,0.899-1.504,1.884-1.504c0.987,0,1.787,0.662,1.889,1.504h1.685
		c0.097-0.842,0.897-1.504,1.881-1.504c0.985,0,1.791,0.662,1.892,1.504h1.683c0.098-0.842,0.897-1.504,1.883-1.504
		c0.989,0,1.79,0.662,1.888,1.504h1.687c0.097-0.842,0.899-1.504,1.884-1.504c0.986,0,1.789,0.662,1.887,1.504h1.686
		c0.099-0.842,0.9-1.504,1.886-1.504s1.787,0.662,1.89,1.504h1.438c0.097-0.842,0.897-1.504,1.884-1.504
		c0.984,0,1.786,0.662,1.885,1.504h1.685c0.102-0.842,0.901-1.504,1.888-1.504c0.984,0,1.785,0.662,1.885,1.504h1.684
		c0.102-0.842,0.902-1.504,1.888-1.504s1.786,0.662,1.883,1.504h1.689c0.098-0.842,0.899-1.504,1.886-1.504
		c0.983,0,1.786,0.662,1.884,1.504h1.686c0.099-0.842,0.901-1.504,1.887-1.504s1.786,0.662,1.888,1.504h1.681
		c0.098-0.842,0.901-1.504,1.888-1.504c0.982,0,1.786,0.662,1.887,1.504h1.684c0.096-0.842,0.898-1.504,1.886-1.504
		s1.787,0.662,1.887,1.504h1.68c0.104-0.842,0.903-1.504,1.891-1.504c0.985,0,1.786,0.662,1.886,1.504h1.681
		c0.1-0.842,0.904-1.504,1.89-1.504c0.984,0,1.787,0.662,1.884,1.504h1.685c0.102-0.842,0.904-1.504,1.887-1.504
		c0.986,0,1.788,0.662,1.89,1.504h1.679c0.102-0.842,0.905-1.504,1.89-1.504s1.788,0.662,1.886,1.504h1.683
		c0.101-0.842,0.901-1.504,1.888-1.504c0.985,0,1.786,0.662,1.887,1.504h1.396c0.1-0.842,0.9-1.504,1.888-1.504
		c0.984,0,1.786,0.662,1.885,1.504h1.685c0.099-0.842,0.901-1.504,1.887-1.504c0.981,0,1.784,0.662,1.886,1.504h1.684
		c0.1-0.842,0.897-1.504,1.883-1.504c0.988,0,1.789,0.662,1.888,1.504h1.685c0.101-0.842,0.899-1.504,1.886-1.504
		c0.985,0,1.788,0.662,1.887,1.504h1.686c0.099-0.842,0.901-1.504,1.888-1.504c0.983,0,1.784,0.662,1.885,1.504h1.684
		c0.098-0.842,0.901-1.504,1.883-1.504c0.99,0,1.789,0.662,1.891,1.504h1.681c0.101-0.842,0.901-1.504,1.889-1.504
		c0.983,0,1.788,0.662,1.887,1.504h1.68c0.101-0.842,0.904-1.504,1.888-1.504c0.988,0,1.787,0.662,1.889,1.504h1.681
		c0.099-0.842,0.904-1.504,1.89-1.504c0.986,0,1.785,0.662,1.883,1.504h1.687c0.101-0.842,0.9-1.504,1.887-1.504
		s1.789,0.662,1.888,1.504h1.682c0.1-0.842,0.902-1.504,1.887-1.504c0.987,0,1.788,0.662,1.889,1.504h1.681
		c0.1-0.842,0.901-1.504,1.882-1.504c0.991,0,1.793,0.662,1.892,1.504h1.685c0.098-0.842,0.897-1.504,1.885-1.504
		c0.985,0,1.787,0.662,1.885,1.504h4.028v-2.539c-0.006,0-0.012,0.002-0.018,0.002c-1.053,0-1.906-0.746-1.906-1.676
		c0-0.922,0.854-1.672,1.906-1.672c0.006,0,0.012,0,0.018,0v-1.449c-0.006,0-0.012,0.004-0.018,0.004
		c-1.053,0-1.906-0.752-1.906-1.678c0-0.928,0.854-1.676,1.906-1.676c0.006,0,0.012,0,0.018,0v-1.445
		c-0.006,0-0.012,0.002-0.018,0.002c-1.053,0-1.906-0.754-1.906-1.678s0.854-1.676,1.906-1.676c0.006,0,0.012,0.002,0.018,0.002
		v-1.449c-0.006,0-0.012,0.002-0.018,0.002c-1.053,0-1.906-0.75-1.906-1.678c0-0.926,0.854-1.676,1.906-1.676
		c0.006,0,0.012,0.002,0.018,0.002v-1.449c-0.006,0-0.012,0.002-0.018,0.002c-1.053,0-1.906-0.75-1.906-1.678
		c0-0.924,0.854-1.672,1.906-1.672h0.018v-1.449h-0.018c-1.053,0-1.906-0.748-1.906-1.672c0-0.93,0.854-1.68,1.906-1.68
		c0.006,0,0.012,0,0.018,0v-1.443h-0.018c-1.053,0-1.906-0.752-1.906-1.676c0-0.926,0.854-1.676,1.906-1.676
		c0.006,0,0.012,0,0.018,0v-1.447c-0.006,0-0.012,0-0.018,0c-1.053,0-1.906-0.75-1.906-1.676s0.854-1.678,1.906-1.678
		c0.006,0,0.012,0.002,0.018,0.002v-1.447c-0.006,0-0.012,0.002-0.018,0.002c-1.053,0-1.906-0.75-1.906-1.676
		c0-0.928,0.854-1.676,1.906-1.676c0.006,0,0.012,0.002,0.018,0.002v-1.451c-0.006,0-0.012,0.002-0.018,0.002
		c-1.053,0-1.906-0.748-1.906-1.674s0.854-1.674,1.906-1.674h0.018v-1.45c-0.006,0-0.012,0.005-0.018,0.005
		c-1.053,0-1.906-0.757-1.906-1.682c0-0.923,0.854-1.675,1.906-1.675c0.006,0,0.012,0.004,0.018,0.004v-1.45
		c-0.006,0-0.012,0.001-0.018,0.001c-1.053,0-1.906-0.749-1.906-1.674c0-0.93,0.854-1.677,1.906-1.677
		c0.006,0,0.012,0.003,0.018,0.003v-1.45h-0.018c-1.053,0-1.906-0.746-1.906-1.676C434.187,371.696,435.04,370.947,436.093,370.947"
		/>
	<polygon clip-path="url(#SVGID_2_)" fill="#95C11F" points="-74.409,255.535 -46.339,254.38 -94.359,130.507 -106.979,159.666 	"/>
	<polygon clip-path="url(#SVGID_2_)" fill="#005CA9" points="-106.98,159.667 -103.372,104.495 -50.58,61.238 -11.489,58.624 	"/>
	<polygon clip-path="url(#SVGID_2_)" fill="#C8D400" points="-3.467,133.995 60.895,114.504 -9.451,56.335 -50.579,61.237 	"/>
	<polygon clip-path="url(#SVGID_2_)" fill="#EC6608" points="60.895,114.505 -3.467,133.998 78.629,25.42 147.801,9.942 	"/>
	<polygon clip-path="url(#SVGID_2_)" fill="#522583" points="-32.05,247.752 -42.92,245.587 -74.411,255.536 -45.243,257.211 	"/>
	<polygon clip-path="url(#SVGID_2_)" fill="#EC619F" points="21.479,326.821 -3.309,321.398 -42.919,245.586 -29.139,245.665 	"/>
	<polygon clip-path="url(#SVGID_2_)" fill="#A71680" points="28.497,338.072 -3.309,321.4 35.49,252.036 71.171,237.335 	"/>
	<polygon clip-path="url(#SVGID_2_)" fill="#009640" points="70.344,269.598 35.489,252.032 72.756,233.604 148.317,234.243 	"/>
	<polygon clip-path="url(#SVGID_2_)" fill="#009FE3" points="153.932,234.291 70.345,269.597 189.9,44.188 195.224,162.078 	"/>
	<polygon clip-path="url(#SVGID_2_)" fill="#E5005B" points="195.225,162.081 193.375,37.632 151.336,5.462 78.435,25.482 	"/>
</g>
<g>
	<defs>
		<rect id="SVGID_3_" y="-17.367" width="199.479" height="369.922"/>
	</defs>
	<clipPath id="SVGID_4_">
		<use xlink:href="#SVGID_3_"  overflow="visible"/>
	</clipPath>
	<g clip-path="url(#SVGID_4_)">
		<text transform="matrix(1 0 0 1 -74.7334 212.0503)" font-family="'DIN-Light'" font-size="12.2565"> </text>
	</g>
</g>
</svg>
