<?xml version="1.0" encoding="utf-8"?>
<!-- Generator: Adobe Illustrator 16.0.0, SVG Export Plug-In . SVG Version: 6.00 Build 0)  -->
<!DOCTYPE svg PUBLIC "-//W3C//DTD SVG 1.1//EN" "http://www.w3.org/Graphics/SVG/1.1/DTD/svg11.dtd">
<svg version="1.1" id="Calque_1" xmlns="http://www.w3.org/2000/svg" xmlns:xlink="http://www.w3.org/1999/xlink" x="0px" y="0px"
	 width="3056px" height="593px" viewBox="0 0 3056 593" enable-background="new 0 0 3056 593" xml:space="preserve">
<g>
	<polygon fill="#8DC63F" points="188.89,379.389 219.748,378.123 166.955,241.93 153.082,273.992 	"/>
	<polygon fill="#0066B3" points="153.079,273.992 157.043,213.332 215.087,165.775 258.063,162.9 	"/>
	<polygon fill="#BFD730" points="266.885,245.764 337.644,224.336 260.306,160.383 215.087,165.775 	"/>
	<polygon fill="#F37021" points="337.644,224.336 266.885,245.77 357.147,126.396 433.193,109.377 	"/>
	<polygon fill="#522E91" points="235.458,370.834 223.507,368.451 188.888,379.389 220.954,381.232 	"/>
	<polygon fill="#F067A6" points="282.014,472.738 254.762,466.773 223.509,368.451 238.66,368.533 	"/>
	<polygon fill="#A3238E" points="312.905,479.846 279.968,461.516 309.713,375.543 348.95,359.383 	"/>
	<polygon fill="#00A651" points="348.036,394.848 309.713,375.533 350.687,355.275 433.757,355.979 	"/>
	<polygon fill="#00AEEF" points="439.935,356.029 348.036,394.848 479.476,147.029 485.33,276.643 	"/>
	<polygon fill="#ED1164" points="485.33,276.643 483.303,139.822 437.081,104.451 356.926,126.461 	"/>
	<polygon fill="#ED1164" points="312.905,479.846 279.968,461.516 592.951,417.504 646.744,432.174 	"/>
	<polygon fill="#F37021" points="918.017,440.279 949.529,425.135 592.951,417.504 646.744,432.174 	"/>
	<polygon fill="#BFD730" points="918.017,440.279 949.529,425.135 935.412,392.932 918.236,407.588 	"/>
	<polygon fill="#0066B3" points="1067.166,440.184 1053.05,420.121 935.412,392.932 918.236,407.588 	"/>
	<polygon fill="#8DC63F" points="1067.166,440.184 1053.05,420.121 1615.026,398.582 1671.117,420.512 	"/>
	<polygon fill="#522E91" points="1858.988,457.123 1844.871,437.064 1615.026,398.582 1671.117,420.512 	"/>
	<polygon fill="#F067A6" points="1858.988,457.123 1844.871,437.064 2348.574,397.941 2318.001,411.953 	"/>
	<polygon fill="#A3238E" points="3082.123,453.984 3082.123,402.832 2348.574,397.941 2318.001,411.953 	"/>
	<polygon fill="#A3238E" points="282.014,472.738 254.762,466.773 99.479,462.07 85.364,476.188 	"/>
	<polygon fill="#00AEEF" points="-23.232,457.361 -23.232,424.428 99.479,462.07 85.364,476.188 	"/>
</g>
<g>
	<path fill="#1D1D1B" d="M1346.814,331.684l-3.469-9.8h-18.93l-3.469,9.8h-4.93l15.947-43.338h3.896l15.886,43.338H1346.814z
		 M1333.971,294.98l-8.156,22.887h16.19L1333.971,294.98z"/>
	<path fill="#1D1D1B" d="M1382.724,345.439c-4.504,0-7-1.156-10.165-4.018l2.861-2.8c2.191,1.948,3.713,2.982,7.182,2.982
		c5.783,0,8.217-4.077,8.217-9.19v-4.687c-2.435,3.104-5.174,3.896-8.4,3.896c-3.043,0-5.661-1.096-7.243-2.679
		c-2.982-2.982-3.652-7.608-3.652-12.478s0.669-9.495,3.652-12.478c1.583-1.583,4.261-2.617,7.304-2.617
		c3.287,0,5.965,0.73,8.4,3.896v-3.53h4.321v30.859C1395.201,340.022,1390.575,345.439,1382.724,345.439z M1383.393,305.268
		c-6.513,0-7.487,5.6-7.487,11.199s0.974,11.199,7.487,11.199s7.426-5.6,7.426-11.199S1389.906,305.268,1383.393,305.268z"/>
	<path fill="#1D1D1B" d="M1422.895,307.458c-1.644-1.643-2.861-2.19-5.174-2.19c-4.383,0-7.183,3.469-7.183,8.034v18.382h-4.382
		v-29.946h4.382v3.651c1.644-2.495,4.93-4.017,8.4-4.017c2.861,0,5.052,0.669,7.182,2.8L1422.895,307.458z"/>
	<path fill="#1D1D1B" d="M1448.761,331.684v-2.86c-2.435,2.435-4.626,3.226-8.643,3.226c-4.139,0-6.574-0.791-8.46-2.739
		c-1.461-1.461-2.252-3.713-2.252-6.087c0-5.234,3.652-8.643,10.348-8.643h9.008v-2.861c0-4.382-2.191-6.573-7.669-6.573
		c-3.834,0-5.782,0.913-7.547,3.408l-2.982-2.738c2.678-3.47,5.722-4.443,10.591-4.443c8.035,0,11.991,3.469,11.991,9.981v20.33
		H1448.761z M1448.761,317.867h-8.399c-4.504,0-6.696,1.825-6.696,5.295s2.13,5.113,6.878,5.113c2.556,0,4.808-0.183,6.695-2.009
		c1.035-0.974,1.521-2.679,1.521-5.174V317.867z M1442.675,295.528h-4.018l5.356-9.312h5.234L1442.675,295.528z"/>
	<path fill="#1D1D1B" d="M1469.089,305.268v26.416h-4.382v-26.416h-3.834v-3.348h3.834v-5.661c0-4.443,2.496-8.034,7.608-8.034
		h3.165v3.773h-2.374c-2.8,0-4.017,1.644-4.017,4.383v5.539h6.391v3.348H1469.089z M1482.297,292.789v-4.504h4.991v4.504H1482.297z
		 M1482.602,331.684V301.92h4.382v29.764H1482.602z"/>
	<path fill="#1D1D1B" d="M1509.625,332.049c-7.547,0-13.269-5.113-13.269-15.339s5.722-15.338,13.269-15.338
		c4.139,0,6.756,1.095,9.861,4.443l-2.982,2.8c-2.252-2.496-4.018-3.348-6.878-3.348c-2.921,0-5.356,1.156-6.938,3.408
		c-1.4,1.947-1.948,4.261-1.948,8.034c0,3.774,0.547,6.087,1.948,8.035c1.583,2.252,4.017,3.408,6.938,3.408
		c2.861,0,4.626-0.913,6.878-3.408l2.982,2.86C1516.381,330.953,1513.764,332.049,1509.625,332.049z"/>
	<path fill="#1D1D1B" d="M1544.805,331.684v-2.86c-2.435,2.435-4.626,3.226-8.644,3.226c-4.139,0-6.573-0.791-8.46-2.739
		c-1.461-1.461-2.252-3.713-2.252-6.087c0-5.234,3.652-8.643,10.348-8.643h9.008v-2.861c0-4.382-2.191-6.573-7.669-6.573
		c-3.835,0-5.782,0.913-7.548,3.408l-2.982-2.738c2.678-3.47,5.722-4.443,10.591-4.443c8.034,0,11.991,3.469,11.991,9.981v20.33
		H1544.805z M1544.805,317.867h-8.399c-4.504,0-6.695,1.825-6.695,5.295s2.13,5.113,6.878,5.113c2.557,0,4.809-0.183,6.695-2.009
		c1.034-0.974,1.521-2.679,1.521-5.174V317.867z"/>
	<path fill="#1D1D1B" d="M1577.73,317.867c0,6.573,3.104,10.347,8.826,10.347c3.47,0,5.478-1.034,7.852-3.408l2.982,2.617
		c-3.043,3.043-5.843,4.626-10.956,4.626c-7.912,0-13.086-4.748-13.086-15.339c0-9.678,4.687-15.338,12.295-15.338
		c7.73,0,12.295,5.6,12.295,14.486v2.009H1577.73z M1592.644,309.589c-1.157-2.739-3.835-4.504-7-4.504s-5.844,1.765-7,4.504
		c-0.669,1.644-0.791,2.557-0.913,4.991h15.826C1593.435,312.146,1593.312,311.232,1592.644,309.589z"/>
	<path fill="#1D1D1B" d="M1622.649,331.684l-7.182-11.626l-7.305,11.626h-5.295l10.165-15.277l-9.739-14.669h5.296l6.878,11.077
		l6.756-11.077h5.296l-9.739,14.669l10.165,15.277H1622.649z"/>
	<path fill="#1D1D1B" d="M1655.578,329.432c-1.582,1.582-4.261,2.617-7.304,2.617c-3.287,0-6.026-0.791-8.461-3.896v16.921h-4.382
		v-43.337h4.382v3.53c2.435-3.165,5.174-3.896,8.461-3.896c3.043,0,5.722,1.034,7.304,2.617c3.044,3.043,3.652,8.034,3.652,12.721
		C1659.23,321.397,1658.622,326.388,1655.578,329.432z M1647.361,305.268c-6.513,0-7.548,5.6-7.548,11.442
		c0,5.844,1.035,11.443,7.548,11.443s7.486-5.6,7.486-11.443C1654.848,310.867,1653.874,305.268,1647.361,305.268z"/>
	<path fill="#1D1D1B" d="M1685.341,307.458c-1.644-1.643-2.861-2.19-5.174-2.19c-4.383,0-7.183,3.469-7.183,8.034v18.382h-4.382
		v-29.946h4.382v3.651c1.644-2.495,4.931-4.017,8.399-4.017c2.861,0,5.053,0.669,7.183,2.8L1685.341,307.458z"/>
	<path fill="#1D1D1B" d="M1694.956,317.867c0,6.573,3.104,10.347,8.826,10.347c3.47,0,5.478-1.034,7.852-3.408l2.982,2.617
		c-3.043,3.043-5.843,4.626-10.956,4.626c-7.912,0-13.086-4.748-13.086-15.339c0-9.678,4.687-15.338,12.295-15.338
		c7.73,0,12.295,5.6,12.295,14.486v2.009H1694.956z M1709.869,309.589c-1.157-2.739-3.835-4.504-7-4.504s-5.844,1.765-7,4.504
		c-0.669,1.644-0.791,2.557-0.913,4.991h15.826C1710.66,312.146,1710.538,311.232,1709.869,309.589z"/>
	<path fill="#1D1D1B" d="M1733.91,332.049c-5.052,0-9.008-1.156-12.295-4.321l2.922-2.922c2.374,2.495,5.6,3.47,9.312,3.47
		c4.931,0,7.974-1.766,7.974-5.296c0-2.617-1.521-4.078-4.991-4.383l-4.93-0.426c-5.844-0.486-8.948-3.104-8.948-8.034
		c0-5.479,4.626-8.765,11.018-8.765c4.261,0,8.095,1.034,10.773,3.226l-2.861,2.86c-2.13-1.643-4.869-2.373-7.974-2.373
		c-4.382,0-6.695,1.887-6.695,4.93c0,2.557,1.461,4.078,5.235,4.383l4.808,0.426c5.235,0.487,8.826,2.496,8.826,8.096
		C1746.084,328.701,1741.153,332.049,1733.91,332.049z"/>
	<path fill="#1D1D1B" d="M1764.098,332.049c-5.052,0-9.008-1.156-12.295-4.321l2.922-2.922c2.374,2.495,5.6,3.47,9.312,3.47
		c4.931,0,7.974-1.766,7.974-5.296c0-2.617-1.521-4.078-4.991-4.383l-4.93-0.426c-5.844-0.486-8.948-3.104-8.948-8.034
		c0-5.479,4.626-8.765,11.018-8.765c4.261,0,8.095,1.034,10.773,3.226l-2.861,2.86c-2.13-1.643-4.869-2.373-7.974-2.373
		c-4.382,0-6.695,1.887-6.695,4.93c0,2.557,1.461,4.078,5.235,4.383l4.808,0.426c5.235,0.487,8.826,2.496,8.826,8.096
		C1776.271,328.701,1771.341,332.049,1764.098,332.049z"/>
	<path fill="#1D1D1B" d="M1816.746,307.458c-1.644-1.643-2.861-2.19-5.174-2.19c-4.383,0-7.183,3.469-7.183,8.034v18.382h-4.382
		v-29.946h4.382v3.651c1.644-2.495,4.931-4.017,8.399-4.017c2.861,0,5.053,0.669,7.183,2.8L1816.746,307.458z"/>
	<path fill="#1D1D1B" d="M1826.361,317.867c0,6.573,3.104,10.347,8.826,10.347c3.47,0,5.478-1.034,7.852-3.408l2.982,2.617
		c-3.043,3.043-5.843,4.626-10.956,4.626c-7.912,0-13.086-4.748-13.086-15.339c0-9.678,4.687-15.338,12.295-15.338
		c7.73,0,12.295,5.6,12.295,14.486v2.009H1826.361z M1841.274,309.589c-1.157-2.739-3.835-4.504-7-4.504s-5.844,1.765-7,4.504
		c-0.669,1.644-0.791,2.557-0.913,4.991h15.826C1842.065,312.146,1841.943,311.232,1841.274,309.589z"/>
	<path fill="#1D1D1B" d="M1863.307,332.049c-5.052,0-9.008-1.156-12.295-4.321l2.922-2.922c2.374,2.495,5.6,3.47,9.312,3.47
		c4.931,0,7.974-1.766,7.974-5.296c0-2.617-1.521-4.078-4.991-4.383l-4.93-0.426c-5.844-0.486-8.948-3.104-8.948-8.034
		c0-5.479,4.626-8.765,11.018-8.765c4.261,0,8.095,1.034,10.773,3.226l-2.861,2.86c-2.13-1.643-4.869-2.373-7.974-2.373
		c-4.382,0-6.695,1.887-6.695,4.93c0,2.557,1.461,4.078,5.235,4.383l4.808,0.426c5.235,0.487,8.826,2.496,8.826,8.096
		C1875.48,328.701,1870.55,332.049,1863.307,332.049z"/>
	<path fill="#1D1D1B" d="M1884.791,317.867c0,6.573,3.104,10.347,8.826,10.347c3.47,0,5.478-1.034,7.852-3.408l2.982,2.617
		c-3.043,3.043-5.843,4.626-10.956,4.626c-7.912,0-13.086-4.748-13.086-15.339c0-9.678,4.687-15.338,12.295-15.338
		c7.73,0,12.295,5.6,12.295,14.486v2.009H1884.791z M1899.704,309.589c-1.157-2.739-3.835-4.504-7-4.504s-5.844,1.765-7,4.504
		c-0.669,1.644-0.791,2.557-0.913,4.991h15.826C1900.495,312.146,1900.373,311.232,1899.704,309.589z"/>
	<path fill="#1D1D1B" d="M1929.04,307.458c-1.644-1.643-2.861-2.19-5.174-2.19c-4.383,0-7.183,3.469-7.183,8.034v18.382h-4.382
		v-29.946h4.382v3.651c1.644-2.495,4.931-4.017,8.399-4.017c2.861,0,5.053,0.669,7.183,2.8L1929.04,307.458z"/>
	<path fill="#1D1D1B" d="M1945.96,331.684h-3.896l-10.956-29.946h4.747l8.156,24.042l8.217-24.042h4.748L1945.96,331.684z"/>
	<path fill="#1D1D1B" d="M1978.097,331.684v-2.86c-2.435,2.435-4.626,3.226-8.644,3.226c-4.139,0-6.573-0.791-8.46-2.739
		c-1.461-1.461-2.252-3.713-2.252-6.087c0-5.234,3.651-8.643,10.348-8.643h9.008v-2.861c0-4.382-2.191-6.573-7.669-6.573
		c-3.835,0-5.782,0.913-7.548,3.408l-2.982-2.738c2.678-3.47,5.722-4.443,10.591-4.443c8.034,0,11.991,3.469,11.991,9.981v20.33
		H1978.097z M1978.097,317.867h-8.399c-4.504,0-6.695,1.825-6.695,5.295s2.13,5.113,6.878,5.113c2.557,0,4.809-0.183,6.695-2.009
		c1.034-0.974,1.521-2.679,1.521-5.174V317.867z"/>
	<path fill="#1D1D1B" d="M2009.015,331.684v-3.591c-2.435,3.165-5.234,3.956-8.521,3.956c-3.043,0-5.722-1.035-7.304-2.617
		c-3.044-3.044-3.652-8.034-3.652-12.722c0-4.687,0.608-9.678,3.652-12.721c1.582-1.583,4.261-2.617,7.304-2.617
		c3.287,0,6.026,0.73,8.461,3.834v-16.86h4.382v43.338H2009.015z M2001.467,305.268c-6.513,0-7.547,5.6-7.547,11.442
		c0,5.844,1.034,11.443,7.547,11.443s7.487-5.6,7.487-11.443C2008.954,310.867,2007.979,305.268,2001.467,305.268z"/>
	<path fill="#1D1D1B" d="M2039.265,331.684v-2.86c-2.435,2.435-4.626,3.226-8.644,3.226c-4.139,0-6.573-0.791-8.46-2.739
		c-1.461-1.461-2.252-3.713-2.252-6.087c0-5.234,3.651-8.643,10.348-8.643h9.008v-2.861c0-4.382-2.191-6.573-7.669-6.573
		c-3.835,0-5.782,0.913-7.548,3.408l-2.982-2.738c2.678-3.47,5.722-4.443,10.591-4.443c8.034,0,11.991,3.469,11.991,9.981v20.33
		H2039.265z M2039.265,317.867h-8.399c-4.504,0-6.695,1.825-6.695,5.295s2.13,5.113,6.878,5.113c2.557,0,4.809-0.183,6.695-2.009
		c1.034-0.974,1.521-2.679,1.521-5.174V317.867z"/>
	<path fill="#1D1D1B" d="M2082.417,331.684v-2.86c-2.435,2.435-4.626,3.226-8.644,3.226c-4.139,0-6.573-0.791-8.46-2.739
		c-1.461-1.461-2.252-3.713-2.252-6.087c0-5.234,3.651-8.643,10.348-8.643h9.008v-2.861c0-4.382-2.191-6.573-7.669-6.573
		c-3.835,0-5.782,0.913-7.548,3.408l-2.982-2.738c2.678-3.47,5.722-4.443,10.591-4.443c8.034,0,11.991,3.469,11.991,9.981v20.33
		H2082.417z M2082.417,317.867h-8.399c-4.504,0-6.695,1.825-6.695,5.295s2.13,5.113,6.878,5.113c2.557,0,4.809-0.183,6.695-2.009
		c1.034-0.974,1.521-2.679,1.521-5.174V317.867z"/>
	<path fill="#1D1D1B" d="M2114.674,328.641c-2.069,2.069-4.93,3.408-8.582,3.408s-6.513-1.339-8.582-3.408
		c-3.044-3.104-3.652-7.305-3.652-11.931s0.608-8.825,3.652-11.93c2.069-2.069,4.93-3.408,8.582-3.408s6.513,1.339,8.582,3.408
		c3.044,3.104,3.652,7.304,3.652,11.93S2117.718,325.536,2114.674,328.641z M2111.569,307.458c-1.399-1.399-3.348-2.19-5.478-2.19
		c-2.131,0-4.018,0.791-5.417,2.19c-2.191,2.191-2.435,5.904-2.435,9.252s0.243,7.061,2.435,9.252
		c1.399,1.4,3.286,2.191,5.417,2.191c2.13,0,4.078-0.791,5.478-2.191c2.191-2.191,2.374-5.904,2.374-9.252
		S2113.761,309.649,2111.569,307.458z"/>
	<path fill="#1D1D1B" d="M2135.124,332.049c-5.052,0-9.008-1.156-12.295-4.321l2.922-2.922c2.374,2.495,5.6,3.47,9.312,3.47
		c4.931,0,7.974-1.766,7.974-5.296c0-2.617-1.521-4.078-4.991-4.383l-4.93-0.426c-5.844-0.486-8.948-3.104-8.948-8.034
		c0-5.479,4.626-8.765,11.018-8.765c4.261,0,8.095,1.034,10.773,3.226l-2.861,2.86c-2.13-1.643-4.869-2.373-7.974-2.373
		c-4.382,0-6.695,1.887-6.695,4.93c0,2.557,1.461,4.078,5.235,4.383l4.808,0.426c5.235,0.487,8.826,2.496,8.826,8.096
		C2147.298,328.701,2142.367,332.049,2135.124,332.049z"/>
	<path fill="#1D1D1B" d="M2189.172,329.432c-1.582,1.582-4.261,2.617-7.304,2.617c-3.287,0-6.026-0.791-8.461-3.896v16.921h-4.382
		v-43.337h4.382v3.53c2.435-3.165,5.174-3.896,8.461-3.896c3.043,0,5.722,1.034,7.304,2.617c3.044,3.043,3.652,8.034,3.652,12.721
		C2192.824,321.397,2192.216,326.388,2189.172,329.432z M2180.955,305.268c-6.513,0-7.548,5.6-7.548,11.442
		c0,5.844,1.035,11.443,7.548,11.443s7.486-5.6,7.486-11.443C2188.441,310.867,2187.468,305.268,2180.955,305.268z"/>
	<path fill="#1D1D1B" d="M2218.935,307.458c-1.644-1.643-2.861-2.19-5.174-2.19c-4.383,0-7.183,3.469-7.183,8.034v18.382h-4.382
		v-29.946h4.382v3.651c1.644-2.495,4.931-4.017,8.399-4.017c2.861,0,5.053,0.669,7.183,2.8L2218.935,307.458z"/>
	<path fill="#1D1D1B" d="M2245.045,328.641c-2.069,2.069-4.93,3.408-8.582,3.408s-6.513-1.339-8.582-3.408
		c-3.044-3.104-3.652-7.305-3.652-11.931s0.608-8.825,3.652-11.93c2.069-2.069,4.93-3.408,8.582-3.408s6.513,1.339,8.582,3.408
		c3.044,3.104,3.652,7.304,3.652,11.93S2248.089,325.536,2245.045,328.641z M2241.94,307.458c-1.399-1.399-3.348-2.19-5.478-2.19
		c-2.131,0-4.018,0.791-5.417,2.19c-2.191,2.191-2.435,5.904-2.435,9.252s0.243,7.061,2.435,9.252
		c1.399,1.4,3.286,2.191,5.417,2.191c2.13,0,4.078-0.791,5.478-2.191c2.191-2.191,2.374-5.904,2.374-9.252
		S2244.132,309.649,2241.94,307.458z"/>
	<path fill="#1D1D1B" d="M2263.365,305.268v26.416h-4.383v-26.416h-3.834v-3.348h3.834v-5.661c0-4.443,2.496-8.034,7.608-8.034
		h3.166v3.773h-2.374c-2.8,0-4.018,1.644-4.018,4.383v5.539h6.392v3.348H2263.365z M2276.573,292.789v-4.504h4.991v4.504H2276.573z
		 M2276.878,331.684V301.92h4.383v29.764H2276.878z"/>
	<path fill="#1D1D1B" d="M2301.71,332.049c-5.052,0-9.008-1.156-12.295-4.321l2.922-2.922c2.374,2.495,5.6,3.47,9.312,3.47
		c4.931,0,7.974-1.766,7.974-5.296c0-2.617-1.521-4.078-4.991-4.383l-4.93-0.426c-5.844-0.486-8.948-3.104-8.948-8.034
		c0-5.479,4.626-8.765,11.018-8.765c4.261,0,8.095,1.034,10.773,3.226l-2.861,2.86c-2.13-1.643-4.869-2.373-7.974-2.373
		c-4.382,0-6.695,1.887-6.695,4.93c0,2.557,1.461,4.078,5.235,4.383l4.808,0.426c5.235,0.487,8.826,2.496,8.826,8.096
		C2313.884,328.701,2308.953,332.049,2301.71,332.049z"/>
	<path fill="#1D1D1B" d="M2331.898,332.049c-5.052,0-9.008-1.156-12.295-4.321l2.922-2.922c2.374,2.495,5.6,3.47,9.312,3.47
		c4.931,0,7.974-1.766,7.974-5.296c0-2.617-1.521-4.078-4.991-4.383l-4.93-0.426c-5.844-0.486-8.948-3.104-8.948-8.034
		c0-5.479,4.626-8.765,11.018-8.765c4.261,0,8.095,1.034,10.773,3.226l-2.861,2.86c-2.13-1.643-4.869-2.373-7.974-2.373
		c-4.382,0-6.695,1.887-6.695,4.93c0,2.557,1.461,4.078,5.235,4.383l4.808,0.426c5.235,0.487,8.826,2.496,8.826,8.096
		C2344.072,328.701,2339.142,332.049,2331.898,332.049z"/>
	<path fill="#1D1D1B" d="M2352.408,293.216v-4.931h4.931v4.931H2352.408z M2352.652,331.684v-29.946h4.382v29.946H2352.652z"/>
	<path fill="#1D1D1B" d="M2387.284,328.641c-2.069,2.069-4.93,3.408-8.582,3.408s-6.513-1.339-8.582-3.408
		c-3.044-3.104-3.652-7.305-3.652-11.931s0.608-8.825,3.652-11.93c2.069-2.069,4.93-3.408,8.582-3.408s6.513,1.339,8.582,3.408
		c3.044,3.104,3.652,7.304,3.652,11.93S2390.328,325.536,2387.284,328.641z M2384.18,307.458c-1.399-1.399-3.348-2.19-5.478-2.19
		c-2.131,0-4.018,0.791-5.417,2.19c-2.191,2.191-2.435,5.904-2.435,9.252s0.243,7.061,2.435,9.252
		c1.399,1.4,3.286,2.191,5.417,2.191c2.13,0,4.078-0.791,5.478-2.191c2.191-2.191,2.374-5.904,2.374-9.252
		S2386.371,309.649,2384.18,307.458z"/>
	<path fill="#1D1D1B" d="M2419.482,331.684v-18.442c0-5.296-2.861-7.974-7.365-7.974s-7.426,2.738-7.426,7.974v18.442h-4.382
		v-29.946h4.382v3.286c2.131-2.435,5.052-3.651,8.399-3.651c3.227,0,5.844,0.974,7.67,2.8c2.13,2.069,3.104,4.869,3.104,8.339
		v19.173H2419.482z"/>
	<path fill="#1D1D1B" d="M2451.497,331.684v-2.86c-2.435,2.435-4.626,3.226-8.644,3.226c-4.139,0-6.573-0.791-8.46-2.739
		c-1.461-1.461-2.252-3.713-2.252-6.087c0-5.234,3.651-8.643,10.348-8.643h9.008v-2.861c0-4.382-2.191-6.573-7.669-6.573
		c-3.835,0-5.782,0.913-7.548,3.408l-2.982-2.738c2.678-3.47,5.722-4.443,10.591-4.443c8.034,0,11.991,3.469,11.991,9.981v20.33
		H2451.497z M2451.497,317.867h-8.399c-4.504,0-6.695,1.825-6.695,5.295s2.13,5.113,6.878,5.113c2.557,0,4.809-0.183,6.695-2.009
		c1.034-0.974,1.521-2.679,1.521-5.174V317.867z"/>
	<path fill="#1D1D1B" d="M2466.285,293.216v-4.931h4.931v4.931H2466.285z M2466.529,331.684v-29.946h4.382v29.946H2466.529z"/>
	<path fill="#1D1D1B" d="M2491.361,332.049c-5.052,0-9.008-1.156-12.295-4.321l2.922-2.922c2.374,2.495,5.6,3.47,9.312,3.47
		c4.931,0,7.974-1.766,7.974-5.296c0-2.617-1.521-4.078-4.991-4.383l-4.93-0.426c-5.844-0.486-8.948-3.104-8.948-8.034
		c0-5.479,4.626-8.765,11.018-8.765c4.261,0,8.095,1.034,10.773,3.226l-2.861,2.86c-2.13-1.643-4.869-2.373-7.974-2.373
		c-4.382,0-6.695,1.887-6.695,4.93c0,2.557,1.461,4.078,5.235,4.383l4.808,0.426c5.235,0.487,8.826,2.496,8.826,8.096
		C2503.535,328.701,2498.604,332.049,2491.361,332.049z"/>
	<path fill="#1D1D1B" d="M2545.166,331.684v-3.591c-2.435,3.165-5.234,3.956-8.521,3.956c-3.043,0-5.722-1.035-7.304-2.617
		c-3.044-3.044-3.652-8.034-3.652-12.722c0-4.687,0.608-9.678,3.652-12.721c1.582-1.583,4.261-2.617,7.304-2.617
		c3.287,0,6.026,0.73,8.461,3.834v-16.86h4.382v43.338H2545.166z M2537.618,305.268c-6.513,0-7.547,5.6-7.547,11.442
		c0,5.844,1.034,11.443,7.547,11.443s7.487-5.6,7.487-11.443C2545.105,310.867,2544.131,305.268,2537.618,305.268z"/>
	<path fill="#1D1D1B" d="M2577.424,331.684v-2.86c-2.435,2.435-4.626,3.226-8.644,3.226c-4.139,0-6.573-0.791-8.46-2.739
		c-1.461-1.461-2.252-3.713-2.252-6.087c0-5.234,3.651-8.643,10.348-8.643h9.008v-2.861c0-4.382-2.191-6.573-7.669-6.573
		c-3.835,0-5.782,0.913-7.548,3.408l-2.982-2.738c2.678-3.47,5.722-4.443,10.591-4.443c8.034,0,11.991,3.469,11.991,9.981v20.33
		H2577.424z M2577.424,317.867h-8.399c-4.504,0-6.695,1.825-6.695,5.295s2.13,5.113,6.878,5.113c2.557,0,4.809-0.183,6.695-2.009
		c1.034-0.974,1.521-2.679,1.521-5.174V317.867z"/>
	<path fill="#1D1D1B" d="M2601.891,332.049c-5.052,0-9.008-1.156-12.295-4.321l2.922-2.922c2.374,2.495,5.6,3.47,9.312,3.47
		c4.931,0,7.974-1.766,7.974-5.296c0-2.617-1.521-4.078-4.991-4.383l-4.93-0.426c-5.844-0.486-8.948-3.104-8.948-8.034
		c0-5.479,4.626-8.765,11.018-8.765c4.261,0,8.095,1.034,10.773,3.226l-2.861,2.86c-2.13-1.643-4.869-2.373-7.974-2.373
		c-4.382,0-6.695,1.887-6.695,4.93c0,2.557,1.461,4.078,5.235,4.383l4.808,0.426c5.235,0.487,8.826,2.496,8.826,8.096
		C2614.064,328.701,2609.134,332.049,2601.891,332.049z"/>
	<path fill="#1D1D1B" d="M2654.781,331.684v-2.86c-2.435,2.435-4.626,3.226-8.644,3.226c-4.139,0-6.573-0.791-8.46-2.739
		c-1.461-1.461-2.252-3.713-2.252-6.087c0-5.234,3.651-8.643,10.348-8.643h9.008v-2.861c0-4.382-2.191-6.573-7.669-6.573
		c-3.835,0-5.782,0.913-7.548,3.408l-2.982-2.738c2.678-3.47,5.722-4.443,10.591-4.443c8.034,0,11.991,3.469,11.991,9.981v20.33
		H2654.781z M2654.781,317.867h-8.399c-4.504,0-6.695,1.825-6.695,5.295s2.13,5.113,6.878,5.113c2.557,0,4.809-0.183,6.695-2.009
		c1.034-0.974,1.521-2.679,1.521-5.174V317.867z"/>
	<path fill="#1D1D1B" d="M2686.553,307.458c-1.644-1.643-2.861-2.19-5.174-2.19c-4.383,0-7.183,3.469-7.183,8.034v18.382h-4.382
		v-29.946h4.382v3.651c1.644-2.495,4.931-4.017,8.399-4.017c2.861,0,5.053,0.669,7.183,2.8L2686.553,307.458z"/>
	<path fill="#1D1D1B" d="M2703.837,331.684c-5.113,0-7.67-3.591-7.67-8.034v-18.382h-3.773v-3.348h3.773v-9.374h4.383v9.374h6.392
		v3.348h-6.392v18.26c0,2.739,1.278,4.383,4.078,4.383h2.313v3.773H2703.837z"/>
	<path fill="#1D1D1B" d="M2718.382,317.867c0,6.573,3.104,10.347,8.826,10.347c3.47,0,5.478-1.034,7.852-3.408l2.982,2.617
		c-3.043,3.043-5.843,4.626-10.956,4.626c-7.912,0-13.086-4.748-13.086-15.339c0-9.678,4.687-15.338,12.295-15.338
		c7.73,0,12.295,5.6,12.295,14.486v2.009H2718.382z M2733.295,309.589c-1.157-2.739-3.835-4.504-7-4.504s-5.844,1.765-7,4.504
		c-0.669,1.644-0.791,2.557-0.913,4.991h15.826C2734.086,312.146,2733.964,311.232,2733.295,309.589z"/>
	<path fill="#1D1D1B" d="M2757.336,332.049c-5.052,0-9.008-1.156-12.295-4.321l2.922-2.922c2.374,2.495,5.6,3.47,9.312,3.47
		c4.931,0,7.974-1.766,7.974-5.296c0-2.617-1.521-4.078-4.991-4.383l-4.93-0.426c-5.844-0.486-8.948-3.104-8.948-8.034
		c0-5.479,4.626-8.765,11.018-8.765c4.261,0,8.095,1.034,10.773,3.226l-2.861,2.86c-2.13-1.643-4.869-2.373-7.974-2.373
		c-4.382,0-6.695,1.887-6.695,4.93c0,2.557,1.461,4.078,5.235,4.383l4.808,0.426c5.235,0.487,8.826,2.496,8.826,8.096
		C2769.51,328.701,2764.579,332.049,2757.336,332.049z"/>
	<path fill="#1D1D1B" d="M2802.861,345.439c-4.504,0-6.999-1.156-10.164-4.018l2.86-2.8c2.191,1.948,3.713,2.982,7.183,2.982
		c5.782,0,8.217-4.077,8.217-9.19v-4.687c-2.435,3.104-5.174,3.896-8.399,3.896c-3.044,0-5.661-1.096-7.243-2.679
		c-2.982-2.982-3.652-7.608-3.652-12.478s0.67-9.495,3.652-12.478c1.582-1.583,4.261-2.617,7.304-2.617
		c3.287,0,5.965,0.73,8.399,3.896v-3.53h4.322v30.859C2815.34,340.022,2810.714,345.439,2802.861,345.439z M2803.531,305.268
		c-6.513,0-7.486,5.6-7.486,11.199s0.974,11.199,7.486,11.199s7.426-5.6,7.426-11.199S2810.044,305.268,2803.531,305.268z"/>
	<path fill="#1D1D1B" d="M2843.033,307.458c-1.644-1.643-2.861-2.19-5.174-2.19c-4.383,0-7.183,3.469-7.183,8.034v18.382h-4.382
		v-29.946h4.382v3.651c1.644-2.495,4.931-4.017,8.399-4.017c2.861,0,5.053,0.669,7.183,2.8L2843.033,307.458z"/>
	<path fill="#1D1D1B" d="M2868.9,331.684v-2.86c-2.435,2.435-4.626,3.226-8.644,3.226c-4.139,0-6.573-0.791-8.46-2.739
		c-1.461-1.461-2.252-3.713-2.252-6.087c0-5.234,3.651-8.643,10.348-8.643h9.008v-2.861c0-4.382-2.191-6.573-7.669-6.573
		c-3.835,0-5.782,0.913-7.548,3.408l-2.982-2.738c2.678-3.47,5.722-4.443,10.591-4.443c8.034,0,11.991,3.469,11.991,9.981v20.33
		H2868.9z M2868.9,317.867h-8.399c-4.504,0-6.695,1.825-6.695,5.295s2.13,5.113,6.878,5.113c2.557,0,4.809-0.183,6.695-2.009
		c1.034-0.974,1.521-2.679,1.521-5.174V317.867z M2862.813,295.528h-4.017l5.355-9.312h5.235L2862.813,295.528z"/>
	<path fill="#1D1D1B" d="M2889.228,305.268v26.416h-4.383v-26.416h-3.834v-3.348h3.834v-5.661c0-4.443,2.496-8.034,7.608-8.034
		h3.166v3.773h-2.374c-2.8,0-4.018,1.644-4.018,4.383v5.539h6.392v3.348H2889.228z M2902.436,292.789v-4.504h4.991v4.504H2902.436z
		 M2902.74,331.684V301.92h4.383v29.764H2902.74z"/>
	<path fill="#1D1D1B" d="M2929.764,332.049c-7.547,0-13.269-5.113-13.269-15.339s5.722-15.338,13.269-15.338
		c4.14,0,6.757,1.095,9.86,4.443l-2.982,2.8c-2.252-2.496-4.017-3.348-6.878-3.348c-2.922,0-5.356,1.156-6.938,3.408
		c-1.4,1.947-1.948,4.261-1.948,8.034c0,3.774,0.548,6.087,1.948,8.035c1.582,2.252,4.017,3.408,6.938,3.408
		c2.861,0,4.626-0.913,6.878-3.408l2.982,2.86C2936.521,330.953,2933.903,332.049,2929.764,332.049z"/>
	<path fill="#1D1D1B" d="M2964.943,331.684v-2.86c-2.435,2.435-4.626,3.226-8.644,3.226c-4.139,0-6.573-0.791-8.46-2.739
		c-1.461-1.461-2.252-3.713-2.252-6.087c0-5.234,3.651-8.643,10.348-8.643h9.008v-2.861c0-4.382-2.191-6.573-7.669-6.573
		c-3.835,0-5.782,0.913-7.548,3.408l-2.982-2.738c2.678-3.47,5.722-4.443,10.591-4.443c8.034,0,11.991,3.469,11.991,9.981v20.33
		H2964.943z M2964.943,317.867h-8.399c-4.504,0-6.695,1.825-6.695,5.295s2.13,5.113,6.878,5.113c2.557,0,4.809-0.183,6.695-2.009
		c1.034-0.974,1.521-2.679,1.521-5.174V317.867z"/>
	<path fill="#1D1D1B" d="M2989.41,332.049c-5.052,0-9.008-1.156-12.295-4.321l2.922-2.922c2.374,2.495,5.6,3.47,9.312,3.47
		c4.931,0,7.974-1.766,7.974-5.296c0-2.617-1.521-4.078-4.991-4.383l-4.93-0.426c-5.844-0.486-8.948-3.104-8.948-8.034
		c0-5.479,4.626-8.765,11.018-8.765c4.261,0,8.095,1.034,10.773,3.226l-2.861,2.86c-2.13-1.643-4.869-2.373-7.974-2.373
		c-4.382,0-6.695,1.887-6.695,4.93c0,2.557,1.461,4.078,5.235,4.383l4.808,0.426c5.235,0.487,8.826,2.496,8.826,8.096
		C3001.584,328.701,2996.653,332.049,2989.41,332.049z"/>
</g>
<path fill="#FFFFFF" d="M2705.983,135.98h291.571c5.507,0,9.968,4.67,9.968,10.529v92.09c0,5.832-4.461,10.584-9.968,10.584
	h-781.544c-5.516,0-9.881-4.752-9.881-10.584v-92.09c0-5.859,4.365-10.529,9.881-10.529h448.448"/>
<path fill="#E4005B" d="M2171.286,134.344h-101.321v29.082h36.176v86.656h28.955v-86.656h36.19V134.344z M2065.714,170.504
	c0-9.914-3.505-18.34-10.669-25.477c-7.02-7.102-15.563-10.684-25.43-10.684h-79.654v115.738h29.003v-86.656h47.737
	c2.751,0,5.125,0.932,7.088,2.914c1.996,1.977,2.951,4.32,2.951,7.115v76.627h28.974V170.504z M1939.96,134.344h-29.026v115.738
	h29.026V134.344z M1868.998,189.186c-1.938,1.943-4.336,2.971-7.072,2.971h-47.715v-28.73h47.715c2.779,0,5.134,0.932,7.049,2.914
	c2.006,1.947,2.979,4.32,2.979,7.053v8.701C1871.954,184.889,1870.98,187.256,1868.998,189.186 M1900.962,170.504
	c0-9.924-3.562-18.377-10.654-25.477c-7.073-7.102-15.603-10.684-25.488-10.684h-79.63l0.014,115.738h29.008v-28.898l37.628,28.898
	h41.936l-40.498-28.898h11.558c9.899,0,18.4-3.582,25.444-10.627c7.121-7.102,10.684-15.602,10.684-25.611V170.504z
	 M1744.734,189.186c-2.006,1.943-4.337,2.971-7.121,2.971h-47.728v-28.73l47.728-0.066c2.784,0.066,5.115,0.998,7.121,2.98
	c1.934,1.947,2.951,4.32,2.951,7.053v8.701C1747.686,184.889,1746.668,187.229,1744.734,189.186 M1776.665,170.504
	c0-9.924-3.534-18.377-10.722-25.477c-7.03-7.102-15.535-10.684-25.393-10.684h-79.678v115.738h29.013v-28.898l50.736-0.059
	c9.829,0.059,18.291-3.523,25.321-10.568c7.173-7.102,10.722-15.631,10.722-25.611V170.504z M1574.284,221.184
	c-2.383,0-4.432-0.869-6.155-2.656c-1.748-1.68-2.632-3.705-2.632-6.018c0.015-2.271,0.884-4.23,2.632-5.969
	c1.724-1.719,3.801-2.588,6.155-2.588l49.062,0.027v17.203H1574.284z M1652.367,170.504c0-9.914-3.562-18.34-10.702-25.477
	c-7.082-7.102-15.583-10.684-25.493-10.684h-72.342v29.082h70.909c2.331,0,4.303,0.83,5.994,2.594
	c1.757,1.646,2.612,3.691,2.612,5.988v8.744h-53.45c-9.126,0-16.987,3.486-23.506,10.521c-6.533,7.035-9.785,15.119-9.785,24.141
	c0.033,9.17,3.252,17.25,9.785,24.299c6.519,6.943,14.38,10.369,23.506,10.369h82.472V170.504z M1496.536,192.232l39.404-57.889
	h-36.957l-20.905,33.695l-20.925-33.695l-36.816,0.043l39.328,57.846l-39.328,57.85h36.816l20.925-33.646l20.905,33.646h36.957
	L1496.536,192.232z M1419.647,221.184h-72.357v-17.23h57.87v-23.201h-57.87v-17.326h65.074v-29.082l-94.198,0.043v115.695h101.481
	V221.184z"/>
<path fill="#3F3F3E" d="M3026.243,150.99c0-0.344,0.081-0.545,0.095-0.912c0.487-5.285,4.896-9.48,10.312-9.48
	c0.329,0,0.645,0,0.974,0.082c5.277,0.455,9.484,4.891,9.484,10.311c0,0.301,0,0.664-0.086,0.889
	c-0.443,5.387-4.909,9.551-10.329,9.551c-0.34,0-0.641,0-0.998-0.076C3030.45,160.924,3026.243,156.424,3026.243,150.99
	 M3036.692,141.512c-4.934,0-8.998,3.83-9.499,8.666v0.812c0,4.994,3.825,9.055,8.658,9.465h0.841c4.952,0,8.987-3.725,9.46-8.635
	c0.015-0.277,0.015-0.529,0.029-0.83c0-4.936-3.812-8.943-8.649-9.479H3036.692"/>
<path fill="#3F3F3E" d="M3039.863,150.818c-0.249,0.172-0.401,0.258-0.773,0.258h-4.848v-2.926h4.848
	c0.372,0,0.524,0.117,0.773,0.322c0.195,0.205,0.272,0.445,0.272,0.736v0.869C3040.136,150.35,3040.059,150.588,3039.863,150.818
	 M3043.054,148.842c0-0.99-0.311-1.822-1.051-2.588c-0.76-0.684-1.571-1.033-2.541-1.033h-8.143v11.734h2.923V154.1l3.849,2.855
	h4.266l-4.107-2.855h1.213c0.97,0,1.781-0.416,2.541-1.123c0.74-0.744,1.051-1.586,1.051-2.627V148.842z"/>
<g>
	<path fill="#E4005B" d="M2244.885,224.822c-1.084,0-1.91-0.459-1.91-1.537c0-0.373,0.081-0.832,0.271-1.289l15.617-45.312
		c-2.183,1.623-5.636,3.893-7.273,3.893c-1.084,0-1.901-0.826-1.901-1.725c0.086-1.824,9.003-6.457,12.441-10.549
		c1.37-1.635,3.639-2.719,5.182-2.719c1.094,0,1.92,0.459,1.92,1.625c0,0.285-0.101,0.744-0.282,1.197l-17.804,51.779
		C2250.233,222.998,2246.967,224.822,2244.885,224.822z"/>
	<path fill="#E4005B" d="M2297.666,165.584c1.093,0,2.006,0.541,2.006,1.186c0,0.439-0.459,0.982-1.644,1.438
		c-17.44,7.188-24.261,25.264-24.261,38.717c0,10.344,4.007,14.441,9.915,14.441c8.987,0,18.443-12.805,18.443-29.074
		c0-8.707-3.467-13.545-6.361-16.525c-0.63-0.639-0.998-1.279-0.998-1.824c0-1.355,1.811-2.354,4.805-2.354
		c6.733,0,10.172,10.535,10.172,17.072c0,27.346-17.804,36.162-27.885,36.162c-11.252,0-16.247-7.99-16.247-17.984
		C2265.611,185.027,2283.954,165.584,2297.666,165.584z"/>
	<path fill="#E4005B" d="M2344.845,165.584c1.089,0,2.001,0.541,2.001,1.186c0,0.439-0.458,0.982-1.643,1.438
		c-17.445,7.188-24.246,25.264-24.246,38.717c0,10.344,3.992,14.441,9.895,14.441c9.003,0,18.449-12.805,18.449-29.074
		c0-8.707-3.458-13.545-6.361-16.525c-0.631-0.639-1.003-1.279-1.003-1.824c0-1.355,1.814-2.354,4.823-2.354
		c6.715,0,10.173,10.535,10.173,17.072c0,27.346-17.823,36.162-27.905,36.162c-11.256,0-16.247-7.99-16.247-17.984
		C2312.78,185.027,2331.124,165.584,2344.845,165.584z"/>
	<path fill="#E4005B" d="M2404.288,167.209c0.812-1.084,2.636-1.625,3.987-1.625c1.089,0,2.001,0.363,2.001,1.084
		c0,0.191-0.086,0.455-0.372,0.826l-41.238,55.695c-0.807,1.088-2.526,1.633-3.893,1.633c-1.184,0-2.096-0.373-2.096-1.088
		c0-0.197,0.081-0.449,0.367-0.822L2404.288,167.209z M2369.039,187.023c0,5.01,1.91,6.447,4.179,6.447
		c4.265,0,8.07-7.074,8.07-13.807c0-6.18-3.161-7.184-3.161-8.357c0-1.004,1.271-2.092,3.08-2.092c3.549,0,5.545,4.545,5.545,8.271
		c0,15.357-10.354,19.164-14.719,19.164c-5.177,0-8.812-3.443-8.812-9.547c0-11.791,9.709-21.434,16.811-21.434
		c0.912,0,1.629,0.555,1.629,1.189c0,0.453-0.373,0.998-1.257,1.348C2372.759,171.307,2369.039,178.852,2369.039,187.023z
		 M2389.938,215.176c0,5.01,1.896,6.467,4.179,6.467c4.265,0,8.085-7.094,8.085-13.822c0-6.164-3.181-7.162-3.181-8.348
		c0-0.998,1.271-2.092,3.1-2.092c3.52,0,5.535,4.537,5.535,8.262c0,15.359-10.358,19.18-14.724,19.18
		c-5.196,0-8.802-3.457-8.802-9.541c0-11.816,9.714-21.443,16.791-21.443c0.912,0,1.652,0.545,1.652,1.18
		c0,0.453-0.372,0.998-1.279,1.371C2393.657,199.473,2389.938,207.014,2389.938,215.176z"/>
</g>
<path fill="none" stroke="#3F3F3E" stroke-width="0.7285" d="M2405.74,249.184h-189.1c-5.859,0-10.511-4.752-10.511-10.584v-92.09
	c0-5.859,4.651-10.529,10.511-10.529h378.853"/>
<line fill="none" stroke="#3F3F3E" stroke-width="0.7285" x1="2562.546" y1="249.184" x2="2444.996" y2="249.184"/>
<path fill="none" stroke="#3F3F3E" stroke-width="0.7285" d="M2646.903,135.98h351.478c5.053,0,9.142,4.67,9.142,10.529v92.09
	c0,5.832-4.089,10.584-9.142,10.584h-100.763h-101.531H2616.76"/>
<g>
	<path fill="#3C3C3B" d="M2423.181,270.852c-1.781,5.014-6.958,8.252-10.354,8.252c-1.624,0-2.751-0.803-2.751-2.59
		c0-0.648,0.157-1.455,0.487-2.426l28.993-84.414c0.32-0.965,0.645-1.781,0.645-2.264c0-0.336-0.157-0.65-0.645-0.65
		c-0.325,0-0.965,0.314-1.781,0.314c-0.812,0-1.939-0.48-1.939-1.604c0-2.756,7.445-9.088,15.718-9.088
		c1.613,0,2.908,0.969,2.908,2.766c0,0.648-0.153,1.455-0.482,2.426l-1.939,5.5c5.994-7.115,12.465-10.691,18.134-10.691
		c8.424,0,12.479,7.941,12.479,14.59c0,6.475-2.913,13.609-6.318,18.787c0,0,1.295,0.172,2.264,0.172
		c5.679,0,7.775-2.268,10.855-5.674c0.645-0.803,1.781-1.289,2.771-1.289c0.969,0,1.781,0.486,1.781,1.613
		c0,1.133-0.659,2.594-2.283,4.537c-5.02,5.826-9.556,7.607-13.916,7.607c-2.111,0-4.055-0.486-5.999-1.131
		c-6.003,7.621-14.103,9.398-18.467,9.398c-4.552,0-8.114-2.264-8.114-6.494c0-3.391,2.264-11.166,14.103-11.166
		c2.426,0,5.177,0.33,8.572,0.969c1.781-4.365,2.756-9.729,2.756-13.777c0-5.502-1.786-9.715-6.476-9.715
		c-6.477,0-15.564,12.146-19.285,23.172L2423.181,270.852z M2453.826,216.891c0,1.609,0.965,2.908,3.062,2.908
		c2.598,0,5.836-2.264,8.42-6.314c-2.097-0.645-4.208-1.461-6.151-1.461C2455.594,212.023,2453.826,214.459,2453.826,216.891z"/>
	<path fill="#3C3C3B" d="M2497.242,194.367c-4.546-2.908-6.49-6.146-6.49-11.17c0-10.059,8.759-17.016,15.234-17.016
		c4.523,0,7.116,3.395,7.116,7.293c0,4.527-1.781,8.754-4.537,12.961c4.385,1.127,9.575,0.975,13.139,1.127
		c2.426,0.172,4.207,1.785,4.207,4.699c0,1.137-0.482,2.436-1.452,3.238c-2.269,2.273-11.509,11.021-11.509,17.822
		c0,2.598,1.122,3.725,2.922,3.725c4.05,0,11.653-5.176,18.129-12.789c0.654-0.803,1.786-1.289,2.77-1.289
		c0.965,0,1.782,0.486,1.782,1.613c0,1.133-0.641,2.594-2.269,4.537c-10.058,11.83-18.144,15.875-23.993,15.875
		c-6.791,0-10.526-5.512-10.526-10.373c0-3.887,2.269-9.557,9.228-15.721c-3.238-0.326-6.472-1.127-9.385-2.264
		c-3.396,4.545-7.13,9.24-9.886,12.482c-0.807,0.965-1.953,1.299-2.751,1.299c-0.97,0-1.781-0.486-1.781-1.785
		c0-0.969,0.64-2.426,2.264-4.375C2491.722,201.67,2494.63,197.773,2497.242,194.367z M2503.719,184.004
		c1.127-2.105,2.096-4.855,2.096-7.621c0-3.076-0.812-4.207-1.938-4.207c-1.781,0-3.233,2.588-3.233,5.018
		C2500.643,179.959,2502.262,182.715,2503.719,184.004z"/>
	<path fill="#3C3C3B" d="M2576.151,193.074c0,5.348-1.781,11.346-5.506,16.686c0.797,0.172,1.781,0.172,2.583,0.172
		c4.05,0,7.928-1.629,11.495-5.674c0.659-0.803,1.457-1.289,2.756-1.289c0.965,0,1.781,0.486,1.781,1.613
		c0,1.133-0.64,2.594-2.269,4.537c-4.852,5.66-10.684,8.09-16.347,8.09c-1.796,0-3.74-0.318-5.521-0.801
		c-5.988,5.674-13.276,8.586-19.608,8.586c-9.877,0-15.383-7.459-15.383-16.529c0-6.637,2.756-14.426,8.09-20.73
		c3.726-4.375,7.617-7.287,8.916-7.287c1.3,0,2.269,1.299,2.269,2.75c0,0.486-0.177,1.127-0.659,1.613
		c-3.72,3.898-7.11,11.014-7.11,18.645c0,8.086,3.878,14.404,9.565,14.404c2.741,0,5.821-1.451,8.415-4.051
		c-6.472-3.877-11.18-11.012-11.18-19.441c0-7.607,4.379-17.984,14.093-17.984c2.908,0,5.988,1.131,8.596,3.734
		C2574.522,183.359,2576.151,188.049,2576.151,193.074z M2554.111,191.941c0,5.994,4.213,11.996,9.872,15.393
		c1.299-3.238,1.943-6.963,1.943-10.377c0-6.156-1.943-12.633-6.309-12.633C2555.726,184.324,2554.111,188.221,2554.111,191.941z"/>
	<path fill="#3C3C3B" d="M2623.607,197.275c2.599-5.334,4.05-8.566,4.05-9.383c0-0.482-0.329-0.818-0.812-0.818
		c-0.315,0-0.97,0.336-1.614,0.336c-1.137,0-1.935-0.65-1.935-1.787s1.28-2.908,3.233-4.369c3.554-2.588,8.415-4.871,13.438-4.871
		c2.283,0,3.253,0.969,3.253,2.439c0,1.781-1.639,5.182-3.582,9.398c-3.08,6.629-6.958,15.389-9.384,23.971
		c-0.33,1.131-0.654,2.268-0.654,3.074c0,1.295,0.482,2.27,1.623,2.27c2.427,0,8.744-4.213,16.529-13.277
		c0.645-0.803,1.786-1.289,2.755-1.289c0.97,0,1.782,0.486,1.782,1.613c0,1.133-0.654,2.594-2.264,4.537
		c-8.931,10.525-17.833,15.875-23.497,15.875c-6.003,0-8.931-3.395-8.931-8.754c0-1.131,0.177-2.268,0.487-3.559
		c-5.334,5.016-10.024,7.617-14.719,10.855c1.939,5.02,2.736,10.043,2.736,15.062c0,21.225-15.387,40.504-25.746,40.504
		c-7.144,0-9.728-7.766-9.728-17.164c0-14.424,5.339-35.484,10.697-55.576c13.769-52.508,37.246-87.002,46.501-87.002
		c2.579,0,4.04,2.43,4.04,7.768c0,31.932-22.521,72.277-38.071,86.523l-3.726,3.557c-4.379,17.342-8.429,37.27-8.429,45.867
		c0,4.365,1.624,6.801,3.567,6.801c3.41,0,7.774-6.639,9.069-20.422c0.329-3.238,0.487-6.801,0.487-10.855
		c0-5.182-0.487-9.393-1.3-11.494c-0.157-0.65-0.329-1.299-0.329-1.625c0-1.293,0.659-2.588,2.593-3.725
		C2607.403,214.459,2617.93,208.953,2623.607,197.275z M2619.075,137.348c-3.739,0-16.69,34.828-26.247,69.828
		c17.331-19.283,27.212-58.01,27.212-66.428C2620.04,138.48,2619.716,137.348,2619.075,137.348z M2649.368,157.924
		c0,4.371-4.532,9.227-9.886,9.227c-3.721,0-6.648-2.588-6.648-5.988c0-4.709,5.024-9.246,10.058-9.246
		C2646.455,151.916,2649.368,154.023,2649.368,157.924z"/>
	<path fill="#3C3C3B" d="M2680.635,217.697c0-4.375,6.165-8.424,17.178-8.424c1.624,0,3.721,0.172,5.502,0.328
		c-0.153-5.02-4.36-9.23-8.086-13.936c-6.977,6.979-11.686,10.697-16.046,13.119c-1.457,9.715-9.398,16.209-21.883,16.209
		c-4.522,0-10.845-2.912-10.845-7.297c0-4.857,5.836-7.938,22.044-11.82c-1.471-3.566-4.537-6.814-7.474-10.377l-11.175,13.619
		c-0.641,0.812-1.782,1.299-2.751,1.299c-0.965,0-1.781-0.486-1.781-1.785c0-0.812,0.654-2.426,2.269-4.375
		c3.08-3.725,6.963-8.592,10.372-12.799c-1.943-2.918-3.409-5.988-3.409-9.398c0-9.561,11.194-17.818,17.985-17.818
		c2.922,0,5.019,1.609,5.019,5.016c0,5.018-5.334,12.158-9.055,17.016c3.721,4.699,8.572,9.875,10.196,15.721
		c4.035-2.105,8.271-5.52,13.453-10.535c-1.938-2.918-3.414-5.988-3.414-9.398c0-9.561,11.018-17.818,17.837-17.818
		c2.903,0,5.015,1.457,5.015,5.016c0,4.855-4.69,12.316-8.602,17.502c4.552,5.826,10.388,12.303,10.388,19.604
		c0,0.33-0.172,2.422-0.482,3.889c4.36-0.168,6.801-1.299,10.836-5.994c0.659-0.803,1.796-1.289,2.77-1.289
		c0.97,0,1.781,0.486,1.781,1.613c0,1.133-0.645,2.594-2.264,4.537c-6.012,7.121-10.544,8.902-15.067,8.902
		c-0.812,0-1.623-0.162-1.623-0.162c-4.365,5.191-10.698,7.135-17.503,7.135C2685.83,224.994,2680.635,221.441,2680.635,217.697z
		 M2669.14,212.023c-2.599,0.486-5.659,0.984-8.271,1.461c-3.086,0.65-5.512,1.781-5.512,3.725c0,1.463,1.629,2.771,4.207,2.771
		C2663.786,219.98,2668.499,216.078,2669.14,212.023z M2663.48,176.383c0,2.125,0.635,3.576,1.609,5.191
		c2.268-3.066,4.05-6.328,4.202-8.76c0-1.127-0.311-1.775-1.122-1.775C2666.059,171.039,2663.48,174.113,2663.48,176.383z
		 M2701.375,216.078c-2.421-0.645-5.023-1.457-7.617-1.457c-2.751,0-4.035,1.299-4.035,2.426c0,1.453,1.614,2.934,4.207,2.934
		C2696.514,219.98,2699.265,218.346,2701.375,216.078z M2697.65,176.545c0,2.121,0.812,3.738,1.943,5.516
		c1.939-3.395,3.567-6.977,3.721-9.246c0-1.127-0.33-1.775-1.127-1.775C2700.076,171.039,2697.65,174.439,2697.65,176.545z"/>
	<path fill="#3C3C3B" d="M2733.301,212.191c-0.329,1.131-0.645,2.43-0.645,3.242c0,1.293,0.482,2.102,1.614,2.102
		c2.426,0,8.744-4.213,16.528-13.277c0.97-1.131,1.944-1.289,2.756-1.289c1.122,0,1.938,0.486,1.938,1.613
		c0,0.971-0.64,2.594-2.421,4.537c-8.936,10.525-17.837,15.875-23.496,15.875c-6.003,0-8.759-3.553-8.759-9.074
		c0-1.785,0.329-3.896,0.974-5.988c2.422-8.424,6.472-16.209,8.268-19.934c0.486-1.137,0.816-1.777,0.816-2.264
		c0-0.492-0.33-0.66-0.816-0.66c-0.482,0-0.965,0.168-1.467,0.168c-1.142,0-2.269-0.482-2.269-1.619c0-3.238,8.602-9.24,16.845-9.24
		c2.272,0,3.237,0.969,3.237,2.439c0,2.111-1.767,5.502-3.553,9.398C2739.771,194.85,2735.895,203.455,2733.301,212.191z
		 M2752.58,157.924c0,4.371-4.546,9.227-9.895,9.227c-3.726,0-6.634-2.588-6.634-5.988c0-4.709,5.02-9.246,10.043-9.246
		C2749.648,151.916,2752.58,154.023,2752.58,157.924z"/>
	<path fill="#3C3C3B" d="M2792.921,193.074c0,5.348-1.781,11.346-5.502,16.686c0.812,0.172,1.781,0.172,2.594,0.172
		c4.055,0,7.933-1.629,11.495-5.674c0.645-0.803,1.456-1.289,2.755-1.289c0.97,0,1.782,0.486,1.782,1.613
		c0,1.133-0.659,2.594-2.269,4.537c-4.862,5.66-10.684,8.09-16.357,8.09c-1.8,0-3.739-0.318-5.521-0.801
		c-5.993,5.674-13.271,8.586-19.604,8.586c-9.881,0-15.387-7.459-15.387-16.529c0-6.637,2.75-14.426,8.1-20.73
		c3.725-4.375,7.617-7.287,8.901-7.287c1.299,0,2.269,1.299,2.269,2.75c0,0.486-0.157,1.127-0.64,1.613
		c-3.726,3.898-7.135,11.014-7.135,18.645c0,8.086,3.892,14.404,9.575,14.404c2.751,0,5.831-1.451,8.414-4.051
		c-6.48-3.877-11.185-11.012-11.185-19.441c0-7.607,4.394-17.984,14.107-17.984c2.913,0,5.994,1.131,8.587,3.734
		C2791.312,183.359,2792.921,188.049,2792.921,193.074z M2770.886,191.941c0,5.994,4.222,11.996,9.881,15.393
		c1.299-3.238,1.943-6.963,1.943-10.377c0-6.156-1.943-12.633-6.318-12.633C2772.515,184.324,2770.886,188.221,2770.886,191.941z"/>
	<path fill="#3C3C3B" d="M2835.701,215.266c0,1.295,0.33,2.27,1.452,2.27c2.598,0,8.744-4.213,16.533-13.277
		c0.817-0.803,1.786-1.289,2.751-1.289c1.132,0,1.944,0.486,1.944,1.777c0,0.969-0.812,2.43-2.427,4.373
		c-8.931,10.525-17.827,15.875-23.496,15.875c-5.841,0-8.597-3.553-8.597-8.916c0-1.781,0.33-3.887,0.965-6.146
		c3.425-11.996,8.764-19.451,8.764-21.711c0-0.658-0.315-0.979-0.803-0.979c-3.739,0-18.486,13.463-21.553,22.359l-2.426,7.125
		c-1.619,5.029-6.987,8.268-10.383,8.268c-1.609,0-2.755-0.807-2.755-2.584c0-0.654,0.162-1.461,0.491-2.43l10.368-30.307
		c0.33-0.965,0.659-1.781,0.659-2.264c0-0.336-0.162-0.65-0.659-0.65c-0.329,0-0.969,0.162-1.466,0.162
		c-1.132,0-2.259-0.486-2.259-1.623c0-2.584,7.774-8.916,15.717-8.916c1.614,0,2.756,0.811,2.756,2.766
		c0,0.648-0.168,1.455-0.482,2.426l-3.739,10.855c8.1-9.232,19.771-16.047,26.247-16.047c2.756,0,4.689,1.457,4.689,4.383
		c0,1.619-0.798,4.371-2.249,7.455c-3.085,6.305-7.135,15.717-9.562,23.971C2835.854,213.322,2835.701,214.459,2835.701,215.266z"/>
	<path fill="#3C3C3B" d="M2883.482,224.994c-4.848,0-7.273-2.584-7.756-6.494c-3.739,4.23-8.276,6.494-12.813,6.494
		c-7.44,0-13.763-6.322-13.763-14.742c0-14.752,15.062-33.869,34.18-33.869c8.113,0,14.418,3.252,14.418,9.729
		c0,8.1-7.116,9.713-9.729,9.713c-2.269,0-5.816-0.641-5.816-2.75c0-2.273,5.005-0.975,5.005-6.152c0-3.238-3.238-4.375-6.477-4.375
		c-11.667,0-20.082,16.191-20.082,26.238c0,4.537,1.782,9.074,5.989,9.074c3.41,0,8.911-4.852,11.667-11.982
		c1.781-4.857,6.806-8.104,10.201-8.104c1.795,0,2.937,0.801,2.937,2.598c0,0.648-0.172,1.457-0.482,2.426
		c-0.659,2.111-4.068,11.824-4.068,13.281c0,0.812,0.315,1.457,1.299,1.457c2.44,0,8.744-4.213,16.52-13.277
		c0.654-0.803,1.781-1.289,2.75-1.289c0.97,0,1.786,0.486,1.786,1.613c0,1.133-0.645,2.594-2.268,4.537
		C2898.077,219.645,2889.161,224.994,2883.482,224.994z"/>
	<path fill="#3C3C3B" d="M2914.267,212.191c-0.329,1.131-0.645,2.43-0.645,3.242c0,1.293,0.492,2.102,1.614,2.102
		c2.426,0,8.759-4.213,16.528-13.277c0.975-1.131,1.944-1.289,2.756-1.289c1.127,0,1.938,0.486,1.938,1.613
		c0,0.971-0.64,2.594-2.421,4.537c-8.901,10.525-17.832,15.875-23.496,15.875c-5.989,0-8.744-3.553-8.744-9.074
		c0-1.785,0.329-3.896,0.974-5.988c2.422-8.424,6.476-16.209,8.258-19.934c0.481-1.137,0.812-1.777,0.812-2.264
		c0-0.492-0.33-0.66-0.812-0.66c-0.487,0-0.97,0.168-1.457,0.168c-1.142,0-2.269-0.482-2.269-1.619c0-3.238,8.592-9.24,16.844-9.24
		c2.273,0,3.243,0.969,3.243,2.439c0,2.111-1.768,5.502-3.554,9.398C2920.757,194.85,2916.864,203.455,2914.267,212.191z
		 M2933.551,157.924c0,4.371-4.532,9.227-9.886,9.227c-3.739,0-6.647-2.588-6.647-5.988c0-4.709,5.033-9.246,10.058-9.246
		C2930.628,151.916,2933.551,154.023,2933.551,157.924z"/>
	<path fill="#3C3C3B" d="M2942.138,191.287c-1.938-2.912-3.396-5.816-3.396-9.227c0-9.561,11.171-17.818,17.971-17.818
		c2.928,0,5.039,1.457,5.039,5.016c0,5.018-5.368,12.158-9.246,17.016c4.694,5.826,11.027,12.627,11.027,20.09
		c8.577,1.133,14.732,4.695,14.732,10.684c0,3.252-2.923,10.211-5.988,10.211c-0.654,0-1.142-0.314-1.142-1.127
		c0-1.137,0.975-2.111,0.975-4.203c0-4.068-3.559-7.148-10.029-8.605c-3.41,8.76-12.326,11.672-19.943,11.672
		c-3.72,0-11.51-1.613-11.51-6.648c0-4.861,7.632-10.043,22.207-11.824c-1.466-3.877-4.704-7.283-7.617-11.021l-11.18,13.619
		c-0.659,0.812-1.786,1.299-2.756,1.299c-0.969,0-1.781-0.486-1.781-1.785c0-0.969,0.641-2.426,2.264-4.375
		C2934.678,200.857,2938.742,195.666,2942.138,191.287z M2953.15,212.357c-6.476,0-14.079,0.482-14.079,4.689
		c0,1.939,1.3,3.096,3.554,3.096C2947.162,220.143,2951.852,217.209,2953.15,212.357z M2947.645,176.707
		c0,1.801,0.654,3.252,1.628,4.867c2.097-3.254,4.05-6.49,4.208-8.76c0-1.127-0.33-1.775-1.128-1.775
		C2950.395,171.039,2947.645,173.957,2947.645,176.707z"/>
</g>
<rect id="_x3C_Tranche_x3E_" x="-123.5" y="-47" fill="none" width="3301" height="528"/>
</svg>
