<?xml version="1.0" encoding="UTF-8" standalone="no"?>
<!-- Generator: Adobe Illustrator 16.0.0, SVG Export Plug-In . SVG Version: 6.00 Build 0)  -->

<svg
   xmlns:dc="http://purl.org/dc/elements/1.1/"
   xmlns:cc="http://creativecommons.org/ns#"
   xmlns:rdf="http://www.w3.org/1999/02/22-rdf-syntax-ns#"
   xmlns:svg="http://www.w3.org/2000/svg"
   xmlns="http://www.w3.org/2000/svg"
   xmlns:sodipodi="http://sodipodi.sourceforge.net/DTD/sodipodi-0.dtd"
   xmlns:inkscape="http://www.inkscape.org/namespaces/inkscape"
   version="1.1"
   id="Calque_1"
   x="0px"
   y="0px"
   width="744.09448"
   height="106.29921"
   viewBox="0 104.451 744.09448 106.29921"
   enable-background="new 0 104.451 3056 376.549"
   xml:space="preserve"
   inkscape:version="0.48.2 r9819"
   sodipodi:docname="header.svg"><metadata
   id="metadata15149"><rdf:RDF><cc:Work
       rdf:about=""><dc:format>image/svg+xml</dc:format><dc:type
         rdf:resource="http://purl.org/dc/dcmitype/StillImage" /></cc:Work></rdf:RDF></metadata><defs
   id="defs15147" /><sodipodi:namedview
   pagecolor="#ffffff"
   bordercolor="#666666"
   borderopacity="1"
   objecttolerance="10"
   gridtolerance="10"
   guidetolerance="10"
   inkscape:pageopacity="0"
   inkscape:pageshadow="2"
   inkscape:window-width="1680"
   inkscape:window-height="1006"
   id="namedview15145"
   showgrid="false"
   units="cm"
   inkscape:zoom="0.83297919"
   inkscape:cx="759.67348"
   inkscape:cy="44.213284"
   inkscape:window-x="0"
   inkscape:window-y="0"
   inkscape:window-maximized="1"
   inkscape:current-layer="Calque_1" />











<g
   id="g15151"
   transform="matrix(0.24114478,0,0,0.24114478,4.2813801,159.92904)"><g
     transform="translate(0,-270.2499)"
     id="g14946">
	<polygon
   style="fill:#8dc63f"
   id="polygon14948"
   points="153.082,273.992 188.89,379.389 219.748,378.123 166.955,241.93 " />
	<polygon
   style="fill:#0066b3"
   id="polygon14950"
   points="258.063,162.9 153.079,273.992 157.043,213.332 215.087,165.775 " />
	<polygon
   style="fill:#bfd730"
   id="polygon14952"
   points="215.087,165.775 266.885,245.764 337.644,224.336 260.306,160.383 " />
	<polygon
   style="fill:#f37021"
   id="polygon14954"
   points="433.192,109.377 337.644,224.336 266.885,245.77 357.147,126.396 " />
	<polygon
   style="fill:#522e91"
   id="polygon14956"
   points="220.954,381.232 235.458,370.834 223.507,368.451 188.888,379.389 " />
	<polygon
   style="fill:#f067a6"
   id="polygon14958"
   points="238.66,368.533 282.014,472.737 254.762,466.772 223.509,368.451 " />
	<polygon
   style="fill:#a3238e"
   id="polygon14960"
   points="348.95,359.383 312.905,479.847 279.968,461.517 309.713,375.543 " />
	<polygon
   style="fill:#00a651"
   id="polygon14962"
   points="433.757,355.979 348.036,394.848 309.713,375.533 350.687,355.275 " />
	<polygon
   style="fill:#00aeef"
   id="polygon14964"
   points="485.33,276.643 439.935,356.029 348.036,394.848 479.476,147.029 " />
	<polygon
   style="fill:#ed1164"
   id="polygon14966"
   points="356.926,126.461 485.33,276.643 483.303,139.822 437.081,104.451 " />
	<polygon
   style="fill:#ed1164"
   id="polygon14968"
   points="646.744,432.174 312.905,479.847 279.968,461.517 592.951,417.504 " />
	<polygon
   style="fill:#f37021"
   id="polygon14970"
   points="646.744,432.174 918.017,440.278 949.529,425.135 592.951,417.504 " />
	<polygon
   style="fill:#bfd730"
   id="polygon14972"
   points="918.236,407.588 918.017,440.278 949.529,425.135 935.412,392.932 " />
	<polygon
   style="fill:#0066b3"
   id="polygon14974"
   points="918.236,407.588 1067.166,440.185 1053.05,420.121 935.412,392.932 " />
	<polygon
   style="fill:#8dc63f"
   id="polygon14976"
   points="1671.117,420.512 1067.166,440.185 1053.05,420.121 1615.026,398.582 " />
	<polygon
   style="fill:#522e91"
   id="polygon14978"
   points="1671.117,420.512 1858.988,457.123 1844.871,437.063 1615.026,398.582 " />
	<polygon
   style="fill:#f067a6"
   id="polygon14980"
   points="2318.001,411.953 1858.988,457.123 1844.871,437.063 2348.574,397.941 " />
	<polygon
   style="fill:#a3238e"
   id="polygon14982"
   points="2318.001,411.953 3082.123,453.983 3082.123,402.832 2348.574,397.941 " />
	<polygon
   style="fill:#a3238e"
   id="polygon14984"
   points="85.364,476.188 282.014,472.737 254.762,466.772 99.479,462.069 " />
	<polygon
   style="fill:#00aeef"
   id="polygon14986"
   points="85.364,476.188 -23.232,457.36 -23.232,424.429 99.479,462.069 " />
</g><g
     transform="translate(0,-270.2499)"
     id="g14988">
	<path
   style="fill:#1d1d1b"
   inkscape:connector-curvature="0"
   id="path14990"
   d="m 1346.813,331.684 -3.469,-9.8 h -18.93 l -3.469,9.8 h -4.931 l 15.947,-43.337 h 3.896 l 15.887,43.337 h -4.931 z m -12.842,-36.704 -8.155,22.887 h 16.189 l -8.034,-22.887 z" />
	<path
   style="fill:#1d1d1b"
   inkscape:connector-curvature="0"
   id="path14992"
   d="m 1382.724,345.439 c -4.504,0 -7,-1.156 -10.164,-4.019 l 2.86,-2.8 c 2.19,1.947 3.713,2.982 7.183,2.982 5.782,0 8.217,-4.078 8.217,-9.19 v -4.687 c -2.436,3.104 -5.174,3.896 -8.4,3.896 -3.043,0 -5.661,-1.097 -7.243,-2.679 -2.981,-2.982 -3.651,-7.608 -3.651,-12.479 0,-4.869 0.668,-9.494 3.651,-12.479 1.583,-1.582 4.261,-2.616 7.304,-2.616 3.287,0 5.965,0.729 8.4,3.896 v -3.529 h 4.321 v 30.859 c -10e-4,7.427 -4.627,12.845 -12.478,12.845 z m 0.67,-40.171 c -6.514,0 -7.488,5.601 -7.488,11.199 0,5.6 0.975,11.199 7.488,11.199 6.513,0 7.426,-5.6 7.426,-11.199 -10e-4,-5.599 -0.914,-11.199 -7.426,-11.199 z" />
	<path
   style="fill:#1d1d1b"
   inkscape:connector-curvature="0"
   id="path14994"
   d="m 1422.896,307.458 c -1.645,-1.644 -2.861,-2.19 -5.174,-2.19 -4.384,0 -7.184,3.469 -7.184,8.034 v 18.382 h -4.382 v -29.945 h 4.382 v 3.65 c 1.645,-2.494 4.93,-4.017 8.4,-4.017 2.86,0 5.052,0.669 7.182,2.8 l -3.224,3.286 z" />
	<path
   style="fill:#1d1d1b"
   inkscape:connector-curvature="0"
   id="path14996"
   d="m 1448.761,331.684 v -2.859 c -2.435,2.435 -4.626,3.226 -8.643,3.226 -4.139,0 -6.574,-0.791 -8.46,-2.739 -1.461,-1.461 -2.252,-3.713 -2.252,-6.086 0,-5.234 3.651,-8.644 10.348,-8.644 h 9.009 v -2.86 c 0,-4.383 -2.191,-6.574 -7.67,-6.574 -3.834,0 -5.781,0.914 -7.547,3.408 l -2.981,-2.738 c 2.678,-3.469 5.722,-4.442 10.591,-4.442 8.035,0 11.99,3.469 11.99,9.981 v 20.33 h -4.385 v -0.003 z m 0,-13.817 h -8.398 c -4.504,0 -6.696,1.824 -6.696,5.295 0,3.47 2.13,5.113 6.878,5.113 2.557,0 4.809,-0.184 6.695,-2.01 1.035,-0.974 1.521,-2.679 1.521,-5.174 l 0,-3.224 0,0 z m -6.086,-22.339 h -4.018 l 5.355,-9.312 h 5.234 l -6.571,9.312 z" />
	<path
   style="fill:#1d1d1b"
   inkscape:connector-curvature="0"
   id="path14998"
   d="m 1469.089,305.268 v 26.416 h -4.382 v -26.416 h -3.834 v -3.348 h 3.834 v -5.661 c 0,-4.443 2.496,-8.034 7.608,-8.034 h 3.164 v 3.773 h -2.373 c -2.801,0 -4.018,1.644 -4.018,4.383 v 5.539 h 6.391 v 3.348 h -6.39 z m 13.208,-12.479 v -4.504 h 4.991 v 4.504 h -4.991 z m 0.306,38.895 V 301.92 h 4.381 v 29.764 h -4.381 z" />
	<path
   style="fill:#1d1d1b"
   inkscape:connector-curvature="0"
   id="path15000"
   d="m 1509.625,332.049 c -7.547,0 -13.269,-5.113 -13.269,-15.339 0,-10.226 5.722,-15.338 13.269,-15.338 4.14,0 6.756,1.095 9.86,4.442 l -2.981,2.801 c -2.252,-2.496 -4.019,-3.348 -6.878,-3.348 -2.921,0 -5.355,1.155 -6.938,3.407 -1.4,1.947 -1.949,4.261 -1.949,8.034 0,3.773 0.548,6.087 1.949,8.035 1.582,2.252 4.017,3.408 6.938,3.408 2.861,0 4.626,-0.914 6.878,-3.408 l 2.981,2.859 c -3.104,3.351 -5.72,4.447 -9.86,4.447 z" />
	<path
   style="fill:#1d1d1b"
   inkscape:connector-curvature="0"
   id="path15002"
   d="m 1544.806,331.684 v -2.859 c -2.436,2.435 -4.627,3.226 -8.645,3.226 -4.139,0 -6.573,-0.791 -8.46,-2.739 -1.461,-1.461 -2.252,-3.713 -2.252,-6.086 0,-5.234 3.651,-8.644 10.348,-8.644 h 9.009 v -2.86 c 0,-4.383 -2.191,-6.574 -7.67,-6.574 -3.834,0 -5.781,0.914 -7.547,3.408 l -2.982,-2.738 c 2.678,-3.469 5.722,-4.442 10.591,-4.442 8.034,0 11.991,3.469 11.991,9.981 v 20.33 h -4.383 v -0.003 z m 0,-13.817 h -8.399 c -4.505,0 -6.695,1.824 -6.695,5.295 0,3.47 2.13,5.113 6.878,5.113 2.557,0 4.809,-0.184 6.695,-2.01 1.034,-0.974 1.521,-2.679 1.521,-5.174 v -3.224 z" />
	<path
   style="fill:#1d1d1b"
   inkscape:connector-curvature="0"
   id="path15004"
   d="m 1577.729,317.867 c 0,6.572 3.104,10.347 8.826,10.347 3.471,0 5.479,-1.034 7.853,-3.407 l 2.981,2.616 c -3.043,3.043 -5.843,4.626 -10.955,4.626 -7.912,0 -13.086,-4.748 -13.086,-15.339 0,-9.678 4.687,-15.338 12.295,-15.338 7.729,0 12.295,5.601 12.295,14.485 v 2.01 h -20.209 z m 14.915,-8.278 c -1.156,-2.739 -3.834,-4.504 -7,-4.504 -3.164,0 -5.844,1.765 -7,4.504 -0.668,1.644 -0.791,2.558 -0.912,4.991 h 15.826 c -0.123,-2.434 -0.246,-3.348 -0.914,-4.991 z" />
	<path
   style="fill:#1d1d1b"
   inkscape:connector-curvature="0"
   id="path15006"
   d="m 1622.649,331.684 -7.183,-11.625 -7.305,11.625 h -5.295 l 10.165,-15.276 -9.739,-14.669 h 5.296 l 6.878,11.076 6.757,-11.076 h 5.295 l -9.738,14.669 10.165,15.276 h -5.296 z" />
	<path
   style="fill:#1d1d1b"
   inkscape:connector-curvature="0"
   id="path15008"
   d="m 1655.578,329.432 c -1.582,1.582 -4.261,2.617 -7.304,2.617 -3.287,0 -6.026,-0.791 -8.461,-3.896 v 16.922 h -4.383 v -43.338 h 4.383 v 3.531 c 2.435,-3.166 5.174,-3.896 8.461,-3.896 3.043,0 5.722,1.033 7.304,2.617 3.044,3.043 3.651,8.033 3.651,12.721 0,4.688 -0.607,9.679 -3.651,12.722 z m -8.218,-24.164 c -6.512,0 -7.547,5.601 -7.547,11.442 0,5.845 1.035,11.442 7.547,11.442 6.514,0 7.486,-5.6 7.486,-11.442 0,-5.843 -0.972,-11.442 -7.486,-11.442 z" />
	<path
   style="fill:#1d1d1b"
   inkscape:connector-curvature="0"
   id="path15010"
   d="m 1685.341,307.458 c -1.645,-1.644 -2.861,-2.19 -5.174,-2.19 -4.383,0 -7.184,3.469 -7.184,8.034 v 18.382 h -4.381 v -29.945 h 4.381 v 3.65 c 1.645,-2.494 4.932,-4.017 8.399,-4.017 2.861,0 5.054,0.669 7.183,2.8 l -3.224,3.286 z" />
	<path
   style="fill:#1d1d1b"
   inkscape:connector-curvature="0"
   id="path15012"
   d="m 1694.956,317.867 c 0,6.572 3.104,10.347 8.826,10.347 3.47,0 5.479,-1.034 7.852,-3.407 l 2.982,2.616 c -3.043,3.043 -5.843,4.626 -10.956,4.626 -7.912,0 -13.086,-4.748 -13.086,-15.339 0,-9.678 4.687,-15.338 12.295,-15.338 7.729,0 12.295,5.601 12.295,14.485 v 2.01 h -20.208 z m 14.913,-8.278 c -1.157,-2.739 -3.835,-4.504 -7,-4.504 -3.165,0 -5.845,1.765 -7,4.504 -0.669,1.644 -0.791,2.558 -0.913,4.991 h 15.826 c -0.122,-2.434 -0.244,-3.348 -0.913,-4.991 z" />
	<path
   style="fill:#1d1d1b"
   inkscape:connector-curvature="0"
   id="path15014"
   d="m 1733.91,332.049 c -5.052,0 -9.009,-1.156 -12.295,-4.32 l 2.922,-2.922 c 2.374,2.494 5.6,3.469 9.312,3.469 4.932,0 7.975,-1.766 7.975,-5.295 0,-2.617 -1.521,-4.078 -4.991,-4.383 l -4.931,-0.427 c -5.844,-0.485 -8.947,-3.104 -8.947,-8.034 0,-5.479 4.626,-8.765 11.018,-8.765 4.262,0 8.096,1.034 10.773,3.226 l -2.861,2.86 c -2.13,-1.644 -4.869,-2.373 -7.974,-2.373 -4.382,0 -6.695,1.888 -6.695,4.931 0,2.557 1.461,4.077 5.235,4.383 l 4.808,0.426 c 5.235,0.486 8.826,2.496 8.826,8.096 -10e-4,5.78 -4.932,9.128 -12.175,9.128 z" />
	<path
   style="fill:#1d1d1b"
   inkscape:connector-curvature="0"
   id="path15016"
   d="m 1764.099,332.049 c -5.053,0 -9.009,-1.156 -12.296,-4.32 l 2.923,-2.922 c 2.373,2.494 5.6,3.469 9.312,3.469 4.931,0 7.974,-1.766 7.974,-5.295 0,-2.617 -1.521,-4.078 -4.99,-4.383 l -4.931,-0.427 c -5.844,-0.485 -8.948,-3.104 -8.948,-8.034 0,-5.479 4.627,-8.765 11.019,-8.765 4.261,0 8.095,1.034 10.772,3.226 l -2.861,2.86 c -2.129,-1.644 -4.868,-2.373 -7.974,-2.373 -4.382,0 -6.694,1.888 -6.694,4.931 0,2.557 1.461,4.077 5.234,4.383 l 4.809,0.426 c 5.234,0.486 8.826,2.496 8.826,8.096 0,5.78 -4.933,9.128 -12.175,9.128 z" />
	<path
   style="fill:#1d1d1b"
   inkscape:connector-curvature="0"
   id="path15018"
   d="m 1816.746,307.458 c -1.644,-1.644 -2.861,-2.19 -5.174,-2.19 -4.384,0 -7.183,3.469 -7.183,8.034 v 18.382 h -4.383 v -29.945 h 4.383 v 3.65 c 1.644,-2.494 4.931,-4.017 8.398,-4.017 2.861,0 5.053,0.669 7.184,2.8 l -3.225,3.286 z" />
	<path
   style="fill:#1d1d1b"
   inkscape:connector-curvature="0"
   id="path15020"
   d="m 1826.36,317.867 c 0,6.572 3.104,10.347 8.826,10.347 3.471,0 5.479,-1.034 7.853,-3.407 l 2.981,2.616 c -3.043,3.043 -5.842,4.626 -10.955,4.626 -7.912,0 -13.086,-4.748 -13.086,-15.339 0,-9.678 4.687,-15.338 12.295,-15.338 7.729,0 12.295,5.601 12.295,14.485 v 2.01 h -20.209 z m 14.914,-8.278 c -1.157,-2.739 -3.836,-4.504 -7,-4.504 -3.166,0 -5.844,1.765 -7,4.504 -0.67,1.644 -0.791,2.558 -0.913,4.991 h 15.825 c -0.121,-2.434 -0.244,-3.348 -0.912,-4.991 z" />
	<path
   style="fill:#1d1d1b"
   inkscape:connector-curvature="0"
   id="path15022"
   d="m 1863.308,332.049 c -5.053,0 -9.009,-1.156 -12.296,-4.32 l 2.923,-2.922 c 2.373,2.494 5.6,3.469 9.312,3.469 4.931,0 7.974,-1.766 7.974,-5.295 0,-2.617 -1.521,-4.078 -4.99,-4.383 l -4.931,-0.427 c -5.844,-0.485 -8.948,-3.104 -8.948,-8.034 0,-5.479 4.627,-8.765 11.019,-8.765 4.261,0 8.095,1.034 10.772,3.226 l -2.861,2.86 c -2.129,-1.644 -4.868,-2.373 -7.974,-2.373 -4.382,0 -6.694,1.888 -6.694,4.931 0,2.557 1.461,4.077 5.234,4.383 l 4.809,0.426 c 5.234,0.486 8.826,2.496 8.826,8.096 0,5.78 -4.933,9.128 -12.175,9.128 z" />
	<path
   style="fill:#1d1d1b"
   inkscape:connector-curvature="0"
   id="path15024"
   d="m 1884.791,317.867 c 0,6.572 3.104,10.347 8.826,10.347 3.47,0 5.478,-1.034 7.853,-3.407 l 2.981,2.616 c -3.043,3.043 -5.843,4.626 -10.956,4.626 -7.912,0 -13.086,-4.748 -13.086,-15.339 0,-9.678 4.688,-15.338 12.295,-15.338 7.73,0 12.295,5.601 12.295,14.485 v 2.01 h -20.208 z m 14.913,-8.278 c -1.157,-2.739 -3.835,-4.504 -7,-4.504 -3.165,0 -5.844,1.765 -7,4.504 -0.669,1.644 -0.791,2.558 -0.913,4.991 h 15.826 c -0.122,-2.434 -0.244,-3.348 -0.913,-4.991 z" />
	<path
   style="fill:#1d1d1b"
   inkscape:connector-curvature="0"
   id="path15026"
   d="m 1929.04,307.458 c -1.645,-1.644 -2.861,-2.19 -5.174,-2.19 -4.383,0 -7.184,3.469 -7.184,8.034 v 18.382 h -4.381 v -29.945 h 4.381 v 3.65 c 1.645,-2.494 4.932,-4.017 8.399,-4.017 2.861,0 5.054,0.669 7.183,2.8 l -3.224,3.286 z" />
	<path
   style="fill:#1d1d1b"
   inkscape:connector-curvature="0"
   id="path15028"
   d="m 1945.96,331.684 h -3.896 l -10.955,-29.945 h 4.746 l 8.156,24.041 8.217,-24.041 h 4.748 l -11.016,29.945 z" />
	<path
   style="fill:#1d1d1b"
   inkscape:connector-curvature="0"
   id="path15030"
   d="m 1978.097,331.684 v -2.859 c -2.435,2.435 -4.625,3.226 -8.644,3.226 -4.14,0 -6.573,-0.791 -8.46,-2.739 -1.461,-1.461 -2.252,-3.713 -2.252,-6.086 0,-5.234 3.65,-8.644 10.348,-8.644 h 9.008 v -2.86 c 0,-4.383 -2.19,-6.574 -7.668,-6.574 -3.836,0 -5.782,0.914 -7.549,3.408 l -2.981,-2.738 c 2.678,-3.469 5.722,-4.442 10.591,-4.442 8.034,0 11.99,3.469 11.99,9.981 v 20.33 h -4.383 v -0.003 z m 0,-13.817 h -8.398 c -4.504,0 -6.695,1.824 -6.695,5.295 0,3.47 2.13,5.113 6.878,5.113 2.558,0 4.81,-0.184 6.695,-2.01 1.034,-0.974 1.521,-2.679 1.521,-5.174 v -3.224 z" />
	<path
   style="fill:#1d1d1b"
   inkscape:connector-curvature="0"
   id="path15032"
   d="m 2009.015,331.684 v -3.591 c -2.435,3.165 -5.233,3.956 -8.521,3.956 -3.043,0 -5.722,-1.035 -7.304,-2.617 -3.045,-3.043 -3.652,-8.033 -3.652,-12.722 0,-4.687 0.607,-9.679 3.652,-12.722 1.582,-1.582 4.261,-2.616 7.304,-2.616 3.287,0 6.026,0.729 8.461,3.834 v -16.86 h 4.382 v 43.338 h -4.322 z m -7.548,-26.416 c -6.513,0 -7.547,5.601 -7.547,11.442 0,5.845 1.034,11.442 7.547,11.442 6.513,0 7.487,-5.6 7.487,-11.442 0,-5.842 -0.975,-11.442 -7.487,-11.442 z" />
	<path
   style="fill:#1d1d1b"
   inkscape:connector-curvature="0"
   id="path15034"
   d="m 2039.265,331.684 v -2.859 c -2.435,2.435 -4.625,3.226 -8.644,3.226 -4.14,0 -6.573,-0.791 -8.46,-2.739 -1.461,-1.461 -2.252,-3.713 -2.252,-6.086 0,-5.234 3.65,-8.644 10.348,-8.644 h 9.008 v -2.86 c 0,-4.383 -2.19,-6.574 -7.668,-6.574 -3.836,0 -5.782,0.914 -7.549,3.408 l -2.981,-2.738 c 2.678,-3.469 5.722,-4.442 10.591,-4.442 8.034,0 11.99,3.469 11.99,9.981 v 20.33 h -4.383 v -0.003 z m 0,-13.817 h -8.398 c -4.504,0 -6.695,1.824 -6.695,5.295 0,3.47 2.13,5.113 6.878,5.113 2.558,0 4.81,-0.184 6.695,-2.01 1.034,-0.974 1.521,-2.679 1.521,-5.174 v -3.224 z" />
	<path
   style="fill:#1d1d1b"
   inkscape:connector-curvature="0"
   id="path15036"
   d="m 2082.417,331.684 v -2.859 c -2.436,2.435 -4.626,3.226 -8.645,3.226 -4.139,0 -6.572,-0.791 -8.459,-2.739 -1.461,-1.461 -2.252,-3.713 -2.252,-6.086 0,-5.234 3.65,-8.644 10.348,-8.644 h 9.008 v -2.86 c 0,-4.383 -2.191,-6.574 -7.669,-6.574 -3.835,0 -5.782,0.914 -7.548,3.408 l -2.982,-2.738 c 2.678,-3.469 5.723,-4.442 10.592,-4.442 8.033,0 11.99,3.469 11.99,9.981 v 20.33 h -4.383 v -0.003 z m 0,-13.817 h -8.398 c -4.504,0 -6.695,1.824 -6.695,5.295 0,3.47 2.13,5.113 6.878,5.113 2.557,0 4.809,-0.184 6.694,-2.01 1.034,-0.974 1.521,-2.679 1.521,-5.174 v -3.224 z" />
	<path
   style="fill:#1d1d1b"
   inkscape:connector-curvature="0"
   id="path15038"
   d="m 2114.674,328.641 c -2.069,2.069 -4.93,3.408 -8.582,3.408 -3.651,0 -6.513,-1.339 -8.582,-3.408 -3.044,-3.104 -3.651,-7.305 -3.651,-11.931 0,-4.626 0.607,-8.825 3.651,-11.931 2.069,-2.068 4.931,-3.407 8.582,-3.407 3.652,0 6.513,1.339 8.582,3.407 3.044,3.104 3.652,7.305 3.652,11.931 0,4.626 -0.608,8.826 -3.652,11.931 z m -3.105,-21.183 c -1.399,-1.399 -3.348,-2.19 -5.479,-2.19 -2.131,0 -4.018,0.791 -5.417,2.19 -2.19,2.19 -2.435,5.903 -2.435,9.252 0,3.349 0.242,7.062 2.435,9.252 1.399,1.399 3.286,2.19 5.417,2.19 2.13,0 4.078,-0.79 5.479,-2.19 2.19,-2.19 2.374,-5.903 2.374,-9.252 0,-3.349 -0.182,-7.062 -2.374,-9.252 z" />
	<path
   style="fill:#1d1d1b"
   inkscape:connector-curvature="0"
   id="path15040"
   d="m 2135.124,332.049 c -5.052,0 -9.008,-1.156 -12.295,-4.32 l 2.922,-2.922 c 2.374,2.494 5.601,3.469 9.312,3.469 4.931,0 7.974,-1.766 7.974,-5.295 0,-2.617 -1.521,-4.078 -4.991,-4.383 l -4.93,-0.427 c -5.844,-0.485 -8.947,-3.104 -8.947,-8.034 0,-5.479 4.625,-8.765 11.018,-8.765 4.261,0 8.095,1.034 10.773,3.226 l -2.861,2.86 c -2.13,-1.644 -4.869,-2.373 -7.975,-2.373 -4.382,0 -6.695,1.888 -6.695,4.931 0,2.557 1.461,4.077 5.235,4.383 l 4.809,0.426 c 5.235,0.486 8.825,2.496 8.825,8.096 0,5.78 -4.931,9.128 -12.174,9.128 z" />
	<path
   style="fill:#1d1d1b"
   inkscape:connector-curvature="0"
   id="path15042"
   d="m 2189.172,329.432 c -1.582,1.582 -4.261,2.617 -7.304,2.617 -3.287,0 -6.025,-0.791 -8.461,-3.896 v 16.922 h -4.382 v -43.338 h 4.382 v 3.531 c 2.436,-3.166 5.174,-3.896 8.461,-3.896 3.043,0 5.722,1.033 7.304,2.617 3.044,3.043 3.652,8.033 3.652,12.721 0,4.688 -0.608,9.679 -3.652,12.722 z m -8.217,-24.164 c -6.513,0 -7.548,5.601 -7.548,11.442 0,5.845 1.035,11.442 7.548,11.442 6.513,0 7.486,-5.6 7.486,-11.442 -10e-4,-5.843 -0.973,-11.442 -7.486,-11.442 z" />
	<path
   style="fill:#1d1d1b"
   inkscape:connector-curvature="0"
   id="path15044"
   d="m 2218.935,307.458 c -1.644,-1.644 -2.86,-2.19 -5.174,-2.19 -4.383,0 -7.183,3.469 -7.183,8.034 v 18.382 h -4.382 v -29.945 h 4.382 v 3.65 c 1.644,-2.494 4.931,-4.017 8.398,-4.017 2.861,0 5.054,0.669 7.184,2.8 l -3.225,3.286 z" />
	<path
   style="fill:#1d1d1b"
   inkscape:connector-curvature="0"
   id="path15046"
   d="m 2245.045,328.641 c -2.069,2.069 -4.93,3.408 -8.582,3.408 -3.652,0 -6.513,-1.339 -8.582,-3.408 -3.044,-3.104 -3.652,-7.305 -3.652,-11.931 0,-4.626 0.608,-8.825 3.652,-11.931 2.069,-2.068 4.93,-3.407 8.582,-3.407 3.652,0 6.513,1.339 8.582,3.407 3.044,3.104 3.652,7.305 3.652,11.931 0,4.626 -0.608,8.826 -3.652,11.931 z m -3.105,-21.183 c -1.399,-1.399 -3.349,-2.19 -5.479,-2.19 -2.131,0 -4.018,0.791 -5.417,2.19 -2.19,2.19 -2.435,5.903 -2.435,9.252 0,3.349 0.242,7.062 2.435,9.252 1.399,1.399 3.286,2.19 5.417,2.19 2.13,0 4.078,-0.79 5.479,-2.19 2.19,-2.19 2.373,-5.903 2.373,-9.252 0,-3.349 -0.181,-7.062 -2.373,-9.252 z" />
	<path
   style="fill:#1d1d1b"
   inkscape:connector-curvature="0"
   id="path15048"
   d="m 2263.365,305.268 v 26.416 h -4.384 v -26.416 h -3.834 v -3.348 h 3.834 v -5.661 c 0,-4.443 2.496,-8.034 7.608,-8.034 h 3.166 v 3.773 h -2.374 c -2.8,0 -4.018,1.644 -4.018,4.383 v 5.539 h 6.392 v 3.348 h -6.39 z m 13.208,-12.479 v -4.504 h 4.99 v 4.504 h -4.99 z m 0.305,38.895 V 301.92 h 4.383 v 29.764 h -4.383 z" />
	<path
   style="fill:#1d1d1b"
   inkscape:connector-curvature="0"
   id="path15050"
   d="m 2301.71,332.049 c -5.052,0 -9.008,-1.156 -12.295,-4.32 l 2.922,-2.922 c 2.374,2.494 5.601,3.469 9.312,3.469 4.931,0 7.974,-1.766 7.974,-5.295 0,-2.617 -1.521,-4.078 -4.991,-4.383 l -4.93,-0.427 c -5.844,-0.485 -8.947,-3.104 -8.947,-8.034 0,-5.479 4.625,-8.765 11.018,-8.765 4.261,0 8.095,1.034 10.773,3.226 l -2.861,2.86 c -2.13,-1.644 -4.869,-2.373 -7.975,-2.373 -4.382,0 -6.695,1.888 -6.695,4.931 0,2.557 1.461,4.077 5.235,4.383 l 4.809,0.426 c 5.235,0.486 8.825,2.496 8.825,8.096 0,5.78 -4.931,9.128 -12.174,9.128 z" />
	<path
   style="fill:#1d1d1b"
   inkscape:connector-curvature="0"
   id="path15052"
   d="m 2331.897,332.049 c -5.052,0 -9.008,-1.156 -12.295,-4.32 l 2.923,-2.922 c 2.374,2.494 5.6,3.469 9.312,3.469 4.932,0 7.975,-1.766 7.975,-5.295 0,-2.617 -1.521,-4.078 -4.991,-4.383 l -4.93,-0.427 c -5.845,-0.485 -8.948,-3.104 -8.948,-8.034 0,-5.479 4.626,-8.765 11.018,-8.765 4.262,0 8.096,1.034 10.773,3.226 l -2.861,2.86 c -2.13,-1.644 -4.869,-2.373 -7.974,-2.373 -4.382,0 -6.695,1.888 -6.695,4.931 0,2.557 1.461,4.077 5.235,4.383 l 4.808,0.426 c 5.235,0.486 8.826,2.496 8.826,8.096 -10e-4,5.78 -4.931,9.128 -12.176,9.128 z" />
	<path
   style="fill:#1d1d1b"
   inkscape:connector-curvature="0"
   id="path15054"
   d="m 2352.408,293.216 v -4.931 h 4.931 v 4.931 h -4.931 z m 0.244,38.468 v -29.945 h 4.382 v 29.945 h -4.382 z" />
	<path
   style="fill:#1d1d1b"
   inkscape:connector-curvature="0"
   id="path15056"
   d="m 2387.284,328.641 c -2.069,2.069 -4.93,3.408 -8.582,3.408 -3.652,0 -6.514,-1.339 -8.582,-3.408 -3.044,-3.104 -3.652,-7.305 -3.652,-11.931 0,-4.626 0.607,-8.825 3.652,-11.931 2.068,-2.068 4.93,-3.407 8.582,-3.407 3.652,0 6.513,1.339 8.582,3.407 3.044,3.104 3.652,7.305 3.652,11.931 0,4.626 -0.608,8.826 -3.652,11.931 z m -3.104,-21.183 c -1.398,-1.399 -3.348,-2.19 -5.478,-2.19 -2.131,0 -4.019,0.791 -5.417,2.19 -2.191,2.19 -2.436,5.903 -2.436,9.252 0,3.349 0.243,7.062 2.436,9.252 1.398,1.399 3.286,2.19 5.417,2.19 2.13,0 4.078,-0.79 5.478,-2.19 2.191,-2.19 2.374,-5.903 2.374,-9.252 0,-3.349 -0.183,-7.062 -2.374,-9.252 z" />
	<path
   style="fill:#1d1d1b"
   inkscape:connector-curvature="0"
   id="path15058"
   d="m 2419.481,331.684 v -18.441 c 0,-5.297 -2.86,-7.975 -7.364,-7.975 -4.504,0 -7.427,2.738 -7.427,7.975 v 18.441 h -4.382 v -29.945 h 4.382 v 3.285 c 2.132,-2.435 5.053,-3.65 8.399,-3.65 3.228,0 5.844,0.975 7.67,2.8 2.13,2.069 3.104,4.869 3.104,8.339 v 19.174 h -4.383 v -0.003 z" />
	<path
   style="fill:#1d1d1b"
   inkscape:connector-curvature="0"
   id="path15060"
   d="m 2451.497,331.684 v -2.859 c -2.436,2.435 -4.626,3.226 -8.645,3.226 -4.139,0 -6.572,-0.791 -8.459,-2.739 -1.461,-1.461 -2.252,-3.713 -2.252,-6.086 0,-5.234 3.65,-8.644 10.348,-8.644 h 9.008 v -2.86 c 0,-4.383 -2.191,-6.574 -7.669,-6.574 -3.835,0 -5.782,0.914 -7.548,3.408 l -2.982,-2.738 c 2.678,-3.469 5.723,-4.442 10.592,-4.442 8.033,0 11.99,3.469 11.99,9.981 v 20.33 h -4.383 v -0.003 z m 0,-13.817 h -8.398 c -4.504,0 -6.695,1.824 -6.695,5.295 0,3.47 2.13,5.113 6.878,5.113 2.557,0 4.809,-0.184 6.694,-2.01 1.034,-0.974 1.521,-2.679 1.521,-5.174 v -3.224 z" />
	<path
   style="fill:#1d1d1b"
   inkscape:connector-curvature="0"
   id="path15062"
   d="m 2466.285,293.216 v -4.931 h 4.931 v 4.931 h -4.931 z m 0.244,38.468 v -29.945 h 4.382 v 29.945 h -4.382 z" />
	<path
   style="fill:#1d1d1b"
   inkscape:connector-curvature="0"
   id="path15064"
   d="m 2491.361,332.049 c -5.052,0 -9.009,-1.156 -12.295,-4.32 l 2.922,-2.922 c 2.374,2.494 5.601,3.469 9.312,3.469 4.932,0 7.975,-1.766 7.975,-5.295 0,-2.617 -1.521,-4.078 -4.991,-4.383 l -4.93,-0.427 c -5.844,-0.485 -8.948,-3.104 -8.948,-8.034 0,-5.479 4.626,-8.765 11.019,-8.765 4.261,0 8.095,1.034 10.772,3.226 l -2.861,2.86 c -2.129,-1.644 -4.868,-2.373 -7.974,-2.373 -4.382,0 -6.695,1.888 -6.695,4.931 0,2.557 1.461,4.077 5.235,4.383 l 4.809,0.426 c 5.234,0.486 8.825,2.496 8.825,8.096 0,5.78 -4.932,9.128 -12.175,9.128 z" />
	<path
   style="fill:#1d1d1b"
   inkscape:connector-curvature="0"
   id="path15066"
   d="m 2545.166,331.684 v -3.591 c -2.435,3.165 -5.233,3.956 -8.521,3.956 -3.043,0 -5.723,-1.035 -7.305,-2.617 -3.044,-3.043 -3.652,-8.033 -3.652,-12.722 0,-4.687 0.608,-9.679 3.652,-12.722 1.582,-1.582 4.262,-2.616 7.305,-2.616 3.287,0 6.025,0.729 8.461,3.834 v -16.86 h 4.382 v 43.338 h -4.322 z m -7.548,-26.416 c -6.514,0 -7.547,5.601 -7.547,11.442 0,5.845 1.033,11.442 7.547,11.442 6.513,0 7.486,-5.6 7.486,-11.442 0,-5.842 -0.973,-11.442 -7.486,-11.442 z" />
	<path
   style="fill:#1d1d1b"
   inkscape:connector-curvature="0"
   id="path15068"
   d="m 2577.424,331.684 v -2.859 c -2.435,2.435 -4.626,3.226 -8.644,3.226 -4.139,0 -6.573,-0.791 -8.46,-2.739 -1.461,-1.461 -2.252,-3.713 -2.252,-6.086 0,-5.234 3.65,-8.644 10.348,-8.644 h 9.008 v -2.86 c 0,-4.383 -2.19,-6.574 -7.669,-6.574 -3.835,0 -5.781,0.914 -7.548,3.408 l -2.981,-2.738 c 2.678,-3.469 5.722,-4.442 10.591,-4.442 8.034,0 11.991,3.469 11.991,9.981 v 20.33 h -4.384 v -0.003 z m 0,-13.817 h -8.398 c -4.504,0 -6.695,1.824 -6.695,5.295 0,3.47 2.13,5.113 6.878,5.113 2.557,0 4.809,-0.184 6.695,-2.01 1.033,-0.974 1.521,-2.679 1.521,-5.174 v -3.224 z" />
	<path
   style="fill:#1d1d1b"
   inkscape:connector-curvature="0"
   id="path15070"
   d="m 2601.892,332.049 c -5.053,0 -9.009,-1.156 -12.295,-4.32 l 2.922,-2.922 c 2.374,2.494 5.6,3.469 9.312,3.469 4.931,0 7.975,-1.766 7.975,-5.295 0,-2.617 -1.521,-4.078 -4.991,-4.383 l -4.93,-0.427 c -5.844,-0.485 -8.948,-3.104 -8.948,-8.034 0,-5.479 4.626,-8.765 11.019,-8.765 4.261,0 8.095,1.034 10.772,3.226 l -2.861,2.86 c -2.13,-1.644 -4.868,-2.373 -7.974,-2.373 -4.383,0 -6.695,1.888 -6.695,4.931 0,2.557 1.461,4.077 5.235,4.383 l 4.808,0.426 c 5.235,0.486 8.826,2.496 8.826,8.096 0,5.78 -4.933,9.128 -12.175,9.128 z" />
	<path
   style="fill:#1d1d1b"
   inkscape:connector-curvature="0"
   id="path15072"
   d="m 2654.781,331.684 v -2.859 c -2.436,2.435 -4.626,3.226 -8.645,3.226 -4.139,0 -6.573,-0.791 -8.46,-2.739 -1.461,-1.461 -2.252,-3.713 -2.252,-6.086 0,-5.234 3.651,-8.644 10.348,-8.644 h 9.009 v -2.86 c 0,-4.383 -2.191,-6.574 -7.669,-6.574 -3.835,0 -5.782,0.914 -7.549,3.408 l -2.981,-2.738 c 2.678,-3.469 5.722,-4.442 10.591,-4.442 8.034,0 11.991,3.469 11.991,9.981 v 20.33 h -4.383 v -0.003 z m 0,-13.817 h -8.399 c -4.504,0 -6.695,1.824 -6.695,5.295 0,3.47 2.131,5.113 6.879,5.113 2.557,0 4.809,-0.184 6.694,-2.01 1.034,-0.974 1.521,-2.679 1.521,-5.174 v -3.224 z" />
	<path
   style="fill:#1d1d1b"
   inkscape:connector-curvature="0"
   id="path15074"
   d="m 2686.553,307.458 c -1.644,-1.644 -2.86,-2.19 -5.174,-2.19 -4.383,0 -7.183,3.469 -7.183,8.034 v 18.382 h -4.383 v -29.945 h 4.383 v 3.65 c 1.644,-2.494 4.931,-4.017 8.398,-4.017 2.861,0 5.053,0.669 7.184,2.8 l -3.225,3.286 z" />
	<path
   style="fill:#1d1d1b"
   inkscape:connector-curvature="0"
   id="path15076"
   d="m 2703.837,331.684 c -5.113,0 -7.67,-3.591 -7.67,-8.033 v -18.383 h -3.773 v -3.348 h 3.773 v -9.374 h 4.383 v 9.374 h 6.393 v 3.348 h -6.393 v 18.26 c 0,2.74 1.278,4.384 4.078,4.384 h 2.312 v 3.772 h -3.103 z" />
	<path
   style="fill:#1d1d1b"
   inkscape:connector-curvature="0"
   id="path15078"
   d="m 2718.382,317.867 c 0,6.572 3.104,10.347 8.826,10.347 3.47,0 5.479,-1.034 7.852,-3.407 l 2.982,2.616 c -3.043,3.043 -5.843,4.626 -10.956,4.626 -7.912,0 -13.086,-4.748 -13.086,-15.339 0,-9.678 4.687,-15.338 12.295,-15.338 7.729,0 12.295,5.601 12.295,14.485 v 2.01 h -20.208 z m 14.913,-8.278 c -1.157,-2.739 -3.835,-4.504 -7,-4.504 -3.165,0 -5.844,1.765 -7,4.504 -0.669,1.644 -0.791,2.558 -0.913,4.991 h 15.826 c -0.122,-2.434 -0.244,-3.348 -0.913,-4.991 z" />
	<path
   style="fill:#1d1d1b"
   inkscape:connector-curvature="0"
   id="path15080"
   d="m 2757.336,332.049 c -5.052,0 -9.008,-1.156 -12.295,-4.32 l 2.922,-2.922 c 2.374,2.494 5.601,3.469 9.312,3.469 4.931,0 7.974,-1.766 7.974,-5.295 0,-2.617 -1.521,-4.078 -4.99,-4.383 l -4.931,-0.427 c -5.844,-0.485 -8.948,-3.104 -8.948,-8.034 0,-5.479 4.627,-8.765 11.019,-8.765 4.261,0 8.095,1.034 10.772,3.226 l -2.86,2.86 c -2.13,-1.644 -4.869,-2.373 -7.975,-2.373 -4.382,0 -6.694,1.888 -6.694,4.931 0,2.557 1.461,4.077 5.234,4.383 l 4.809,0.426 c 5.234,0.486 8.826,2.496 8.826,8.096 -10e-4,5.78 -4.932,9.128 -12.175,9.128 z" />
	<path
   style="fill:#1d1d1b"
   inkscape:connector-curvature="0"
   id="path15082"
   d="m 2802.861,345.439 c -4.504,0 -6.999,-1.156 -10.164,-4.019 l 2.86,-2.8 c 2.19,1.947 3.713,2.982 7.183,2.982 5.782,0 8.217,-4.078 8.217,-9.19 v -4.687 c -2.435,3.104 -5.174,3.896 -8.398,3.896 -3.044,0 -5.661,-1.097 -7.243,-2.679 -2.982,-2.982 -3.652,-7.608 -3.652,-12.479 0,-4.869 0.67,-9.494 3.652,-12.479 1.582,-1.582 4.261,-2.616 7.304,-2.616 3.287,0 5.966,0.729 8.399,3.896 v -3.529 h 4.322 v 30.859 c -10e-4,7.427 -4.627,12.845 -12.48,12.845 z m 0.67,-40.171 c -6.513,0 -7.486,5.601 -7.486,11.199 0,5.6 0.974,11.199 7.486,11.199 6.512,0 7.426,-5.6 7.426,-11.199 0,-5.599 -0.913,-11.199 -7.426,-11.199 z" />
	<path
   style="fill:#1d1d1b"
   inkscape:connector-curvature="0"
   id="path15084"
   d="m 2843.033,307.458 c -1.645,-1.644 -2.861,-2.19 -5.175,-2.19 -4.383,0 -7.183,3.469 -7.183,8.034 v 18.382 h -4.382 v -29.945 h 4.382 v 3.65 c 1.644,-2.494 4.931,-4.017 8.399,-4.017 2.86,0 5.053,0.669 7.183,2.8 l -3.224,3.286 z" />
	<path
   style="fill:#1d1d1b"
   inkscape:connector-curvature="0"
   id="path15086"
   d="m 2868.899,331.684 v -2.859 c -2.435,2.435 -4.625,3.226 -8.644,3.226 -4.139,0 -6.573,-0.791 -8.46,-2.739 -1.461,-1.461 -2.252,-3.713 -2.252,-6.086 0,-5.234 3.65,-8.644 10.348,-8.644 h 9.008 v -2.86 c 0,-4.383 -2.19,-6.574 -7.668,-6.574 -3.836,0 -5.782,0.914 -7.549,3.408 l -2.981,-2.738 c 2.678,-3.469 5.722,-4.442 10.591,-4.442 8.034,0 11.991,3.469 11.991,9.981 v 20.33 h -4.384 v -0.003 z m 0,-13.817 h -8.398 c -4.504,0 -6.695,1.824 -6.695,5.295 0,3.47 2.13,5.113 6.878,5.113 2.558,0 4.81,-0.184 6.695,-2.01 1.034,-0.974 1.521,-2.679 1.521,-5.174 v -3.224 z m -6.086,-22.339 h -4.018 l 5.355,-9.312 h 5.234 l -6.571,9.312 z" />
	<path
   style="fill:#1d1d1b"
   inkscape:connector-curvature="0"
   id="path15088"
   d="m 2889.228,305.268 v 26.416 h -4.383 v -26.416 h -3.834 v -3.348 h 3.834 v -5.661 c 0,-4.443 2.496,-8.034 7.608,-8.034 h 3.166 v 3.773 h -2.374 c -2.801,0 -4.019,1.644 -4.019,4.383 v 5.539 h 6.393 v 3.348 h -6.391 z m 13.209,-12.479 v -4.504 h 4.99 v 4.504 h -4.99 z m 0.303,38.895 V 301.92 h 4.383 v 29.764 h -4.383 z" />
	<path
   style="fill:#1d1d1b"
   inkscape:connector-curvature="0"
   id="path15090"
   d="m 2929.764,332.049 c -7.547,0 -13.269,-5.113 -13.269,-15.339 0,-10.226 5.722,-15.338 13.269,-15.338 4.14,0 6.757,1.095 9.86,4.442 l -2.982,2.801 c -2.252,-2.496 -4.017,-3.348 -6.877,-3.348 -2.923,0 -5.356,1.155 -6.938,3.407 -1.399,1.947 -1.948,4.261 -1.948,8.034 0,3.773 0.549,6.087 1.948,8.035 1.582,2.252 4.017,3.408 6.938,3.408 2.86,0 4.625,-0.914 6.877,-3.408 l 2.982,2.859 c -3.103,3.351 -5.721,4.447 -9.86,4.447 z" />
	<path
   style="fill:#1d1d1b"
   inkscape:connector-curvature="0"
   id="path15092"
   d="m 2964.943,331.684 v -2.859 c -2.436,2.435 -4.626,3.226 -8.645,3.226 -4.139,0 -6.573,-0.791 -8.46,-2.739 -1.461,-1.461 -2.252,-3.713 -2.252,-6.086 0,-5.234 3.651,-8.644 10.348,-8.644 h 9.009 v -2.86 c 0,-4.383 -2.191,-6.574 -7.669,-6.574 -3.835,0 -5.782,0.914 -7.549,3.408 l -2.981,-2.738 c 2.678,-3.469 5.722,-4.442 10.591,-4.442 8.034,0 11.991,3.469 11.991,9.981 v 20.33 h -4.383 v -0.003 z m 0,-13.817 h -8.399 c -4.504,0 -6.695,1.824 -6.695,5.295 0,3.47 2.131,5.113 6.879,5.113 2.557,0 4.809,-0.184 6.694,-2.01 1.034,-0.974 1.521,-2.679 1.521,-5.174 v -3.224 z" />
	<path
   style="fill:#1d1d1b"
   inkscape:connector-curvature="0"
   id="path15094"
   d="m 2989.41,332.049 c -5.052,0 -9.009,-1.156 -12.295,-4.32 l 2.922,-2.922 c 2.374,2.494 5.601,3.469 9.312,3.469 4.932,0 7.975,-1.766 7.975,-5.295 0,-2.617 -1.521,-4.078 -4.991,-4.383 l -4.93,-0.427 c -5.844,-0.485 -8.948,-3.104 -8.948,-8.034 0,-5.479 4.626,-8.765 11.019,-8.765 4.261,0 8.095,1.034 10.772,3.226 l -2.861,2.86 c -2.129,-1.644 -4.868,-2.373 -7.974,-2.373 -4.382,0 -6.695,1.888 -6.695,4.931 0,2.557 1.461,4.077 5.235,4.383 l 4.809,0.426 c 5.234,0.486 8.825,2.496 8.825,8.096 0,5.78 -4.932,9.128 -12.175,9.128 z" />
</g><path
     style="fill:#ffffff"
     inkscape:connector-curvature="0"
     id="path15096"
     d="m 2705.983,-134.2699 h 291.57 c 5.508,0 9.969,4.67 9.969,10.529 v 92.09 c 0,5.832 -4.461,10.584 -9.969,10.584 H 2216.01 c -5.516,0 -9.881,-4.752 -9.881,-10.584 v -92.09 c 0,-5.859 4.365,-10.529 9.881,-10.529 h 448.448" /><path
     style="fill:#e4005b"
     inkscape:connector-curvature="0"
     id="path15098"
     d="m 2171.286,-135.9059 h -101.321 v 29.082 h 36.176 v 86.656 h 28.955 v -86.656 h 36.19 v -29.082 z m -105.572,36.16 c 0,-9.914 -3.505,-18.34 -10.669,-25.477 -7.02,-7.102 -15.562,-10.684 -25.43,-10.684 h -79.654 v 115.738 h 29.003 v -86.656 h 47.737 c 2.751,0 5.125,0.932 7.088,2.914 1.996,1.977 2.951,4.32 2.951,7.115 v 76.627 h 28.974 v -79.577 l 0,0 z m -125.754,-36.16 h -29.025 v 115.738 h 29.025 v -115.738 z m -70.962,54.842 c -1.938,1.943 -4.336,2.971 -7.072,2.971 h -47.715 v -28.73 h 47.715 c 2.779,0 5.134,0.932 7.05,2.914 2.006,1.947 2.979,4.32 2.979,7.053 v 8.701 c -10e-4,2.794 -0.976,5.161 -2.957,7.091 m 31.964,-18.682 c 0,-9.924 -3.562,-18.377 -10.654,-25.477 -7.072,-7.102 -15.603,-10.684 -25.488,-10.684 h -79.629 l 0.014,115.738 h 29.008 v -28.898 l 37.628,28.898 h 41.937 l -40.498,-28.898 h 11.558 c 9.899,0 18.4,-3.582 25.444,-10.627 7.121,-7.102 10.684,-15.602 10.684,-25.611 v -14.441 h 0 z m -156.229,18.682 c -2.006,1.943 -4.336,2.971 -7.12,2.971 h -47.729 v -28.73 l 47.729,-0.07 c 2.784,0.07 5.114,0.998 7.12,2.98 1.935,1.947 2.951,4.32 2.951,7.053 v 8.701 c 0,2.794 -1.016,5.134 -2.951,7.091 m 31.932,-18.682 c 0,-9.924 -3.534,-18.377 -10.723,-25.477 -7.029,-7.102 -15.534,-10.684 -25.393,-10.684 h -79.678 v 115.738 h 29.013 v -28.898 l 50.736,-0.06 c 9.829,0.06 18.291,-3.523 25.321,-10.568 7.173,-7.102 10.722,-15.631 10.722,-25.611 l 0,-14.441 0,0 z m -202.381,50.68 c -2.383,0 -4.432,-0.869 -6.155,-2.656 -1.748,-1.68 -2.632,-3.705 -2.632,-6.018 0.016,-2.271 0.884,-4.23 2.632,-5.969 1.724,-1.719 3.802,-2.588 6.155,-2.588 l 49.062,0.03 v 17.203 l -49.062,0 0,0 z m 78.083,-50.68 c 0,-9.914 -3.562,-18.34 -10.702,-25.477 -7.082,-7.102 -15.583,-10.684 -25.493,-10.684 h -72.342 v 29.082 h 70.909 c 2.33,0 4.303,0.83 5.994,2.594 1.756,1.646 2.611,3.691 2.611,5.988 v 8.744 h -53.449 c -9.127,0 -16.987,3.486 -23.507,10.521 -6.532,7.035 -9.784,15.119 -9.784,24.141 0.032,9.17 3.252,17.25 9.784,24.299 6.52,6.943 14.38,10.369 23.507,10.369 h 82.472 v -79.577 z m -155.831,21.728 39.404,-57.889 h -36.957 l -20.905,33.695 -20.925,-33.695 -36.816,0.04 39.328,57.846 -39.328,57.85 h 36.816 l 20.925,-33.646 20.905,33.646 h 36.957 l -39.404,-57.85 z m -76.889,28.952 h -72.357 v -17.23 h 57.87 v -23.201 h -57.87 v -17.326 h 65.074 v -29.082 l -94.198,0.04 v 115.695 h 101.481 v -28.899 z" /><path
     style="fill:#3f3f3e"
     inkscape:connector-curvature="0"
     id="path15100"
     d="m 3026.243,-119.2599 c 0,-0.344 0.081,-0.545 0.095,-0.912 0.487,-5.285 4.896,-9.48 10.312,-9.48 0.33,0 0.646,0 0.975,0.08 5.277,0.455 9.484,4.891 9.484,10.311 0,0.301 0,0.664 -0.086,0.889 -0.443,5.387 -4.909,9.551 -10.33,9.551 -0.34,0 -0.641,0 -0.998,-0.08 -5.245,-0.431 -9.452,-4.931 -9.452,-10.365 m 10.449,-9.478 c -4.935,0 -8.998,3.83 -9.5,8.666 v 0.812 c 0,4.994 3.825,9.055 8.658,9.465 h 0.842 c 4.951,0 8.986,-3.725 9.459,-8.635 0.016,-0.277 0.016,-0.529 0.029,-0.83 0,-4.936 -3.812,-8.943 -8.648,-9.479 h -0.84" /><path
     style="fill:#3f3f3e"
     inkscape:connector-curvature="0"
     id="path15102"
     d="m 3039.863,-119.4319 c -0.249,0.172 -0.401,0.258 -0.773,0.258 h -4.848 v -2.926 h 4.848 c 0.372,0 0.524,0.117 0.773,0.322 0.194,0.205 0.271,0.445 0.271,0.736 v 0.869 c 0,0.273 -0.074,0.511 -0.271,0.741 m 3.191,-1.976 c 0,-0.99 -0.311,-1.822 -1.051,-2.588 -0.76,-0.684 -1.571,-1.033 -2.541,-1.033 h -8.143 v 11.734 h 2.923 v -2.855 l 3.849,2.855 h 4.267 l -4.107,-2.855 h 1.213 c 0.97,0 1.781,-0.416 2.541,-1.123 0.74,-0.744 1.052,-1.586 1.052,-2.627 v -1.508 h 0 z" /><g
     transform="translate(0,-270.2499)"
     id="g15104">
	<path
   style="fill:#e4005b"
   inkscape:connector-curvature="0"
   id="path15106"
   d="m 2244.885,224.822 c -1.084,0 -1.909,-0.459 -1.909,-1.537 0,-0.373 0.08,-0.832 0.271,-1.289 l 15.617,-45.312 c -2.184,1.623 -5.636,3.893 -7.273,3.893 -1.084,0 -1.9,-0.826 -1.9,-1.725 0.086,-1.824 9.003,-6.457 12.44,-10.549 1.37,-1.635 3.639,-2.719 5.182,-2.719 1.095,0 1.92,0.459 1.92,1.625 0,0.285 -0.101,0.744 -0.281,1.197 l -17.805,51.779 c -0.914,2.813 -4.18,4.637 -6.262,4.637 z" />
	<path
   style="fill:#e4005b"
   inkscape:connector-curvature="0"
   id="path15108"
   d="m 2297.666,165.584 c 1.093,0 2.006,0.541 2.006,1.186 0,0.439 -0.459,0.982 -1.644,1.438 -17.44,7.188 -24.262,25.264 -24.262,38.717 0,10.344 4.008,14.441 9.916,14.441 8.986,0 18.442,-12.805 18.442,-29.074 0,-8.707 -3.467,-13.545 -6.36,-16.525 -0.631,-0.639 -0.998,-1.279 -0.998,-1.824 0,-1.355 1.811,-2.354 4.805,-2.354 6.732,0 10.172,10.535 10.172,17.072 0,27.346 -17.804,36.162 -27.885,36.162 -11.252,0 -16.247,-7.99 -16.247,-17.984 0,-21.812 18.343,-41.255 32.055,-41.255 z" />
	<path
   style="fill:#e4005b"
   inkscape:connector-curvature="0"
   id="path15110"
   d="m 2344.845,165.584 c 1.09,0 2.001,0.541 2.001,1.186 0,0.439 -0.458,0.982 -1.643,1.438 -17.445,7.188 -24.246,25.264 -24.246,38.717 0,10.344 3.991,14.441 9.895,14.441 9.003,0 18.449,-12.805 18.449,-29.074 0,-8.707 -3.458,-13.545 -6.361,-16.525 -0.631,-0.639 -1.003,-1.279 -1.003,-1.824 0,-1.355 1.814,-2.354 4.823,-2.354 6.715,0 10.173,10.535 10.173,17.072 0,27.346 -17.822,36.162 -27.904,36.162 -11.257,0 -16.248,-7.99 -16.248,-17.984 -10e-4,-21.812 18.343,-41.255 32.064,-41.255 z" />
	<path
   style="fill:#e4005b"
   inkscape:connector-curvature="0"
   id="path15112"
   d="m 2404.288,167.209 c 0.812,-1.084 2.636,-1.625 3.987,-1.625 1.089,0 2.001,0.363 2.001,1.084 0,0.191 -0.086,0.455 -0.372,0.826 l -41.238,55.695 c -0.807,1.088 -2.526,1.633 -3.894,1.633 -1.184,0 -2.096,-0.373 -2.096,-1.088 0,-0.197 0.081,-0.449 0.367,-0.822 l 41.245,-55.703 z m -35.249,19.814 c 0,5.01 1.91,6.447 4.179,6.447 4.266,0 8.07,-7.074 8.07,-13.807 0,-6.18 -3.161,-7.184 -3.161,-8.357 0,-1.004 1.271,-2.092 3.08,-2.092 3.55,0 5.545,4.545 5.545,8.271 0,15.357 -10.354,19.164 -14.719,19.164 -5.177,0 -8.812,-3.443 -8.812,-9.547 0,-11.791 9.709,-21.434 16.811,-21.434 0.912,0 1.629,0.555 1.629,1.189 0,0.453 -0.373,0.998 -1.257,1.348 -7.645,3.102 -11.365,10.647 -11.365,18.818 z m 20.899,28.153 c 0,5.01 1.896,6.467 4.179,6.467 4.265,0 8.085,-7.094 8.085,-13.822 0,-6.164 -3.182,-7.162 -3.182,-8.348 0,-0.998 1.271,-2.092 3.101,-2.092 3.521,0 5.535,4.537 5.535,8.262 0,15.359 -10.358,19.18 -14.725,19.18 -5.196,0 -8.802,-3.457 -8.802,-9.541 0,-11.816 9.714,-21.443 16.791,-21.443 0.912,0 1.652,0.545 1.652,1.18 0,0.453 -0.372,0.998 -1.279,1.371 -7.636,3.083 -11.355,10.624 -11.355,18.786 z" />
</g><path
     style="fill:none;stroke:#3f3f3e;stroke-width:0.72850001"
     inkscape:connector-curvature="0"
     id="path15114"
     d="m 2405.74,-21.0659 h -189.1 c -5.858,0 -10.511,-4.752 -10.511,-10.584 v -92.09 c 0,-5.859 4.651,-10.529 10.511,-10.529 h 378.854" /><line
     style="fill:none;stroke:#3f3f3e;stroke-width:0.72850001"
     id="line15116"
     y2="-21.065046"
     x2="2444.9961"
     y1="-21.065046"
     x1="2562.5459" /><path
     style="fill:none;stroke:#3f3f3e;stroke-width:0.72850001"
     inkscape:connector-curvature="0"
     id="path15118"
     d="m 2646.903,-134.2699 h 351.478 c 5.054,0 9.143,4.67 9.143,10.529 v 92.09 c 0,5.832 -4.089,10.584 -9.143,10.584 H 2897.618 2796.087 2616.76" /><g
     transform="translate(0,-270.2499)"
     id="g15120">
	<path
   style="fill:#3c3c3b"
   inkscape:connector-curvature="0"
   id="path15122"
   d="m 2423.181,270.852 c -1.781,5.014 -6.958,8.252 -10.354,8.252 -1.624,0 -2.751,-0.803 -2.751,-2.59 0,-0.648 0.157,-1.455 0.487,-2.426 l 28.992,-84.414 c 0.32,-0.965 0.646,-1.781 0.646,-2.264 0,-0.336 -0.157,-0.65 -0.646,-0.65 -0.324,0 -0.965,0.314 -1.781,0.314 -0.812,0 -1.938,-0.48 -1.938,-1.604 0,-2.756 7.445,-9.088 15.718,-9.088 1.613,0 2.908,0.969 2.908,2.766 0,0.648 -0.153,1.455 -0.482,2.426 l -1.938,5.5 c 5.994,-7.115 12.465,-10.691 18.134,-10.691 8.424,0 12.479,7.941 12.479,14.59 0,6.475 -2.913,13.609 -6.318,18.787 0,0 1.295,0.172 2.264,0.172 5.679,0 7.775,-2.268 10.855,-5.674 0.645,-0.803 1.78,-1.289 2.771,-1.289 0.969,0 1.781,0.486 1.781,1.613 0,1.133 -0.659,2.594 -2.283,4.537 -5.02,5.826 -9.556,7.607 -13.916,7.607 -2.111,0 -4.055,-0.486 -5.999,-1.131 -6.003,7.621 -14.103,9.398 -18.467,9.398 -4.552,0 -8.114,-2.264 -8.114,-6.494 0,-3.391 2.264,-11.166 14.104,-11.166 2.426,0 5.177,0.33 8.572,0.969 1.78,-4.365 2.756,-9.729 2.756,-13.777 0,-5.502 -1.786,-9.715 -6.477,-9.715 -6.477,0 -15.563,12.146 -19.285,23.172 l -21.718,62.87 z m 30.645,-53.961 c 0,1.609 0.965,2.908 3.062,2.908 2.598,0 5.836,-2.264 8.42,-6.314 -2.097,-0.645 -4.208,-1.461 -6.15,-1.461 -3.564,-0.001 -5.332,2.435 -5.332,4.867 z" />
	<path
   style="fill:#3c3c3b"
   inkscape:connector-curvature="0"
   id="path15124"
   d="m 2497.242,194.367 c -4.546,-2.908 -6.49,-6.146 -6.49,-11.17 0,-10.059 8.759,-17.016 15.233,-17.016 4.523,0 7.116,3.395 7.116,7.293 0,4.527 -1.78,8.754 -4.537,12.961 4.386,1.127 9.575,0.975 13.14,1.127 2.426,0.172 4.207,1.785 4.207,4.699 0,1.137 -0.482,2.436 -1.452,3.238 -2.27,2.273 -11.509,11.021 -11.509,17.822 0,2.598 1.121,3.725 2.922,3.725 4.05,0 11.652,-5.176 18.129,-12.789 0.654,-0.803 1.785,-1.289 2.77,-1.289 0.965,0 1.782,0.486 1.782,1.613 0,1.133 -0.642,2.594 -2.269,4.537 -10.059,11.83 -18.145,15.875 -23.993,15.875 -6.791,0 -10.526,-5.512 -10.526,-10.373 0,-3.887 2.27,-9.557 9.229,-15.721 -3.238,-0.326 -6.473,-1.127 -9.385,-2.264 -3.396,4.545 -7.131,9.24 -9.887,12.482 -0.807,0.965 -1.953,1.299 -2.751,1.299 -0.97,0 -1.78,-0.486 -1.78,-1.785 0,-0.969 0.64,-2.426 2.264,-4.375 2.267,-2.586 5.175,-6.483 7.787,-9.889 z m 6.477,-10.363 c 1.127,-2.105 2.097,-4.855 2.097,-7.621 0,-3.076 -0.812,-4.207 -1.938,-4.207 -1.781,0 -3.233,2.588 -3.233,5.018 0,2.765 1.617,5.521 3.074,6.81 z" />
	<path
   style="fill:#3c3c3b"
   inkscape:connector-curvature="0"
   id="path15126"
   d="m 2576.151,193.074 c 0,5.348 -1.781,11.346 -5.507,16.686 0.798,0.172 1.781,0.172 2.583,0.172 4.051,0 7.928,-1.629 11.495,-5.674 0.659,-0.803 1.457,-1.289 2.757,-1.289 0.965,0 1.78,0.486 1.78,1.613 0,1.133 -0.64,2.594 -2.269,4.537 -4.853,5.66 -10.685,8.09 -16.348,8.09 -1.795,0 -3.739,-0.318 -5.521,-0.801 -5.988,5.674 -13.276,8.586 -19.608,8.586 -9.877,0 -15.383,-7.459 -15.383,-16.529 0,-6.637 2.756,-14.426 8.09,-20.73 3.727,-4.375 7.617,-7.287 8.916,-7.287 1.301,0 2.27,1.299 2.27,2.75 0,0.486 -0.177,1.127 -0.659,1.613 -3.72,3.898 -7.11,11.014 -7.11,18.645 0,8.086 3.879,14.404 9.565,14.404 2.741,0 5.821,-1.451 8.415,-4.051 -6.472,-3.877 -11.18,-11.012 -11.18,-19.441 0,-7.607 4.379,-17.984 14.093,-17.984 2.908,0 5.988,1.131 8.596,3.734 3.396,3.241 5.025,7.931 5.025,12.956 z m -22.04,-1.133 c 0,5.994 4.213,11.996 9.872,15.393 1.299,-3.238 1.943,-6.963 1.943,-10.377 0,-6.156 -1.943,-12.633 -6.31,-12.633 -3.89,0 -5.505,3.897 -5.505,7.617 z" />
	<path
   style="fill:#3c3c3b"
   inkscape:connector-curvature="0"
   id="path15128"
   d="m 2623.606,197.275 c 2.6,-5.334 4.051,-8.566 4.051,-9.383 0,-0.482 -0.329,-0.818 -0.812,-0.818 -0.314,0 -0.97,0.336 -1.613,0.336 -1.138,0 -1.936,-0.65 -1.936,-1.787 0,-1.137 1.28,-2.908 3.232,-4.369 3.555,-2.588 8.416,-4.871 13.438,-4.871 2.283,0 3.253,0.969 3.253,2.439 0,1.781 -1.639,5.182 -3.582,9.398 -3.08,6.629 -6.958,15.389 -9.384,23.971 -0.33,1.131 -0.654,2.268 -0.654,3.074 0,1.295 0.481,2.27 1.623,2.27 2.427,0 8.744,-4.213 16.529,-13.277 0.645,-0.803 1.786,-1.289 2.755,-1.289 0.97,0 1.781,0.486 1.781,1.613 0,1.133 -0.653,2.594 -2.264,4.537 -8.931,10.525 -17.833,15.875 -23.497,15.875 -6.003,0 -8.931,-3.395 -8.931,-8.754 0,-1.131 0.177,-2.268 0.487,-3.559 -5.334,5.016 -10.024,7.617 -14.72,10.855 1.939,5.02 2.736,10.043 2.736,15.062 0,21.225 -15.387,40.504 -25.746,40.504 -7.144,0 -9.728,-7.766 -9.728,-17.164 0,-14.424 5.339,-35.484 10.696,-55.576 13.77,-52.508 37.246,-87.002 46.502,-87.002 2.578,0 4.039,2.43 4.039,7.768 0,31.932 -22.521,72.277 -38.07,86.523 l -3.727,3.557 c -4.379,17.342 -8.429,37.27 -8.429,45.867 0,4.365 1.624,6.801 3.567,6.801 3.409,0 7.773,-6.639 9.068,-20.422 0.329,-3.238 0.487,-6.801 0.487,-10.855 0,-5.182 -0.487,-9.393 -1.3,-11.494 -0.157,-0.65 -0.329,-1.299 -0.329,-1.625 0,-1.293 0.659,-2.588 2.593,-3.725 11.682,-7.296 22.209,-12.802 27.885,-24.48 z m -4.531,-59.927 c -3.739,0 -16.69,34.828 -26.247,69.828 17.331,-19.283 27.212,-58.01 27.212,-66.428 0,-2.268 -0.324,-3.4 -0.965,-3.4 z m 30.293,20.576 c 0,4.371 -4.532,9.227 -9.887,9.227 -3.721,0 -6.647,-2.588 -6.647,-5.988 0,-4.709 5.024,-9.246 10.058,-9.246 3.563,-0.001 6.476,2.106 6.476,6.007 z" />
	<path
   style="fill:#3c3c3b"
   inkscape:connector-curvature="0"
   id="path15130"
   d="m 2680.635,217.697 c 0,-4.375 6.165,-8.424 17.179,-8.424 1.623,0 3.721,0.172 5.502,0.328 -0.153,-5.02 -4.36,-9.23 -8.086,-13.936 -6.978,6.979 -11.687,10.697 -16.047,13.119 -1.457,9.715 -9.397,16.209 -21.883,16.209 -4.521,0 -10.845,-2.912 -10.845,-7.297 0,-4.857 5.836,-7.938 22.044,-11.82 -1.471,-3.566 -4.537,-6.814 -7.475,-10.377 l -11.175,13.619 c -0.641,0.812 -1.782,1.299 -2.751,1.299 -0.965,0 -1.781,-0.486 -1.781,-1.785 0,-0.812 0.654,-2.426 2.27,-4.375 3.08,-3.725 6.963,-8.592 10.372,-12.799 -1.943,-2.918 -3.409,-5.988 -3.409,-9.398 0,-9.561 11.194,-17.818 17.985,-17.818 2.922,0 5.019,1.609 5.019,5.016 0,5.018 -5.334,12.158 -9.055,17.016 3.721,4.699 8.572,9.875 10.196,15.721 4.035,-2.105 8.271,-5.52 13.453,-10.535 -1.938,-2.918 -3.414,-5.988 -3.414,-9.398 0,-9.561 11.018,-17.818 17.837,-17.818 2.902,0 5.015,1.457 5.015,5.016 0,4.855 -4.69,12.316 -8.603,17.502 4.553,5.826 10.389,12.303 10.389,19.604 0,0.33 -0.172,2.422 -0.482,3.889 4.36,-0.168 6.801,-1.299 10.836,-5.994 0.659,-0.803 1.796,-1.289 2.771,-1.289 0.97,0 1.78,0.486 1.78,1.613 0,1.133 -0.645,2.594 -2.264,4.537 -6.012,7.121 -10.544,8.902 -15.066,8.902 -0.812,0 -1.623,-0.162 -1.623,-0.162 -4.365,5.191 -10.698,7.135 -17.503,7.135 -5.991,-0.003 -11.186,-3.556 -11.186,-7.3 z m -11.495,-5.674 c -2.599,0.486 -5.658,0.984 -8.271,1.461 -3.086,0.65 -5.513,1.781 -5.513,3.725 0,1.463 1.629,2.771 4.207,2.771 4.223,0 8.936,-3.902 9.577,-7.957 z m -5.661,-35.64 c 0,2.125 0.636,3.576 1.609,5.191 2.268,-3.066 4.05,-6.328 4.202,-8.76 0,-1.127 -0.312,-1.775 -1.122,-1.775 -2.108,0 -4.689,3.074 -4.689,5.344 z m 37.896,39.695 c -2.421,-0.645 -5.022,-1.457 -7.617,-1.457 -2.751,0 -4.034,1.299 -4.034,2.426 0,1.453 1.613,2.934 4.207,2.934 2.583,-0.001 5.334,-1.635 7.444,-3.903 z m -3.726,-39.533 c 0,2.121 0.812,3.738 1.943,5.516 1.939,-3.395 3.567,-6.977 3.721,-9.246 0,-1.127 -0.33,-1.775 -1.127,-1.775 -2.11,-0.001 -4.537,3.399 -4.537,5.505 z" />
	<path
   style="fill:#3c3c3b"
   inkscape:connector-curvature="0"
   id="path15132"
   d="m 2733.301,212.191 c -0.329,1.131 -0.645,2.43 -0.645,3.242 0,1.293 0.481,2.102 1.614,2.102 2.426,0 8.743,-4.213 16.527,-13.277 0.971,-1.131 1.944,-1.289 2.756,-1.289 1.123,0 1.938,0.486 1.938,1.613 0,0.971 -0.64,2.594 -2.421,4.537 -8.936,10.525 -17.837,15.875 -23.496,15.875 -6.003,0 -8.759,-3.553 -8.759,-9.074 0,-1.785 0.329,-3.896 0.974,-5.988 2.422,-8.424 6.473,-16.209 8.269,-19.934 0.485,-1.137 0.815,-1.777 0.815,-2.264 0,-0.492 -0.33,-0.66 -0.815,-0.66 -0.482,0 -0.966,0.168 -1.468,0.168 -1.142,0 -2.269,-0.482 -2.269,-1.619 0,-3.238 8.603,-9.24 16.845,-9.24 2.272,0 3.237,0.969 3.237,2.439 0,2.111 -1.767,5.502 -3.553,9.398 -3.079,6.63 -6.954,15.235 -9.549,23.971 z m 19.279,-54.267 c 0,4.371 -4.546,9.227 -9.896,9.227 -3.726,0 -6.634,-2.588 -6.634,-5.988 0,-4.709 5.021,-9.246 10.043,-9.246 3.554,-0.001 6.487,2.106 6.487,6.007 z" />
	<path
   style="fill:#3c3c3b"
   inkscape:connector-curvature="0"
   id="path15134"
   d="m 2792.921,193.074 c 0,5.348 -1.781,11.346 -5.502,16.686 0.812,0.172 1.781,0.172 2.594,0.172 4.055,0 7.934,-1.629 11.495,-5.674 0.646,-0.803 1.456,-1.289 2.755,-1.289 0.971,0 1.782,0.486 1.782,1.613 0,1.133 -0.659,2.594 -2.269,4.537 -4.862,5.66 -10.685,8.09 -16.357,8.09 -1.8,0 -3.739,-0.318 -5.521,-0.801 -5.992,5.674 -13.271,8.586 -19.604,8.586 -9.881,0 -15.387,-7.459 -15.387,-16.529 0,-6.637 2.75,-14.426 8.1,-20.73 3.726,-4.375 7.617,-7.287 8.901,-7.287 1.299,0 2.269,1.299 2.269,2.75 0,0.486 -0.156,1.127 -0.64,1.613 -3.726,3.898 -7.135,11.014 -7.135,18.645 0,8.086 3.892,14.404 9.575,14.404 2.75,0 5.83,-1.451 8.414,-4.051 -6.48,-3.877 -11.186,-11.012 -11.186,-19.441 0,-7.607 4.395,-17.984 14.107,-17.984 2.912,0 5.993,1.131 8.586,3.734 3.414,3.241 5.023,7.931 5.023,12.956 z m -22.035,-1.133 c 0,5.994 4.223,11.996 9.881,15.393 1.3,-3.238 1.943,-6.963 1.943,-10.377 0,-6.156 -1.943,-12.633 -6.318,-12.633 -3.877,0 -5.506,3.897 -5.506,7.617 z" />
	<path
   style="fill:#3c3c3b"
   inkscape:connector-curvature="0"
   id="path15136"
   d="m 2835.701,215.266 c 0,1.295 0.33,2.27 1.452,2.27 2.598,0 8.743,-4.213 16.532,-13.277 0.817,-0.803 1.786,-1.289 2.751,-1.289 1.133,0 1.944,0.486 1.944,1.777 0,0.969 -0.812,2.43 -2.427,4.373 -8.932,10.525 -17.827,15.875 -23.496,15.875 -5.842,0 -8.598,-3.553 -8.598,-8.916 0,-1.781 0.33,-3.887 0.966,-6.146 3.425,-11.996 8.764,-19.451 8.764,-21.711 0,-0.658 -0.315,-0.979 -0.803,-0.979 -3.739,0 -18.486,13.463 -21.554,22.359 l -2.426,7.125 c -1.619,5.029 -6.986,8.268 -10.383,8.268 -1.609,0 -2.755,-0.807 -2.755,-2.584 0,-0.654 0.162,-1.461 0.491,-2.43 l 10.367,-30.307 c 0.33,-0.965 0.659,-1.781 0.659,-2.264 0,-0.336 -0.162,-0.65 -0.659,-0.65 -0.328,0 -0.969,0.162 -1.466,0.162 -1.132,0 -2.259,-0.486 -2.259,-1.623 0,-2.584 7.773,-8.916 15.717,-8.916 1.614,0 2.756,0.811 2.756,2.766 0,0.648 -0.168,1.455 -0.481,2.426 l -3.739,10.855 c 8.101,-9.232 19.771,-16.047 26.247,-16.047 2.757,0 4.689,1.457 4.689,4.383 0,1.619 -0.798,4.371 -2.249,7.455 -3.085,6.305 -7.135,15.717 -9.562,23.971 -0.325,1.13 -0.478,2.267 -0.478,3.074 z" />
	<path
   style="fill:#3c3c3b"
   inkscape:connector-curvature="0"
   id="path15138"
   d="m 2883.481,224.994 c -4.848,0 -7.272,-2.584 -7.756,-6.494 -3.738,4.23 -8.275,6.494 -12.812,6.494 -7.44,0 -13.764,-6.322 -13.764,-14.742 0,-14.752 15.062,-33.869 34.181,-33.869 8.112,0 14.418,3.252 14.418,9.729 0,8.1 -7.116,9.713 -9.729,9.713 -2.269,0 -5.815,-0.641 -5.815,-2.75 0,-2.273 5.005,-0.975 5.005,-6.152 0,-3.238 -3.238,-4.375 -6.478,-4.375 -11.667,0 -20.082,16.191 -20.082,26.238 0,4.537 1.782,9.074 5.989,9.074 3.41,0 8.911,-4.852 11.667,-11.982 1.781,-4.857 6.806,-8.104 10.201,-8.104 1.795,0 2.937,0.801 2.937,2.598 0,0.648 -0.172,1.457 -0.481,2.426 -0.659,2.111 -4.068,11.824 -4.068,13.281 0,0.812 0.315,1.457 1.299,1.457 2.44,0 8.744,-4.213 16.521,-13.277 0.654,-0.803 1.781,-1.289 2.75,-1.289 0.97,0 1.785,0.486 1.785,1.613 0,1.133 -0.645,2.594 -2.268,4.537 -8.904,10.525 -17.82,15.874 -23.5,15.874 z" />
	<path
   style="fill:#3c3c3b"
   inkscape:connector-curvature="0"
   id="path15140"
   d="m 2914.267,212.191 c -0.328,1.131 -0.645,2.43 -0.645,3.242 0,1.293 0.492,2.102 1.614,2.102 2.426,0 8.759,-4.213 16.528,-13.277 0.975,-1.131 1.943,-1.289 2.756,-1.289 1.127,0 1.938,0.486 1.938,1.613 0,0.971 -0.64,2.594 -2.421,4.537 -8.9,10.525 -17.832,15.875 -23.496,15.875 -5.989,0 -8.743,-3.553 -8.743,-9.074 0,-1.785 0.328,-3.896 0.974,-5.988 2.422,-8.424 6.476,-16.209 8.258,-19.934 0.481,-1.137 0.812,-1.777 0.812,-2.264 0,-0.492 -0.33,-0.66 -0.812,-0.66 -0.487,0 -0.97,0.168 -1.457,0.168 -1.142,0 -2.269,-0.482 -2.269,-1.619 0,-3.238 8.592,-9.24 16.844,-9.24 2.273,0 3.243,0.969 3.243,2.439 0,2.111 -1.769,5.502 -3.554,9.398 -3.08,6.63 -6.973,15.235 -9.57,23.971 z m 19.284,-54.267 c 0,4.371 -4.532,9.227 -9.886,9.227 -3.739,0 -6.646,-2.588 -6.646,-5.988 0,-4.709 5.032,-9.246 10.058,-9.246 3.551,-0.001 6.474,2.106 6.474,6.007 z" />
	<path
   style="fill:#3c3c3b"
   inkscape:connector-curvature="0"
   id="path15142"
   d="m 2942.138,191.287 c -1.938,-2.912 -3.396,-5.816 -3.396,-9.227 0,-9.561 11.171,-17.818 17.971,-17.818 2.928,0 5.039,1.457 5.039,5.016 0,5.018 -5.368,12.158 -9.246,17.016 4.694,5.826 11.027,12.627 11.027,20.09 8.577,1.133 14.731,4.695 14.731,10.684 0,3.252 -2.923,10.211 -5.988,10.211 -0.653,0 -1.142,-0.314 -1.142,-1.127 0,-1.137 0.976,-2.111 0.976,-4.203 0,-4.068 -3.56,-7.148 -10.029,-8.605 -3.41,8.76 -12.326,11.672 -19.943,11.672 -3.72,0 -11.51,-1.613 -11.51,-6.648 0,-4.861 7.632,-10.043 22.207,-11.824 -1.467,-3.877 -4.704,-7.283 -7.617,-11.021 l -11.18,13.619 c -0.659,0.812 -1.786,1.299 -2.756,1.299 -0.97,0 -1.781,-0.486 -1.781,-1.785 0,-0.969 0.641,-2.426 2.264,-4.375 2.913,-3.404 6.977,-8.595 10.373,-12.974 z m 11.011,21.07 c -6.476,0 -14.078,0.482 -14.078,4.689 0,1.939 1.3,3.096 3.554,3.096 4.537,0.001 9.228,-2.933 10.524,-7.785 z m -5.503,-35.65 c 0,1.801 0.653,3.252 1.627,4.867 2.098,-3.254 4.051,-6.49 4.209,-8.76 0,-1.127 -0.33,-1.775 -1.129,-1.775 -1.957,0 -4.707,2.918 -4.707,5.668 z" />
</g><rect
     style="fill:none"
     height="528"
     width="3301"
     y="-317.2496"
     x="-123.5"
     id="_x3C_Tranche_x3E_" /></g>
</svg>