<?xml version="1.0" encoding="utf-8"?>
<!-- Generator: Adobe Illustrator 16.0.0, SVG Export Plug-In . SVG Version: 6.00 Build 0)  -->
<!DOCTYPE svg PUBLIC "-//W3C//DTD SVG 1.1//EN" "http://www.w3.org/Graphics/SVG/1.1/DTD/svg11.dtd">
<svg version="1.1" id="Calque_1" xmlns="http://www.w3.org/2000/svg" xmlns:xlink="http://www.w3.org/1999/xlink" x="0px" y="0px"
	 width="3056px" height="593px" viewBox="0 0 3056 593" enable-background="new 0 0 3056 593" xml:space="preserve">
<g>
	<g>
		<defs>
			<rect id="SVGID_1_" width="3056" height="371.75"/>
		</defs>
		<clipPath id="SVGID_2_">
			<use xlink:href="#SVGID_1_"  overflow="visible"/>
		</clipPath>
		<polygon clip-path="url(#SVGID_2_)" fill="#92C135" points="502.59,272.667 532.479,271.444 481.334,139.494 467.896,170.559 		
			"/>
	</g>
	<g>
		<defs>
			<rect id="SVGID_3_" width="3056" height="371.75"/>
		</defs>
		<clipPath id="SVGID_4_">
			<use xlink:href="#SVGID_3_"  overflow="visible"/>
		</clipPath>
		<polygon clip-path="url(#SVGID_4_)" fill="#095DA8" points="467.894,170.559 471.737,111.789 527.968,65.713 569.604,62.931 		"/>
	</g>
	<g>
		<defs>
			<rect id="SVGID_5_" width="3056" height="371.75"/>
		</defs>
		<clipPath id="SVGID_6_">
			<use xlink:href="#SVGID_5_"  overflow="visible"/>
		</clipPath>
		<polygon clip-path="url(#SVGID_6_)" fill="#C6D426" points="578.149,143.21 646.705,122.453 571.774,60.496 527.968,65.718 		"/>
	</g>
	<g>
		<defs>
			<rect id="SVGID_7_" width="3056" height="371.75"/>
		</defs>
		<clipPath id="SVGID_8_">
			<use xlink:href="#SVGID_7_"  overflow="visible"/>
		</clipPath>
		<polygon clip-path="url(#SVGID_8_)" fill="#EC691D" points="646.705,122.45 578.149,143.213 665.599,27.567 739.274,11.072 		"/>
	</g>
	<g>
		<defs>
			<rect id="SVGID_9_" width="3056" height="371.75"/>
		</defs>
		<clipPath id="SVGID_10_">
			<use xlink:href="#SVGID_9_"  overflow="visible"/>
		</clipPath>
		<polygon clip-path="url(#SVGID_10_)" fill="#552582" points="547.702,264.381 536.122,262.075 502.59,272.667 533.653,274.45 		
			"/>
	</g>
	<g>
		<defs>
			<rect id="SVGID_11_" width="3056" height="371.75"/>
		</defs>
		<clipPath id="SVGID_12_">
			<use xlink:href="#SVGID_11_"  overflow="visible"/>
		</clipPath>
		<polygon clip-path="url(#SVGID_12_)" fill="#EC619D" points="592.808,363.105 566.401,357.33 536.126,262.075 550.805,262.15 		
			"/>
	</g>
	<g>
		<defs>
			<rect id="SVGID_13_" width="3056" height="371.75"/>
		</defs>
		<clipPath id="SVGID_14_">
			<use xlink:href="#SVGID_13_"  overflow="visible"/>
		</clipPath>
		<polygon clip-path="url(#SVGID_14_)" fill="#A9167E" points="619.647,268.94 590.826,352.236 622.736,369.993 657.651,253.282 		
			"/>
	</g>
	<g>
		<defs>
			<rect id="SVGID_15_" width="3056" height="371.75"/>
		</defs>
		<clipPath id="SVGID_16_">
			<use xlink:href="#SVGID_15_"  overflow="visible"/>
		</clipPath>
		<polygon clip-path="url(#SVGID_16_)" fill="#009C47" points="656.771,287.643 619.646,268.93 659.339,249.305 739.817,249.988 		
			"/>
	</g>
	<g>
		<defs>
			<rect id="SVGID_17_" width="3056" height="371.75"/>
		</defs>
		<clipPath id="SVGID_18_">
			<use xlink:href="#SVGID_17_"  overflow="visible"/>
		</clipPath>
		<polygon clip-path="url(#SVGID_18_)" fill="#24A8E1" points="745.803,250.036 656.769,287.643 784.113,47.552 789.784,173.129 		
			"/>
	</g>
	<g>
		<defs>
			<rect id="SVGID_19_" width="3056" height="371.75"/>
		</defs>
		<clipPath id="SVGID_20_">
			<use xlink:href="#SVGID_19_"  overflow="visible"/>
		</clipPath>
		<polygon clip-path="url(#SVGID_20_)" fill="#E61E5C" points="789.786,173.129 787.824,40.572 743.045,6.299 665.388,27.628 		"/>
	</g>
	<g>
		<defs>
			<rect id="SVGID_21_" width="3056" height="371.75"/>
		</defs>
		<clipPath id="SVGID_22_">
			<use xlink:href="#SVGID_21_"  overflow="visible"/>
		</clipPath>
		<polygon clip-path="url(#SVGID_22_)" fill="#E61E5C" points="590.823,352.236 622.733,369.993 946.167,323.809 894.053,309.596 		
			"/>
	</g>
	<g>
		<defs>
			<rect id="SVGID_23_" width="3056" height="371.75"/>
		</defs>
		<clipPath id="SVGID_24_">
			<use xlink:href="#SVGID_23_"  overflow="visible"/>
		</clipPath>
		<polygon clip-path="url(#SVGID_24_)" fill="#EC691D" points="1187.11,331.654 1217.646,316.984 894.053,309.596 946.167,323.809 
					"/>
	</g>
	<g>
		<defs>
			<rect id="SVGID_25_" width="3056" height="371.75"/>
		</defs>
		<clipPath id="SVGID_26_">
			<use xlink:href="#SVGID_25_"  overflow="visible"/>
		</clipPath>
		<polygon clip-path="url(#SVGID_26_)" fill="#C6D426" points="1187.11,331.654 1217.646,316.984 1220.366,285.79 1203.731,299.991 
					"/>
	</g>
	<g>
		<defs>
			<rect id="SVGID_27_" width="3056" height="371.75"/>
		</defs>
		<clipPath id="SVGID_28_">
			<use xlink:href="#SVGID_27_"  overflow="visible"/>
		</clipPath>
		<polygon clip-path="url(#SVGID_28_)" fill="#095DA8" points="1451.882,331.564 1438.21,312.131 1220.364,285.79 1203.728,299.991 
					"/>
	</g>
	<g>
		<defs>
			<rect id="SVGID_29_" width="3056" height="371.75"/>
		</defs>
		<clipPath id="SVGID_30_">
			<use xlink:href="#SVGID_29_"  overflow="visible"/>
		</clipPath>
		<polygon clip-path="url(#SVGID_30_)" fill="#92C135" points="1451.882,331.564 1438.21,312.131 1665.58,291.262 1719.931,312.506 
					"/>
	</g>
	<g>
		<defs>
			<rect id="SVGID_31_" width="3056" height="371.75"/>
		</defs>
		<clipPath id="SVGID_32_">
			<use xlink:href="#SVGID_31_"  overflow="visible"/>
		</clipPath>
		<polygon clip-path="url(#SVGID_32_)" fill="#552582" points="2011.276,347.977 1997.599,328.548 1665.58,291.262 
			1719.931,312.506 		"/>
	</g>
	<g>
		<defs>
			<rect id="SVGID_33_" width="3056" height="371.75"/>
		</defs>
		<clipPath id="SVGID_34_">
			<use xlink:href="#SVGID_33_"  overflow="visible"/>
		</clipPath>
		<polygon clip-path="url(#SVGID_34_)" fill="#EC619D" points="2011.276,347.977 1997.599,328.548 2430.926,290.643 
			2401.306,304.221 		"/>
	</g>
	<g>
		<defs>
			<rect id="SVGID_35_" width="3056" height="371.75"/>
		</defs>
		<clipPath id="SVGID_36_">
			<use xlink:href="#SVGID_35_"  overflow="visible"/>
		</clipPath>
		<polygon clip-path="url(#SVGID_36_)" fill="#A9167E" points="2401.306,304.214 3056,344.938 3056,295.379 2430.926,290.648 		"/>
	</g>
	<g>
		<defs>
			<rect id="SVGID_37_" width="3056" height="371.75"/>
		</defs>
		<clipPath id="SVGID_38_">
			<use xlink:href="#SVGID_37_"  overflow="visible"/>
		</clipPath>
		<polygon clip-path="url(#SVGID_38_)" fill="#A9167E" points="292.949,366.448 592.81,363.111 566.403,357.324 306.622,352.771 		
			"/>
	</g>
	<g>
		<defs>
			<rect id="SVGID_39_" width="3056" height="371.75"/>
		</defs>
		<clipPath id="SVGID_40_">
			<use xlink:href="#SVGID_39_"  overflow="visible"/>
		</clipPath>
		<polygon clip-path="url(#SVGID_40_)" fill="#24A8E1" points="0.566,348.211 292.947,366.448 306.625,352.771 0.566,316.301 		"/>
	</g>
</g>
<g>
	<g>
		<defs>
			<rect id="SVGID_41_" width="3056" height="371.75"/>
		</defs>
		<clipPath id="SVGID_42_">
			<use xlink:href="#SVGID_41_"  overflow="visible"/>
		</clipPath>
		<g clip-path="url(#SVGID_42_)">
			<g>
				<defs>
					<rect id="SVGID_43_" width="3056" height="371.75"/>
				</defs>
				<defs>
					<rect id="SVGID_44_" width="3056" height="371.75"/>
				</defs>
				<defs>
					<rect id="SVGID_45_" width="3056" height="371.75"/>
				</defs>
				<defs>
					<rect id="SVGID_46_" width="3056" height="371.75"/>
				</defs>
				<defs>
					<rect id="SVGID_47_" width="3056" height="371.75"/>
				</defs>
				<defs>
					<rect id="SVGID_48_" width="3056" height="371.75"/>
				</defs>
				<defs>
					<rect id="SVGID_49_" width="3056" height="371.75"/>
				</defs>
				<defs>
					<rect id="SVGID_50_" width="3056" height="371.75"/>
				</defs>
				<defs>
					<rect id="SVGID_51_" width="3056" height="371.75"/>
				</defs>
				<defs>
					<rect id="SVGID_52_" width="3056" height="371.75"/>
				</defs>
				<defs>
					<rect id="SVGID_53_" width="3056" height="371.75"/>
				</defs>
				<defs>
					<rect id="SVGID_54_" width="3056" height="371.75"/>
				</defs>
				<defs>
					<rect id="SVGID_55_" width="3056" height="371.75"/>
				</defs>
				<defs>
					<rect id="SVGID_56_" width="3056" height="371.75"/>
				</defs>
				<defs>
					<rect id="SVGID_57_" width="3056" height="371.75"/>
				</defs>
				<defs>
					<rect id="SVGID_58_" width="3056" height="371.75"/>
				</defs>
				<defs>
					<rect id="SVGID_59_" width="3056" height="371.75"/>
				</defs>
				<defs>
					<rect id="SVGID_60_" width="3056" height="371.75"/>
				</defs>
				<defs>
					<rect id="SVGID_61_" width="3056" height="371.75"/>
				</defs>
				<clipPath id="SVGID_62_">
					<use xlink:href="#SVGID_43_"  overflow="visible"/>
				</clipPath>
				<clipPath id="SVGID_63_" clip-path="url(#SVGID_62_)">
					<use xlink:href="#SVGID_44_"  overflow="visible"/>
				</clipPath>
				<clipPath id="SVGID_64_" clip-path="url(#SVGID_63_)">
					<use xlink:href="#SVGID_45_"  overflow="visible"/>
				</clipPath>
				<clipPath id="SVGID_65_" clip-path="url(#SVGID_64_)">
					<use xlink:href="#SVGID_46_"  overflow="visible"/>
				</clipPath>
				<clipPath id="SVGID_66_" clip-path="url(#SVGID_65_)">
					<use xlink:href="#SVGID_47_"  overflow="visible"/>
				</clipPath>
				<clipPath id="SVGID_67_" clip-path="url(#SVGID_66_)">
					<use xlink:href="#SVGID_48_"  overflow="visible"/>
				</clipPath>
				<clipPath id="SVGID_68_" clip-path="url(#SVGID_67_)">
					<use xlink:href="#SVGID_49_"  overflow="visible"/>
				</clipPath>
				<clipPath id="SVGID_69_" clip-path="url(#SVGID_68_)">
					<use xlink:href="#SVGID_50_"  overflow="visible"/>
				</clipPath>
				<clipPath id="SVGID_70_" clip-path="url(#SVGID_69_)">
					<use xlink:href="#SVGID_51_"  overflow="visible"/>
				</clipPath>
				<clipPath id="SVGID_71_" clip-path="url(#SVGID_70_)">
					<use xlink:href="#SVGID_52_"  overflow="visible"/>
				</clipPath>
				<clipPath id="SVGID_72_" clip-path="url(#SVGID_71_)">
					<use xlink:href="#SVGID_53_"  overflow="visible"/>
				</clipPath>
				<clipPath id="SVGID_73_" clip-path="url(#SVGID_72_)">
					<use xlink:href="#SVGID_54_"  overflow="visible"/>
				</clipPath>
				<clipPath id="SVGID_74_" clip-path="url(#SVGID_73_)">
					<use xlink:href="#SVGID_55_"  overflow="visible"/>
				</clipPath>
				<clipPath id="SVGID_75_" clip-path="url(#SVGID_74_)">
					<use xlink:href="#SVGID_56_"  overflow="visible"/>
				</clipPath>
				<clipPath id="SVGID_76_" clip-path="url(#SVGID_75_)">
					<use xlink:href="#SVGID_57_"  overflow="visible"/>
				</clipPath>
				<clipPath id="SVGID_77_" clip-path="url(#SVGID_76_)">
					<use xlink:href="#SVGID_58_"  overflow="visible"/>
				</clipPath>
				<clipPath id="SVGID_78_" clip-path="url(#SVGID_77_)">
					<use xlink:href="#SVGID_59_"  overflow="visible"/>
				</clipPath>
				<clipPath id="SVGID_79_" clip-path="url(#SVGID_78_)">
					<use xlink:href="#SVGID_60_"  overflow="visible"/>
				</clipPath>
				<clipPath id="SVGID_80_" clip-path="url(#SVGID_79_)">
					<use xlink:href="#SVGID_61_"  overflow="visible"/>
				</clipPath>
				<path clip-path="url(#SVGID_80_)" fill="#FFFFFF" d="M2825.733,50.222h170.658c5.328,0,9.637,4.242,9.637,9.578v83.699
					c0,5.296-4.309,9.614-9.637,9.614h-644.209c-5.328,0-9.557-4.318-9.557-9.614V59.8c0-5.336,4.229-9.578,9.557-9.578h433.424"/>
				<path clip-path="url(#SVGID_80_)" fill="none" stroke="#494543" stroke-width="0.706" d="M2825.733,50.222h170.658
					c5.328,0,9.637,4.242,9.637,9.578v83.699c0,5.296-4.309,9.614-9.637,9.614h-644.209c-5.328,0-9.557-4.318-9.557-9.614V59.8
					c0-5.336,4.229-9.578,9.557-9.578h433.424"/>
				<path clip-path="url(#SVGID_80_)" fill="#494543" d="M2310.969,48.745h-92.104v26.428h32.887v78.757h26.31V75.173h32.908
					L2310.969,48.745L2310.969,48.745z M2214.999,81.619c0-9.022-3.184-16.676-9.701-23.17c-6.38-6.455-14.143-9.704-23.111-9.704
					h-72.394V153.93h26.362V75.173h43.395c2.499,0,4.645,0.854,6.428,2.656c1.826,1.788,2.695,3.921,2.695,6.462v69.639h26.326
					V81.619z M2100.687,48.745h-26.386V153.93h26.386V48.745z M2036.192,98.589c-1.762,1.764-3.939,2.699-6.438,2.699h-43.36V75.173
					h43.36c2.531,0,4.677,0.854,6.418,2.656c1.836,1.767,2.722,3.921,2.722,6.404v7.897
					C2038.894,94.678,2038.008,96.826,2036.192,98.589 M2065.258,81.619c0-9.038-3.247-16.719-9.696-23.17
					c-6.428-6.455-14.168-9.704-23.158-9.704h-72.385l0.012,105.185h26.363v-26.264l34.199,26.264h38.118l-36.806-26.264h10.503
					c8.995,0,16.726-3.248,23.132-9.655c6.471-6.457,9.718-14.186,9.718-23.276V81.619z M1923.233,98.589
					c-1.805,1.764-3.93,2.699-6.471,2.699h-43.371V75.173l43.371-0.067c2.541,0.067,4.666,0.921,6.471,2.724
					c1.764,1.767,2.682,3.921,2.682,6.404v7.897C1925.915,94.678,1924.997,96.801,1923.233,98.589 M1952.276,81.619
					c0-9.038-3.213-16.719-9.77-23.17c-6.374-6.455-14.105-9.704-23.062-9.704h-72.426V153.93h26.373v-26.264l46.105-0.056
					c8.938,0.056,16.636-3.192,23.01-9.6c6.529-6.457,9.77-14.209,9.77-23.276V81.619z M1768.304,127.666
					c-2.156,0-4.015-0.788-5.574-2.405c-1.602-1.537-2.412-3.368-2.412-5.472c0.021-2.072,0.812-3.855,2.412-5.43
					c1.561-1.563,3.438-2.352,5.574-2.352l44.602,0.023v15.635L1768.304,127.666L1768.304,127.666z M1839.288,81.619
					c0-9.022-3.235-16.676-9.729-23.17c-6.438-6.455-14.18-9.704-23.17-9.704h-65.752v26.428h64.459
					c2.115,0,3.898,0.755,5.437,2.356c1.603,1.503,2.37,3.366,2.37,5.446v7.946h-48.582c-8.286,0-15.44,3.161-21.366,9.557
					c-5.937,6.396-8.896,13.744-8.896,21.95c0.021,8.326,2.959,15.675,8.896,22.093c5.926,6.307,13.08,9.408,21.366,9.408h74.967
					V81.619z M1697.649,101.359l35.812-52.614h-33.602l-18.985,30.621l-19.028-30.621l-33.462,0.037l35.748,52.577l-35.748,52.57
					h33.462l19.028-30.577l18.985,30.577h33.602L1697.649,101.359z M1627.744,127.666h-65.763v-15.658h52.607V90.922h-52.607V75.173
					h59.143V48.745l-85.612,0.037V153.93h92.232V127.666z"/>
				<path clip-path="url(#SVGID_80_)" fill="#494543" d="M3022.403,63.876c0-0.308,0.068-0.494,0.086-0.827
					c0.432-4.806,4.439-8.626,9.385-8.626c0.288,0,0.564,0,0.875,0.07c4.784,0.416,8.623,4.46,8.623,9.383
					c0,0.262,0,0.601-0.08,0.798c-0.406,4.904-4.452,8.682-9.375,8.682c-0.337,0-0.598,0-0.918-0.067
					C3026.228,72.9,3022.403,68.806,3022.403,63.876 M3031.917,55.253c-4.507,0-8.2,3.484-8.659,7.889v0.734
					c0,4.529,3.491,8.232,7.88,8.593h0.779c4.485,0,8.146-3.385,8.584-7.845c0.011-0.247,0.011-0.486,0.021-0.748
					c0-4.49-3.459-8.142-7.849-8.623H3031.917"/>
				<path clip-path="url(#SVGID_80_)" fill="#494543" d="M3034.778,63.71c-0.215,0.163-0.353,0.245-0.705,0.245h-4.398v-2.66h4.398
					c0.354,0,0.49,0.096,0.705,0.294c0.171,0.181,0.245,0.395,0.245,0.661v0.799C3035.022,63.282,3034.949,63.518,3034.778,63.71
					 M3037.693,61.922c0-0.902-0.288-1.669-0.972-2.352c-0.674-0.617-1.409-0.94-2.295-0.94h-7.422v10.656h2.67V66.7l3.502,2.586
					h3.864l-3.737-2.586h1.123c0.886,0,1.621-0.383,2.295-1.022c0.684-0.679,0.972-1.45,0.972-2.396V61.922z"/>
				<path clip-path="url(#SVGID_80_)" fill="#E5005B" d="M2377.853,130.969c-0.98,0-1.729-0.406-1.729-1.404
					c0-0.323,0.085-0.74,0.252-1.156l14.195-41.196c-1.977,1.487-5.115,3.548-6.609,3.548c-0.986,0-1.729-0.75-1.729-1.57
					c0.086-1.649,8.188-5.864,11.309-9.583c1.248-1.481,3.31-2.472,4.72-2.472c0.98,0,1.729,0.406,1.729,1.481
					c0,0.251-0.085,0.661-0.246,1.083l-16.188,47.064C2382.731,129.315,2379.754,130.969,2377.853,130.969"/>
				<path clip-path="url(#SVGID_80_)" fill="#E5005B" d="M2425.838,77.135c0.993,0,1.826,0.49,1.826,1.079
					c0,0.402-0.417,0.898-1.49,1.314c-15.851,6.522-22.043,22.952-22.043,35.187c0,9.398,3.63,13.114,9.001,13.114
					c8.168,0,16.753-11.633,16.753-26.422c0-7.926-3.129-12.306-5.777-15.023c-0.575-0.579-0.896-1.163-0.896-1.654
					c0-1.231,1.634-2.139,4.367-2.139c6.107,0,9.246,9.577,9.246,15.515c0,24.856-16.188,32.863-25.349,32.863
					c-10.239,0-14.778-7.262-14.778-16.354C2396.698,94.804,2413.377,77.135,2425.838,77.135"/>
				<path clip-path="url(#SVGID_80_)" fill="#E5005B" d="M2468.719,77.135c0.992,0,1.826,0.49,1.826,1.079
					c0,0.402-0.416,0.898-1.495,1.314c-15.845,6.522-22.049,22.952-22.049,35.187c0,9.398,3.642,13.114,9.012,13.114
					c8.168,0,16.753-11.633,16.753-26.422c0-7.926-3.14-12.306-5.776-15.023c-0.576-0.579-0.906-1.163-0.906-1.654
					c0-1.231,1.645-2.139,4.377-2.139c6.106,0,9.247,9.577,9.247,15.515c0,24.856-16.198,32.863-25.359,32.863
					c-10.229,0-14.776-7.262-14.776-16.354C2439.569,94.804,2456.248,77.135,2468.719,77.135"/>
				<path clip-path="url(#SVGID_80_)" fill="#E5005B" d="M2522.758,78.616c0.732-0.987,2.394-1.481,3.619-1.481
					c0.988,0,1.826,0.328,1.826,0.99c0,0.163-0.074,0.403-0.33,0.742l-37.489,50.619c-0.737,0.99-2.316,1.482-3.546,1.482
					c-1.077,0-1.899-0.323-1.899-0.99c0-0.163,0.074-0.414,0.332-0.737L2522.758,78.616z M2490.715,96.618
					c0,4.544,1.73,5.862,3.802,5.862c3.877,0,7.341-6.436,7.341-12.547c0-5.615-2.89-6.528-2.89-7.6
					c0-0.906,1.166-1.903,2.811-1.903c3.225,0,5.039,4.133,5.039,7.523c0,13.952-9.418,17.417-13.384,17.417
					c-4.693,0-8.003-3.131-8.003-8.67c0-10.726,8.83-19.484,15.277-19.484c0.822,0,1.485,0.497,1.485,1.071
					c0,0.422-0.337,0.913-1.153,1.24C2494.101,82.334,2490.715,89.189,2490.715,96.618 M2509.71,122.216
					c0,4.548,1.729,5.867,3.791,5.867c3.875,0,7.355-6.441,7.355-12.56c0-5.609-2.893-6.511-2.893-7.592
					c0-0.896,1.15-1.898,2.802-1.898c3.22,0,5.045,4.122,5.045,7.512c0,13.951-9.417,17.424-13.38,17.424
					c-4.719,0-8.007-3.14-8.007-8.666c0-10.735,8.825-19.488,15.269-19.488c0.822,0,1.496,0.496,1.496,1.07
					c0,0.416-0.332,0.907-1.166,1.247C2513.084,107.932,2509.71,114.792,2509.71,122.216"/>
				<path clip-path="url(#SVGID_80_)" fill="#494543" d="M2569.897,107.469c-2.625-0.288-5.412-0.883-7.899-1.905
					c-4.549,6.882-12.61,18.318-18.185,24.185c-1.015,1.018-2.199,1.313-3.064,1.313c-1.475,0-2.936-0.875-2.936-2.347
					c0-0.734,0.438-1.611,1.322-2.629c6.15-6.599,13.038-14.956,18.312-22.722c-4.101-2.635-5.867-5.571-5.867-10.112
					c0-9.087,7.917-15.392,13.779-15.392c4.109,0,6.46,3.078,6.46,6.599c0,4.106-1.623,7.918-3.812,11.871
					c3.812,1.028,8.341,0.585,11.564,0.883c2.21,0.146,3.821,1.903,3.821,4.256c0,1.022-0.446,2.191-1.323,2.923
					c-2.05,2.045-10.399,9.962-10.399,16.117c0,2.345,1.016,3.373,2.637,3.373c3.662,0,10.55-4.696,16.412-11.584
					c0.576-0.729,1.603-1.168,2.487-1.168c0.876,0,1.604,0.439,1.604,1.462c0,1.034-0.578,2.353-2.04,4.105
					c-9.087,10.699-16.421,14.364-21.687,14.364c-6.161,0-9.534-4.976-9.534-9.383
					C2561.55,116.551,2565.66,111.281,2569.897,107.469 M2563.312,93.983c1.021-1.897,1.911-4.396,1.911-6.895
					c0-2.776-0.735-3.805-1.763-3.805c-1.462,0-3.085,2.056-3.085,4.55C2560.375,90.03,2561.55,92.518,2563.312,93.983"/>
				<path clip-path="url(#SVGID_80_)" fill="#494543" d="M2631.445,111.13c0.864,0,1.61,0.442,1.61,1.465
					c0,1.033-0.598,2.35-2.061,4.105c-7.324,8.494-17.727,14.361-27.548,14.361c-9.524,0-16.7-6.303-16.7-15.536
					c0-13.336,10.988-28.434,27.25-28.434c7.335,0,10.848,4.407,10.848,8.947c0,7.912-10.998,17.883-21.248,22.564
					c-0.587,0.288-1.164,0.436-1.611,0.436c-1.181,0-2.051-0.731-2.051-1.748c0-0.887,0.576-1.915,2.051-3.078
					c9.225-7.331,12.312-13.93,12.312-17.889c0-2.78-1.324-4.095-3.375-4.095c-6.299,0-13.485,11.278-13.485,21.251
					c0,6.74,4.399,10.403,10.699,10.403c6.161,0,13.923-3.521,20.811-11.586C2629.533,111.572,2630.56,111.13,2631.445,111.13"/>
				<path clip-path="url(#SVGID_80_)" fill="#494543" d="M2662.335,110.4c-0.876,0-1.604,0-2.488-0.147
					c-6.588,9.528-13.475,16.121-18.761,19.053c-2.188,1.169-4.25,1.754-5.712,1.754c-1.175,0-2.479-0.294-3.064-1.312
					c-2.35-3.963-3.373-12.023-3.373-20.376c0-6.149,0.442-11.131,1.602-14.798c1.174-3.818,6.012-7.485,9.236-7.485
					c1.611,0,2.787,0.887,2.787,2.652c0,0.58-0.139,1.312-0.438,2.051c-2.2,6.449-3.374,12.453-3.374,18.461
					c0,3.373,0.736,8.791,1.475,11.572c0.128,0.591,0.277,1.178,0.863,1.178c1.036,0,7.924-6.743,12.898-14.949
					c-4.389-2.78-6.887-7.915-6.887-14.22c0-10.544,6.311-15.974,12.461-15.974c4.837,0,9.229,3.521,9.229,10.558
					c0,4.396-1.757,9.375-4.254,14.209c0,0,1.024,0.146,1.462,0.146c3.823,0,6.749-1.748,8.36-3.657
					c1.164-1.323,2.199-2.201,3.226-2.201c0.736,0,1.024,0.59,1.024,1.326c0,0.433-0.149,1.169-0.587,1.897
					C2674.508,106.437,2667.759,110.4,2662.335,110.4 M2653.408,88.418c0,4.1,2.04,8.348,4.688,11.138
					c1.017-2.79,1.612-5.572,1.612-8.356c0-5.269-2.051-7.615-3.673-7.615C2654.135,83.584,2653.408,86.221,2653.408,88.418"/>
				<path clip-path="url(#SVGID_80_)" fill="#494543" d="M2711.847,111.13c0.887,0,1.612,0.442,1.612,1.465
					c0,1.033-0.576,2.35-2.04,4.105c-7.335,8.494-17.735,14.361-27.559,14.361c-9.524,0-16.7-6.303-16.7-15.536
					c0-13.336,10.987-28.434,27.262-28.434c7.324,0,10.848,4.407,10.848,8.947c0,7.912-10.999,17.883-21.259,22.564
					c-0.577,0.288-1.176,0.436-1.612,0.436c-1.164,0-2.041-0.731-2.041-1.748c0-0.887,0.567-1.915,2.041-3.078
					c9.235-7.331,12.312-13.93,12.312-17.889c0-2.78-1.323-4.095-3.363-4.095c-6.311,0-13.486,11.278-13.486,21.251
					c0,6.74,4.389,10.403,10.689,10.403c6.16,0,13.923-3.521,20.81-11.586C2709.946,111.572,2710.981,111.13,2711.847,111.13"/>
				<path clip-path="url(#SVGID_80_)" fill="#494543" d="M2740.271,122.269c0,1.18,0.289,2.051,1.312,2.051
					c2.352,0,7.913-3.812,14.96-12.023c0.726-0.727,1.612-1.17,2.487-1.17c1.024,0,1.752,0.443,1.752,1.613
					c0,0.887-0.728,2.205-2.2,3.958c-8.051,9.529-16.112,14.362-21.248,14.362c-5.274,0-7.763-3.226-7.763-8.061
					c0-1.617,0.3-3.512,0.876-5.57c3.085-10.845,7.912-17.586,7.912-19.636c0-0.58-0.289-0.881-0.728-0.881
					c-3.374,0-16.699,12.164-19.497,20.234l-2.188,6.451c-1.462,4.53-6.299,7.462-9.374,7.462c-1.476,0-2.499-0.727-2.499-2.345
					c0-0.587,0.148-1.318,0.438-2.199l9.387-27.399c0.293-0.875,0.588-1.614,0.588-2.049c0-0.302-0.149-0.599-0.588-0.599
					c-0.3,0-0.887,0.155-1.323,0.155c-1.026,0-2.052-0.438-2.052-1.46c0-2.353,7.036-8.075,14.213-8.075
					c1.464,0,2.498,0.745,2.498,2.499c0,0.585-0.149,1.323-0.447,2.202l-3.363,9.82c7.324-8.36,17.873-14.521,23.735-14.521
					c2.487,0,4.25,1.329,4.25,3.965c0,1.47-0.728,3.963-2.05,6.739c-2.787,5.713-6.439,14.22-8.649,21.694
					C2740.409,120.507,2740.271,121.529,2740.271,122.269"/>
				<path clip-path="url(#SVGID_80_)" fill="#494543" d="M2783.633,87.54c6.886-27.549,22.71-51.877,29.597-51.877
					c1.907,0,3.227,2.05,3.227,6.884c0,17.888-13.486,52.465-25.798,69.025c0.438,8.648,2.2,11.727,4.398,11.727
					c3.374,0,8.352-4.695,13.913-11.001c0.598-0.726,1.623-1.168,2.51-1.168c0.864,0,1.606,0.442,1.606,1.465
					c0,1.033-0.594,2.35-2.05,4.105c-8.794,10.403-15.542,14.361-20.379,14.361c-4.389,0-7.324-3.229-8.938-8.059
					c-4.977,5.127-10.699,8.059-15.974,8.059c-7.613,0-13.188-6.155-13.188-14.799c0-14.508,14.361-29.02,27.261-29.02
					C2780.258,87.243,2781.869,87.243,2783.633,87.54 M2769.56,124.759c3.074,0,7.037-2.347,10.998-6.743
					c-0.149-1.753-0.3-3.521-0.3-5.421c0-2.493,0.149-5.264,0.3-7.757c-1.763-0.297-3.662-1.034-3.662-2.498
					c0-1.763,4.677-0.735,4.677-5.425c0-2.339-2.052-3.225-3.663-3.225c-8.639,0-14.789,10.555-14.789,20.805
					C2763.119,120.8,2765.606,124.759,2769.56,124.759 M2790.657,103.508c10.4-18.456,15.109-46.306,15.109-48.649
					c0-2.341-0.311-3.368-0.897-3.368c-2.776,0-10.39,22.42-13.187,40.882C2791.096,96.039,2790.657,101.755,2790.657,103.508"/>
				<path clip-path="url(#SVGID_80_)" fill="#494543" d="M2849.693,111.13c0.877,0,1.612,0.442,1.612,1.465
					c0,1.033-0.593,2.35-2.051,4.105c-7.324,8.494-17.734,14.361-27.548,14.361c-9.524,0-16.699-6.303-16.699-15.536
					c0-13.336,10.987-28.434,27.254-28.434c7.319,0,10.832,4.407,10.832,8.947c0,7.912-10.987,17.883-21.237,22.564
					c-0.598,0.288-1.186,0.436-1.612,0.436c-1.175,0-2.062-0.731-2.062-1.748c0-0.887,0.588-1.915,2.062-3.078
					c9.227-7.331,12.301-13.93,12.301-17.889c0-2.78-1.312-4.095-3.363-4.095c-6.299,0-13.485,11.278-13.485,21.251
					c0,6.74,4.399,10.403,10.699,10.403c6.149,0,13.924-3.521,20.812-11.586C2847.793,111.572,2848.818,111.13,2849.693,111.13"/>
				<path clip-path="url(#SVGID_80_)" fill="#494543" d="M2867.418,89.739c0,0.727-0.147,1.466-0.598,2.197
					c-4.238,9.087-11.425,19.786-11.425,28.138c0,2.629,0.741,3.808,1.91,3.808c4.102,0,13.924-13.188,21.1-28.718
					c2.488-5.137,7.176-7.923,10.111-7.923c1.611,0,2.787,0.736,2.787,2.352c0,0.288-0.149,1.315-0.737,2.64
					c-2.937,6.734-11.574,25.787-11.574,30.036c0,1.18,0.438,2.056,1.464,2.056c2.199,0,7.773-3.817,14.948-12.028
					c0.587-0.721,1.613-1.164,2.488-1.164c0.886,0,1.623,0.443,1.623,1.46c0,1.034-0.6,2.349-2.062,4.111
					c-8.057,9.521-16.258,14.356-21.389,14.356c-4.985,0-7.046-2.784-7.046-7.032c0-1.759,0.299-3.521,0.886-5.576
					c-6.16,8.508-12.6,12.608-17.437,12.608c-4.261,0-7.188-3.228-7.188-9.383c0-6.736,4.112-15.827,7.477-22.562
					c0.298-0.579,0.735-1.47,0.735-1.901c0-0.301-0.299-0.592-0.735-0.592c-0.289,0-0.876,0.15-1.325,0.15
					c-1.014,0-2.038-0.443-2.038-1.461c0-2.64,7.324-8.217,14.5-8.217C2865.807,87.094,2867.418,87.978,2867.418,89.739"/>
				<path clip-path="url(#SVGID_80_)" fill="#494543" d="M2902.419,103.364c-4.1-2.635-5.866-5.571-5.866-10.112
					c0-9.087,7.917-15.392,13.769-15.392c4.111,0,6.449,3.078,6.449,6.599c0,4.106-1.603,7.918-4.101,11.728
					c3.951,1.026,8.647,0.875,11.873,1.026c2.199,0.146,3.812,1.607,3.812,4.256c0,1.022-0.446,2.191-1.312,2.923
					c-2.062,2.045-10.421,9.962-10.421,16.117c0,2.345,1.035,3.373,2.646,3.373c3.662,0,10.551-4.696,16.411-11.584
					c0.588-0.729,1.612-1.168,2.488-1.168c0.887,0,1.623,0.439,1.623,1.462c0,1.034-0.598,2.353-2.062,4.105
					c-9.086,10.699-16.411,14.364-21.687,14.364c-6.149,0-9.522-4.976-9.522-9.383c0-3.511,2.061-8.644,8.359-14.21
					c-2.937-0.288-5.873-1.032-8.512-2.055c-3.074,4.105-6.447,8.36-8.936,11.283c-0.737,0.881-1.763,1.183-2.5,1.183
					c-0.863,0-1.602-0.448-1.602-1.617c0-0.881,0.587-2.199,2.051-3.965C2897.435,109.957,2900.07,106.437,2902.419,103.364
					 M2908.282,93.983c1.019-1.897,1.898-4.396,1.898-6.895c0-2.776-0.726-3.805-1.751-3.805c-1.628,0-2.937,2.353-2.937,4.55
					C2905.494,90.321,2906.958,92.814,2908.282,93.983"/>
				<path clip-path="url(#SVGID_80_)" fill="#494543" d="M2945.044,100.582c-1.762-2.64-3.074-5.269-3.074-8.353
					c0-8.644,10.111-16.117,16.262-16.117c2.639,0,4.549,1.318,4.549,4.543c0,4.538-4.836,10.987-8.36,15.384
					c4.25,5.274,9.974,11.43,9.974,18.174c7.763,1.021,13.319,4.241,13.319,9.669c0,2.924-2.621,9.229-5.407,9.229
					c-0.588,0-1.024-0.29-1.024-1.021c0-1.028,0.875-1.903,0.875-3.812c0-3.668-3.226-6.452-9.086-7.769
					c-3.076,7.915-11.137,10.553-18.024,10.553c-3.373,0-10.398-1.46-10.398-6.014c0-4.397,6.887-9.081,20.073-10.694
					c-1.312-3.51-4.25-6.588-6.897-9.962l-10.101,12.306c-0.587,0.734-1.612,1.183-2.499,1.183c-0.875,0-1.613-0.448-1.613-1.617
					c0-0.881,0.594-2.199,2.062-3.965C2938.301,109.227,2941.97,104.541,2945.044,100.582 M2955.006,119.634
					c-5.86,0-12.737,0.443-12.737,4.248c0,1.761,1.164,2.788,3.215,2.788C2949.593,126.67,2953.832,124.03,2955.006,119.634
					 M2950.03,87.391c0,1.617,0.57,2.931,1.464,4.401c1.911-2.932,3.656-5.861,3.812-7.923c0-1.017-0.3-1.602-1.034-1.602
					C2952.519,82.268,2950.03,84.896,2950.03,87.391"/>
			</g>
		</g>
		<g clip-path="url(#SVGID_42_)">
			<g>
				<defs>
					<rect id="SVGID_81_" width="3056" height="371.75"/>
				</defs>
				<clipPath id="SVGID_82_">
					<use xlink:href="#SVGID_81_"  overflow="visible"/>
				</clipPath>
				<g clip-path="url(#SVGID_82_)">
					<path fill="#494543" d="M1536.446,210.835v-39.22h4.187v35.474h20.052v3.746H1536.446z"/>
					<path fill="#494543" d="M1567.187,180.979v-9.364h4.352v9.364H1567.187z"/>
					<path fill="#494543" d="M1581.122,176.021v-4.462h4.462v4.462H1581.122z M1581.343,210.835v-27.102h3.967v27.102H1581.343z"/>
					<path fill="#494543" d="M1630.092,210.835v-16.69c0-4.792-2.589-7.216-6.665-7.216c-3.966,0-6.775,2.479-6.775,6.775v17.131
						h-3.965v-16.69c0-4.792-2.59-7.216-6.666-7.216s-6.774,2.479-6.774,7.216v16.69h-3.966v-27.102h3.966v2.975
						c1.928-2.203,4.627-3.305,7.655-3.305c3.746,0,6.666,1.542,8.318,4.517c2.094-2.975,5.122-4.517,8.924-4.517
						c2.92,0,5.344,0.937,6.995,2.533c1.929,1.873,2.921,4.407,2.921,7.547v17.352H1630.092z"/>
					<path fill="#494543" d="M1661.935,208.797c-1.434,1.433-3.855,2.368-6.61,2.368c-2.976,0-5.453-0.716-7.656-3.525v15.313
						h-3.966v-39.22h3.966v3.195c2.203-2.864,4.683-3.525,7.656-3.525c2.755,0,5.178,0.937,6.61,2.368
						c2.754,2.754,3.305,7.271,3.305,11.513C1665.239,201.526,1664.688,206.043,1661.935,208.797z M1654.497,186.929
						c-5.895,0-6.83,5.067-6.83,10.355c0,5.288,0.938,10.355,6.83,10.355c5.895,0,6.775-5.067,6.775-10.355
						C1661.272,191.996,1660.392,186.929,1654.497,186.929z"/>
					<path fill="#494543" d="M1688.871,188.911c-1.487-1.487-2.589-1.982-4.683-1.982c-3.967,0-6.5,3.14-6.5,7.271v16.636h-3.965
						v-27.102h3.965v3.306c1.487-2.259,4.463-3.636,7.603-3.636c2.589,0,4.572,0.605,6.5,2.533L1688.871,188.911z"/>
					<path fill="#494543" d="M1696.694,176.021v-4.462h4.462v4.462H1696.694z M1696.915,210.835v-27.102h3.966v27.102H1696.915z"/>
					<path fill="#494543" d="M1745.665,210.835v-16.69c0-4.792-2.589-7.216-6.665-7.216c-3.966,0-6.774,2.479-6.774,6.775v17.131
						h-3.967v-16.69c0-4.792-2.589-7.216-6.665-7.216c-4.075,0-6.774,2.479-6.774,7.216v16.69h-3.967v-27.102h3.967v2.975
						c1.928-2.203,4.627-3.305,7.656-3.305c3.745,0,6.664,1.542,8.317,4.517c2.093-2.975,5.122-4.517,8.923-4.517
						c2.92,0,5.344,0.937,6.996,2.533c1.928,1.873,2.92,4.407,2.92,7.547v17.352H1745.665z"/>
					<path fill="#494543" d="M1761.753,198.331c0,5.949,2.811,9.364,7.987,9.364c3.14,0,4.957-0.937,7.104-3.085l2.699,2.369
						c-2.754,2.754-5.288,4.186-9.915,4.186c-7.161,0-11.843-4.296-11.843-13.881c0-8.759,4.24-13.881,11.127-13.881
						c6.995,0,11.127,5.067,11.127,13.109v1.818L1761.753,198.331L1761.753,198.331z M1775.248,190.84
						c-1.046-2.479-3.47-4.077-6.334-4.077s-5.288,1.598-6.335,4.077c-0.605,1.486-0.716,2.313-0.826,4.517h14.321
						C1775.965,193.153,1775.854,192.326,1775.248,190.84z"/>
					<path fill="#494543" d="M1803.618,188.911c-1.487-1.487-2.589-1.982-4.682-1.982c-3.967,0-6.5,3.14-6.5,7.271v16.636h-3.967
						v-27.102h3.967v3.306c1.486-2.259,4.461-3.636,7.602-3.636c2.589,0,4.572,0.605,6.5,2.533L1803.618,188.911z"/>
					<path fill="#494543" d="M1811.44,176.021v-4.462h4.463v4.462H1811.44z M1811.662,210.835v-27.102h3.966v27.102H1811.662z"/>
					<path fill="#494543" d="M1828.077,198.331c0,5.949,2.811,9.364,7.986,9.364c3.141,0,4.957-0.937,7.105-3.085l2.699,2.369
						c-2.754,2.754-5.288,4.186-9.915,4.186c-7.161,0-11.843-4.296-11.843-13.881c0-8.759,4.24-13.881,11.127-13.881
						c6.994,0,11.127,5.067,11.127,13.109v1.818L1828.077,198.331L1828.077,198.331z M1841.572,190.84
						c-1.046-2.479-3.47-4.077-6.334-4.077s-5.288,1.598-6.335,4.077c-0.606,1.486-0.717,2.313-0.826,4.517h14.32
						C1842.289,193.153,1842.179,192.326,1841.572,190.84z"/>
				</g>
			</g>
			<g>
				<defs>
					<rect id="SVGID_83_" width="3056" height="371.75"/>
				</defs>
				<clipPath id="SVGID_84_">
					<use xlink:href="#SVGID_83_"  overflow="visible"/>
				</clipPath>
				<g clip-path="url(#SVGID_84_)">
					<path fill="#494543" d="M1870.997,198.331c0,5.949,2.811,9.364,7.986,9.364c3.141,0,4.957-0.937,7.105-3.085l2.699,2.369
						c-2.754,2.754-5.288,4.186-9.915,4.186c-7.161,0-11.843-4.296-11.843-13.881c0-8.759,4.24-13.881,11.127-13.881
						c6.994,0,11.127,5.067,11.127,13.109v1.818L1870.997,198.331L1870.997,198.331z M1884.492,190.84
						c-1.046-2.479-3.47-4.077-6.334-4.077s-5.288,1.598-6.335,4.077c-0.606,1.486-0.717,2.313-0.826,4.517h14.32
						C1885.209,193.153,1885.099,192.326,1884.492,190.84z"/>
				</g>
			</g>
			<g>
				<defs>
					<rect id="SVGID_85_" width="3056" height="371.75"/>
				</defs>
				<clipPath id="SVGID_86_">
					<use xlink:href="#SVGID_85_"  overflow="visible"/>
				</clipPath>
				<g clip-path="url(#SVGID_86_)">
					<path fill="#494543" d="M1912.474,210.835l-6.498-10.521l-6.61,10.521h-4.793l9.198-13.826l-8.812-13.275h4.793l6.225,10.025
						l6.114-10.025h4.792l-8.812,13.275l9.199,13.826H1912.474z"/>
					<path fill="#494543" d="M1942.276,208.797c-1.434,1.433-3.855,2.368-6.61,2.368c-2.976,0-5.453-0.716-7.656-3.525v15.313
						h-3.966v-39.22h3.966v3.195c2.203-2.864,4.683-3.525,7.656-3.525c2.755,0,5.178,0.937,6.61,2.368
						c2.754,2.754,3.305,7.271,3.305,11.513C1945.581,201.526,1945.03,206.043,1942.276,208.797z M1934.84,186.929
						c-5.894,0-6.83,5.067-6.83,10.355c0,5.288,0.938,10.355,6.83,10.355c5.896,0,6.775-5.067,6.775-10.355
						C1941.615,191.996,1940.733,186.929,1934.84,186.929z"/>
				</g>
			</g>
			<g>
				<defs>
					<rect id="SVGID_87_" width="3056" height="371.75"/>
				</defs>
				<clipPath id="SVGID_88_">
					<use xlink:href="#SVGID_87_"  overflow="visible"/>
				</clipPath>
				<g clip-path="url(#SVGID_88_)">
					<path fill="#494543" d="M1969.217,188.911c-1.487-1.487-2.589-1.982-4.682-1.982c-3.968,0-6.5,3.14-6.5,7.271v16.636h-3.966
						v-27.102h3.966v3.306c1.487-2.259,4.462-3.636,7.603-3.636c2.588,0,4.571,0.605,6.5,2.533L1969.217,188.911z"/>
				</g>
			</g>
			<g>
				<defs>
					<rect id="SVGID_89_" width="3056" height="371.75"/>
				</defs>
				<clipPath id="SVGID_90_">
					<use xlink:href="#SVGID_89_"  overflow="visible"/>
				</clipPath>
				<g clip-path="url(#SVGID_90_)">
					<path fill="#494543" d="M1979.739,198.331c0,5.949,2.81,9.364,7.986,9.364c3.141,0,4.957-0.937,7.105-3.085l2.699,2.369
						c-2.754,2.754-5.288,4.186-9.915,4.186c-7.161,0-11.843-4.296-11.843-13.881c0-8.759,4.24-13.881,11.127-13.881
						c6.994,0,11.127,5.067,11.127,13.109v1.818L1979.739,198.331L1979.739,198.331z M1993.233,190.84
						c-1.045-2.479-3.469-4.077-6.334-4.077c-2.863,0-5.287,1.598-6.334,4.077c-0.606,1.486-0.717,2.313-0.826,4.517h14.32
						C1993.951,193.153,1993.841,192.326,1993.233,190.84z"/>
				</g>
			</g>
			<g>
				<defs>
					<rect id="SVGID_91_" width="3056" height="371.75"/>
				</defs>
				<clipPath id="SVGID_92_">
					<use xlink:href="#SVGID_91_"  overflow="visible"/>
				</clipPath>
				<g clip-path="url(#SVGID_92_)">
					<path fill="#494543" d="M2014.997,211.165c-4.572,0-8.153-1.046-11.128-3.91l2.645-2.645c2.148,2.259,5.067,3.14,8.429,3.14
						c4.461,0,7.215-1.598,7.215-4.792c0-2.369-1.377-3.69-4.517-3.966l-4.462-0.386c-5.288-0.44-8.098-2.81-8.098-7.271
						c0-4.957,4.187-7.932,9.971-7.932c3.855,0,7.326,0.937,9.75,2.919l-2.589,2.589c-1.929-1.487-4.407-2.148-7.216-2.148
						c-3.967,0-6.061,1.708-6.061,4.462c0,2.313,1.322,3.691,4.737,3.967l4.353,0.385c4.736,0.441,7.986,2.259,7.986,7.326
						C2026.015,208.136,2021.552,211.165,2014.997,211.165z"/>
				</g>
			</g>
			<g>
				<defs>
					<rect id="SVGID_93_" width="3056" height="371.75"/>
				</defs>
				<clipPath id="SVGID_94_">
					<use xlink:href="#SVGID_93_"  overflow="visible"/>
				</clipPath>
				<g clip-path="url(#SVGID_94_)">
					<path fill="#494543" d="M2042.317,211.165c-4.571,0-8.152-1.046-11.127-3.91l2.645-2.645c2.148,2.259,5.066,3.14,8.428,3.14
						c4.463,0,7.217-1.598,7.217-4.792c0-2.369-1.377-3.69-4.518-3.966l-4.462-0.386c-5.288-0.44-8.099-2.81-8.099-7.271
						c0-4.957,4.188-7.932,9.972-7.932c3.854,0,7.326,0.937,9.75,2.919l-2.589,2.589c-1.928-1.487-4.407-2.148-7.217-2.148
						c-3.967,0-6.06,1.708-6.06,4.462c0,2.313,1.322,3.691,4.737,3.967l4.352,0.385c4.737,0.441,7.987,2.259,7.987,7.326
						C2053.335,208.136,2048.873,211.165,2042.317,211.165z"/>
				</g>
			</g>
			<g>
				<defs>
					<rect id="SVGID_95_" width="3056" height="371.75"/>
				</defs>
				<clipPath id="SVGID_96_">
					<use xlink:href="#SVGID_95_"  overflow="visible"/>
				</clipPath>
				<g clip-path="url(#SVGID_96_)">
					<path fill="#494543" d="M2089.969,188.911c-1.487-1.487-2.589-1.982-4.682-1.982c-3.967,0-6.5,3.14-6.5,7.271v16.636h-3.966
						v-27.102h3.966v3.306c1.487-2.259,4.462-3.636,7.603-3.636c2.589,0,4.571,0.605,6.5,2.533L2089.969,188.911z"/>
				</g>
			</g>
			<g>
				<defs>
					<rect id="SVGID_97_" width="3056" height="371.75"/>
				</defs>
				<clipPath id="SVGID_98_">
					<use xlink:href="#SVGID_97_"  overflow="visible"/>
				</clipPath>
				<g clip-path="url(#SVGID_98_)">
					<path fill="#494543" d="M2100.491,198.331c0,5.949,2.81,9.364,7.986,9.364c3.141,0,4.957-0.937,7.105-3.085l2.699,2.369
						c-2.754,2.754-5.288,4.186-9.915,4.186c-7.161,0-11.843-4.296-11.843-13.881c0-8.759,4.24-13.881,11.127-13.881
						c6.994,0,11.127,5.067,11.127,13.109v1.818L2100.491,198.331L2100.491,198.331z M2113.986,190.84
						c-1.046-2.479-3.47-4.077-6.334-4.077s-5.288,1.598-6.335,4.077c-0.606,1.486-0.717,2.313-0.826,4.517h14.321
						C2114.703,193.153,2114.593,192.326,2113.986,190.84z M2108.754,178.115h-3.636l4.848-8.428h4.737L2108.754,178.115z"/>
					<path fill="#494543" d="M2135.747,211.165c-4.572,0-8.153-1.046-11.128-3.91l2.646-2.645c2.147,2.259,5.066,3.14,8.428,3.14
						c4.462,0,7.216-1.598,7.216-4.792c0-2.369-1.377-3.69-4.517-3.966l-4.463-0.386c-5.287-0.44-8.098-2.81-8.098-7.271
						c0-4.957,4.188-7.932,9.971-7.932c3.855,0,7.326,0.937,9.75,2.919l-2.589,2.589c-1.928-1.487-4.407-2.148-7.216-2.148
						c-3.967,0-6.061,1.708-6.061,4.462c0,2.313,1.322,3.691,4.737,3.967l4.353,0.385c4.736,0.441,7.986,2.259,7.986,7.326
						C2146.764,208.136,2142.302,211.165,2135.747,211.165z"/>
					<path fill="#494543" d="M2157.011,198.331c0,5.949,2.811,9.364,7.987,9.364c3.14,0,4.957-0.937,7.104-3.085l2.699,2.369
						c-2.754,2.754-5.288,4.186-9.915,4.186c-7.161,0-11.843-4.296-11.843-13.881c0-8.759,4.241-13.881,11.127-13.881
						c6.995,0,11.127,5.067,11.127,13.109v1.818L2157.011,198.331L2157.011,198.331z M2170.506,190.84
						c-1.046-2.479-3.47-4.077-6.334-4.077s-5.288,1.598-6.335,4.077c-0.605,1.486-0.716,2.313-0.826,4.517h14.321
						C2171.223,193.153,2171.112,192.326,2170.506,190.84z"/>
					<path fill="#494543" d="M2198.876,188.911c-1.487-1.487-2.589-1.982-4.682-1.982c-3.967,0-6.5,3.14-6.5,7.271v16.636h-3.967
						v-27.102h3.967v3.306c1.486-2.259,4.462-3.636,7.602-3.636c2.59,0,4.572,0.605,6.5,2.533L2198.876,188.911z"/>
				</g>
			</g>
			<g>
				<defs>
					<rect id="SVGID_99_" width="3056" height="371.75"/>
				</defs>
				<clipPath id="SVGID_100_">
					<use xlink:href="#SVGID_99_"  overflow="visible"/>
				</clipPath>
				<g clip-path="url(#SVGID_100_)">
					<path fill="#494543" d="M2216.011,210.835h-3.524l-9.916-27.102h4.297l7.382,21.759l7.437-21.759h4.297L2216.011,210.835z"/>
				</g>
			</g>
			<g>
				<defs>
					<rect id="SVGID_101_" width="3056" height="371.75"/>
				</defs>
				<clipPath id="SVGID_102_">
					<use xlink:href="#SVGID_101_"  overflow="visible"/>
				</clipPath>
				<g clip-path="url(#SVGID_102_)">
					<path fill="#494543" d="M2234.021,198.331c0,5.949,2.811,9.364,7.987,9.364c3.14,0,4.957-0.937,7.105-3.085l2.698,2.369
						c-2.754,2.754-5.287,4.186-9.914,4.186c-7.161,0-11.844-4.296-11.844-13.881c0-8.759,4.241-13.881,11.127-13.881
						c6.995,0,11.127,5.067,11.127,13.109v1.818L2234.021,198.331L2234.021,198.331z M2247.517,190.84
						c-1.045-2.479-3.47-4.077-6.334-4.077c-2.863,0-5.287,1.598-6.334,4.077c-0.606,1.486-0.717,2.313-0.826,4.517h14.32
						C2248.233,193.153,2248.123,192.326,2247.517,190.84z M2242.284,178.115h-3.637l4.849-8.428h4.737L2242.284,178.115z"/>
					<path fill="#494543" d="M2263.218,198.331c0,5.949,2.811,9.364,7.987,9.364c3.14,0,4.957-0.937,7.104-3.085l2.699,2.369
						c-2.754,2.754-5.288,4.186-9.915,4.186c-7.161,0-11.843-4.296-11.843-13.881c0-8.759,4.241-13.881,11.127-13.881
						c6.995,0,11.127,5.067,11.127,13.109v1.818L2263.218,198.331L2263.218,198.331z M2276.713,190.84
						c-1.046-2.479-3.47-4.077-6.334-4.077s-5.288,1.598-6.335,4.077c-0.605,1.486-0.716,2.313-0.826,4.517h14.321
						C2277.43,193.153,2277.319,192.326,2276.713,190.84z"/>
					<path fill="#494543" d="M2319.021,210.835v-2.589c-2.202,2.203-4.187,2.919-7.821,2.919c-3.745,0-5.949-0.716-7.656-2.479
						c-1.322-1.322-2.038-3.36-2.038-5.508c0-4.737,3.305-7.822,9.364-7.822h8.151v-2.589c0-3.967-1.982-5.949-6.939-5.949
						c-3.471,0-5.232,0.826-6.831,3.085l-2.699-2.479c2.425-3.14,5.179-4.021,9.585-4.021c7.271,0,10.853,3.14,10.853,9.033v18.398
						L2319.021,210.835L2319.021,210.835z M2319.021,198.331h-7.602c-4.076,0-6.061,1.652-6.061,4.792s1.929,4.627,6.226,4.627
						c2.313,0,4.353-0.165,6.06-1.817c0.938-0.882,1.377-2.424,1.377-4.683V198.331z"/>
					<path fill="#494543" d="M2349.759,210.835v-3.029c-1.928,2.203-4.627,3.359-7.656,3.359c-2.92,0-5.344-0.881-6.996-2.533
						c-1.928-1.873-2.754-4.462-2.754-7.602v-17.297h3.967v16.69c0,4.793,2.533,7.216,6.609,7.216s6.774-2.479,6.774-7.216v-16.69
						h3.967v27.102H2349.759z"/>
					<path fill="#494543" d="M2378.349,210.835l-6.498-10.521l-6.61,10.521h-4.793l9.198-13.826l-8.812-13.275h4.793l6.225,10.025
						l6.114-10.025h4.792l-8.812,13.275l9.199,13.826H2378.349z"/>
					<path fill="#494543" d="M2421.867,208.797c-1.434,1.433-3.855,2.368-6.61,2.368c-2.975,0-5.453-0.716-7.656-3.525v15.313
						h-3.966v-39.22h3.966v3.195c2.203-2.864,4.682-3.525,7.656-3.525c2.755,0,5.178,0.937,6.61,2.368
						c2.754,2.754,3.305,7.271,3.305,11.513C2425.172,201.526,2424.621,206.043,2421.867,208.797z M2414.431,186.929
						c-5.894,0-6.83,5.067-6.83,10.355c0,5.288,0.938,10.355,6.83,10.355c5.896,0,6.775-5.067,6.775-10.355
						C2421.206,191.996,2420.325,186.929,2414.431,186.929z"/>
				</g>
			</g>
			<g>
				<defs>
					<rect id="SVGID_103_" width="3056" height="371.75"/>
				</defs>
				<clipPath id="SVGID_104_">
					<use xlink:href="#SVGID_103_"  overflow="visible"/>
				</clipPath>
				<g clip-path="url(#SVGID_104_)">
					<path fill="#494543" d="M2448.813,188.911c-1.486-1.487-2.589-1.982-4.682-1.982c-3.967,0-6.5,3.14-6.5,7.271v16.636h-3.966
						v-27.102h3.966v3.306c1.487-2.259,4.462-3.636,7.603-3.636c2.589,0,4.571,0.605,6.5,2.533L2448.813,188.911z"/>
				</g>
			</g>
			<g>
				<defs>
					<rect id="SVGID_105_" width="3056" height="371.75"/>
				</defs>
				<clipPath id="SVGID_106_">
					<use xlink:href="#SVGID_105_"  overflow="visible"/>
				</clipPath>
				<g clip-path="url(#SVGID_106_)">
					<path fill="#494543" d="M2474.264,208.081c-1.873,1.872-4.462,3.084-7.767,3.084c-3.307,0-5.896-1.212-7.769-3.084
						c-2.754-2.81-3.305-6.61-3.305-10.797s0.551-7.987,3.305-10.797c1.873-1.872,4.462-3.084,7.769-3.084
						c3.305,0,5.894,1.212,7.767,3.084c2.754,2.81,3.306,6.61,3.306,10.797S2477.019,205.271,2474.264,208.081z M2471.454,188.911
						c-1.268-1.267-3.029-1.982-4.957-1.982c-1.929,0-3.636,0.716-4.903,1.982c-1.981,1.983-2.202,5.344-2.202,8.373
						c0,3.029,0.221,6.39,2.202,8.373c1.269,1.267,2.976,1.982,4.903,1.982s3.689-0.716,4.957-1.982
						c1.982-1.983,2.148-5.344,2.148-8.373C2473.603,194.255,2473.438,190.895,2471.454,188.911z"/>
					<path fill="#494543" d="M2494.592,211.165c-4.571,0-8.153-1.046-11.128-3.91l2.646-2.645c2.147,2.259,5.066,3.14,8.428,3.14
						c4.462,0,7.216-1.598,7.216-4.792c0-2.369-1.377-3.69-4.517-3.966l-4.462-0.386c-5.288-0.44-8.098-2.81-8.098-7.271
						c0-4.957,4.187-7.932,9.971-7.932c3.854,0,7.326,0.937,9.75,2.919l-2.59,2.589c-1.928-1.487-4.406-2.148-7.216-2.148
						c-3.967,0-6.06,1.708-6.06,4.462c0,2.313,1.322,3.691,4.736,3.967l4.353,0.385c4.737,0.441,7.987,2.259,7.987,7.326
						C2505.608,208.136,2501.146,211.165,2494.592,211.165z"/>
					<path fill="#494543" d="M2543.287,210.835v-3.25c-2.203,2.864-4.737,3.58-7.712,3.58c-2.754,0-5.178-0.936-6.61-2.368
						c-2.754-2.754-3.305-7.271-3.305-11.513c0-4.242,0.551-8.759,3.305-11.513c1.434-1.432,3.856-2.368,6.61-2.368
						c2.975,0,5.453,0.661,7.657,3.47v-15.258h3.966v39.22H2543.287z M2536.457,186.929c-5.896,0-6.831,5.067-6.831,10.355
						c0,5.288,0.938,10.355,6.831,10.355s6.774-5.067,6.774-10.355C2543.231,191.996,2542.351,186.929,2536.457,186.929z"/>
					<path fill="#494543" d="M2559.595,198.331c0,5.949,2.811,9.364,7.987,9.364c3.14,0,4.957-0.937,7.104-3.085l2.699,2.369
						c-2.754,2.754-5.288,4.186-9.915,4.186c-7.161,0-11.843-4.296-11.843-13.881c0-8.759,4.241-13.881,11.127-13.881
						c6.995,0,11.127,5.067,11.127,13.109v1.818L2559.595,198.331L2559.595,198.331z M2573.09,190.84
						c-1.046-2.479-3.47-4.077-6.334-4.077s-5.288,1.598-6.335,4.077c-0.605,1.486-0.716,2.313-0.826,4.517h14.321
						C2573.807,193.153,2573.696,192.326,2573.09,190.84z"/>
					<path fill="#494543" d="M2594.851,211.165c-4.571,0-8.152-1.046-11.127-3.91l2.645-2.645c2.148,2.259,5.066,3.14,8.428,3.14
						c4.462,0,7.217-1.598,7.217-4.792c0-2.369-1.377-3.69-4.518-3.966l-4.462-0.386c-5.288-0.44-8.098-2.81-8.098-7.271
						c0-4.957,4.187-7.932,9.971-7.932c3.854,0,7.326,0.937,9.75,2.919l-2.589,2.589c-1.928-1.487-4.407-2.148-7.217-2.148
						c-3.967,0-6.06,1.708-6.06,4.462c0,2.313,1.322,3.691,4.737,3.967l4.352,0.385c4.737,0.441,7.987,2.259,7.987,7.326
						C2605.867,208.136,2601.405,211.165,2594.851,211.165z"/>
					<path fill="#494543" d="M2642.72,210.835v-2.589c-2.203,2.203-4.187,2.919-7.822,2.919c-3.744,0-5.948-0.716-7.655-2.479
						c-1.322-1.322-2.038-3.36-2.038-5.508c0-4.737,3.305-7.822,9.363-7.822h8.152v-2.589c0-3.967-1.982-5.949-6.939-5.949
						c-3.471,0-5.233,0.826-6.831,3.085l-2.699-2.479c2.424-3.14,5.179-4.021,9.585-4.021c7.271,0,10.852,3.14,10.852,9.033v18.398
						L2642.72,210.835L2642.72,210.835z M2642.72,198.331h-7.602c-4.076,0-6.061,1.652-6.061,4.792s1.928,4.627,6.226,4.627
						c2.312,0,4.352-0.165,6.06-1.817c0.938-0.882,1.377-2.424,1.377-4.683V198.331z"/>
					<path fill="#494543" d="M2671.476,188.911c-1.487-1.487-2.59-1.982-4.683-1.982c-3.967,0-6.5,3.14-6.5,7.271v16.636h-3.966
						v-27.102h3.966v3.306c1.487-2.259,4.462-3.636,7.603-3.636c2.589,0,4.572,0.605,6.5,2.533L2671.476,188.911z"/>
					<path fill="#494543" d="M2687.12,210.835c-4.628,0-6.941-3.25-6.941-7.271v-16.635h-3.414v-3.03h3.414v-8.482h3.968v8.482
						h5.782v3.03h-5.782v16.525c0,2.479,1.155,3.966,3.689,3.966h2.093v3.415H2687.12z"/>
					<path fill="#494543" d="M2706.345,211.165c-4.572,0-8.152-1.046-11.128-3.91l2.646-2.645c2.147,2.259,5.066,3.14,8.428,3.14
						c4.462,0,7.216-1.598,7.216-4.792c0-2.369-1.377-3.69-4.517-3.966l-4.462-0.386c-5.288-0.44-8.099-2.81-8.099-7.271
						c0-4.957,4.188-7.932,9.972-7.932c3.854,0,7.325,0.937,9.75,2.919l-2.589,2.589c-1.929-1.487-4.407-2.148-7.217-2.148
						c-3.967,0-6.06,1.708-6.06,4.462c0,2.313,1.321,3.691,4.737,3.967l4.352,0.385c4.737,0.441,7.987,2.259,7.987,7.326
						C2717.361,208.136,2712.899,211.165,2706.345,211.165z"/>
					<path fill="#494543" d="M2747.549,223.284c-4.075,0-6.335-1.047-9.198-3.636l2.589-2.534c1.982,1.763,3.36,2.699,6.5,2.699
						c5.232,0,7.437-3.69,7.437-8.317v-4.241c-2.203,2.809-4.683,3.525-7.602,3.525c-2.755,0-5.123-0.992-6.557-2.424
						c-2.698-2.699-3.305-6.886-3.305-11.293c0-4.406,0.605-8.593,3.305-11.292c1.434-1.432,3.856-2.368,6.61-2.368
						c2.976,0,5.398,0.661,7.603,3.525v-3.195h3.91v27.928C2758.841,218.382,2754.654,223.284,2747.549,223.284z M2748.154,186.929
						c-5.895,0-6.775,5.067-6.775,10.135s0.882,10.136,6.775,10.136c5.895,0,6.721-5.067,6.721-10.136
						C2754.875,191.996,2754.049,186.929,2748.154,186.929z"/>
				</g>
			</g>
			<g>
				<defs>
					<rect id="SVGID_107_" width="3056" height="371.75"/>
				</defs>
				<clipPath id="SVGID_108_">
					<use xlink:href="#SVGID_107_"  overflow="visible"/>
				</clipPath>
				<g clip-path="url(#SVGID_108_)">
					<path fill="#494543" d="M2783.91,188.911c-1.487-1.487-2.589-1.982-4.683-1.982c-3.967,0-6.5,3.14-6.5,7.271v16.636h-3.966
						v-27.102h3.966v3.306c1.487-2.259,4.463-3.636,7.603-3.636c2.589,0,4.572,0.605,6.5,2.533L2783.91,188.911z"/>
				</g>
			</g>
			<g>
				<defs>
					<rect id="SVGID_109_" width="3056" height="371.75"/>
				</defs>
				<clipPath id="SVGID_110_">
					<use xlink:href="#SVGID_109_"  overflow="visible"/>
				</clipPath>
				<g clip-path="url(#SVGID_110_)">
					<path fill="#494543" d="M2807.326,210.835v-2.589c-2.203,2.203-4.188,2.919-7.822,2.919c-3.745,0-5.949-0.716-7.656-2.479
						c-1.321-1.322-2.038-3.36-2.038-5.508c0-4.737,3.305-7.822,9.364-7.822h8.152v-2.589c0-3.967-1.983-5.949-6.94-5.949
						c-3.471,0-5.232,0.826-6.831,3.085l-2.698-2.479c2.424-3.14,5.179-4.021,9.584-4.021c7.271,0,10.853,3.14,10.853,9.033v18.398
						L2807.326,210.835L2807.326,210.835z M2807.326,198.331h-7.603c-4.076,0-6.06,1.652-6.06,4.792s1.928,4.627,6.225,4.627
						c2.313,0,4.353-0.165,6.061-1.817c0.937-0.882,1.377-2.424,1.377-4.683V198.331z"/>
					<path fill="#494543" d="M2839.166,208.797c-1.433,1.433-3.854,2.368-6.61,2.368c-2.975,0-5.453-0.716-7.656-3.525v15.313
						h-3.966v-39.22h3.966v3.195c2.203-2.864,4.683-3.525,7.656-3.525c2.755,0,5.178,0.937,6.61,2.368
						c2.754,2.754,3.305,7.271,3.305,11.513C2842.471,201.526,2841.92,206.043,2839.166,208.797z M2831.729,186.929
						c-5.895,0-6.83,5.067-6.83,10.355c0,5.288,0.937,10.355,6.83,10.355c5.895,0,6.774-5.067,6.774-10.355
						C2838.504,191.996,2837.624,186.929,2831.729,186.929z"/>
					<path fill="#494543" d="M2868.308,210.835V194.09c0-4.737-2.533-7.161-6.609-7.161s-6.775,2.479-6.775,7.161v16.745h-3.966
						v-39.22h3.966v15.093c1.982-2.259,4.572-3.305,7.603-3.305c6.114,0,9.75,3.911,9.75,10.025v17.406L2868.308,210.835
						L2868.308,210.835z"/>
					<path fill="#494543" d="M2881.694,176.021v-4.462h4.462v4.462H2881.694z M2881.915,210.835v-27.102h3.966v27.102H2881.915z"/>
					<path fill="#494543" d="M2911.991,222.953V207.64c-2.204,2.81-4.684,3.525-7.657,3.525c-2.754,0-5.178-0.936-6.61-2.368
						c-2.754-2.754-3.305-7.271-3.305-11.513c0-4.242,0.551-8.759,3.305-11.513c1.434-1.432,3.856-2.368,6.61-2.368
						c2.976,0,5.509,0.661,7.712,3.525v-3.195h3.911v39.22H2911.991z M2905.216,186.929c-5.895,0-6.831,5.067-6.831,10.355
						c0,5.288,0.938,10.355,6.831,10.355c5.895,0,6.775-5.067,6.775-10.355C2911.991,191.996,2911.108,186.929,2905.216,186.929z"/>
					<path fill="#494543" d="M2943.006,210.835v-3.029c-1.928,2.203-4.627,3.359-7.657,3.359c-2.918,0-5.343-0.881-6.994-2.533
						c-1.929-1.873-2.754-4.462-2.754-7.602v-17.297h3.966v16.69c0,4.793,2.532,7.216,6.61,7.216c4.075,0,6.774-2.479,6.774-7.216
						v-16.69h3.966v27.102H2943.006z"/>
					<path fill="#494543" d="M2959.312,198.331c0,5.949,2.811,9.364,7.987,9.364c3.14,0,4.957-0.937,7.105-3.085l2.698,2.369
						c-2.754,2.754-5.287,4.186-9.914,4.186c-7.161,0-11.844-4.296-11.844-13.881c0-8.759,4.241-13.881,11.127-13.881
						c6.995,0,11.127,5.067,11.127,13.109v1.818L2959.312,198.331L2959.312,198.331z M2972.808,190.84
						c-1.045-2.479-3.47-4.077-6.334-4.077c-2.863,0-5.287,1.598-6.334,4.077c-0.606,1.486-0.717,2.313-0.826,4.517h14.32
						C2973.524,193.153,2973.414,192.326,2972.808,190.84z"/>
					<path fill="#494543" d="M2994.568,211.165c-4.572,0-8.153-1.046-11.128-3.91l2.645-2.645c2.148,2.259,5.067,3.14,8.428,3.14
						c4.463,0,7.217-1.598,7.217-4.792c0-2.369-1.377-3.69-4.518-3.966l-4.462-0.386c-5.288-0.44-8.098-2.81-8.098-7.271
						c0-4.957,4.187-7.932,9.971-7.932c3.855,0,7.326,0.937,9.75,2.919l-2.589,2.589c-1.928-1.487-4.407-2.148-7.216-2.148
						c-3.968,0-6.061,1.708-6.061,4.462c0,2.313,1.322,3.691,4.737,3.967l4.352,0.385c4.737,0.441,7.987,2.259,7.987,7.326
						C3005.585,208.136,3001.123,211.165,2994.568,211.165z"/>
				</g>
			</g>
		</g>
	</g>
</g>
</svg>
