<?xml version="1.0" encoding="utf-8"?>
<!-- Generator: Adobe Illustrator 16.0.0, SVG Export Plug-In . SVG Version: 6.00 Build 0)  -->
<!DOCTYPE svg PUBLIC "-//W3C//DTD SVG 1.1//EN" "http://www.w3.org/Graphics/SVG/1.1/DTD/svg11.dtd">
<svg version="1.1" id="Calque_1" xmlns="http://www.w3.org/2000/svg" xmlns:xlink="http://www.w3.org/1999/xlink" x="0px" y="0px"
	 width="595.277px" height="99.211px" viewBox="0 0 595.277 99.211" enable-background="new 0 0 595.277 99.211"
	 xml:space="preserve">
<line fill="none" stroke="#3F3F3E" stroke-width="0.503" x1="207.821" y1="36.412" x2="207.821" y2="64.5"/>
<g>
	<path fill="#E4005B" d="M302.509,64.76h-1.031l-1.049-3.193l-1.051,3.193h-1.029l-1.541-5.088h1.329l0.809,3.145l1.021-3.145h0.914
		l1.031,3.145l0.809-3.145h1.318L302.509,64.76z"/>
	<path fill="#E4005B" d="M309.81,64.76h-1.029l-1.049-3.193l-1.051,3.193h-1.029l-1.541-5.088h1.328l0.809,3.145l1.021-3.145h0.914
		l1.031,3.145l0.809-3.145h1.318L309.81,64.76z"/>
	<path fill="#E4005B" d="M317.113,64.76h-1.031l-1.049-3.193l-1.049,3.193h-1.031l-1.541-5.088h1.33l0.809,3.145l1.02-3.145h0.916
		l1.029,3.145l0.809-3.145h1.32L317.113,64.76z"/>
	<path fill="#E4005B" d="M318.964,64.76v-1.445h1.436v1.445H318.964z"/>
	<path fill="#E4005B" d="M322.738,62.611c0,0.654,0.395,1.133,1.098,1.133c0.549,0,0.818-0.156,1.137-0.479l0.76,0.752
		c-0.51,0.518-1.002,0.801-1.906,0.801c-1.184,0-2.32-0.547-2.32-2.607c0-1.66,0.885-2.598,2.186-2.598
		c1.396,0,2.186,1.035,2.186,2.432v0.566H322.738z M324.529,61.195c-0.135-0.303-0.414-0.527-0.838-0.527s-0.703,0.225-0.838,0.527
		c-0.076,0.186-0.105,0.322-0.115,0.547h1.906C324.634,61.518,324.605,61.381,324.529,61.195z"/>
	<path fill="#E4005B" d="M329.734,64.76l-0.926-1.523l-0.914,1.523h-1.502l1.732-2.598l-1.666-2.49h1.502l0.848,1.455l0.857-1.455
		h1.502l-1.666,2.49l1.734,2.598H329.734z"/>
	<path fill="#E4005B" d="M334.621,64.76V64.32c-0.338,0.342-0.654,0.488-1.232,0.488c-0.568,0-0.982-0.146-1.281-0.449
		c-0.27-0.283-0.414-0.693-0.414-1.143c0-0.811,0.549-1.475,1.715-1.475h1.184v-0.254c0-0.557-0.27-0.801-0.934-0.801
		c-0.482,0-0.703,0.117-0.963,0.42l-0.799-0.791c0.49-0.547,0.973-0.703,1.811-0.703c1.404,0,2.137,0.605,2.137,1.797v3.35H334.621z
		 M334.591,62.611h-0.992c-0.451,0-0.703,0.215-0.703,0.576c0,0.352,0.232,0.586,0.723,0.586c0.348,0,0.568-0.029,0.789-0.244
		c0.135-0.127,0.184-0.332,0.184-0.645V62.611z"/>
	<path fill="#E4005B" d="M340.875,64.359c-0.279,0.283-0.73,0.459-1.223,0.459c-0.51,0-0.885-0.137-1.213-0.508v2.314h-1.252v-6.953
		h1.213v0.479c0.348-0.391,0.723-0.537,1.252-0.537c0.492,0,0.943,0.176,1.223,0.459c0.502,0.508,0.51,1.377,0.51,2.139
		S341.376,63.852,340.875,64.359z M339.287,60.756c-0.752,0-0.848,0.625-0.848,1.455s0.096,1.465,0.848,1.465
		c0.75,0,0.848-0.635,0.848-1.465S340.037,60.756,339.287,60.756z"/>
	<path fill="#E4005B" d="M345.3,61.059c-0.193-0.195-0.357-0.303-0.664-0.303c-0.387,0-0.811,0.293-0.811,0.938v3.066h-1.25v-5.088
		h1.223v0.488c0.24-0.293,0.721-0.547,1.26-0.547c0.492,0,0.838,0.127,1.186,0.479L345.3,61.059z"/>
	<path fill="#E4005B" d="M346.933,58.803v-1.035h1.279v1.035H346.933z M346.953,64.76v-5.088h1.25v5.088H346.953z"/>
	<path fill="#E4005B" d="M352.515,64.76v-3.076c0-0.693-0.434-0.928-0.828-0.928s-0.838,0.234-0.838,0.928v3.076h-1.252v-5.088
		h1.223v0.469c0.328-0.352,0.789-0.527,1.252-0.527c0.5,0,0.904,0.166,1.184,0.449c0.404,0.41,0.512,0.889,0.512,1.445v3.252
		H352.515z"/>
	<path fill="#E4005B" d="M356.679,64.76c-1.02,0-1.453-0.732-1.453-1.455v-2.52h-0.529v-0.967h0.529v-1.504h1.252v1.504h0.885v0.967
		h-0.885v2.441c0,0.293,0.135,0.459,0.432,0.459h0.453v1.074H356.679z"/>
	<path fill="#E4005B" d="M358.449,64.76v-1.445h1.434v1.445H358.449z"/>
	<path fill="#E4005B" d="M363.232,64.818c-1.002,0-2.244-0.547-2.244-2.607s1.242-2.598,2.244-2.598
		c0.691,0,1.213,0.215,1.654,0.684l-0.846,0.859c-0.26-0.283-0.482-0.4-0.809-0.4c-0.299,0-0.531,0.107-0.713,0.332
		c-0.193,0.244-0.279,0.586-0.279,1.123s0.086,0.889,0.279,1.133c0.182,0.225,0.414,0.332,0.713,0.332
		c0.326,0,0.549-0.117,0.809-0.4l0.846,0.85C364.445,64.594,363.923,64.818,363.232,64.818z"/>
	<path fill="#E4005B" d="M369.15,64.193c-0.309,0.332-0.818,0.625-1.561,0.625c-0.74,0-1.242-0.293-1.549-0.625
		c-0.453-0.479-0.568-1.055-0.568-1.982c0-0.918,0.115-1.494,0.568-1.973c0.307-0.332,0.809-0.625,1.549-0.625
		c0.742,0,1.252,0.293,1.561,0.625c0.451,0.479,0.568,1.055,0.568,1.973C369.718,63.139,369.601,63.715,369.15,64.193z
		 M368.177,60.98c-0.145-0.146-0.338-0.225-0.588-0.225s-0.434,0.078-0.578,0.225c-0.26,0.264-0.287,0.703-0.287,1.23
		s0.027,0.977,0.287,1.24c0.145,0.146,0.328,0.225,0.578,0.225s0.443-0.078,0.588-0.225c0.26-0.264,0.289-0.713,0.289-1.24
		S368.437,61.244,368.177,60.98z"/>
	<path fill="#E4005B" d="M370.859,64.76v-1.445h1.434v1.445H370.859z"/>
	<path fill="#E4005B" d="M376.539,64.76v-0.469c-0.328,0.352-0.791,0.527-1.252,0.527c-0.502,0-0.906-0.166-1.186-0.449
		c-0.404-0.41-0.51-0.889-0.51-1.445v-3.252h1.252v3.076c0,0.693,0.434,0.928,0.828,0.928s0.838-0.234,0.838-0.928v-3.076h1.252
		v5.088H376.539z"/>
	<path fill="#E4005B" d="M382.175,64.76l-1.232-2.119l-0.529,0.605v1.514h-1.252v-6.953h1.252v3.945l1.666-2.08h1.512l-1.791,2.051
		l1.926,3.037H382.175z"/>
</g>
<g>
	<path fill="#1D1D1B" d="M219.221,54.236c-0.889,0-1.611-0.475-1.659-1.512h0.571c0.048,0.715,0.548,0.998,1.087,0.998
		c0.611,0,1.087-0.41,1.087-1.111c0-0.691-0.341-1.109-1.111-1.109h-0.119v-0.506h0.119c0.69,0,1.008-0.395,1.008-1.038
		c0-0.684-0.437-1.046-0.984-1.046c-0.595,0-0.96,0.37-1.016,0.957h-0.571c0.063-0.925,0.73-1.472,1.587-1.472
		c0.92,0,1.555,0.62,1.555,1.553c0,0.602-0.254,1.038-0.762,1.27c0.571,0.217,0.865,0.684,0.865,1.4
		C220.879,53.674,220.142,54.236,219.221,54.236z"/>
	<path fill="#1D1D1B" d="M224.232,50.98c-0.214-0.219-0.373-0.291-0.674-0.291c-0.571,0-0.937,0.459-0.937,1.062v2.428h-0.571
		v-3.955h0.571v0.482c0.214-0.33,0.643-0.531,1.095-0.531c0.373,0,0.659,0.088,0.936,0.369L224.232,50.98z"/>
	<path fill="#1D1D1B" d="M227.411,54.18v-0.475c-0.317,0.418-0.682,0.523-1.111,0.523c-0.396,0-0.746-0.137-0.952-0.346
		c-0.396-0.402-0.476-1.062-0.476-1.682s0.08-1.277,0.476-1.68c0.206-0.209,0.556-0.346,0.952-0.346
		c0.429,0,0.786,0.096,1.103,0.506v-2.227h0.571v5.725H227.411z M226.427,50.689c-0.849,0-0.984,0.74-0.984,1.512
		c0,0.773,0.135,1.512,0.984,1.512s0.976-0.738,0.976-1.512C227.403,51.43,227.276,50.689,226.427,50.689z"/>
	<path fill="#1D1D1B" d="M231.983,50.689v3.49h-0.571v-3.49h-0.5v-0.441h0.5V49.5c0-0.588,0.325-1.062,0.992-1.062h0.412v0.498
		h-0.309c-0.365,0-0.524,0.218-0.524,0.579v0.732h0.833v0.441H231.983z M234.713,54.18c-0.682,0-1-0.449-1-1.053v-4.672h0.571v4.649
		c0,0.385,0.127,0.578,0.523,0.578h0.317v0.498H234.713z"/>
	<path fill="#1D1D1B" d="M238.383,53.777c-0.27,0.273-0.643,0.451-1.119,0.451s-0.849-0.178-1.119-0.451
		c-0.397-0.41-0.476-0.965-0.476-1.576c0-0.609,0.079-1.166,0.476-1.576c0.27-0.273,0.643-0.449,1.119-0.449
		s0.849,0.176,1.119,0.449c0.396,0.41,0.476,0.967,0.476,1.576C238.858,52.812,238.779,53.367,238.383,53.777z M237.978,50.98
		c-0.183-0.186-0.437-0.291-0.714-0.291c-0.277,0-0.523,0.105-0.706,0.291c-0.286,0.289-0.317,0.779-0.317,1.221
		c0,0.443,0.032,0.934,0.317,1.223c0.183,0.186,0.429,0.289,0.706,0.289c0.278,0,0.532-0.104,0.714-0.289
		c0.286-0.289,0.309-0.779,0.309-1.223C238.287,51.76,238.264,51.27,237.978,50.98z"/>
	<path fill="#1D1D1B" d="M242.552,53.777c-0.27,0.273-0.643,0.451-1.119,0.451s-0.849-0.178-1.119-0.451
		c-0.396-0.41-0.476-0.965-0.476-1.576c0-0.609,0.08-1.166,0.476-1.576c0.27-0.273,0.643-0.449,1.119-0.449s0.849,0.176,1.119,0.449
		c0.397,0.41,0.477,0.967,0.477,1.576C243.028,52.812,242.949,53.367,242.552,53.777z M242.147,50.98
		c-0.183-0.186-0.437-0.291-0.714-0.291s-0.523,0.105-0.706,0.291c-0.286,0.289-0.317,0.779-0.317,1.221
		c0,0.443,0.032,0.934,0.317,1.223c0.183,0.186,0.428,0.289,0.706,0.289s0.532-0.104,0.714-0.289c0.286-0.289,0.31-0.779,0.31-1.223
		C242.457,51.76,242.433,51.27,242.147,50.98z"/>
	<path fill="#1D1D1B" d="M246.389,50.98c-0.214-0.219-0.373-0.291-0.674-0.291c-0.571,0-0.936,0.459-0.936,1.062v2.428h-0.571
		v-3.955h0.571v0.482c0.214-0.33,0.643-0.531,1.095-0.531c0.373,0,0.659,0.088,0.937,0.369L246.389,50.98z"/>
	<path fill="#1D1D1B" d="M247.497,55.338v-1.865h0.698v1.23L247.497,55.338z"/>
	<path fill="#1D1D1B" d="M252.872,54.229c-0.936,0-1.666-0.66-1.666-1.625c0-0.666,0.373-1.117,0.849-1.391
		c-0.444-0.258-0.738-0.676-0.738-1.271c0-0.893,0.659-1.535,1.555-1.535s1.555,0.643,1.555,1.535c0,0.595-0.286,1.013-0.73,1.271
		c0.476,0.273,0.841,0.725,0.841,1.391C254.539,53.568,253.809,54.229,252.872,54.229z M252.872,51.479
		c-0.619,0-1.095,0.482-1.095,1.117s0.476,1.117,1.095,1.117c0.619,0,1.095-0.482,1.095-1.117S253.491,51.479,252.872,51.479z
		 M252.872,48.921c-0.579,0-0.984,0.434-0.984,1.029c0,0.602,0.405,1.02,0.984,1.02s0.984-0.418,0.984-1.02
		C253.856,49.355,253.451,48.921,252.872,48.921z"/>
	<path fill="#1D1D1B" d="M256.995,54.229c-0.96,0-1.571-0.66-1.571-1.648c0-0.41,0.119-0.805,0.357-1.287l1.389-2.838h0.587
		l-1.262,2.573c0.174-0.08,0.373-0.119,0.595-0.119c0.881,0,1.468,0.684,1.468,1.623C258.558,53.504,257.955,54.229,256.995,54.229z
		 M256.986,51.398c-0.603,0-0.992,0.449-0.992,1.158c0,0.699,0.389,1.156,0.992,1.156c0.604,0,1-0.457,1-1.156
		C257.986,51.92,257.637,51.398,256.986,51.398z"/>
	<path fill="#1D1D1B" d="M261.559,52.283v-0.539h2.174v0.539H261.559z"/>
	<path fill="#1D1D1B" d="M269.497,51.342l-1.389,2.838h-0.595l1.27-2.572c-0.174,0.08-0.381,0.121-0.603,0.121
		c-0.881,0-1.46-0.684-1.46-1.625c0-0.973,0.603-1.696,1.563-1.696c0.96,0,1.571,0.659,1.571,1.648
		C269.854,50.465,269.734,50.859,269.497,51.342z M268.283,48.921c-0.603,0-0.992,0.458-0.992,1.157
		c0,0.636,0.341,1.158,0.992,1.158c0.603,0,1-0.449,1-1.158C269.282,49.379,268.886,48.921,268.283,48.921z"/>
	<path fill="#1D1D1B" d="M272.405,54.229c-0.88,0-1.547-0.627-1.547-1.576v-2.669c0-0.949,0.667-1.576,1.547-1.576
		c0.881,0,1.547,0.627,1.547,1.576v2.669C273.952,53.602,273.286,54.229,272.405,54.229z M273.381,50.015
		c0-0.628-0.349-1.094-0.976-1.094c-0.626,0-0.976,0.466-0.976,1.094v2.606c0,0.627,0.35,1.092,0.976,1.092
		c0.627,0,0.976-0.465,0.976-1.092V50.015z"/>
	<path fill="#1D1D1B" d="M279.294,51.824h-1.5v2.355h-0.603v-5.725h2.103c1.032,0,1.746,0.651,1.746,1.68
		C281.04,51.164,280.326,51.824,279.294,51.824z M279.239,49.001h-1.444v2.276h1.444c0.707,0,1.198-0.387,1.198-1.143
		C280.437,49.379,279.945,49.001,279.239,49.001z"/>
	<path fill="#1D1D1B" d="M284.186,54.18v-0.377c-0.317,0.32-0.603,0.426-1.126,0.426c-0.54,0-0.857-0.105-1.103-0.361
		c-0.19-0.193-0.293-0.49-0.293-0.805c0-0.691,0.476-1.143,1.349-1.143h1.174v-0.377c0-0.58-0.286-0.869-1-0.869
		c-0.5,0-0.754,0.121-0.984,0.451l-0.389-0.363c0.349-0.457,0.746-0.586,1.38-0.586c1.047,0,1.563,0.459,1.563,1.318v2.686H284.186z
		 M284.186,52.355h-1.095c-0.587,0-0.873,0.24-0.873,0.699s0.278,0.676,0.896,0.676c0.333,0,0.627-0.025,0.873-0.266
		c0.135-0.129,0.198-0.354,0.198-0.684V52.355z"/>
	<path fill="#1D1D1B" d="M288.577,54.18v-0.441c-0.277,0.32-0.667,0.49-1.103,0.49c-0.421,0-0.77-0.129-1.008-0.369
		c-0.278-0.273-0.397-0.652-0.397-1.111v-2.523h0.571v2.436c0,0.699,0.365,1.053,0.952,1.053c0.587,0,0.976-0.361,0.976-1.053
		v-2.436h0.571v3.955H288.577z"/>
	<path fill="#1D1D1B" d="M291.501,54.18c-0.682,0-0.992-0.449-0.992-1.053v-4.672h0.571v4.649c0,0.385,0.127,0.578,0.524,0.578
		h0.309v0.498H291.501z"/>
	<path fill="#1D1D1B" d="M296.329,54.229c-0.849,0-1.404-0.217-1.936-0.756l0.412-0.418c0.468,0.475,0.905,0.627,1.54,0.627
		c0.825,0,1.333-0.395,1.333-1.061c0-0.299-0.087-0.557-0.27-0.717c-0.182-0.16-0.325-0.209-0.738-0.273l-0.659-0.104
		c-0.444-0.072-0.793-0.219-1.039-0.436c-0.286-0.256-0.429-0.611-0.429-1.069c0-0.974,0.69-1.616,1.809-1.616
		c0.722,0,1.198,0.185,1.682,0.627l-0.389,0.394c-0.349-0.321-0.722-0.49-1.317-0.49c-0.753,0-1.19,0.427-1.19,1.062
		c0,0.281,0.08,0.507,0.254,0.66s0.468,0.266,0.762,0.312l0.619,0.098c0.532,0.08,0.794,0.193,1.032,0.402
		c0.31,0.266,0.476,0.658,0.476,1.133C298.281,53.609,297.504,54.229,296.329,54.229z"/>
	<path fill="#1D1D1B" d="M300.5,54.18c-0.668,0-1-0.475-1-1.061v-2.43h-0.492v-0.441h0.492v-1.239h0.57v1.239h0.834v0.441h-0.834
		v2.414c0,0.361,0.168,0.578,0.533,0.578h0.301v0.498H300.5z"/>
	<path fill="#1D1D1B" d="M304.187,50.98c-0.215-0.219-0.373-0.291-0.676-0.291c-0.57,0-0.936,0.459-0.936,1.062v2.428h-0.572v-3.955
		h0.572v0.482c0.215-0.33,0.643-0.531,1.094-0.531c0.373,0,0.66,0.088,0.938,0.369L304.187,50.98z"/>
	<path fill="#1D1D1B" d="M305.39,52.355c0,0.867,0.404,1.367,1.15,1.367c0.451,0,0.713-0.137,1.023-0.451l0.389,0.346
		c-0.396,0.402-0.762,0.611-1.428,0.611c-1.033,0-1.707-0.627-1.707-2.027c0-1.277,0.611-2.025,1.604-2.025
		c1.008,0,1.602,0.74,1.602,1.914v0.266H305.39z M307.333,51.262c-0.15-0.363-0.5-0.596-0.912-0.596s-0.762,0.232-0.912,0.596
		c-0.088,0.217-0.104,0.338-0.119,0.658h2.062C307.437,51.6,307.421,51.479,307.333,51.262z"/>
	<path fill="#1D1D1B" d="M309.56,52.355c0,0.867,0.404,1.367,1.15,1.367c0.451,0,0.713-0.137,1.023-0.451l0.389,0.346
		c-0.396,0.402-0.762,0.611-1.428,0.611c-1.033,0-1.707-0.627-1.707-2.027c0-1.277,0.611-2.025,1.604-2.025
		c1.008,0,1.602,0.74,1.602,1.914v0.266H309.56z M311.503,51.262c-0.15-0.363-0.5-0.596-0.912-0.596s-0.762,0.232-0.912,0.596
		c-0.088,0.217-0.104,0.338-0.119,0.658h2.062C311.607,51.6,311.591,51.479,311.503,51.262z"/>
	<path fill="#1D1D1B" d="M314.458,54.18c-0.666,0-1-0.475-1-1.061v-2.43h-0.492v-0.441h0.492v-1.239h0.572v1.239h0.832v0.441h-0.832
		v2.414c0,0.361,0.166,0.578,0.531,0.578h0.301v0.498H314.458z"/>
	<path fill="#1D1D1B" d="M315.949,55.338v-1.865h0.697v1.23L315.949,55.338z"/>
	<path fill="#1D1D1B" d="M320.062,54.18v-5.725h0.604v5.178h2.889v0.547H320.062z"/>
	<path fill="#1D1D1B" d="M326.97,53.777c-0.271,0.273-0.643,0.451-1.119,0.451s-0.85-0.178-1.119-0.451
		c-0.396-0.41-0.477-0.965-0.477-1.576c0-0.609,0.08-1.166,0.477-1.576c0.27-0.273,0.643-0.449,1.119-0.449s0.848,0.176,1.119,0.449
		c0.396,0.41,0.475,0.967,0.475,1.576C327.445,52.812,327.367,53.367,326.97,53.777z M326.564,50.98
		c-0.182-0.186-0.436-0.291-0.713-0.291s-0.523,0.105-0.707,0.291c-0.285,0.289-0.316,0.779-0.316,1.221
		c0,0.443,0.031,0.934,0.316,1.223c0.184,0.186,0.43,0.289,0.707,0.289s0.531-0.104,0.713-0.289
		c0.287-0.289,0.311-0.779,0.311-1.223C326.875,51.76,326.851,51.27,326.564,50.98z"/>
	<path fill="#1D1D1B" d="M331.132,54.18v-2.436c0-0.699-0.373-1.055-0.961-1.055s-0.969,0.363-0.969,1.055v2.436h-0.57v-3.955h0.57
		v0.434c0.279-0.322,0.66-0.482,1.096-0.482c0.42,0,0.762,0.129,1,0.369c0.277,0.273,0.404,0.645,0.404,1.102v2.533H331.132z"/>
	<path fill="#1D1D1B" d="M335.38,54.18v-0.475c-0.318,0.418-0.684,0.523-1.111,0.523c-0.396,0-0.746-0.137-0.953-0.346
		c-0.396-0.402-0.475-1.062-0.475-1.682s0.078-1.277,0.475-1.68c0.207-0.209,0.557-0.346,0.953-0.346
		c0.428,0,0.785,0.096,1.104,0.506v-2.227h0.57v5.725H335.38z M334.396,50.689c-0.85,0-0.984,0.74-0.984,1.512
		c0,0.773,0.135,1.512,0.984,1.512s0.977-0.738,0.977-1.512C335.373,51.43,335.246,50.689,334.396,50.689z"/>
	<path fill="#1D1D1B" d="M339.835,53.777c-0.27,0.273-0.643,0.451-1.119,0.451c-0.475,0-0.848-0.178-1.119-0.451
		c-0.396-0.41-0.475-0.965-0.475-1.576c0-0.609,0.078-1.166,0.475-1.576c0.271-0.273,0.645-0.449,1.119-0.449
		c0.477,0,0.85,0.176,1.119,0.449c0.396,0.41,0.477,0.967,0.477,1.576C340.312,52.812,340.232,53.367,339.835,53.777z
		 M339.431,50.98c-0.184-0.186-0.438-0.291-0.715-0.291s-0.523,0.105-0.705,0.291c-0.287,0.289-0.318,0.779-0.318,1.221
		c0,0.443,0.031,0.934,0.318,1.223c0.182,0.186,0.428,0.289,0.705,0.289s0.531-0.104,0.715-0.289
		c0.285-0.289,0.309-0.779,0.309-1.223C339.74,51.76,339.716,51.27,339.431,50.98z"/>
	<path fill="#1D1D1B" d="M343.998,54.18v-2.436c0-0.699-0.373-1.055-0.961-1.055s-0.969,0.363-0.969,1.055v2.436h-0.57v-3.955h0.57
		v0.434c0.279-0.322,0.66-0.482,1.096-0.482c0.42,0,0.762,0.129,1,0.369c0.277,0.273,0.404,0.645,0.404,1.102v2.533H343.998z"/>
	<path fill="#1D1D1B" d="M345.898,55.338v-1.865h0.697v1.23L345.898,55.338z"/>
	<path fill="#1D1D1B" d="M350.011,54.18v-5.725h3.508v0.547h-2.904v2.018h2.475v0.547h-2.475v2.066h2.904v0.547H350.011z"/>
	<path fill="#1D1D1B" d="M356.498,54.229c-0.555,0-1.062-0.209-1.443-0.596c-0.533-0.539-0.533-1.102-0.533-2.314
		c0-1.215,0-1.778,0.533-2.317c0.381-0.386,0.889-0.595,1.443-0.595c1.016,0,1.77,0.627,1.959,1.705h-0.617
		c-0.152-0.7-0.635-1.158-1.342-1.158c-0.373,0-0.73,0.145-0.977,0.401c-0.355,0.37-0.396,0.764-0.396,1.963
		c0,1.197,0.041,1.592,0.396,1.961c0.246,0.258,0.604,0.402,0.977,0.402c0.707,0,1.207-0.459,1.357-1.158h0.602
		C358.275,53.602,357.505,54.229,356.498,54.229z"/>
	<path fill="#1D1D1B" d="M359.476,54.18v-0.514l2.23-2.871c0.215-0.281,0.318-0.531,0.318-0.844c0-0.619-0.365-1.029-0.984-1.029
		c-0.523,0-0.984,0.297-0.984,1.037h-0.57c0-0.9,0.609-1.552,1.555-1.552c0.928,0,1.555,0.603,1.555,1.544
		c0,0.458-0.143,0.756-0.453,1.157l-1.975,2.559h2.428v0.514H359.476z"/>
	<path fill="#1D1D1B" d="M367.154,54.18l-0.453-1.295h-2.467l-0.453,1.295h-0.643l2.078-5.725h0.508l2.072,5.725H367.154z
		 M365.478,49.332l-1.062,3.024h2.111L365.478,49.332z"/>
	<path fill="#1D1D1B" d="M372.916,53.271v0.908h-0.564v-0.908h-2.252v-0.523l2.039-4.293h0.611l-2.039,4.293h1.641v-1.623h0.564
		v1.623h0.689v0.523H372.916z"/>
	<path fill="#1D1D1B" d="M378.308,54.18l-3-4.591v4.591h-0.604v-5.725h0.572l2.998,4.575v-4.575h0.604v5.725H378.308z"/>
	<path fill="#1D1D1B" d="M380.468,54.18v-5.725h3.508v0.547h-2.904v2.018h2.475v0.547h-2.475v2.066h2.904v0.547H380.468z"/>
</g>
<g>
	<path fill="#1D1D1B" d="M404.716,41.37v-4.585h2.805v0.438h-2.322v1.616h1.98v0.438h-1.98v1.655h2.322v0.438H404.716z"/>
	<path fill="#1D1D1B" d="M410.115,41.37l-0.75-1.229l-0.762,1.229h-0.553l1.061-1.616l-1.016-1.552h0.553l0.717,1.172l0.705-1.172
		h0.553l-1.016,1.552l1.059,1.616H410.115z"/>
	<path fill="#1D1D1B" d="M413.191,41.37v-0.303c-0.254,0.258-0.482,0.342-0.902,0.342c-0.432,0-0.686-0.084-0.881-0.29
		c-0.152-0.154-0.236-0.393-0.236-0.645c0-0.554,0.381-0.914,1.08-0.914h0.939v-0.303c0-0.463-0.229-0.695-0.801-0.695
		c-0.398,0-0.602,0.097-0.787,0.36l-0.311-0.289c0.279-0.367,0.598-0.471,1.105-0.471c0.838,0,1.25,0.367,1.25,1.057v2.15H413.191z
		 M413.191,39.908h-0.877c-0.469,0-0.697,0.193-0.697,0.561s0.223,0.541,0.717,0.541c0.268,0,0.502-0.02,0.699-0.213
		c0.107-0.103,0.158-0.283,0.158-0.547V39.908z"/>
	<path fill="#1D1D1B" d="M416.83,41.131c-0.164,0.167-0.443,0.277-0.762,0.277c-0.342,0-0.627-0.084-0.881-0.412v1.79h-0.457v-4.585
		h0.457v0.373c0.254-0.335,0.539-0.412,0.881-0.412c0.318,0,0.598,0.109,0.762,0.277c0.318,0.322,0.381,0.85,0.381,1.346
		S417.148,40.809,416.83,41.131z M415.974,38.575c-0.68,0-0.787,0.593-0.787,1.211s0.107,1.211,0.787,1.211
		c0.678,0,0.779-0.593,0.779-1.211S416.652,38.575,415.974,38.575z"/>
	<path fill="#1D1D1B" d="M419.906,38.807c-0.17-0.174-0.297-0.232-0.539-0.232c-0.457,0-0.748,0.367-0.748,0.851v1.944h-0.457
		v-3.168h0.457v0.386c0.17-0.264,0.514-0.425,0.875-0.425c0.299,0,0.527,0.071,0.75,0.297L419.906,38.807z"/>
	<path fill="#1D1D1B" d="M420.781,37.3v-0.521h0.514V37.3H420.781z M420.806,41.37v-3.168h0.457v3.168H420.806z"/>
	<path fill="#1D1D1B" d="M424.384,41.37v-1.951c0-0.561-0.299-0.844-0.768-0.844c-0.471,0-0.775,0.29-0.775,0.844v1.951h-0.457
		v-3.168h0.457v0.348c0.223-0.258,0.527-0.387,0.877-0.387c0.336,0,0.609,0.104,0.799,0.297c0.223,0.219,0.324,0.515,0.324,0.882
		v2.028H424.384z"/>
	<path fill="#1D1D1B" d="M426.798,41.37c-0.533,0-0.799-0.38-0.799-0.85v-1.945h-0.395v-0.354H426v-0.992h0.457v0.992h0.666v0.354
		h-0.666v1.932c0,0.29,0.133,0.464,0.424,0.464h0.242v0.399H426.798z"/>
	<path fill="#1D1D1B" d="M429.632,41.37v-4.585h0.482v4.147h2.311v0.438H429.632z"/>
	<path fill="#1D1D1B" d="M435.166,41.047c-0.217,0.22-0.516,0.361-0.896,0.361s-0.678-0.142-0.895-0.361
		c-0.316-0.328-0.381-0.772-0.381-1.262s0.064-0.934,0.381-1.262c0.217-0.22,0.514-0.361,0.895-0.361s0.68,0.142,0.896,0.361
		c0.316,0.328,0.381,0.772,0.381,1.262S435.482,40.719,435.166,41.047z M434.841,38.807c-0.146-0.148-0.35-0.232-0.572-0.232
		c-0.221,0-0.418,0.084-0.564,0.232c-0.229,0.231-0.254,0.624-0.254,0.979s0.025,0.747,0.254,0.979
		c0.146,0.148,0.344,0.232,0.564,0.232c0.223,0,0.426-0.084,0.572-0.232c0.229-0.231,0.248-0.624,0.248-0.979
		S435.07,39.039,434.841,38.807z"/>
	<path fill="#1D1D1B" d="M438.494,41.37v-1.951c0-0.561-0.297-0.844-0.768-0.844c-0.469,0-0.773,0.29-0.773,0.844v1.951h-0.457
		v-3.168h0.457v0.348c0.221-0.258,0.525-0.387,0.875-0.387c0.336,0,0.609,0.104,0.801,0.297c0.221,0.219,0.322,0.515,0.322,0.882
		v2.028H438.494z"/>
	<path fill="#1D1D1B" d="M441.9,41.37v-0.38c-0.254,0.335-0.545,0.419-0.889,0.419c-0.316,0-0.596-0.11-0.762-0.277
		c-0.316-0.322-0.381-0.85-0.381-1.346s0.064-1.023,0.381-1.346c0.166-0.168,0.445-0.277,0.762-0.277
		c0.344,0,0.629,0.077,0.883,0.406v-1.784h0.457v4.585H441.9z M441.113,38.575c-0.68,0-0.787,0.593-0.787,1.211
		s0.107,1.211,0.787,1.211s0.781-0.593,0.781-1.211S441.792,38.575,441.113,38.575z"/>
	<path fill="#1D1D1B" d="M445.47,41.047c-0.215,0.22-0.514,0.361-0.895,0.361s-0.68-0.142-0.895-0.361
		c-0.318-0.328-0.381-0.772-0.381-1.262s0.062-0.934,0.381-1.262c0.215-0.22,0.514-0.361,0.895-0.361s0.68,0.142,0.895,0.361
		c0.318,0.328,0.381,0.772,0.381,1.262S445.789,40.719,445.47,41.047z M445.146,38.807c-0.145-0.148-0.348-0.232-0.57-0.232
		s-0.42,0.084-0.564,0.232c-0.229,0.231-0.254,0.624-0.254,0.979s0.025,0.747,0.254,0.979c0.145,0.148,0.342,0.232,0.564,0.232
		s0.426-0.084,0.57-0.232c0.229-0.231,0.248-0.624,0.248-0.979S445.375,39.039,445.146,38.807z"/>
	<path fill="#1D1D1B" d="M448.8,41.37v-1.951c0-0.561-0.299-0.844-0.768-0.844c-0.471,0-0.775,0.29-0.775,0.844v1.951H446.8v-3.168
		h0.457v0.348c0.223-0.258,0.527-0.387,0.877-0.387c0.336,0,0.609,0.104,0.799,0.297c0.223,0.219,0.324,0.515,0.324,0.882v2.028
		H448.8z"/>
	<path fill="#1D1D1B" d="M451.968,41.37v-4.585h0.482v4.147h2.311v0.438H451.968z"/>
	<path fill="#1D1D1B" d="M456.371,41.37c-0.533,0-0.799-0.38-0.799-0.85v-1.945h-0.395v-0.354h0.395v-0.992h0.457v0.992h0.666v0.354
		h-0.666v1.932c0,0.29,0.133,0.464,0.424,0.464h0.242v0.399H456.371z"/>
	<path fill="#1D1D1B" d="M459.441,41.37v-0.38c-0.254,0.335-0.545,0.419-0.889,0.419c-0.316,0-0.596-0.11-0.762-0.277
		c-0.316-0.322-0.381-0.85-0.381-1.346s0.064-1.023,0.381-1.346c0.166-0.168,0.445-0.277,0.762-0.277
		c0.344,0,0.629,0.077,0.883,0.406v-1.784h0.457v4.585H459.441z M458.654,38.575c-0.68,0-0.787,0.593-0.787,1.211
		s0.107,1.211,0.787,1.211s0.781-0.593,0.781-1.211S459.333,38.575,458.654,38.575z"/>
	<path fill="#1D1D1B" d="M460.994,42.296v-1.493h0.559v0.985L460.994,42.296z"/>
	<path fill="#1D1D1B" d="M465.947,38.807c-0.17-0.174-0.297-0.232-0.539-0.232c-0.457,0-0.748,0.367-0.748,0.851v1.944h-0.457
		v-3.168h0.457v0.386c0.17-0.264,0.514-0.425,0.875-0.425c0.299,0,0.527,0.071,0.75,0.297L465.947,38.807z"/>
	<path fill="#1D1D1B" d="M466.91,39.908c0,0.695,0.324,1.095,0.922,1.095c0.361,0,0.57-0.109,0.818-0.36l0.311,0.276
		c-0.316,0.322-0.609,0.49-1.143,0.49c-0.824,0-1.365-0.503-1.365-1.623c0-1.023,0.49-1.623,1.283-1.623
		c0.807,0,1.281,0.593,1.281,1.533v0.212H466.91z M468.466,39.032c-0.121-0.289-0.4-0.476-0.73-0.476s-0.609,0.187-0.73,0.476
		c-0.07,0.175-0.082,0.271-0.096,0.528h1.65C468.548,39.302,468.535,39.207,468.466,39.032z"/>
	<path fill="#1D1D1B" d="M470.957,42.825c-0.469,0-0.73-0.122-1.061-0.425l0.299-0.296c0.229,0.206,0.387,0.315,0.75,0.315
		c0.602,0,0.855-0.432,0.855-0.973v-0.496c-0.254,0.329-0.539,0.412-0.875,0.412c-0.318,0-0.59-0.115-0.756-0.283
		c-0.311-0.315-0.381-0.805-0.381-1.319c0-0.516,0.07-1.005,0.381-1.32c0.166-0.168,0.445-0.277,0.762-0.277
		c0.344,0,0.623,0.077,0.877,0.412v-0.373h0.449v3.265C472.257,42.251,471.775,42.825,470.957,42.825z M471.027,38.575
		c-0.68,0-0.781,0.593-0.781,1.186c0,0.592,0.102,1.185,0.781,1.185s0.773-0.593,0.773-1.185
		C471.8,39.167,471.707,38.575,471.027,38.575z"/>
	<path fill="#1D1D1B" d="M473.347,37.3v-0.521h0.514V37.3H473.347z M473.373,41.37v-3.168h0.457v3.168H473.373z"/>
	<path fill="#1D1D1B" d="M475.935,41.409c-0.525,0-0.939-0.123-1.281-0.458l0.305-0.309c0.248,0.264,0.584,0.367,0.971,0.367
		c0.514,0,0.832-0.187,0.832-0.561c0-0.276-0.158-0.432-0.521-0.464l-0.514-0.045c-0.609-0.052-0.934-0.328-0.934-0.85
		c0-0.58,0.482-0.928,1.15-0.928c0.443,0,0.844,0.109,1.123,0.342l-0.299,0.303c-0.223-0.174-0.508-0.251-0.832-0.251
		c-0.457,0-0.697,0.199-0.697,0.521c0,0.271,0.152,0.431,0.545,0.463l0.502,0.046c0.547,0.051,0.92,0.264,0.92,0.856
		C477.205,41.054,476.691,41.409,475.935,41.409z"/>
	<path fill="#1D1D1B" d="M478.884,41.37c-0.533,0-0.799-0.38-0.799-0.85v-1.945h-0.395v-0.354h0.395v-0.992h0.457v0.992h0.666v0.354
		h-0.666v1.932c0,0.29,0.133,0.464,0.424,0.464h0.242v0.399H478.884z"/>
	<path fill="#1D1D1B" d="M480.316,39.908c0,0.695,0.324,1.095,0.922,1.095c0.361,0,0.57-0.109,0.818-0.36l0.311,0.276
		c-0.316,0.322-0.609,0.49-1.143,0.49c-0.824,0-1.365-0.503-1.365-1.623c0-1.023,0.49-1.623,1.283-1.623
		c0.807,0,1.281,0.593,1.281,1.533v0.212H480.316z M481.873,39.032c-0.121-0.289-0.4-0.476-0.73-0.476s-0.609,0.187-0.73,0.476
		c-0.07,0.175-0.082,0.271-0.096,0.528h1.65C481.955,39.302,481.941,39.207,481.873,39.032z"/>
	<path fill="#1D1D1B" d="M485.113,38.807c-0.172-0.174-0.299-0.232-0.539-0.232c-0.457,0-0.75,0.367-0.75,0.851v1.944h-0.457v-3.168
		h0.457v0.386c0.172-0.264,0.514-0.425,0.877-0.425c0.297,0,0.525,0.071,0.748,0.297L485.113,38.807z"/>
	<path fill="#1D1D1B" d="M486.076,39.908c0,0.695,0.324,1.095,0.92,1.095c0.361,0,0.572-0.109,0.818-0.36l0.312,0.276
		c-0.318,0.322-0.609,0.49-1.143,0.49c-0.826,0-1.365-0.503-1.365-1.623c0-1.023,0.488-1.623,1.281-1.623
		c0.807,0,1.283,0.593,1.283,1.533v0.212H486.076z M487.63,39.032c-0.121-0.289-0.4-0.476-0.73-0.476s-0.609,0.187-0.729,0.476
		c-0.07,0.175-0.084,0.271-0.096,0.528h1.65C487.712,39.302,487.701,39.207,487.63,39.032z"/>
	<path fill="#1D1D1B" d="M490.986,41.37v-0.38c-0.254,0.335-0.547,0.419-0.889,0.419c-0.318,0-0.598-0.11-0.762-0.277
		c-0.318-0.322-0.381-0.85-0.381-1.346s0.062-1.023,0.381-1.346c0.164-0.168,0.443-0.277,0.762-0.277
		c0.342,0,0.627,0.077,0.881,0.406v-1.784h0.457v4.585H490.986z M490.199,38.575c-0.68,0-0.787,0.593-0.787,1.211
		s0.107,1.211,0.787,1.211c0.678,0,0.779-0.593,0.779-1.211S490.876,38.575,490.199,38.575z"/>
	<path fill="#1D1D1B" d="M494.072,37.3v-0.521h0.514V37.3H494.072z M494.097,41.37v-3.168h0.457v3.168H494.097z"/>
	<path fill="#1D1D1B" d="M497.675,41.37v-1.951c0-0.561-0.297-0.844-0.768-0.844c-0.469,0-0.773,0.29-0.773,0.844v1.951h-0.457
		v-3.168h0.457v0.348c0.221-0.258,0.525-0.387,0.875-0.387c0.336,0,0.609,0.104,0.801,0.297c0.221,0.219,0.322,0.515,0.322,0.882
		v2.028H497.675z"/>
</g>
<g>
	<path fill="#1D1D1B" d="M404.716,49.094v-4.585h2.805v0.438h-2.322v1.616h1.98v0.438h-1.98v1.655h2.322v0.438H404.716z"/>
	<path fill="#1D1D1B" d="M410.412,49.094v-1.951c0-0.561-0.297-0.844-0.768-0.844c-0.469,0-0.773,0.29-0.773,0.844v1.951h-0.457
		v-3.168h0.457v0.348c0.221-0.258,0.525-0.387,0.875-0.387c0.336,0,0.609,0.104,0.801,0.297c0.221,0.219,0.322,0.515,0.322,0.882
		v2.028H410.412z"/>
	<path fill="#1D1D1B" d="M412.955,50.549c-0.469,0-0.73-0.121-1.061-0.424l0.299-0.296c0.229,0.206,0.387,0.316,0.75,0.316
		c0.602,0,0.855-0.432,0.855-0.973v-0.496c-0.254,0.329-0.539,0.412-0.875,0.412c-0.318,0-0.59-0.115-0.756-0.283
		c-0.311-0.315-0.381-0.805-0.381-1.319c0-0.516,0.07-1.005,0.381-1.32c0.166-0.168,0.445-0.277,0.762-0.277
		c0.344,0,0.623,0.077,0.877,0.412v-0.373h0.449v3.265C414.255,49.976,413.773,50.549,412.955,50.549z M413.025,46.299
		c-0.68,0-0.781,0.593-0.781,1.186c0,0.592,0.102,1.185,0.781,1.185s0.773-0.593,0.773-1.185
		C413.798,46.892,413.705,46.299,413.025,46.299z"/>
	<path fill="#1D1D1B" d="M416.15,49.094c-0.545,0-0.793-0.36-0.793-0.844v-3.741h0.457v3.722c0,0.31,0.102,0.464,0.42,0.464h0.246
		v0.399H416.15z"/>
	<path fill="#1D1D1B" d="M419,49.094v-0.303c-0.254,0.258-0.482,0.342-0.902,0.342c-0.432,0-0.686-0.084-0.881-0.29
		c-0.152-0.154-0.236-0.393-0.236-0.645c0-0.554,0.381-0.914,1.08-0.914H419v-0.303c0-0.463-0.229-0.695-0.801-0.695
		c-0.398,0-0.602,0.097-0.787,0.36l-0.311-0.289c0.279-0.367,0.598-0.471,1.105-0.471c0.838,0,1.25,0.367,1.25,1.057v2.15H419z
		 M419,47.632h-0.877c-0.469,0-0.697,0.193-0.697,0.561s0.223,0.541,0.717,0.541c0.268,0,0.502-0.02,0.699-0.213
		c0.107-0.103,0.158-0.283,0.158-0.547V47.632z"/>
	<path fill="#1D1D1B" d="M422.539,49.094v-1.951c0-0.561-0.299-0.844-0.768-0.844c-0.471,0-0.775,0.29-0.775,0.844v1.951h-0.457
		v-3.168h0.457v0.348c0.223-0.258,0.527-0.387,0.877-0.387c0.336,0,0.609,0.104,0.799,0.297c0.223,0.219,0.324,0.515,0.324,0.882
		v2.028H422.539z"/>
	<path fill="#1D1D1B" d="M425.945,49.094v-0.38c-0.254,0.335-0.547,0.419-0.889,0.419c-0.318,0-0.598-0.11-0.762-0.277
		c-0.318-0.322-0.381-0.85-0.381-1.346s0.062-1.023,0.381-1.346c0.164-0.168,0.443-0.277,0.762-0.277
		c0.342,0,0.627,0.077,0.881,0.406v-1.784h0.457v4.585H425.945z M425.158,46.299c-0.68,0-0.787,0.593-0.787,1.211
		s0.107,1.211,0.787,1.211c0.678,0,0.779-0.593,0.779-1.211S425.835,46.299,425.158,46.299z"/>
	<path fill="#1D1D1B" d="M430.833,49.094v-0.303c-0.254,0.258-0.482,0.342-0.902,0.342c-0.432,0-0.686-0.084-0.881-0.29
		c-0.152-0.154-0.236-0.393-0.236-0.645c0-0.554,0.381-0.914,1.08-0.914h0.939v-0.303c0-0.463-0.229-0.695-0.801-0.695
		c-0.398,0-0.602,0.097-0.787,0.36l-0.311-0.289c0.279-0.367,0.598-0.471,1.105-0.471c0.838,0,1.25,0.367,1.25,1.057v2.15H430.833z
		 M430.833,47.632h-0.877c-0.469,0-0.697,0.193-0.697,0.561s0.223,0.541,0.717,0.541c0.268,0,0.502-0.02,0.699-0.213
		c0.107-0.103,0.158-0.283,0.158-0.547V47.632z"/>
	<path fill="#1D1D1B" d="M434.373,49.094v-1.951c0-0.561-0.299-0.844-0.768-0.844c-0.471,0-0.775,0.29-0.775,0.844v1.951h-0.457
		v-3.168h0.457v0.348c0.223-0.258,0.527-0.387,0.877-0.387c0.336,0,0.609,0.104,0.799,0.297c0.223,0.219,0.324,0.515,0.324,0.882
		v2.028H434.373z"/>
	<path fill="#1D1D1B" d="M437.777,49.094v-0.38c-0.254,0.335-0.545,0.419-0.889,0.419c-0.316,0-0.596-0.11-0.762-0.277
		c-0.316-0.322-0.381-0.85-0.381-1.346s0.064-1.023,0.381-1.346c0.166-0.168,0.445-0.277,0.762-0.277
		c0.344,0,0.629,0.077,0.883,0.406v-1.784h0.457v4.585H437.777z M436.99,46.299c-0.68,0-0.787,0.593-0.787,1.211
		s0.107,1.211,0.787,1.211s0.781-0.593,0.781-1.211S437.669,46.299,436.99,46.299z"/>
	<path fill="#1D1D1B" d="M444.49,49.094h-0.451l-1.004-3.67l-1.002,3.67h-0.451l-1.154-4.585h0.514l0.883,3.696l0.996-3.696h0.432
		l0.996,3.696l0.883-3.696h0.514L444.49,49.094z"/>
	<path fill="#1D1D1B" d="M447.796,49.094v-0.303c-0.254,0.258-0.482,0.342-0.9,0.342c-0.432,0-0.686-0.084-0.883-0.29
		c-0.152-0.154-0.234-0.393-0.234-0.645c0-0.554,0.381-0.914,1.078-0.914h0.939v-0.303c0-0.463-0.229-0.695-0.799-0.695
		c-0.4,0-0.604,0.097-0.787,0.36l-0.311-0.289c0.279-0.367,0.596-0.471,1.104-0.471c0.838,0,1.25,0.367,1.25,1.057v2.15H447.796z
		 M447.796,47.632h-0.875c-0.471,0-0.699,0.193-0.699,0.561s0.223,0.541,0.719,0.541c0.266,0,0.5-0.02,0.697-0.213
		c0.107-0.103,0.158-0.283,0.158-0.547V47.632z"/>
	<path fill="#1D1D1B" d="M450.117,49.094c-0.545,0-0.793-0.36-0.793-0.844v-3.741h0.457v3.722c0,0.31,0.102,0.464,0.42,0.464h0.246
		v0.399H450.117z"/>
	<path fill="#1D1D1B" d="M451.316,47.632c0,0.695,0.324,1.095,0.92,1.095c0.361,0,0.572-0.109,0.818-0.36l0.312,0.276
		c-0.318,0.322-0.609,0.49-1.143,0.49c-0.826,0-1.365-0.503-1.365-1.623c0-1.023,0.488-1.623,1.281-1.623
		c0.807,0,1.283,0.593,1.283,1.533v0.212H451.316z M452.871,46.756c-0.121-0.289-0.4-0.476-0.73-0.476s-0.609,0.187-0.729,0.476
		c-0.07,0.175-0.084,0.271-0.096,0.528h1.65C452.953,47.027,452.941,46.931,452.871,46.756z"/>
	<path fill="#1D1D1B" d="M455.349,49.133c-0.525,0-0.939-0.123-1.281-0.458l0.305-0.309c0.248,0.264,0.584,0.367,0.971,0.367
		c0.514,0,0.832-0.187,0.832-0.561c0-0.276-0.158-0.432-0.521-0.464l-0.514-0.045c-0.609-0.052-0.934-0.328-0.934-0.85
		c0-0.58,0.482-0.928,1.15-0.928c0.443,0,0.844,0.109,1.123,0.342l-0.299,0.303c-0.223-0.174-0.508-0.251-0.832-0.251
		c-0.457,0-0.697,0.199-0.697,0.521c0,0.271,0.152,0.431,0.545,0.463l0.502,0.046c0.547,0.051,0.92,0.264,0.92,0.856
		C456.619,48.779,456.105,49.133,455.349,49.133z"/>
	<path fill="#1D1D1B" d="M457.474,50.021v-1.493h0.559v0.985L457.474,50.021z"/>
	<path fill="#1D1D1B" d="M462.687,49.094v-1.951c0-0.561-0.297-0.844-0.768-0.844c-0.469,0-0.773,0.29-0.773,0.844v1.951h-0.457
		v-3.168h0.457v0.348c0.221-0.258,0.525-0.387,0.875-0.387c0.336,0,0.609,0.104,0.801,0.297c0.221,0.219,0.322,0.515,0.322,0.882
		v2.028H462.687z"/>
	<path fill="#1D1D1B" d="M466.195,49.094V48.74c-0.221,0.258-0.533,0.394-0.881,0.394c-0.338,0-0.617-0.104-0.807-0.297
		c-0.223-0.219-0.318-0.521-0.318-0.889v-2.021h0.457v1.951c0,0.56,0.293,0.844,0.762,0.844c0.471,0,0.781-0.29,0.781-0.844v-1.951
		h0.457v3.168H466.195z"/>
	<path fill="#1D1D1B" d="M471.771,49.094v-1.951c0-0.561-0.299-0.844-0.768-0.844c-0.457,0-0.781,0.29-0.781,0.792v2.003h-0.457
		v-1.951c0-0.561-0.299-0.844-0.768-0.844c-0.471,0-0.781,0.29-0.781,0.844v1.951h-0.457v-3.168h0.457v0.348
		c0.223-0.258,0.533-0.387,0.883-0.387c0.432,0,0.768,0.181,0.959,0.528c0.24-0.348,0.59-0.528,1.027-0.528
		c0.336,0,0.615,0.109,0.807,0.297c0.223,0.219,0.336,0.515,0.336,0.882v2.028H471.771z"/>
	<path fill="#1D1D1B" d="M475.41,48.856c-0.164,0.167-0.443,0.277-0.762,0.277c-0.342,0-0.627-0.084-0.881-0.419v0.38h-0.457v-4.585
		h0.457v1.784c0.254-0.329,0.539-0.406,0.881-0.406c0.318,0,0.598,0.109,0.762,0.277c0.318,0.322,0.381,0.85,0.381,1.346
		S475.728,48.534,475.41,48.856z M474.554,46.299c-0.68,0-0.787,0.593-0.787,1.211s0.107,1.211,0.787,1.211
		c0.678,0,0.779-0.593,0.779-1.211S475.232,46.299,474.554,46.299z"/>
	<path fill="#1D1D1B" d="M477.025,47.632c0,0.695,0.324,1.095,0.922,1.095c0.361,0,0.57-0.109,0.818-0.36l0.311,0.276
		c-0.316,0.322-0.609,0.49-1.143,0.49c-0.824,0-1.365-0.503-1.365-1.623c0-1.023,0.49-1.623,1.283-1.623
		c0.807,0,1.281,0.593,1.281,1.533v0.212H477.025z M478.582,46.756c-0.121-0.289-0.4-0.476-0.73-0.476s-0.609,0.187-0.73,0.476
		c-0.07,0.175-0.082,0.271-0.096,0.528h1.65C478.664,47.027,478.65,46.931,478.582,46.756z"/>
	<path fill="#1D1D1B" d="M481.822,46.532c-0.172-0.174-0.299-0.232-0.539-0.232c-0.457,0-0.75,0.367-0.75,0.851v1.944h-0.457v-3.168
		h0.457v0.386c0.172-0.264,0.514-0.425,0.877-0.425c0.297,0,0.525,0.071,0.748,0.297L481.822,46.532z"/>
	<path fill="#1D1D1B" d="M485.359,49.133c-0.748,0-1.332-0.528-1.332-1.301c0-0.535,0.299-0.896,0.68-1.114
		c-0.355-0.206-0.592-0.541-0.592-1.018c0-0.715,0.527-1.229,1.244-1.229c0.719,0,1.244,0.515,1.244,1.229
		c0,0.477-0.229,0.812-0.584,1.018c0.381,0.219,0.674,0.579,0.674,1.114C486.693,48.605,486.109,49.133,485.359,49.133z
		 M485.359,46.931c-0.494,0-0.875,0.386-0.875,0.895s0.381,0.896,0.875,0.896c0.496,0,0.877-0.387,0.877-0.896
		S485.855,46.931,485.359,46.931z M485.359,44.883c-0.463,0-0.787,0.348-0.787,0.824c0,0.482,0.324,0.817,0.787,0.817
		c0.465,0,0.787-0.335,0.787-0.817C486.146,45.231,485.824,44.883,485.359,44.883z"/>
	<path fill="#1D1D1B" d="M488.582,49.139c-0.711,0-1.289-0.38-1.326-1.21h0.457c0.037,0.572,0.438,0.798,0.869,0.798
		c0.488,0,0.869-0.328,0.869-0.889c0-0.554-0.273-0.889-0.889-0.889h-0.096v-0.405h0.096c0.553,0,0.807-0.315,0.807-0.831
		c0-0.547-0.35-0.837-0.787-0.837c-0.477,0-0.768,0.296-0.812,0.767h-0.457c0.051-0.741,0.584-1.179,1.27-1.179
		c0.736,0,1.244,0.496,1.244,1.243c0,0.482-0.203,0.83-0.609,1.017c0.457,0.175,0.691,0.548,0.691,1.121
		C489.908,48.689,489.318,49.139,488.582,49.139z"/>
	<path fill="#1D1D1B" d="M491.929,49.133c-0.703,0-1.236-0.503-1.236-1.263v-2.138c0-0.76,0.533-1.262,1.236-1.262
		c0.705,0,1.238,0.502,1.238,1.262v2.138C493.167,48.63,492.634,49.133,491.929,49.133z M492.71,45.758
		c0-0.502-0.279-0.875-0.781-0.875c-0.5,0-0.779,0.373-0.779,0.875v2.087c0,0.502,0.279,0.876,0.779,0.876
		c0.502,0,0.781-0.374,0.781-0.876V45.758z"/>
	<path fill="#1D1D1B" d="M495.214,49.133c-0.705,0-1.238-0.503-1.238-1.263v-2.138c0-0.76,0.533-1.262,1.238-1.262
		s1.238,0.502,1.238,1.262v2.138C496.453,48.63,495.919,49.133,495.214,49.133z M495.996,45.758c0-0.502-0.279-0.875-0.781-0.875
		s-0.781,0.373-0.781,0.875v2.087c0,0.502,0.279,0.876,0.781,0.876s0.781-0.374,0.781-0.876V45.758z"/>
	<path fill="#1D1D1B" d="M498.435,49.139c-0.711,0-1.287-0.38-1.326-1.21h0.457c0.039,0.572,0.438,0.798,0.869,0.798
		c0.49,0,0.871-0.328,0.871-0.889c0-0.554-0.273-0.889-0.889-0.889h-0.096v-0.405h0.096c0.551,0,0.805-0.315,0.805-0.831
		c0-0.547-0.348-0.837-0.787-0.837c-0.475,0-0.768,0.296-0.812,0.767h-0.457c0.051-0.741,0.584-1.179,1.27-1.179
		c0.736,0,1.244,0.496,1.244,1.243c0,0.482-0.203,0.83-0.609,1.017c0.457,0.175,0.693,0.548,0.693,1.121
		C499.763,48.689,499.171,49.139,498.435,49.139z"/>
	<path fill="#1D1D1B" d="M501.765,49.094v-4.069l-0.844,0.753V45.25l0.844-0.741h0.457v4.585H501.765z"/>
	<path fill="#1D1D1B" d="M506.029,46.821l-1.111,2.273h-0.477l1.016-2.061c-0.139,0.064-0.305,0.097-0.482,0.097
		c-0.705,0-1.168-0.548-1.168-1.301c0-0.779,0.482-1.358,1.25-1.358c0.77,0,1.258,0.527,1.258,1.319
		C506.314,46.12,506.218,46.435,506.029,46.821z M505.056,44.883c-0.482,0-0.793,0.367-0.793,0.927c0,0.509,0.273,0.928,0.793,0.928
		c0.482,0,0.801-0.361,0.801-0.928C505.857,45.25,505.539,44.883,505.056,44.883z"/>
</g>
<g>
	<path fill="#1D1D1B" d="M407.312,56.818l-1.027-2.035h-1.086v2.035h-0.482v-4.584h1.732c0.787,0,1.34,0.482,1.34,1.275
		c0,0.67-0.4,1.107-0.984,1.229l1.072,2.08H407.312z M406.404,52.672h-1.205v1.682h1.205c0.527,0,0.902-0.277,0.902-0.838
		S406.931,52.672,406.404,52.672z"/>
	<path fill="#1D1D1B" d="M409.054,55.357c0,0.695,0.324,1.094,0.92,1.094c0.361,0,0.572-0.109,0.818-0.359l0.312,0.275
		c-0.318,0.322-0.609,0.49-1.143,0.49c-0.826,0-1.365-0.502-1.365-1.623c0-1.023,0.488-1.623,1.281-1.623
		c0.807,0,1.283,0.594,1.283,1.533v0.213H409.054z M410.609,54.48c-0.121-0.289-0.4-0.475-0.73-0.475s-0.609,0.186-0.729,0.475
		c-0.07,0.176-0.084,0.271-0.096,0.529h1.65C410.691,54.752,410.679,54.656,410.609,54.48z"/>
	<path fill="#1D1D1B" d="M413.107,58.273c-0.469,0-0.73-0.121-1.061-0.424l0.299-0.297c0.229,0.207,0.387,0.316,0.75,0.316
		c0.602,0,0.855-0.432,0.855-0.973V56.4c-0.254,0.328-0.539,0.412-0.875,0.412c-0.318,0-0.59-0.115-0.756-0.283
		c-0.311-0.316-0.381-0.805-0.381-1.32s0.07-1.004,0.381-1.32c0.166-0.168,0.445-0.277,0.762-0.277c0.344,0,0.623,0.078,0.877,0.412
		V53.65h0.449v3.266C414.408,57.701,413.925,58.273,413.107,58.273z M413.177,54.023c-0.68,0-0.781,0.594-0.781,1.186
		s0.102,1.186,0.781,1.186s0.773-0.594,0.773-1.186S413.857,54.023,413.177,54.023z"/>
	<path fill="#1D1D1B" d="M415.498,52.75v-0.521h0.514v0.521H415.498z M415.523,56.818V53.65h0.457v3.168H415.523z"/>
	<path fill="#1D1D1B" d="M418.085,56.857c-0.527,0-0.939-0.123-1.283-0.457l0.305-0.309c0.248,0.264,0.584,0.367,0.973,0.367
		c0.514,0,0.83-0.188,0.83-0.561c0-0.277-0.158-0.432-0.52-0.465l-0.514-0.045c-0.609-0.051-0.934-0.328-0.934-0.85
		c0-0.58,0.482-0.928,1.148-0.928c0.445,0,0.844,0.109,1.123,0.342l-0.297,0.303c-0.223-0.174-0.508-0.25-0.832-0.25
		c-0.457,0-0.699,0.199-0.699,0.521c0,0.27,0.152,0.43,0.547,0.463l0.502,0.045c0.545,0.051,0.92,0.264,0.92,0.857
		C419.355,56.504,418.841,56.857,418.085,56.857z"/>
	<path fill="#1D1D1B" d="M421.035,56.818c-0.533,0-0.801-0.379-0.801-0.85v-1.945h-0.393V53.67h0.393v-0.992h0.457v0.992h0.666
		v0.354h-0.666v1.932c0,0.291,0.133,0.465,0.426,0.465h0.24v0.398H421.035z"/>
	<path fill="#1D1D1B" d="M422.472,55.357c0,0.695,0.324,1.094,0.922,1.094c0.361,0,0.57-0.109,0.818-0.359l0.311,0.275
		c-0.316,0.322-0.609,0.49-1.143,0.49c-0.824,0-1.365-0.502-1.365-1.623c0-1.023,0.49-1.623,1.283-1.623
		c0.807,0,1.281,0.594,1.281,1.533v0.213H422.472z M424.029,54.48c-0.121-0.289-0.4-0.475-0.73-0.475s-0.609,0.186-0.73,0.475
		c-0.07,0.176-0.082,0.271-0.096,0.529h1.65C424.111,54.752,424.097,54.656,424.029,54.48z"/>
	<path fill="#1D1D1B" d="M427.263,54.256c-0.172-0.174-0.299-0.232-0.539-0.232c-0.457,0-0.75,0.367-0.75,0.852v1.943h-0.457V53.65
		h0.457v0.387c0.172-0.264,0.514-0.426,0.877-0.426c0.297,0,0.525,0.072,0.748,0.297L427.263,54.256z"/>
	<path fill="#1D1D1B" d="M428.232,55.357c0,0.695,0.324,1.094,0.92,1.094c0.361,0,0.572-0.109,0.818-0.359l0.312,0.275
		c-0.318,0.322-0.609,0.49-1.143,0.49c-0.826,0-1.365-0.502-1.365-1.623c0-1.023,0.488-1.623,1.281-1.623
		c0.807,0,1.283,0.594,1.283,1.533v0.213H428.232z M429.787,54.48c-0.121-0.289-0.4-0.475-0.73-0.475s-0.609,0.186-0.729,0.475
		c-0.07,0.176-0.084,0.271-0.096,0.529h1.65C429.869,54.752,429.857,54.656,429.787,54.48z"/>
	<path fill="#1D1D1B" d="M433.148,56.818v-0.379c-0.254,0.334-0.545,0.418-0.889,0.418c-0.316,0-0.596-0.109-0.762-0.277
		c-0.316-0.322-0.381-0.85-0.381-1.346s0.064-1.023,0.381-1.346c0.166-0.168,0.445-0.277,0.762-0.277
		c0.344,0,0.629,0.078,0.883,0.406v-1.783h0.457v4.584H433.148z M432.361,54.023c-0.68,0-0.787,0.594-0.787,1.211
		c0,0.619,0.107,1.211,0.787,1.211s0.781-0.592,0.781-1.211C433.142,54.617,433.041,54.023,432.361,54.023z"/>
	<path fill="#1D1D1B" d="M438.914,56.381c-0.305,0.309-0.705,0.477-1.156,0.477c-0.449,0-0.85-0.168-1.154-0.477
		c-0.426-0.432-0.426-0.883-0.426-1.854c0-0.973,0-1.424,0.426-1.855c0.305-0.309,0.705-0.477,1.154-0.477
		c0.451,0,0.852,0.168,1.156,0.477c0.426,0.432,0.426,0.883,0.426,1.855C439.339,55.498,439.339,55.949,438.914,56.381z
		 M438.539,52.961c-0.197-0.205-0.482-0.328-0.781-0.328c-0.297,0-0.584,0.123-0.779,0.328c-0.287,0.297-0.318,0.605-0.318,1.566
		c0,0.959,0.031,1.268,0.318,1.564c0.195,0.205,0.482,0.328,0.779,0.328c0.299,0,0.584-0.123,0.781-0.328
		c0.285-0.297,0.318-0.605,0.318-1.564C438.857,53.566,438.824,53.258,438.539,52.961z"/>
	<path fill="#1D1D1B" d="M440.916,54.023v2.795h-0.457v-2.795h-0.4V53.67h0.4v-0.6c0-0.469,0.26-0.85,0.793-0.85h0.33v0.4h-0.246
		c-0.293,0-0.42,0.174-0.42,0.463v0.586h0.666v0.354H440.916z"/>
	<path fill="#1D1D1B" d="M442.875,54.023v2.795h-0.457v-2.795h-0.398V53.67h0.398v-0.6c0-0.469,0.262-0.85,0.795-0.85h0.33v0.4
		h-0.248c-0.293,0-0.42,0.174-0.42,0.463v0.586h0.668v0.354H442.875z M444.253,52.705v-0.477h0.52v0.477H444.253z M444.285,56.818
		V53.67h0.457v3.148H444.285z"/>
	<path fill="#1D1D1B" d="M447.074,56.857c-0.787,0-1.383-0.541-1.383-1.623s0.596-1.623,1.383-1.623
		c0.432,0,0.705,0.117,1.029,0.471l-0.311,0.297c-0.236-0.264-0.42-0.355-0.719-0.355c-0.305,0-0.559,0.123-0.723,0.361
		c-0.146,0.207-0.203,0.451-0.203,0.85c0,0.4,0.057,0.645,0.203,0.85c0.164,0.238,0.418,0.361,0.723,0.361
		c0.299,0,0.482-0.096,0.719-0.361l0.311,0.303C447.779,56.742,447.505,56.857,447.074,56.857z"/>
	<path fill="#1D1D1B" d="M449.128,55.357c0,0.695,0.324,1.094,0.92,1.094c0.361,0,0.572-0.109,0.818-0.359l0.312,0.275
		c-0.318,0.322-0.609,0.49-1.143,0.49c-0.826,0-1.365-0.502-1.365-1.623c0-1.023,0.488-1.623,1.281-1.623
		c0.807,0,1.283,0.594,1.283,1.533v0.213H449.128z M450.683,54.48c-0.121-0.289-0.4-0.475-0.73-0.475s-0.609,0.186-0.729,0.475
		c-0.07,0.176-0.084,0.271-0.096,0.529h1.65C450.765,54.752,450.753,54.656,450.683,54.48z"/>
	<path fill="#1D1D1B" d="M455.503,56.818v-0.303c-0.254,0.258-0.482,0.342-0.902,0.342c-0.432,0-0.686-0.084-0.881-0.289
		c-0.152-0.154-0.236-0.393-0.236-0.645c0-0.555,0.381-0.914,1.08-0.914h0.939v-0.303c0-0.463-0.229-0.695-0.801-0.695
		c-0.398,0-0.602,0.096-0.787,0.359l-0.311-0.289c0.279-0.367,0.598-0.471,1.105-0.471c0.838,0,1.25,0.367,1.25,1.057v2.15H455.503z
		 M455.503,55.357h-0.877c-0.469,0-0.697,0.193-0.697,0.561s0.223,0.541,0.717,0.541c0.268,0,0.502-0.02,0.699-0.213
		c0.107-0.104,0.158-0.283,0.158-0.547V55.357z"/>
	<path fill="#1D1D1B" d="M458.908,56.818v-0.379c-0.254,0.334-0.545,0.418-0.889,0.418c-0.316,0-0.596-0.109-0.762-0.277
		c-0.316-0.322-0.381-0.85-0.381-1.346s0.064-1.023,0.381-1.346c0.166-0.168,0.445-0.277,0.762-0.277
		c0.344,0,0.629,0.078,0.883,0.406v-1.783h0.457v4.584H458.908z M458.121,54.023c-0.68,0-0.787,0.594-0.787,1.211
		c0,0.619,0.107,1.211,0.787,1.211s0.781-0.592,0.781-1.211C458.902,54.617,458.8,54.023,458.121,54.023z"/>
	<path fill="#1D1D1B" d="M462.333,56.818v-0.379c-0.254,0.334-0.547,0.418-0.889,0.418c-0.318,0-0.598-0.109-0.762-0.277
		c-0.318-0.322-0.381-0.85-0.381-1.346s0.062-1.023,0.381-1.346c0.164-0.168,0.443-0.277,0.762-0.277
		c0.342,0,0.627,0.078,0.881,0.406v-1.783h0.457v4.584H462.333z M461.546,54.023c-0.68,0-0.787,0.594-0.787,1.211
		c0,0.619,0.107,1.211,0.787,1.211c0.678,0,0.779-0.592,0.779-1.211C462.326,54.617,462.224,54.023,461.546,54.023z"/>
	<path fill="#1D1D1B" d="M465.642,54.256c-0.17-0.174-0.297-0.232-0.539-0.232c-0.457,0-0.748,0.367-0.748,0.852v1.943h-0.457V53.65
		h0.457v0.387c0.17-0.264,0.514-0.426,0.875-0.426c0.299,0,0.527,0.072,0.75,0.297L465.642,54.256z"/>
	<path fill="#1D1D1B" d="M466.605,55.357c0,0.695,0.324,1.094,0.922,1.094c0.361,0,0.57-0.109,0.818-0.359l0.311,0.275
		c-0.316,0.322-0.609,0.49-1.143,0.49c-0.824,0-1.365-0.502-1.365-1.623c0-1.023,0.49-1.623,1.283-1.623
		c0.807,0,1.281,0.594,1.281,1.533v0.213H466.605z M468.162,54.48c-0.121-0.289-0.4-0.475-0.73-0.475s-0.609,0.186-0.73,0.475
		c-0.07,0.176-0.082,0.271-0.096,0.529h1.65C468.244,54.752,468.23,54.656,468.162,54.48z"/>
	<path fill="#1D1D1B" d="M470.64,56.857c-0.527,0-0.939-0.123-1.283-0.457l0.305-0.309c0.248,0.264,0.584,0.367,0.973,0.367
		c0.514,0,0.83-0.188,0.83-0.561c0-0.277-0.158-0.432-0.52-0.465l-0.514-0.045c-0.609-0.051-0.934-0.328-0.934-0.85
		c0-0.58,0.482-0.928,1.148-0.928c0.445,0,0.844,0.109,1.123,0.342l-0.297,0.303c-0.223-0.174-0.508-0.25-0.832-0.25
		c-0.457,0-0.699,0.199-0.699,0.521c0,0.27,0.152,0.43,0.547,0.463l0.502,0.045c0.545,0.051,0.92,0.264,0.92,0.857
		C471.91,56.504,471.396,56.857,470.64,56.857z"/>
	<path fill="#1D1D1B" d="M473.652,56.857c-0.525,0-0.939-0.123-1.281-0.457l0.305-0.309c0.248,0.264,0.584,0.367,0.971,0.367
		c0.514,0,0.832-0.188,0.832-0.561c0-0.277-0.158-0.432-0.521-0.465l-0.514-0.045c-0.609-0.051-0.934-0.328-0.934-0.85
		c0-0.58,0.482-0.928,1.15-0.928c0.443,0,0.844,0.109,1.123,0.342l-0.299,0.303c-0.223-0.174-0.508-0.25-0.832-0.25
		c-0.457,0-0.697,0.199-0.697,0.521c0,0.27,0.152,0.43,0.545,0.463l0.502,0.045c0.547,0.051,0.92,0.264,0.92,0.857
		C474.921,56.504,474.408,56.857,473.652,56.857z"/>
	<path fill="#1D1D1B" d="M475.947,54.881v-0.605h0.598v0.605H475.947z M475.947,56.818v-0.605h0.598v0.605H475.947z"/>
</g>
<g>
	<path fill="#1D1D1B" d="M405.718,64.584c-0.748,0-1.332-0.529-1.332-1.301c0-0.535,0.299-0.896,0.68-1.115
		c-0.355-0.205-0.592-0.541-0.592-1.018c0-0.715,0.527-1.229,1.244-1.229c0.719,0,1.244,0.514,1.244,1.229
		c0,0.477-0.229,0.812-0.584,1.018c0.381,0.219,0.674,0.58,0.674,1.115C407.052,64.055,406.468,64.584,405.718,64.584z
		 M405.718,62.381c-0.494,0-0.875,0.387-0.875,0.895c0,0.51,0.381,0.896,0.875,0.896c0.496,0,0.877-0.387,0.877-0.896
		C406.595,62.768,406.214,62.381,405.718,62.381z M405.718,60.334c-0.463,0-0.787,0.348-0.787,0.824
		c0,0.482,0.324,0.816,0.787,0.816c0.465,0,0.787-0.334,0.787-0.816C406.505,60.682,406.183,60.334,405.718,60.334z"/>
	<path fill="#1D1D1B" d="M407.779,64.545v-0.412l1.783-2.299c0.172-0.227,0.254-0.426,0.254-0.676c0-0.496-0.291-0.824-0.787-0.824
		c-0.418,0-0.787,0.238-0.787,0.83h-0.457c0-0.721,0.49-1.242,1.244-1.242c0.744,0,1.244,0.482,1.244,1.236
		c0,0.367-0.113,0.605-0.361,0.926l-1.58,2.049h1.941v0.412H407.779z"/>
	<path fill="#1D1D1B" d="M414.001,64.584c-0.68,0-1.123-0.174-1.549-0.605l0.33-0.336c0.375,0.381,0.725,0.502,1.232,0.502
		c0.66,0,1.066-0.314,1.066-0.85c0-0.238-0.07-0.443-0.217-0.572s-0.26-0.168-0.59-0.219l-0.527-0.084
		c-0.355-0.059-0.635-0.174-0.832-0.348c-0.229-0.207-0.342-0.49-0.342-0.857c0-0.779,0.553-1.293,1.447-1.293
		c0.578,0,0.959,0.146,1.346,0.502l-0.311,0.314c-0.279-0.258-0.578-0.393-1.055-0.393c-0.604,0-0.951,0.342-0.951,0.85
		c0,0.227,0.062,0.406,0.203,0.529c0.139,0.121,0.373,0.213,0.609,0.25l0.494,0.078c0.426,0.064,0.635,0.154,0.826,0.322
		c0.246,0.213,0.381,0.527,0.381,0.908C415.564,64.088,414.941,64.584,414.001,64.584z"/>
	<path fill="#1D1D1B" d="M417.337,64.545c-0.533,0-0.801-0.381-0.801-0.85V61.75h-0.393v-0.354h0.393v-0.992h0.457v0.992h0.666
		v0.354h-0.666v1.932c0,0.289,0.133,0.463,0.426,0.463h0.24v0.4H417.337z"/>
	<path fill="#1D1D1B" d="M420.705,64.584c-0.432,0-0.756-0.129-1.035-0.412l0.324-0.33c0.164,0.168,0.336,0.303,0.711,0.303
		c0.59,0,0.926-0.379,0.926-1.055v-3.131h0.482v3.195C422.113,64.035,421.529,64.584,420.705,64.584z"/>
	<path fill="#1D1D1B" d="M425.253,64.223c-0.217,0.219-0.516,0.361-0.896,0.361s-0.678-0.143-0.895-0.361
		c-0.316-0.328-0.381-0.773-0.381-1.262c0-0.49,0.064-0.934,0.381-1.262c0.217-0.221,0.514-0.361,0.895-0.361
		s0.68,0.141,0.896,0.361c0.316,0.328,0.381,0.771,0.381,1.262C425.634,63.449,425.57,63.895,425.253,64.223z M424.929,61.982
		c-0.146-0.148-0.35-0.232-0.572-0.232c-0.221,0-0.418,0.084-0.564,0.232c-0.229,0.23-0.254,0.623-0.254,0.979
		c0,0.354,0.025,0.746,0.254,0.979c0.146,0.148,0.344,0.232,0.564,0.232c0.223,0,0.426-0.084,0.572-0.232
		c0.229-0.232,0.248-0.625,0.248-0.979C425.177,62.605,425.158,62.213,424.929,61.982z"/>
	<path fill="#1D1D1B" d="M428.582,64.545v-1.957c0-0.555-0.291-0.838-0.762-0.838c-0.469,0-0.779,0.289-0.779,0.838v1.957h-0.457
		v-4.586h0.457v1.766c0.229-0.264,0.525-0.387,0.875-0.387c0.705,0,1.123,0.457,1.123,1.172v2.035H428.582z"/>
	<path fill="#1D1D1B" d="M432.121,64.545v-1.951c0-0.561-0.299-0.844-0.768-0.844c-0.471,0-0.775,0.289-0.775,0.844v1.951h-0.457
		v-3.168h0.457v0.348c0.223-0.258,0.527-0.387,0.877-0.387c0.336,0,0.609,0.104,0.799,0.297c0.223,0.219,0.324,0.514,0.324,0.881
		v2.029H432.121z"/>
	<path fill="#1D1D1B" d="M436.458,64.584c-0.68,0-1.125-0.174-1.549-0.605l0.33-0.336c0.373,0.381,0.723,0.502,1.23,0.502
		c0.66,0,1.066-0.314,1.066-0.85c0-0.238-0.07-0.443-0.215-0.572c-0.146-0.129-0.262-0.168-0.592-0.219l-0.525-0.084
		c-0.355-0.059-0.635-0.174-0.832-0.348c-0.229-0.207-0.344-0.49-0.344-0.857c0-0.779,0.553-1.293,1.447-1.293
		c0.578,0,0.959,0.146,1.346,0.502l-0.311,0.314c-0.279-0.258-0.578-0.393-1.053-0.393c-0.604,0-0.953,0.342-0.953,0.85
		c0,0.227,0.064,0.406,0.203,0.529c0.141,0.121,0.375,0.213,0.609,0.25l0.496,0.078c0.424,0.064,0.635,0.154,0.824,0.322
		c0.248,0.213,0.381,0.527,0.381,0.908C438.019,64.088,437.398,64.584,436.458,64.584z"/>
	<path fill="#1D1D1B" d="M439.794,64.545c-0.533,0-0.801-0.381-0.801-0.85V61.75h-0.393v-0.354h0.393v-0.992h0.457v0.992h0.666
		v0.354h-0.666v1.932c0,0.289,0.133,0.463,0.426,0.463h0.24v0.4H439.794z"/>
	<path fill="#1D1D1B" d="M442.744,61.982c-0.172-0.174-0.299-0.232-0.539-0.232c-0.457,0-0.75,0.367-0.75,0.85v1.945h-0.457v-3.168
		h0.457v0.387c0.172-0.266,0.514-0.426,0.877-0.426c0.297,0,0.525,0.07,0.748,0.297L442.744,61.982z"/>
	<path fill="#1D1D1B" d="M443.705,63.082c0,0.695,0.324,1.096,0.922,1.096c0.361,0,0.57-0.109,0.818-0.361l0.311,0.277
		c-0.316,0.322-0.609,0.49-1.143,0.49c-0.824,0-1.365-0.504-1.365-1.623c0-1.023,0.49-1.623,1.283-1.623
		c0.807,0,1.281,0.592,1.281,1.533v0.211H443.705z M445.261,62.207c-0.121-0.289-0.4-0.477-0.73-0.477s-0.609,0.188-0.73,0.477
		c-0.07,0.174-0.082,0.27-0.096,0.527h1.65C445.343,62.477,445.33,62.381,445.261,62.207z"/>
	<path fill="#1D1D1B" d="M447.035,63.082c0,0.695,0.324,1.096,0.922,1.096c0.361,0,0.57-0.109,0.818-0.361l0.311,0.277
		c-0.316,0.322-0.609,0.49-1.143,0.49c-0.824,0-1.365-0.504-1.365-1.623c0-1.023,0.49-1.623,1.283-1.623
		c0.807,0,1.281,0.592,1.281,1.533v0.211H447.035z M448.591,62.207c-0.121-0.289-0.4-0.477-0.73-0.477s-0.609,0.188-0.73,0.477
		c-0.07,0.174-0.082,0.27-0.096,0.527h1.65C448.673,62.477,448.66,62.381,448.591,62.207z"/>
	<path fill="#1D1D1B" d="M450.96,64.545c-0.533,0-0.799-0.381-0.799-0.85V61.75h-0.395v-0.354h0.395v-0.992h0.457v0.992h0.666v0.354
		h-0.666v1.932c0,0.289,0.133,0.463,0.424,0.463h0.242v0.4H450.96z"/>
	<path fill="#1D1D1B" d="M452.152,65.473v-1.494h0.559v0.984L452.152,65.473z"/>
	<path fill="#1D1D1B" d="M455.451,64.545v-4.586h0.482v4.148h2.311v0.438H455.451z"/>
	<path fill="#1D1D1B" d="M460.976,64.223c-0.217,0.219-0.516,0.361-0.896,0.361s-0.678-0.143-0.895-0.361
		c-0.316-0.328-0.381-0.773-0.381-1.262c0-0.49,0.064-0.934,0.381-1.262c0.217-0.221,0.514-0.361,0.895-0.361
		s0.68,0.141,0.896,0.361c0.316,0.328,0.381,0.771,0.381,1.262C461.357,63.449,461.292,63.895,460.976,64.223z M460.652,61.982
		c-0.146-0.148-0.35-0.232-0.572-0.232c-0.221,0-0.418,0.084-0.564,0.232c-0.229,0.23-0.254,0.623-0.254,0.979
		c0,0.354,0.025,0.746,0.254,0.979c0.146,0.148,0.344,0.232,0.564,0.232c0.223,0,0.426-0.084,0.572-0.232
		c0.229-0.232,0.248-0.625,0.248-0.979C460.9,62.605,460.88,62.213,460.652,61.982z"/>
	<path fill="#1D1D1B" d="M464.304,64.545v-1.951c0-0.561-0.297-0.844-0.768-0.844c-0.469,0-0.773,0.289-0.773,0.844v1.951h-0.457
		v-3.168h0.457v0.348c0.221-0.258,0.525-0.387,0.875-0.387c0.336,0,0.609,0.104,0.801,0.297c0.221,0.219,0.322,0.514,0.322,0.881
		v2.029H464.304z"/>
	<path fill="#1D1D1B" d="M467.71,64.545v-0.381c-0.254,0.336-0.545,0.42-0.889,0.42c-0.316,0-0.596-0.111-0.762-0.277
		c-0.316-0.322-0.381-0.85-0.381-1.346s0.064-1.023,0.381-1.346c0.166-0.168,0.445-0.277,0.762-0.277
		c0.344,0,0.629,0.076,0.883,0.406v-1.785h0.457v4.586H467.71z M466.923,61.75c-0.68,0-0.787,0.592-0.787,1.211
		c0,0.617,0.107,1.211,0.787,1.211s0.781-0.594,0.781-1.211C467.705,62.342,467.603,61.75,466.923,61.75z"/>
	<path fill="#1D1D1B" d="M471.281,64.223c-0.215,0.219-0.514,0.361-0.895,0.361s-0.68-0.143-0.895-0.361
		c-0.318-0.328-0.381-0.773-0.381-1.262c0-0.49,0.062-0.934,0.381-1.262c0.215-0.221,0.514-0.361,0.895-0.361
		s0.68,0.141,0.895,0.361c0.318,0.328,0.381,0.771,0.381,1.262C471.662,63.449,471.599,63.895,471.281,64.223z M470.957,61.982
		c-0.145-0.148-0.348-0.232-0.57-0.232s-0.42,0.084-0.564,0.232c-0.229,0.23-0.254,0.623-0.254,0.979
		c0,0.354,0.025,0.746,0.254,0.979c0.145,0.148,0.342,0.232,0.564,0.232s0.426-0.084,0.57-0.232
		c0.229-0.232,0.248-0.625,0.248-0.979C471.205,62.605,471.185,62.213,470.957,61.982z"/>
	<path fill="#1D1D1B" d="M474.611,64.545v-1.951c0-0.561-0.299-0.844-0.768-0.844c-0.471,0-0.775,0.289-0.775,0.844v1.951h-0.457
		v-3.168h0.457v0.348c0.223-0.258,0.527-0.387,0.877-0.387c0.336,0,0.609,0.104,0.799,0.297c0.223,0.219,0.324,0.514,0.324,0.881
		v2.029H474.611z"/>
	<path fill="#1D1D1B" d="M476.138,65.473v-1.494h0.559v0.984L476.138,65.473z"/>
	<path fill="#1D1D1B" d="M479.429,64.545v-4.586h2.805v0.439h-2.322v1.615h1.98v0.438h-1.98v1.656h2.322v0.438H479.429z"/>
	<path fill="#1D1D1B" d="M484.617,64.584c-0.443,0-0.85-0.168-1.154-0.477c-0.426-0.432-0.426-0.883-0.426-1.855
		s0-1.424,0.426-1.854c0.305-0.311,0.711-0.477,1.154-0.477c0.812,0,1.416,0.502,1.568,1.365h-0.494
		c-0.121-0.561-0.508-0.928-1.074-0.928c-0.297,0-0.584,0.115-0.779,0.322c-0.287,0.295-0.318,0.611-0.318,1.57
		s0.031,1.275,0.318,1.572c0.195,0.205,0.482,0.32,0.779,0.32c0.566,0,0.965-0.367,1.086-0.926h0.482
		C486.039,64.08,485.423,64.584,484.617,64.584z"/>
	<path fill="#1D1D1B" d="M488.207,64.545v-4.07l-0.844,0.754v-0.527l0.844-0.742h0.457v4.586H488.207z"/>
	<path fill="#1D1D1B" d="M493.898,64.545v-3.484l-1.238,2.764h-0.412l-1.258-2.764v3.484h-0.482v-4.586h0.482l1.473,3.252
		l1.436-3.252h0.482v4.586H493.898z"/>
	<path fill="#1D1D1B" d="M499.058,63.816v0.729h-0.449v-0.729h-1.803v-0.418l1.631-3.439h0.488l-1.631,3.439h1.314v-1.301h0.449
		v1.301h0.553v0.418H499.058z"/>
	<path fill="#1D1D1B" d="M501.017,64.584c-0.432,0-0.756-0.129-1.035-0.412l0.324-0.33c0.164,0.168,0.336,0.303,0.711,0.303
		c0.59,0,0.926-0.379,0.926-1.055v-3.131h0.482v3.195C502.425,64.035,501.841,64.584,501.017,64.584z"/>
	<path fill="#1D1D1B" d="M506.523,64.545l-2.398-3.678v3.678h-0.482v-4.586h0.457l2.398,3.664v-3.664h0.482v4.586H506.523z"/>
</g>
<g>
	<path fill="#1D1D1B" d="M311.751,38.536v5.031h-1.559v-5.031h-1.561v-1.411h4.678v1.411H311.751z"/>
	<path fill="#1D1D1B" d="M314.82,41.613c0,0.397,0.303,0.76,0.848,0.76c0.508,0,0.73-0.145,0.988-0.407l0.873,0.887
		c-0.49,0.498-0.971,0.77-1.861,0.77c-1.061,0-2.281-0.39-2.281-2.488c0-1.593,0.891-2.489,2.146-2.489
		c1.391,0,2.156,1.032,2.156,2.308v0.661H314.82z M316.166,40.247c-0.09-0.209-0.285-0.381-0.633-0.381s-0.543,0.172-0.633,0.381
		c-0.062,0.126-0.08,0.262-0.08,0.38h1.426C316.246,40.508,316.228,40.373,316.166,40.247z"/>
	<path fill="#1D1D1B" d="M320.029,43.567c-1.061,0-1.488-0.77-1.488-1.438v-5.004h1.461v4.896c0,0.189,0.098,0.298,0.295,0.298
		h0.508v1.249H320.029z"/>
	<path fill="#1D1D1B" d="M321.787,41.278v-1.629h1.604v1.629H321.787z M321.787,43.567v-1.629h1.604v1.629H321.787z"/>
	<path fill="#1D1D1B" d="M328.357,43.622c-1.051,0-2.041-0.679-2.041-2.009v-2.534c0-1.33,0.99-2.009,2.041-2.009
		s2.041,0.679,2.041,2.009v2.534C330.398,42.943,329.408,43.622,328.357,43.622z M328.937,39.079c0-0.452-0.268-0.669-0.58-0.669
		s-0.578,0.217-0.578,0.669v2.543c0,0.452,0.266,0.66,0.578,0.66s0.58-0.208,0.58-0.66V39.079z"/>
	<path fill="#1D1D1B" d="M331.312,43.567v-1.339l2.299-2.534c0.23-0.253,0.32-0.416,0.32-0.688c0-0.353-0.195-0.597-0.57-0.597
		c-0.268,0-0.588,0.126-0.588,0.624h-1.461c0-1.267,0.943-1.964,2.049-1.964c1.176,0,2.031,0.733,2.031,1.945
		c0,0.679-0.275,1.041-0.783,1.584l-1.516,1.629h2.299v1.339H331.312z"/>
	<path fill="#1D1D1B" d="M338.275,43.622c-1.053,0-2.041-0.679-2.041-2.009v-2.534c0-1.33,0.988-2.009,2.041-2.009
		c1.051,0,2.039,0.679,2.039,2.009v2.534C340.314,42.943,339.326,43.622,338.275,43.622z M338.853,39.079
		c0-0.452-0.268-0.669-0.578-0.669c-0.312,0-0.58,0.217-0.58,0.669v2.543c0,0.452,0.268,0.66,0.58,0.66
		c0.311,0,0.578-0.208,0.578-0.66V39.079z"/>
	<path fill="#1D1D1B" d="M343.242,43.622c-1.051,0-2.111-0.57-2.111-2.019h1.461c0,0.453,0.285,0.679,0.65,0.679
		c0.383,0,0.65-0.226,0.65-0.688c0-0.389-0.285-0.679-0.678-0.679h-0.203V39.63h0.203c0.438,0,0.607-0.316,0.607-0.605
		c0-0.407-0.277-0.615-0.58-0.615s-0.578,0.217-0.578,0.605h-1.463c0-1.212,0.91-1.945,2.041-1.945c1.176,0,2.041,0.797,2.041,1.909
		c0,0.706-0.338,1.05-0.66,1.258c0.348,0.244,0.73,0.634,0.73,1.402C345.353,42.988,344.355,43.622,343.242,43.622z"/>
	<path fill="#1D1D1B" d="M351.945,42.716v0.851h-1.391v-0.851h-2.629v-1.411l2.104-4.181h1.604l-2.102,4.181h1.023v-0.851h1.391
		v0.851h0.473v1.411H351.945z"/>
	<path fill="#1D1D1B" d="M355.326,43.567h-1.604l1.979-5.104h-1.355v1.014h-1.391v-2.353h4.35v1.339L355.326,43.567z"/>
	<path fill="#1D1D1B" d="M361.585,43.069c-0.275,0.281-0.758,0.553-1.471,0.553s-1.229-0.281-1.506-0.562
		c-0.453-0.461-0.516-0.986-0.553-1.457h1.463c0.043,0.426,0.223,0.679,0.596,0.679c0.18,0,0.295-0.045,0.41-0.163
		c0.135-0.135,0.188-0.37,0.188-0.751c0-0.715-0.24-0.913-0.598-0.913c-0.428,0-0.533,0.289-0.596,0.461h-1.346v-3.791h3.867v1.339
		H359.5v0.995c0.125-0.1,0.465-0.253,0.855-0.253c0.553,0,0.973,0.19,1.23,0.452c0.518,0.525,0.588,1.104,0.588,1.71
		C362.173,42.146,362.058,42.589,361.585,43.069z"/>
	<path fill="#1D1D1B" d="M367.222,43.567h-1.604l1.979-5.104h-1.354v1.014h-1.391v-2.353h4.348v1.339L367.222,43.567z"/>
	<path fill="#1D1D1B" d="M373.759,42.716v0.851h-1.391v-0.851h-2.629v-1.411l2.104-4.181h1.604l-2.104,4.181h1.025v-0.851h1.391
		v0.851h0.471v1.411H373.759z"/>
	<path fill="#1D1D1B" d="M377.14,43.567h-1.604l1.979-5.104h-1.355v1.014h-1.391v-2.353h4.35v1.339L377.14,43.567z"/>
	<path fill="#1D1D1B" d="M383.4,43.069c-0.275,0.281-0.758,0.553-1.471,0.553s-1.229-0.281-1.506-0.562
		c-0.453-0.461-0.516-0.986-0.553-1.457h1.463c0.043,0.426,0.223,0.679,0.596,0.679c0.18,0,0.295-0.045,0.41-0.163
		c0.135-0.135,0.188-0.37,0.188-0.751c0-0.715-0.24-0.913-0.598-0.913c-0.428,0-0.533,0.289-0.596,0.461h-1.346v-3.791h3.867v1.339
		h-2.541v0.995c0.125-0.1,0.465-0.253,0.855-0.253c0.553,0,0.973,0.19,1.23,0.452c0.518,0.525,0.588,1.104,0.588,1.71
		C383.988,42.146,383.873,42.589,383.4,43.069z"/>
</g>
<line fill="none" stroke="#3F3F3E" stroke-width="0.503" x1="394.378" y1="36.412" x2="394.378" y2="64.809"/>
<g>
	<path fill="#E4005B" d="M86.072,64.752v-8.203h1.244v8.203H86.072z"/>
	<path fill="#E4005B" d="M94.296,64.752l-3.791-5.771v5.771h-1.244v-8.203h1.141l3.79,5.76v-5.76h1.244v8.203H94.296z"/>
	<path fill="#E4005B" d="M99.559,64.82c-1.232,0-2.12-0.287-2.903-1.082l0.83-0.818c0.599,0.6,1.255,0.783,2.097,0.783
		c1.071,0,1.693-0.461,1.693-1.256c0-0.357-0.104-0.656-0.323-0.852c-0.207-0.197-0.415-0.277-0.898-0.346l-0.968-0.139
		c-0.668-0.092-1.198-0.322-1.555-0.656c-0.403-0.381-0.599-0.898-0.599-1.568c0-1.428,1.037-2.406,2.742-2.406
		c1.083,0,1.843,0.275,2.546,0.932l-0.795,0.785c-0.507-0.484-1.095-0.635-1.786-0.635c-0.968,0-1.498,0.553-1.498,1.279
		c0,0.299,0.092,0.564,0.311,0.76c0.208,0.186,0.542,0.322,0.922,0.381l0.933,0.139c0.76,0.115,1.187,0.299,1.532,0.609
		c0.449,0.393,0.668,0.98,0.668,1.682C102.508,63.922,101.275,64.82,99.559,64.82z"/>
	<path fill="#E4005B" d="M107.08,61.525h-1.867v3.227h-1.244v-8.203h3.111c1.601,0,2.626,1.061,2.626,2.488
		C109.707,60.467,108.681,61.525,107.08,61.525z M107.011,57.666h-1.797v2.73h1.797c0.864,0,1.452-0.494,1.452-1.359
		C108.462,58.174,107.875,57.666,107.011,57.666z"/>
	<path fill="#E4005B" d="M111.018,64.752v-8.203h1.244v8.203H111.018z"/>
	<path fill="#E4005B" d="M118.736,64.752l-1.728-3.457h-1.556v3.457h-1.244v-8.203h3.18c1.555,0,2.546,1.002,2.546,2.396
		c0,1.176-0.714,1.924-1.636,2.178l1.889,3.629H118.736z M117.295,57.666h-1.843v2.57h1.843c0.83,0,1.394-0.473,1.394-1.279
		S118.125,57.666,117.295,57.666z"/>
	<path fill="#E4005B" d="M121.556,64.752v-8.203h5.242v1.117H122.8v2.396h3.41v1.105h-3.41v2.467h3.998v1.117H121.556z"/>
	<path fill="#E4005B" d="M133.546,61.377v3.375h-1.245v-3.375l-2.454-4.828h1.359l1.717,3.605l1.716-3.605H136L133.546,61.377z"/>
	<path fill="#E4005B" d="M141.631,63.945c-0.564,0.564-1.29,0.875-2.166,0.875s-1.59-0.311-2.154-0.875
		c-0.807-0.807-0.795-1.717-0.795-3.295s-0.012-2.488,0.795-3.295c0.564-0.564,1.279-0.875,2.154-0.875s1.601,0.311,2.166,0.875
		c0.807,0.807,0.784,1.717,0.784,3.295S142.438,63.139,141.631,63.945z M140.687,58.104c-0.288-0.311-0.737-0.506-1.221-0.506
		s-0.933,0.195-1.221,0.506c-0.403,0.438-0.484,0.898-0.484,2.547c0,1.646,0.081,2.107,0.484,2.545
		c0.288,0.312,0.737,0.508,1.221,0.508s0.933-0.195,1.221-0.508c0.403-0.438,0.484-0.898,0.484-2.545
		C141.171,59.002,141.09,58.541,140.687,58.104z"/>
	<path fill="#E4005B" d="M146.871,64.82c-1.67,0-2.938-1.141-2.938-2.834v-5.438h1.244v5.381c0,1.094,0.668,1.773,1.693,1.773
		s1.705-0.68,1.705-1.773v-5.381h1.244v5.438C149.82,63.68,148.542,64.82,146.871,64.82z"/>
	<path fill="#E4005B" d="M156.166,64.752l-1.729-3.457h-1.555v3.457h-1.244v-8.203h3.18c1.555,0,2.546,1.002,2.546,2.396
		c0,1.176-0.714,1.924-1.636,2.178l1.889,3.629H156.166z M154.726,57.666h-1.843v2.57h1.843c0.83,0,1.394-0.473,1.394-1.279
		S155.555,57.666,154.726,57.666z"/>
	<path fill="#E4005B" d="M164.193,64.82c-0.853,0-1.59-0.311-2.154-0.875c-0.807-0.807-0.795-1.717-0.795-3.295
		s-0.012-2.488,0.795-3.295c0.564-0.564,1.302-0.875,2.154-0.875c1.509,0,2.638,0.887,2.926,2.521h-1.268
		c-0.196-0.828-0.749-1.404-1.659-1.404c-0.484,0-0.922,0.184-1.21,0.494c-0.403,0.439-0.495,0.91-0.495,2.559
		c0,1.646,0.092,2.119,0.495,2.557c0.288,0.312,0.726,0.496,1.21,0.496c0.91,0,1.475-0.576,1.67-1.406h1.256
		C166.842,63.934,165.679,64.82,164.193,64.82z"/>
	<path fill="#E4005B" d="M168.58,64.752v-8.203h1.244v7.086h3.952v1.117H168.58z"/>
	<path fill="#E4005B" d="M174.995,64.752v-8.203h1.244v8.203H174.995z"/>
	<path fill="#E4005B" d="M178.185,64.752v-8.203h5.242v1.117h-3.998v2.396h3.41v1.105h-3.41v2.467h3.998v1.117H178.185z"/>
	<path fill="#E4005B" d="M189.969,64.752l-3.791-5.771v5.771h-1.244v-8.203h1.141l3.79,5.76v-5.76h1.244v8.203H189.969z"/>
	<path fill="#E4005B" d="M195.83,57.666v7.086h-1.244v-7.086h-2.258v-1.117h5.76v1.117H195.83z"/>
</g>
<g>
	<defs>
		<rect id="SVGID_1_" x="1.001" y="7.678" width="595.274" height="99.211"/>
	</defs>
	<clipPath id="SVGID_2_">
		<use xlink:href="#SVGID_1_"  overflow="visible"/>
	</clipPath>
	<path clip-path="url(#SVGID_2_)" fill="#1D1D1B" d="M198.371,36.412h-13.365v3.834h4.773v11.426h3.818V40.246h4.774V36.412z
		 M184.445,41.18c0-1.307-0.461-2.418-1.405-3.359c-0.928-0.936-2.054-1.408-3.354-1.408H169.18v15.26h3.824V40.246h6.299
		c0.362,0,0.674,0.123,0.932,0.385c0.263,0.26,0.391,0.57,0.391,0.938v10.104h3.819V41.18z M167.86,36.412h-3.827v15.26h3.827
		V36.412z M158.502,43.645c-0.257,0.254-0.571,0.393-0.933,0.393h-6.293v-3.791h6.293c0.365,0,0.676,0.123,0.928,0.385
		c0.269,0.256,0.396,0.57,0.396,0.928v1.146C158.893,43.074,158.766,43.389,158.502,43.645 M162.719,41.18
		c0-1.309-0.47-2.424-1.406-3.359c-0.935-0.936-2.058-1.408-3.362-1.408h-10.502l0.001,15.26h3.826v-3.809l4.962,3.809h5.532
		l-5.343-3.809h1.527c1.305,0,2.424-0.473,3.354-1.4c0.941-0.939,1.411-2.059,1.411-3.379V41.18z M142.112,43.645
		c-0.264,0.254-0.571,0.393-0.936,0.393h-6.295v-3.791l6.295-0.012c0.365,0.012,0.672,0.135,0.936,0.396
		c0.256,0.256,0.391,0.57,0.391,0.928v1.146C142.503,43.074,142.368,43.385,142.112,43.645 M146.324,41.18
		c0-1.309-0.465-2.424-1.415-3.359c-0.925-0.936-2.046-1.408-3.346-1.408h-10.509v15.26h3.827v-3.809l6.689-0.01
		c1.296,0.01,2.414-0.463,3.339-1.391c0.948-0.939,1.415-2.062,1.415-3.379V41.18z M119.633,47.863c-0.313,0-0.583-0.117-0.81-0.352
		c-0.233-0.221-0.349-0.488-0.349-0.793c0.003-0.299,0.116-0.557,0.349-0.787c0.227-0.227,0.5-0.342,0.81-0.342l6.471,0.002v2.271
		H119.633z M129.931,41.18c0-1.307-0.468-2.418-1.411-3.359c-0.934-0.936-2.057-1.408-3.36-1.408h-9.542v3.834h9.353
		c0.307,0,0.568,0.109,0.789,0.344c0.231,0.217,0.344,0.488,0.344,0.787v1.152h-7.049c-1.203,0-2.241,0.461-3.099,1.389
		c-0.862,0.928-1.292,1.994-1.292,3.186c0.004,1.207,0.43,2.273,1.292,3.205c0.858,0.914,1.896,1.363,3.099,1.363h10.876V41.18z
		 M109.381,44.045l5.196-7.633h-4.874l-2.756,4.441l-2.761-4.441l-4.854,0.008l5.189,7.625l-5.189,7.627h4.854l2.761-4.438
		l2.756,4.438h4.874L109.381,44.045z M99.24,47.863h-9.542V45.59h7.632v-3.061h-7.632v-2.283h8.58v-3.834L85.856,36.42v15.252H99.24
		V47.863z"/>
</g>
</svg>
