<?xml version="1.0" encoding="utf-8"?>
<!-- Generator: Adobe Illustrator 16.0.0, SVG Export Plug-In . SVG Version: 6.00 Build 0)  -->
<!DOCTYPE svg PUBLIC "-//W3C//DTD SVG 1.1//EN" "http://www.w3.org/Graphics/SVG/1.1/DTD/svg11.dtd">
<svg version="1.1" id="Calque_1" xmlns="http://www.w3.org/2000/svg" xmlns:xlink="http://www.w3.org/1999/xlink" x="0px" y="0px"
	 width="595.277px" height="99.211px" viewBox="0 0 595.277 99.211" enable-background="new 0 0 595.277 99.211"
	 xml:space="preserve">
<polygon fill="#AEC90B" points="129.219,55.619 198.853,46.186 225.587,47.768 135.903,55.619 "/>
<polygon fill="#941B80" points="291.117,55.062 261.325,55.062 353.048,47.042 360.824,47.042 "/>
<polygon fill="#F2987A" points="417.351,55.062 399.656,55.062 468.38,46.186 474.318,46.186 "/>
<polygon fill="#E5005B" points="291.106,55.062 261.325,55.062 198.853,46.186 225.587,47.768 "/>
<polygon fill="#0094DA" points="-10.389,56.176 65.634,47.929 72.318,47.534 -10.389,61.572 "/>
<polygon fill="#0094DA" points="399.656,55.062 417.351,55.062 360.824,47.042 353.048,47.042 "/>
<polygon fill="#E1061B" points="129.219,55.619 135.903,55.619 72.318,47.534 65.634,47.929 "/>
<g>
	<polygon fill="#A61680" points="536.652,55.062 523.699,55.062 605.652,47.534 605.652,51.1 	"/>
</g>
<polygon fill="#EB6608" points="474.318,46.186 468.38,46.186 523.699,55.062 536.652,55.062 "/>
<g>
	<rect x="-4.653" y="66.57" fill="none" width="602.583" height="22.668"/>
	<path fill="#3F3F3E" d="M10.793,73.789v-7.215h3.328v1.078h-2.085v1.859h1.604v1.08h-1.604v2.119h2.226v1.078H10.793z"/>
	<path fill="#3F3F3E" d="M16.775,70.012l-1.323-3.438h1.223l0.762,2.287h0.02l0.692-2.287h1.223l-1.253,3.438l1.403,3.777h-1.223
		l-0.842-2.629h-0.02l-0.862,2.629h-1.223L16.775,70.012z"/>
	<path fill="#3F3F3E" d="M21.553,73.789H20.35l1.333-7.215h1.544l1.333,7.215h-1.203l-0.221-1.598h-1.363L21.553,73.789z
		 M21.954,71.111h1.003l-0.492-3.098h-0.02L21.954,71.111z"/>
	<path fill="#3F3F3E" d="M25.851,73.789v-7.215h1.784c1.534,0,2.246,0.59,2.246,2.129s-0.711,2.129-2.246,2.129h-0.541v2.957H25.851
		z M27.094,69.812h0.481c0.812,0,1.063-0.25,1.063-1.109s-0.251-1.109-1.063-1.109h-0.481V69.812z"/>
	<path fill="#3F3F3E" d="M32.674,73.789h-1.243v-7.215h1.744c1.394,0,2.105,0.59,2.105,2.129c0,1.158-0.451,1.629-0.872,1.818
		l1.052,3.268h-1.263l-0.882-2.988c-0.161,0.02-0.421,0.031-0.642,0.031V73.789z M32.674,69.812h0.441
		c0.672,0,0.922-0.25,0.922-1.109s-0.25-1.109-0.922-1.109h-0.441V69.812z"/>
	<path fill="#3F3F3E" d="M37.182,73.789v-7.215h1.243v7.215H37.182z"/>
	<path fill="#3F3F3E" d="M40.368,73.789v-7.215h1.153l1.514,4.127h0.02v-4.127h1.123v7.215h-1.083l-1.584-4.508h-0.02v4.508H40.368z
		"/>
	<path fill="#3F3F3E" d="M46.67,67.652h-1.203v-1.078h3.649v1.078h-1.203v6.137H46.67V67.652z"/>
	<path fill="#3F3F3E" d="M54.937,70.287c-0.072-0.387-0.252-0.604-0.577-0.604c-0.262,0-0.442,0.137-0.442,0.389
		c0,0.756,1.894,1.061,1.894,2.502c0,0.863-0.595,1.305-1.416,1.305c-0.884,0-1.389-0.504-1.542-1.35l0.884-0.244
		c0.063,0.406,0.207,0.766,0.667,0.766c0.262,0,0.451-0.152,0.451-0.422c0-0.838-1.894-1.152-1.894-2.477
		c0-0.766,0.595-1.297,1.353-1.297c0.793,0,1.326,0.531,1.479,1.287L54.937,70.287z"/>
	<path fill="#3F3F3E" d="M56.587,73.789v-1.062h1.064v1.062H56.587z"/>
	<path fill="#3F3F3E" d="M58.606,73.789v-4.844h0.965v0.568h0.018c0.244-0.414,0.667-0.658,1.146-0.658h0.208v1.055
		c-0.181-0.045-0.352-0.1-0.649-0.1c-0.343,0-0.676,0.217-0.676,0.648v3.33H58.606z"/>
	<path fill="#3F3F3E" d="M61.591,73.789v-1.062h1.064v1.062H61.591z"/>
	<path fill="#3F3F3E" d="M63.62,73.789v-6.5h1.01v6.5H63.62z"/>
	<path fill="#3F3F3E" d="M65.594,73.789v-1.062h1.064v1.062H65.594z"/>
	<path fill="#3F3F3E" d="M70.353,71.521v-0.66h2.466v0.66H70.353z"/>
	<path fill="#3F3F3E" d="M77.527,68.592l1.042,4.479h0.02l1.022-4.479h0.722l-1.283,5.197h-0.962l-1.283-5.197H77.527z"/>
	<path fill="#3F3F3E" d="M81.344,66.574h0.722v0.838h-0.722V66.574z M81.344,68.592h0.722v5.197h-0.722V68.592z"/>
	<path fill="#3F3F3E" d="M83.508,70.012c0.14-0.82,0.622-1.52,1.544-1.52c0.962,0,1.494,0.561,1.494,1.479v2.898
		c0,0.461,0.05,0.801,0.13,0.92h-0.752l-0.09-0.439c-0.281,0.279-0.782,0.539-1.113,0.539c-0.812,0-1.354-0.52-1.354-1.338
		c0-1.279,1.414-1.93,2.457-2.16v-0.369c0-0.57-0.291-0.93-0.752-0.93c-0.551,0-0.822,0.551-0.902,1.02L83.508,70.012z
		 M85.824,70.99c-0.662,0.201-1.734,0.68-1.734,1.5c0,0.49,0.22,0.799,0.742,0.799c0.391,0,0.732-0.27,0.993-0.539V70.99z"/>
	<path fill="#3F3F3E" d="M93.368,68.793c-0.06-0.939-0.341-1.66-1.133-1.66c-0.872,0-1.293,0.779-1.293,3.049
		s0.421,3.049,1.293,3.049c0.732,0,1.133-0.4,1.133-1.141v-1.02h-0.982v-0.658h1.765v3.377h-0.501l-0.1-0.539
		c-0.301,0.4-0.722,0.639-1.313,0.639c-1.273,0-2.075-0.979-2.075-3.707s0.802-3.709,2.075-3.709c1.333,0,1.815,1.16,1.915,2.32
		H93.368z"/>
	<path fill="#3F3F3E" d="M98.508,73.789h-0.682v-0.568c-0.341,0.35-0.842,0.668-1.183,0.668c-0.722,0-1.143-0.398-1.143-1.359
		v-3.938h0.722v3.838c0,0.6,0.181,0.859,0.572,0.859c0.351,0,0.671-0.238,0.992-0.639v-4.059h0.722V73.789z"/>
	<path fill="#3F3F3E" d="M100.049,66.574h0.722v0.838h-0.722V66.574z M100.049,68.592h0.722v5.197h-0.722V68.592z"/>
	<path fill="#3F3F3E" d="M104.668,73.289h-0.02c-0.25,0.371-0.611,0.6-1.073,0.6c-0.822,0-1.503-0.699-1.503-2.697
		c0-2,0.682-2.699,1.503-2.699c0.391,0,0.722,0.24,0.962,0.48v-2.398h0.722v5.816c0,0.68,0.041,1.1,0.121,1.398h-0.682
		L104.668,73.289z M104.538,69.553c-0.21-0.211-0.461-0.461-0.782-0.461c-0.612,0-0.962,0.5-0.962,2.1s0.381,2.098,0.982,2.098
		c0.221,0,0.541-0.199,0.762-0.498V69.553z"/>
	<path fill="#3F3F3E" d="M108.054,68.492c1.093,0,1.594,0.82,1.594,2.699s-0.501,2.697-1.594,2.697s-1.594-0.818-1.594-2.697
		S106.961,68.492,108.054,68.492z M108.054,73.289c0.611,0,0.872-0.379,0.872-2.098s-0.261-2.1-0.872-2.1s-0.872,0.381-0.872,2.1
		S107.443,73.289,108.054,73.289z"/>
	<path fill="#3F3F3E" d="M113.033,66.574h1.745c1.163,0,1.985,0.68,1.985,1.869c0,0.809-0.361,1.488-1.163,1.768l1.223,3.578H116
		l-1.163-3.418l-1.023,0.041v3.377h-0.782V66.574z M113.814,69.732h0.682c1.123,0,1.483-0.439,1.483-1.25
		c0-0.809-0.361-1.25-1.483-1.25h-0.682V69.732z"/>
	<path fill="#3F3F3E" d="M119.396,68.492c1.093,0,1.594,0.82,1.594,2.699s-0.501,2.697-1.594,2.697s-1.594-0.818-1.594-2.697
		S118.303,68.492,119.396,68.492z M119.396,73.289c0.611,0,0.872-0.379,0.872-2.098s-0.261-2.1-0.872-2.1s-0.872,0.381-0.872,2.1
		S118.784,73.289,119.396,73.289z"/>
	<path fill="#3F3F3E" d="M124.165,69.912c-0.13-0.449-0.321-0.82-0.902-0.82c-0.341,0-0.582,0.27-0.582,0.619
		c0,1.061,2.206,1.121,2.206,2.74c0,0.818-0.602,1.438-1.424,1.438c-0.942,0-1.414-0.51-1.664-1.379l0.662-0.139
		c0.15,0.459,0.421,0.918,0.953,0.918c0.391,0,0.752-0.359,0.752-0.789c0-1.199-2.206-1.219-2.206-2.748
		c0-0.68,0.561-1.26,1.353-1.26c0.802,0,1.283,0.461,1.454,1.24L124.165,69.912z"/>
	<path fill="#3F3F3E" d="M128.133,69.912c-0.13-0.449-0.321-0.82-0.902-0.82c-0.341,0-0.582,0.27-0.582,0.619
		c0,1.061,2.206,1.121,2.206,2.74c0,0.818-0.602,1.438-1.424,1.438c-0.942,0-1.414-0.51-1.664-1.379l0.662-0.139
		c0.15,0.459,0.421,0.918,0.953,0.918c0.391,0,0.752-0.359,0.752-0.789c0-1.199-2.206-1.219-2.206-2.748
		c0-0.68,0.561-1.26,1.353-1.26c0.802,0,1.283,0.461,1.454,1.24L128.133,69.912z"/>
	<path fill="#3F3F3E" d="M129.975,70.012c0.14-0.82,0.622-1.52,1.544-1.52c0.962,0,1.494,0.561,1.494,1.479v2.898
		c0,0.461,0.05,0.801,0.13,0.92h-0.752l-0.09-0.439c-0.281,0.279-0.782,0.539-1.113,0.539c-0.812,0-1.353-0.52-1.353-1.338
		c0-1.279,1.413-1.93,2.456-2.16v-0.369c0-0.57-0.291-0.93-0.752-0.93c-0.551,0-0.822,0.551-0.902,1.02L129.975,70.012z
		 M132.291,70.99c-0.662,0.201-1.734,0.68-1.734,1.5c0,0.49,0.22,0.799,0.742,0.799c0.391,0,0.732-0.27,0.993-0.539V70.99z"/>
	<path fill="#3F3F3E" d="M135.405,72.85v1l-0.602,1.439h-0.301l0.461-1.5h-0.401V72.85H135.405z"/>
	<path fill="#3F3F3E" d="M139.522,73.789v-0.6h0.882v-5.797l-0.902,0.08v-0.439c0.411-0.1,0.812-0.279,1.143-0.561h0.481v6.717
		h0.842v0.6H139.522z"/>
	<path fill="#3F3F3E" d="M146.086,67.912c-0.101-0.719-0.501-0.838-0.782-0.838c-0.642,0-1.042,0.879-1.062,2.887
		c0.291-0.309,0.682-0.549,1.113-0.549c0.812,0,1.554,0.58,1.554,2.219c0,1.398-0.602,2.258-1.554,2.258
		c-1.253,0-1.854-0.719-1.854-3.316c0-2.898,0.682-4.1,1.824-4.1c0.933,0,1.283,0.561,1.424,1.4L146.086,67.912z M144.222,71.311
		c0,1.459,0.381,1.979,1.022,1.979c0.562,0,0.942-0.42,0.942-1.668c0-1.289-0.441-1.609-0.902-1.609
		c-0.461,0-0.822,0.299-1.062,0.619V71.311z"/>
	<path fill="#3F3F3E" d="M150.222,71.521v-0.66h2.466v0.66H150.222z"/>
	<path fill="#3F3F3E" d="M156.555,73.789v-0.6h0.882v-5.797l-0.902,0.08v-0.439c0.411-0.1,0.812-0.279,1.143-0.561h0.481v6.717
		h0.842v0.6H156.555z"/>
	<path fill="#3F3F3E" d="M162.236,73.889c-1.183,0-1.745-1.098-1.745-3.707s0.562-3.709,1.745-3.709s1.744,1.1,1.744,3.709
		S163.419,73.889,162.236,73.889z M162.236,67.074c-0.662,0-1.022,0.738-1.022,3.107s0.361,3.107,1.022,3.107
		s1.022-0.738,1.022-3.107S162.897,67.074,162.236,67.074z"/>
	<path fill="#3F3F3E" d="M166.754,73.889c-1.183,0-1.745-1.098-1.745-3.707s0.562-3.709,1.745-3.709s1.744,1.1,1.744,3.709
		S167.938,73.889,166.754,73.889z M166.754,67.074c-0.662,0-1.022,0.738-1.022,3.107s0.361,3.107,1.022,3.107
		s1.022-0.738,1.022-3.107S167.416,67.074,166.754,67.074z"/>
	<path fill="#3F3F3E" d="M169.528,73.789v-0.6c0.642-2.139,2.647-3.338,2.647-4.977c0-0.76-0.381-1.139-0.872-1.139
		c-0.572,0-0.993,0.439-1.053,1.518h-0.662c0.08-1.639,0.822-2.119,1.694-2.119c0.953,0,1.614,0.641,1.614,1.84
		c0,1.799-1.624,2.359-2.707,4.877h2.747v0.6H169.528z"/>
	<path fill="#3F3F3E" d="M176.844,66.574v4.977h0.752v0.6h-0.752v1.639h-0.722V72.15h-2.315v-0.34l1.985-5.236H176.844z
		 M174.488,71.551h1.634v-4.318h-0.02L174.488,71.551z"/>
	<path fill="#3F3F3E" d="M182.183,66.574l1.263,5.457h0.02l1.233-5.457h1.243v7.215h-0.722v-6.615h-0.02l-1.504,6.615h-0.511
		l-1.504-6.615h-0.02v6.615h-0.722v-7.215H182.183z"/>
	<path fill="#3F3F3E" d="M188.515,68.492c1.093,0,1.594,0.82,1.594,2.699s-0.501,2.697-1.594,2.697s-1.594-0.818-1.594-2.697
		S187.422,68.492,188.515,68.492z M188.515,73.289c0.611,0,0.872-0.379,0.872-2.098s-0.261-2.1-0.872-2.1s-0.872,0.381-0.872,2.1
		S187.903,73.289,188.515,73.289z"/>
	<path fill="#3F3F3E" d="M191.259,68.592h0.682v0.57c0.341-0.35,0.842-0.67,1.183-0.67c0.722,0,1.143,0.4,1.143,1.359v3.938h-0.722
		v-3.838c0-0.6-0.18-0.859-0.571-0.859c-0.351,0-0.672,0.24-0.992,0.641v4.057h-0.722V68.592z"/>
	<path fill="#3F3F3E" d="M197.823,70.131c-0.07-0.779-0.381-1.039-0.822-1.039c-0.611,0-0.872,0.381-0.872,2.1
		s0.261,2.098,0.872,2.098c0.461,0,0.722-0.238,0.842-1.139h0.702c-0.121,1.02-0.602,1.738-1.544,1.738
		c-1.093,0-1.594-0.818-1.594-2.697s0.501-2.699,1.594-2.699c0.942,0,1.383,0.619,1.524,1.639H197.823z"/>
	<path fill="#3F3F3E" d="M199.645,70.012c0.14-0.82,0.622-1.52,1.544-1.52c0.962,0,1.494,0.561,1.494,1.479v2.898
		c0,0.461,0.05,0.801,0.13,0.92h-0.752l-0.09-0.439c-0.281,0.279-0.782,0.539-1.113,0.539c-0.812,0-1.353-0.52-1.353-1.338
		c0-1.279,1.413-1.93,2.456-2.16v-0.369c0-0.57-0.291-0.93-0.752-0.93c-0.551,0-0.822,0.551-0.902,1.02L199.645,70.012z
		 M201.961,70.99c-0.662,0.201-1.734,0.68-1.734,1.5c0,0.49,0.22,0.799,0.742,0.799c0.391,0,0.732-0.27,0.993-0.539V70.99z"/>
	<path fill="#3F3F3E" d="M204.294,66.574h0.722v7.215h-0.722V66.574z"/>
	<path fill="#3F3F3E" d="M206.588,66.574h0.722v0.838h-0.722V66.574z M206.588,68.592h0.722v5.197h-0.722V68.592z"/>
	<path fill="#3F3F3E" d="M209.203,71.311v0.291c0,1.268,0.291,1.688,0.972,1.688c0.552,0,0.782-0.51,0.873-0.979l0.682,0.08
		c-0.11,0.779-0.702,1.498-1.654,1.498c-1.093,0-1.594-0.818-1.594-2.697s0.501-2.699,1.594-2.699c1.103,0,1.594,0.98,1.594,2.479
		v0.34H209.203z M210.947,70.711c-0.02-1.119-0.22-1.619-0.872-1.619c-0.521,0-0.862,0.381-0.872,1.619H210.947z"/>
	<path fill="#3F3F3E" d="M212.76,68.592h0.722v0.631h0.02c0.431-0.631,0.752-0.73,1.324-0.73v0.68c-0.542,0-0.953,0.18-1.344,0.92
		v3.697h-0.722V68.592z"/>
	<path fill="#3F3F3E" d="M215.705,66.574h0.722v0.838h-0.722V66.574z M215.705,68.592h0.722v5.197h-0.722V68.592z"/>
	<path fill="#3F3F3E" d="M221.446,74.889c-0.852-1.34-1.243-2.578-1.243-4.207s0.391-2.869,1.243-4.209l0.481,0.301
		c-0.722,1.299-1.062,2.539-1.062,3.908s0.341,2.607,1.062,3.908L221.446,74.889z"/>
	<path fill="#3F3F3E" d="M226.216,66.574v0.658h-1.483v6.557h-0.782v-6.557h-1.483v-0.658H226.216z"/>
	<path fill="#3F3F3E" d="M228.871,73.889c-1.223,0-2.045-1.02-2.045-3.707c0-2.689,0.822-3.709,2.045-3.709s2.045,1.02,2.045,3.709
		C230.916,72.869,230.094,73.889,228.871,73.889z M228.871,67.133c-0.702,0-1.263,0.6-1.263,3.049s0.562,3.049,1.263,3.049
		s1.263-0.6,1.263-3.049S229.573,67.133,228.871,67.133z"/>
	<path fill="#3F3F3E" d="M232.326,66.473c0.852,1.34,1.243,2.58,1.243,4.209s-0.391,2.867-1.243,4.207l-0.481-0.299
		c0.722-1.301,1.063-2.539,1.063-3.908s-0.341-2.609-1.063-3.908L232.326,66.473z"/>
	<path fill="#3F3F3E" d="M237.025,71.521v-0.66h2.466v0.66H237.025z"/>
	<path fill="#3F3F3E" d="M246.114,66.574v0.658h-1.483v6.557h-0.782v-6.557h-1.483v-0.658H246.114z"/>
	<path fill="#3F3F3E" d="M247.334,71.311v0.291c0,1.268,0.291,1.688,0.972,1.688c0.552,0,0.782-0.51,0.873-0.979l0.682,0.08
		c-0.11,0.779-0.702,1.498-1.654,1.498c-1.093,0-1.594-0.818-1.594-2.697s0.501-2.699,1.594-2.699c1.103,0,1.594,0.98,1.594,2.479
		v0.34H247.334z M249.079,70.711c-0.02-1.119-0.22-1.619-0.872-1.619c-0.521,0-0.862,0.381-0.872,1.619H249.079z"/>
	<path fill="#3F3F3E" d="M250.981,66.574h0.722v7.215h-0.722V66.574z"/>
	<path fill="#3F3F3E" d="M254.058,72.85v0.939h-0.842V72.85H254.058z"/>
	<path fill="#3F3F3E" d="M259.789,68.592h0.662v2.27h2.276v0.66h-2.276v2.268h-0.662v-2.268h-2.276v-0.66h2.276V68.592z"/>
	<path fill="#3F3F3E" d="M263.795,68.014c0.08-0.85,0.542-1.541,1.474-1.541c0.812,0,1.614,0.561,1.614,1.76
		c0,1.02-0.421,1.6-0.942,1.699v0.02c0.812,0.27,1.062,1.029,1.062,1.799c0,1.48-0.862,2.139-1.765,2.139
		c-0.962,0-1.614-0.77-1.624-1.818h0.662c0.061,0.779,0.401,1.219,1.043,1.219c0.481,0,0.962-0.52,0.962-1.508
		c0-1.189-0.501-1.529-1.644-1.529v-0.6c1.083,0,1.523-0.26,1.523-1.379c0-0.861-0.341-1.199-0.842-1.199
		c-0.622,0-0.842,0.52-0.862,1.018L263.795,68.014z"/>
	<path fill="#3F3F3E" d="M269.055,72.451c0.1,0.719,0.501,0.838,0.782,0.838c0.642,0,1.042-0.879,1.062-2.887
		c-0.291,0.309-0.682,0.549-1.113,0.549c-0.812,0-1.554-0.58-1.554-2.219c0-1.398,0.602-2.26,1.554-2.26
		c1.253,0,1.854,0.721,1.854,3.318c0,2.898-0.682,4.098-1.824,4.098c-0.933,0-1.283-0.559-1.424-1.398L269.055,72.451z
		 M270.92,69.053c0-1.459-0.381-1.979-1.022-1.979c-0.562,0-0.942,0.418-0.942,1.668c0,1.289,0.441,1.609,0.902,1.609
		c0.461,0,0.822-0.301,1.062-0.619V69.053z"/>
	<path fill="#3F3F3E" d="M276.75,73.889c-1.183,0-1.745-1.098-1.745-3.707s0.562-3.709,1.745-3.709s1.744,1.1,1.744,3.709
		S277.934,73.889,276.75,73.889z M276.75,67.074c-0.662,0-1.022,0.738-1.022,3.107s0.361,3.107,1.022,3.107s1.022-0.738,1.022-3.107
		S277.412,67.074,276.75,67.074z"/>
	<path fill="#3F3F3E" d="M280.105,73.789v-0.6h0.882v-5.797l-0.902,0.08v-0.439c0.411-0.1,0.812-0.279,1.143-0.561h0.481v6.717
		h0.842v0.6H280.105z"/>
	<path fill="#3F3F3E" d="M284.624,73.789v-0.6h0.882v-5.797l-0.902,0.08v-0.439c0.411-0.1,0.812-0.279,1.143-0.561h0.481v6.717
		h0.842v0.6H284.624z"/>
	<path fill="#3F3F3E" d="M292.6,73.889c-1.183,0-1.744-1.098-1.744-3.707s0.561-3.709,1.744-3.709s1.744,1.1,1.744,3.709
		S293.783,73.889,292.6,73.889z M292.6,67.074c-0.662,0-1.022,0.738-1.022,3.107s0.361,3.107,1.022,3.107s1.022-0.738,1.022-3.107
		S293.261,67.074,292.6,67.074z"/>
	<path fill="#3F3F3E" d="M298,67.912c-0.1-0.719-0.501-0.838-0.781-0.838c-0.642,0-1.043,0.879-1.063,2.887
		c0.291-0.309,0.683-0.549,1.113-0.549c0.812,0,1.553,0.58,1.553,2.219c0,1.398-0.602,2.258-1.553,2.258
		c-1.253,0-1.854-0.719-1.854-3.316c0-2.898,0.682-4.1,1.824-4.1c0.933,0,1.283,0.561,1.423,1.4L298,67.912z M296.136,71.311
		c0,1.459,0.381,1.979,1.022,1.979c0.562,0,0.942-0.42,0.942-1.668c0-1.289-0.441-1.609-0.902-1.609s-0.822,0.299-1.062,0.619
		V71.311z"/>
	<path fill="#3F3F3E" d="M299.892,73.789v-0.6c0.643-2.139,2.646-3.338,2.646-4.977c0-0.76-0.381-1.139-0.871-1.139
		c-0.572,0-0.994,0.439-1.053,1.518h-0.662c0.08-1.639,0.822-2.119,1.693-2.119c0.953,0,1.615,0.641,1.615,1.84
		c0,1.799-1.625,2.359-2.707,4.877h2.746v0.6H299.892z"/>
	<path fill="#3F3F3E" d="M309.332,67.912c-0.1-0.719-0.502-0.838-0.781-0.838c-0.643,0-1.043,0.879-1.064,2.887
		c0.291-0.309,0.684-0.549,1.113-0.549c0.812,0,1.555,0.58,1.555,2.219c0,1.398-0.602,2.258-1.555,2.258
		c-1.252,0-1.854-0.719-1.854-3.316c0-2.898,0.682-4.1,1.824-4.1c0.932,0,1.283,0.561,1.424,1.4L309.332,67.912z M307.466,71.311
		c0,1.459,0.381,1.979,1.023,1.979c0.561,0,0.941-0.42,0.941-1.668c0-1.289-0.441-1.609-0.902-1.609s-0.822,0.299-1.062,0.619
		V71.311z"/>
	<path fill="#3F3F3E" d="M312.968,73.889c-1.123,0-1.785-0.879-1.785-1.918c0-0.891,0.471-1.529,1.162-2.02
		c-0.641-0.51-1.002-1.01-1.002-1.859c0-0.949,0.723-1.619,1.625-1.619s1.623,0.67,1.623,1.619c0,0.85-0.361,1.35-1.002,1.859
		c0.691,0.49,1.162,1.129,1.162,2.02C314.751,73.01,314.091,73.889,312.968,73.889z M312.968,70.332
		c-0.582,0.43-1.062,0.889-1.062,1.668c0,0.59,0.32,1.289,1.062,1.289s1.062-0.699,1.062-1.289
		C314.031,71.221,313.548,70.762,312.968,70.332z M312.968,67.074c-0.623,0-0.902,0.479-0.902,0.939
		c0,0.729,0.361,1.268,0.902,1.598c0.541-0.33,0.902-0.869,0.902-1.598C313.871,67.553,313.589,67.074,312.968,67.074z"/>
	<path fill="#3F3F3E" d="M319.779,73.889c-1.182,0-1.744-1.098-1.744-3.707s0.562-3.709,1.744-3.709c1.184,0,1.744,1.1,1.744,3.709
		S320.962,73.889,319.779,73.889z M319.779,67.074c-0.662,0-1.021,0.738-1.021,3.107s0.359,3.107,1.021,3.107
		s1.023-0.738,1.023-3.107S320.441,67.074,319.779,67.074z"/>
	<path fill="#3F3F3E" d="M325.179,67.912c-0.1-0.719-0.5-0.838-0.781-0.838c-0.641,0-1.043,0.879-1.062,2.887
		c0.291-0.309,0.682-0.549,1.113-0.549c0.811,0,1.553,0.58,1.553,2.219c0,1.398-0.602,2.258-1.553,2.258
		c-1.254,0-1.855-0.719-1.855-3.316c0-2.898,0.682-4.1,1.824-4.1c0.934,0,1.283,0.561,1.424,1.4L325.179,67.912z M323.316,71.311
		c0,1.459,0.381,1.979,1.021,1.979c0.562,0,0.943-0.42,0.943-1.668c0-1.289-0.441-1.609-0.902-1.609s-0.822,0.299-1.062,0.619
		V71.311z"/>
	<path fill="#3F3F3E" d="M329.316,71.521v-0.66h2.467v0.66H329.316z"/>
	<path fill="#3F3F3E" d="M335.246,66.574h3.107v0.658h-2.326v2.459h1.744v0.66h-1.744v3.438h-0.781V66.574z"/>
	<path fill="#3F3F3E" d="M339.173,70.012c0.141-0.82,0.621-1.52,1.543-1.52c0.963,0,1.494,0.561,1.494,1.479v2.898
		c0,0.461,0.051,0.801,0.131,0.92h-0.752l-0.09-0.439c-0.281,0.279-0.783,0.539-1.113,0.539c-0.812,0-1.354-0.52-1.354-1.338
		c0-1.279,1.414-1.93,2.457-2.16v-0.369c0-0.57-0.291-0.93-0.752-0.93c-0.553,0-0.822,0.551-0.902,1.02L339.173,70.012z
		 M341.49,70.99c-0.662,0.201-1.734,0.68-1.734,1.5c0,0.49,0.221,0.799,0.742,0.799c0.391,0,0.73-0.27,0.992-0.539V70.99z"/>
	<path fill="#3F3F3E" d="M343.08,68.592h0.742l0.863,1.82l0.762-1.82h0.742l-1.123,2.5l1.322,2.697h-0.742l-0.941-2.039
		l-0.883,2.039h-0.742l1.203-2.697L343.08,68.592z"/>
	<path fill="#3F3F3E" d="M351.447,68.592h0.662v2.27h2.275v0.66h-2.275v2.268h-0.662v-2.268h-2.275v-0.66h2.275V68.592z"/>
	<path fill="#3F3F3E" d="M355.453,68.014c0.08-0.85,0.541-1.541,1.475-1.541c0.811,0,1.613,0.561,1.613,1.76
		c0,1.02-0.42,1.6-0.941,1.699v0.02c0.811,0.27,1.062,1.029,1.062,1.799c0,1.48-0.863,2.139-1.766,2.139
		c-0.961,0-1.613-0.77-1.623-1.818h0.662c0.059,0.779,0.4,1.219,1.041,1.219c0.482,0,0.963-0.52,0.963-1.508
		c0-1.189-0.5-1.529-1.645-1.529v-0.6c1.084,0,1.525-0.26,1.525-1.379c0-0.861-0.342-1.199-0.844-1.199
		c-0.621,0-0.842,0.52-0.861,1.018L355.453,68.014z"/>
	<path fill="#3F3F3E" d="M360.714,72.451c0.1,0.719,0.5,0.838,0.781,0.838c0.641,0,1.043-0.879,1.062-2.887
		c-0.291,0.309-0.682,0.549-1.113,0.549c-0.812,0-1.553-0.58-1.553-2.219c0-1.398,0.602-2.26,1.553-2.26
		c1.254,0,1.855,0.721,1.855,3.318c0,2.898-0.682,4.098-1.824,4.098c-0.934,0-1.283-0.559-1.424-1.398L360.714,72.451z
		 M362.578,69.053c0-1.459-0.381-1.979-1.021-1.979c-0.562,0-0.943,0.418-0.943,1.668c0,1.289,0.441,1.609,0.902,1.609
		s0.822-0.301,1.062-0.619V69.053z"/>
	<path fill="#3F3F3E" d="M368.408,73.889c-1.182,0-1.744-1.098-1.744-3.707s0.562-3.709,1.744-3.709c1.184,0,1.744,1.1,1.744,3.709
		S369.591,73.889,368.408,73.889z M368.408,67.074c-0.662,0-1.021,0.738-1.021,3.107s0.359,3.107,1.021,3.107
		s1.023-0.738,1.023-3.107S369.07,67.074,368.408,67.074z"/>
	<path fill="#3F3F3E" d="M371.763,73.789v-0.6h0.883v-5.797l-0.902,0.08v-0.439c0.412-0.1,0.812-0.279,1.143-0.561h0.482v6.717
		h0.842v0.6H371.763z"/>
	<path fill="#3F3F3E" d="M376.281,73.789v-0.6h0.883v-5.797l-0.902,0.08v-0.439c0.412-0.1,0.812-0.279,1.143-0.561h0.482v6.717
		h0.842v0.6H376.281z"/>
	<path fill="#3F3F3E" d="M384.257,73.889c-1.184,0-1.744-1.098-1.744-3.707s0.561-3.709,1.744-3.709c1.182,0,1.744,1.1,1.744,3.709
		S385.439,73.889,384.257,73.889z M384.257,67.074c-0.662,0-1.023,0.738-1.023,3.107s0.361,3.107,1.023,3.107
		c0.66,0,1.021-0.738,1.021-3.107S384.917,67.074,384.257,67.074z"/>
	<path fill="#3F3F3E" d="M389.658,67.912c-0.1-0.719-0.502-0.838-0.781-0.838c-0.643,0-1.043,0.879-1.064,2.887
		c0.291-0.309,0.684-0.549,1.113-0.549c0.812,0,1.555,0.58,1.555,2.219c0,1.398-0.602,2.258-1.555,2.258
		c-1.252,0-1.854-0.719-1.854-3.316c0-2.898,0.682-4.1,1.824-4.1c0.932,0,1.283,0.561,1.424,1.4L389.658,67.912z M387.792,71.311
		c0,1.459,0.381,1.979,1.023,1.979c0.561,0,0.941-0.42,0.941-1.668c0-1.289-0.441-1.609-0.902-1.609s-0.822,0.299-1.062,0.619
		V71.311z"/>
	<path fill="#3F3F3E" d="M391.55,73.789v-0.6c0.641-2.139,2.646-3.338,2.646-4.977c0-0.76-0.381-1.139-0.873-1.139
		c-0.57,0-0.992,0.439-1.053,1.518h-0.662c0.08-1.639,0.822-2.119,1.695-2.119c0.951,0,1.613,0.641,1.613,1.84
		c0,1.799-1.623,2.359-2.707,4.877h2.748v0.6H391.55z"/>
	<path fill="#3F3F3E" d="M400.988,67.912c-0.1-0.719-0.502-0.838-0.781-0.838c-0.643,0-1.043,0.879-1.064,2.887
		c0.291-0.309,0.684-0.549,1.113-0.549c0.812,0,1.555,0.58,1.555,2.219c0,1.398-0.602,2.258-1.555,2.258
		c-1.252,0-1.854-0.719-1.854-3.316c0-2.898,0.682-4.1,1.824-4.1c0.932,0,1.283,0.561,1.424,1.4L400.988,67.912z M399.123,71.311
		c0,1.459,0.381,1.979,1.023,1.979c0.561,0,0.941-0.42,0.941-1.668c0-1.289-0.441-1.609-0.902-1.609s-0.822,0.299-1.062,0.619
		V71.311z"/>
	<path fill="#3F3F3E" d="M404.625,73.889c-1.123,0-1.785-0.879-1.785-1.918c0-0.891,0.471-1.529,1.162-2.02
		c-0.641-0.51-1.002-1.01-1.002-1.859c0-0.949,0.723-1.619,1.625-1.619s1.623,0.67,1.623,1.619c0,0.85-0.361,1.35-1.002,1.859
		c0.691,0.49,1.162,1.129,1.162,2.02C406.408,73.01,405.748,73.889,404.625,73.889z M404.625,70.332
		c-0.582,0.43-1.062,0.889-1.062,1.668c0,0.59,0.32,1.289,1.062,1.289s1.062-0.699,1.062-1.289
		C405.687,71.221,405.205,70.762,404.625,70.332z M404.625,67.074c-0.623,0-0.902,0.479-0.902,0.939
		c0,0.729,0.361,1.268,0.902,1.598c0.541-0.33,0.902-0.869,0.902-1.598C405.527,67.553,405.246,67.074,404.625,67.074z"/>
	<path fill="#3F3F3E" d="M411.437,73.889c-1.123,0-1.785-0.879-1.785-1.918c0-0.891,0.471-1.529,1.162-2.02
		c-0.641-0.51-1.002-1.01-1.002-1.859c0-0.949,0.723-1.619,1.625-1.619s1.623,0.67,1.623,1.619c0,0.85-0.361,1.35-1.002,1.859
		c0.691,0.49,1.162,1.129,1.162,2.02C413.22,73.01,412.56,73.889,411.437,73.889z M411.437,70.332
		c-0.582,0.43-1.062,0.889-1.062,1.668c0,0.59,0.32,1.289,1.062,1.289S412.5,72.59,412.5,72
		C412.5,71.221,412.017,70.762,411.437,70.332z M411.437,67.074c-0.623,0-0.902,0.479-0.902,0.939c0,0.729,0.361,1.268,0.902,1.598
		c0.541-0.33,0.902-0.869,0.902-1.598C412.339,67.553,412.058,67.074,411.437,67.074z"/>
	<path fill="#3F3F3E" d="M416.837,67.912c-0.1-0.719-0.502-0.838-0.781-0.838c-0.643,0-1.043,0.879-1.064,2.887
		c0.291-0.309,0.684-0.549,1.113-0.549c0.812,0,1.555,0.58,1.555,2.219c0,1.398-0.602,2.258-1.555,2.258
		c-1.252,0-1.854-0.719-1.854-3.316c0-2.898,0.682-4.1,1.824-4.1c0.932,0,1.283,0.561,1.424,1.4L416.837,67.912z M414.972,71.311
		c0,1.459,0.381,1.979,1.023,1.979c0.561,0,0.941-0.42,0.941-1.668c0-1.289-0.441-1.609-0.902-1.609s-0.822,0.299-1.062,0.619
		V71.311z"/>
	<path fill="#3F3F3E" d="M420.972,71.521v-0.66h2.467v0.66H420.972z"/>
	<path fill="#3F3F3E" d="M426.8,70.387c0.127-0.738,0.559-1.369,1.389-1.369c0.865,0,1.344,0.504,1.344,1.332v2.611
		c0,0.414,0.045,0.721,0.117,0.828h-0.676l-0.082-0.396c-0.252,0.254-0.703,0.486-1,0.486c-0.73,0-1.219-0.467-1.219-1.205
		c0-1.152,1.271-1.738,2.211-1.945v-0.332c0-0.514-0.262-0.838-0.678-0.838c-0.496,0-0.738,0.494-0.811,0.918L426.8,70.387z
		 M428.884,71.27c-0.596,0.18-1.561,0.611-1.561,1.35c0,0.441,0.197,0.721,0.666,0.721c0.354,0,0.66-0.244,0.895-0.486V71.27z"/>
	<path fill="#3F3F3E" d="M431.031,73.789v-4.682h0.594v0.514c0.254-0.297,0.641-0.604,1.092-0.604c0.369,0,0.721,0.244,0.838,0.596
		c0.262-0.289,0.633-0.596,1.092-0.596c0.613,0,0.947,0.414,0.947,1.08v3.691h-0.65v-3.6c0-0.486-0.143-0.631-0.486-0.631
		c-0.396,0-0.621,0.279-0.82,0.486v3.744h-0.648v-3.6c0-0.486-0.172-0.631-0.516-0.631c-0.396,0-0.621,0.279-0.793,0.486v3.744
		H431.031z"/>
	<path fill="#3F3F3E" d="M437.107,73.789v-4.682h0.596v0.514c0.252-0.297,0.641-0.604,1.092-0.604c0.369,0,0.721,0.244,0.838,0.596
		c0.262-0.289,0.631-0.596,1.092-0.596c0.613,0,0.945,0.414,0.945,1.08v3.691h-0.648v-3.6c0-0.486-0.145-0.631-0.486-0.631
		c-0.398,0-0.623,0.279-0.822,0.486v3.744h-0.648v-3.6c0-0.486-0.172-0.631-0.514-0.631c-0.396,0-0.623,0.279-0.793,0.486v3.744
		H437.107z"/>
	<path fill="#3F3F3E" d="M443.14,67.289h0.648v0.756h-0.648V67.289z M443.14,69.107h0.648v4.682h-0.648V69.107z"/>
	<path fill="#3F3F3E" d="M445.179,69.107h0.613v0.514c0.307-0.314,0.756-0.604,1.062-0.604c0.65,0,1.029,0.361,1.029,1.225v3.547
		h-0.65v-3.457c0-0.539-0.162-0.773-0.514-0.773c-0.314,0-0.604,0.215-0.893,0.576v3.654h-0.648V69.107z"/>
	<path fill="#3F3F3E" d="M449.273,67.289h0.648v0.756h-0.648V67.289z M449.273,69.107h0.648v4.682h-0.648V69.107z"/>
	<path fill="#3F3F3E" d="M453.132,70.297c-0.117-0.406-0.289-0.738-0.812-0.738c-0.307,0-0.521,0.242-0.521,0.559
		c0,0.953,1.982,1.008,1.982,2.467c0,0.738-0.541,1.295-1.279,1.295c-0.848,0-1.271-0.459-1.498-1.242l0.596-0.125
		c0.135,0.414,0.379,0.828,0.857,0.828c0.352,0,0.676-0.324,0.676-0.711c0-1.08-1.984-1.1-1.984-2.477
		c0-0.611,0.506-1.135,1.217-1.135c0.723,0,1.154,0.414,1.309,1.117L453.132,70.297z"/>
	<path fill="#3F3F3E" d="M454.304,69.107h0.631v-1.566h0.648v1.566h0.867v0.541h-0.867v3.277c0,0.27,0.145,0.467,0.469,0.467
		c0.127,0,0.289-0.053,0.398-0.09v0.486c-0.182,0.055-0.344,0.09-0.613,0.09c-0.613,0-0.902-0.287-0.902-1.008v-3.223h-0.631V69.107
		z"/>
	<path fill="#3F3F3E" d="M457.396,69.107h0.65v0.568h0.018c0.389-0.568,0.676-0.658,1.191-0.658v0.613
		c-0.488,0-0.857,0.162-1.209,0.828v3.33h-0.65V69.107z"/>
	<path fill="#3F3F3E" d="M459.931,70.387c0.127-0.738,0.559-1.369,1.389-1.369c0.865,0,1.344,0.504,1.344,1.332v2.611
		c0,0.414,0.045,0.721,0.117,0.828h-0.676l-0.082-0.396c-0.252,0.254-0.703,0.486-1,0.486c-0.73,0-1.219-0.467-1.219-1.205
		c0-1.152,1.271-1.738,2.211-1.945v-0.332c0-0.514-0.262-0.838-0.678-0.838c-0.496,0-0.738,0.494-0.811,0.918L459.931,70.387z
		 M462.015,71.27c-0.596,0.18-1.561,0.611-1.561,1.35c0,0.441,0.197,0.721,0.666,0.721c0.354,0,0.66-0.244,0.895-0.486V71.27z"/>
	<path fill="#3F3F3E" d="M463.791,69.107h2.434v0.434l-1.857,3.709h1.857v0.539h-2.578v-0.486l1.803-3.654h-1.658V69.107z"/>
	<path fill="#3F3F3E" d="M467.181,67.289h0.648v0.756h-0.648V67.289z M467.181,69.107h0.648v4.682h-0.648V69.107z"/>
	<path fill="#3F3F3E" d="M470.32,69.018c0.982,0,1.434,0.738,1.434,2.432c0,1.691-0.451,2.43-1.434,2.43s-1.434-0.738-1.434-2.43
		C468.886,69.756,469.337,69.018,470.32,69.018z M470.32,73.34c0.551,0,0.785-0.342,0.785-1.891s-0.234-1.891-0.785-1.891
		s-0.785,0.342-0.785,1.891S469.769,73.34,470.32,73.34z"/>
	<path fill="#3F3F3E" d="M472.791,69.107h0.613v0.514c0.307-0.314,0.756-0.604,1.062-0.604c0.65,0,1.029,0.361,1.029,1.225v3.547
		h-0.65v-3.457c0-0.539-0.162-0.773-0.514-0.773c-0.314,0-0.604,0.215-0.893,0.576v3.654h-0.648V69.107z"/>
	<path fill="#3F3F3E" d="M477.173,71.557v0.262c0,1.143,0.262,1.521,0.875,1.521c0.496,0,0.703-0.459,0.783-0.883l0.613,0.072
		c-0.098,0.701-0.631,1.35-1.488,1.35c-0.982,0-1.434-0.738-1.434-2.43c0-1.693,0.451-2.432,1.434-2.432
		c0.992,0,1.436,0.883,1.436,2.232v0.307H477.173z M478.742,71.018c-0.018-1.01-0.197-1.459-0.785-1.459
		c-0.469,0-0.775,0.342-0.783,1.459H478.742z"/>
	<path fill="#3F3F3E" d="M484.802,68.766h0.568l-0.775,2.539c-0.055,0.172-0.09,0.352-0.09,0.486s0.062,0.225,0.197,0.225
		c0.641,0,1.336-1.062,1.336-2.016c0-1.424-1.182-2.297-2.498-2.297c-1.578,0-2.752,1.287-2.752,2.818
		c0,1.629,1.246,2.854,2.797,2.854c0.848,0,1.723-0.404,2.219-1.07h0.566c-0.576,0.98-1.658,1.574-2.805,1.574
		c-1.902,0-3.371-1.484-3.371-3.357c0-1.846,1.506-3.322,3.336-3.322c1.66,0,3.049,1.152,3.049,2.756
		c0,1.539-1.254,2.592-2.102,2.592c-0.307,0-0.551-0.197-0.586-0.594l-0.02,0.01c-0.26,0.287-0.666,0.584-1.1,0.584
		c-0.766,0-1.289-0.639-1.289-1.404c0-1.225,0.838-2.521,2.109-2.521c0.416,0,0.795,0.199,1.01,0.703L484.802,68.766z
		 M484.324,70.045c0-0.432-0.352-0.848-0.73-0.848c-0.838,0-1.424,1.107-1.424,1.883c0,0.514,0.307,0.873,0.758,0.873
		C483.71,71.953,484.324,70.773,484.324,70.045z"/>
	<path fill="#3F3F3E" d="M488.021,71.557v0.262c0,1.143,0.262,1.521,0.875,1.521c0.496,0,0.703-0.459,0.783-0.883l0.613,0.072
		c-0.098,0.701-0.631,1.35-1.488,1.35c-0.982,0-1.434-0.738-1.434-2.43c0-1.693,0.451-2.432,1.434-2.432
		c0.992,0,1.436,0.883,1.436,2.232v0.307H488.021z M489.589,71.018c-0.018-1.01-0.197-1.459-0.785-1.459
		c-0.469,0-0.775,0.342-0.783,1.459H489.589z"/>
	<path fill="#3F3F3E" d="M490.636,69.107h0.668l0.775,1.639l0.686-1.639h0.666l-1.01,2.252l1.191,2.43h-0.668l-0.848-1.836
		l-0.793,1.836h-0.668l1.082-2.43L490.636,69.107z"/>
	<path fill="#3F3F3E" d="M494.251,70.387c0.127-0.738,0.559-1.369,1.389-1.369c0.865,0,1.344,0.504,1.344,1.332v2.611
		c0,0.414,0.045,0.721,0.117,0.828h-0.676l-0.082-0.396c-0.252,0.254-0.703,0.486-1,0.486c-0.73,0-1.219-0.467-1.219-1.205
		c0-1.152,1.271-1.738,2.211-1.945v-0.332c0-0.514-0.262-0.838-0.678-0.838c-0.496,0-0.738,0.494-0.811,0.918L494.251,70.387z
		 M496.335,71.27c-0.596,0.18-1.561,0.611-1.561,1.35c0,0.441,0.197,0.721,0.666,0.721c0.354,0,0.66-0.244,0.895-0.486V71.27z"/>
	<path fill="#3F3F3E" d="M499.003,69.559h0.02c0.215-0.334,0.541-0.541,0.955-0.541c0.74,0,1.354,0.631,1.354,2.432
		s-0.613,2.43-1.354,2.43c-0.352,0-0.648-0.215-0.865-0.432v1.873h-0.65v-6.213h0.541V69.559z M499.113,72.926
		c0.189,0.189,0.414,0.414,0.703,0.414c0.551,0,0.865-0.451,0.865-1.891c0-1.441-0.342-1.891-0.883-1.891
		c-0.199,0-0.488,0.18-0.686,0.449V72.926z"/>
	<path fill="#3F3F3E" d="M502.421,69.107h0.65v0.568h0.018c0.389-0.568,0.676-0.658,1.191-0.658v0.613
		c-0.488,0-0.857,0.162-1.209,0.828v3.33h-0.65V69.107z"/>
	<path fill="#3F3F3E" d="M505.074,67.289h0.648v0.756h-0.648V67.289z M505.074,69.107h0.648v4.682h-0.648V69.107z"/>
	<path fill="#3F3F3E" d="M507.111,69.107h0.613v0.514c0.307-0.314,0.758-0.604,1.064-0.604c0.648,0,1.027,0.361,1.027,1.225v3.547
		h-0.648v-3.457c0-0.539-0.162-0.773-0.514-0.773c-0.316,0-0.605,0.215-0.893,0.576v3.654h-0.65V69.107z"/>
	<path fill="#3F3F3E" d="M510.601,69.107h0.631v-1.566h0.65v1.566h0.865v0.541h-0.865v3.277c0,0.27,0.145,0.467,0.469,0.467
		c0.127,0,0.289-0.053,0.396-0.09v0.486c-0.18,0.055-0.342,0.09-0.613,0.09c-0.613,0-0.902-0.287-0.902-1.008v-3.223h-0.631V69.107z
		"/>
	<path fill="#3F3F3E" d="M514.478,72.943v0.846h-0.758v-0.846H514.478z"/>
	<path fill="#3F3F3E" d="M515.841,67.289h0.648v0.756h-0.648V67.289z M515.841,69.107h0.648v4.682h-0.648V69.107z"/>
	<path fill="#3F3F3E" d="M517.3,69.107h0.631v-1.566h0.65v1.566h0.865v0.541h-0.865v3.277c0,0.27,0.145,0.467,0.469,0.467
		c0.127,0,0.289-0.053,0.396-0.09v0.486c-0.18,0.055-0.342,0.09-0.613,0.09c-0.613,0-0.902-0.287-0.902-1.008v-3.223H517.3V69.107z"
		/>
	<path fill="#3F3F3E" d="M522.294,71.521v-0.66h2.467v0.66H522.294z"/>
	<path fill="#3F3F3E" d="M528.427,68.592l0.74,3.818h0.021l0.842-3.818h0.682l0.861,3.818h0.021l0.682-3.818h0.682l-1.084,5.197
		h-0.602l-0.902-4.037h-0.02l-0.902,4.037h-0.602l-1.102-5.197H528.427z"/>
	<path fill="#3F3F3E" d="M534.066,68.592l0.742,3.818h0.02l0.842-3.818h0.682l0.863,3.818h0.02l0.682-3.818h0.682l-1.082,5.197
		h-0.602l-0.902-4.037h-0.02l-0.902,4.037h-0.602l-1.104-5.197H534.066z"/>
	<path fill="#3F3F3E" d="M539.707,68.592l0.742,3.818h0.02l0.842-3.818h0.682l0.863,3.818h0.02l0.682-3.818h0.682l-1.082,5.197
		h-0.602l-0.902-4.037h-0.02l-0.902,4.037h-0.602l-1.104-5.197H539.707z"/>
	<path fill="#3F3F3E" d="M546.019,72.85v0.939h-0.842V72.85H546.019z"/>
	<path fill="#3F3F3E" d="M547.851,71.311v0.291c0,1.268,0.291,1.688,0.973,1.688c0.553,0,0.783-0.51,0.873-0.979l0.682,0.08
		c-0.111,0.779-0.701,1.498-1.654,1.498c-1.092,0-1.594-0.818-1.594-2.697s0.502-2.699,1.594-2.699c1.104,0,1.594,0.98,1.594,2.479
		v0.34H547.851z M549.597,70.711c-0.021-1.119-0.221-1.619-0.873-1.619c-0.521,0-0.861,0.381-0.873,1.619H549.597z"/>
	<path fill="#3F3F3E" d="M550.757,68.592h0.742l0.861,1.82l0.762-1.82h0.742l-1.123,2.5l1.324,2.697h-0.742l-0.943-2.039
		l-0.881,2.039h-0.742l1.203-2.697L550.757,68.592z"/>
	<path fill="#3F3F3E" d="M554.775,70.012c0.141-0.82,0.621-1.52,1.543-1.52c0.963,0,1.494,0.561,1.494,1.479v2.898
		c0,0.461,0.051,0.801,0.131,0.92h-0.752l-0.09-0.439c-0.281,0.279-0.783,0.539-1.113,0.539c-0.812,0-1.354-0.52-1.354-1.338
		c0-1.279,1.414-1.93,2.457-2.16v-0.369c0-0.57-0.291-0.93-0.752-0.93c-0.553,0-0.822,0.551-0.902,1.02L554.775,70.012z
		 M557.091,70.99c-0.662,0.201-1.734,0.68-1.734,1.5c0,0.49,0.221,0.799,0.742,0.799c0.391,0,0.73-0.27,0.992-0.539V70.99z"/>
	<path fill="#3F3F3E" d="M560.054,69.092h0.02c0.242-0.369,0.602-0.6,1.062-0.6c0.822,0,1.504,0.699,1.504,2.699
		c0,1.998-0.682,2.697-1.504,2.697c-0.391,0-0.721-0.238-0.961-0.479v2.078h-0.723v-6.896h0.602V69.092z M560.175,72.83
		c0.209,0.209,0.461,0.459,0.781,0.459c0.611,0,0.963-0.498,0.963-2.098s-0.381-2.1-0.982-2.1c-0.221,0-0.541,0.201-0.762,0.5V72.83
		z"/>
	<path fill="#3F3F3E" d="M563.851,68.592h0.723v0.631h0.02c0.432-0.631,0.752-0.73,1.322-0.73v0.68c-0.541,0-0.951,0.18-1.342,0.92
		v3.697h-0.723V68.592z"/>
	<path fill="#3F3F3E" d="M566.796,66.574h0.723v0.838h-0.723V66.574z M566.796,68.592h0.723v5.197h-0.723V68.592z"/>
	<path fill="#3F3F3E" d="M569.06,68.592h0.682v0.57c0.342-0.35,0.842-0.67,1.184-0.67c0.723,0,1.143,0.4,1.143,1.359v3.938h-0.721
		v-3.838c0-0.6-0.182-0.859-0.572-0.859c-0.352,0-0.672,0.24-0.992,0.641v4.057h-0.723V68.592z"/>
	<path fill="#3F3F3E" d="M572.937,68.592h0.703v-1.738h0.721v1.738h0.963v0.6h-0.963v3.639c0,0.301,0.16,0.52,0.521,0.52
		c0.141,0,0.32-0.061,0.441-0.1v0.539c-0.201,0.061-0.381,0.1-0.682,0.1c-0.682,0-1.002-0.318-1.002-1.119v-3.578h-0.703V68.592z"/>
	<path fill="#3F3F3E" d="M577.246,72.85v0.939h-0.842V72.85H577.246z"/>
	<path fill="#3F3F3E" d="M578.757,66.574h0.723v0.838h-0.723V66.574z M578.757,68.592h0.723v5.197h-0.723V68.592z"/>
	<path fill="#3F3F3E" d="M580.38,68.592h0.701v-1.738h0.723v1.738h0.961v0.6h-0.961v3.639c0,0.301,0.16,0.52,0.521,0.52
		c0.139,0,0.32-0.061,0.439-0.1v0.539c-0.199,0.061-0.381,0.1-0.682,0.1c-0.682,0-1.002-0.318-1.002-1.119v-3.578h-0.701V68.592z"/>
	<path fill="#3F3F3E" d="M153.084,81.309c-0.1-1.141-0.461-1.619-1.073-1.619c-0.912,0-1.313,0.799-1.313,3.047
		c0,2.25,0.401,3.049,1.313,3.049c0.732,0,1.153-0.5,1.173-1.838h0.782c-0.02,1.598-0.722,2.498-1.955,2.498
		c-1.293,0-2.095-0.98-2.095-3.709s0.802-3.707,2.095-3.707c1.073,0,1.734,0.74,1.855,2.279H153.084z"/>
	<path fill="#3F3F3E" d="M155.156,82.566c0.14-0.818,0.622-1.518,1.544-1.518c0.962,0,1.494,0.559,1.494,1.479v2.898
		c0,0.459,0.05,0.799,0.13,0.92h-0.752l-0.09-0.439c-0.281,0.279-0.782,0.539-1.113,0.539c-0.812,0-1.354-0.52-1.354-1.34
		c0-1.279,1.414-1.928,2.457-2.158v-0.369c0-0.57-0.291-0.93-0.752-0.93c-0.551,0-0.822,0.549-0.902,1.02L155.156,82.566z
		 M157.472,83.547c-0.662,0.199-1.734,0.68-1.734,1.5c0,0.488,0.22,0.799,0.742,0.799c0.391,0,0.732-0.27,0.993-0.539V83.547z"/>
	<path fill="#3F3F3E" d="M160.436,81.648h0.02c0.241-0.371,0.602-0.6,1.063-0.6c0.822,0,1.503,0.699,1.503,2.697
		c0,2-0.682,2.699-1.503,2.699c-0.391,0-0.722-0.24-0.962-0.48v2.08h-0.722v-6.896h0.602V81.648z M160.557,85.387
		c0.21,0.209,0.461,0.459,0.782,0.459c0.612,0,0.962-0.5,0.962-2.1c0-1.598-0.381-2.098-0.982-2.098c-0.221,0-0.542,0.199-0.762,0.5
		V85.387z"/>
	<path fill="#3F3F3E" d="M164.323,79.129h0.722v0.84h-0.722V79.129z M164.323,81.148h0.722v5.197h-0.722V81.148z"/>
	<path fill="#3F3F3E" d="M165.946,81.148h0.702v-1.74h0.722v1.74h0.962v0.6h-0.962v3.639c0,0.299,0.16,0.52,0.521,0.52
		c0.141,0,0.321-0.061,0.441-0.102v0.541c-0.201,0.059-0.381,0.1-0.682,0.1c-0.682,0-1.003-0.32-1.003-1.119v-3.578h-0.702V81.148z"
		/>
	<path fill="#3F3F3E" d="M169.342,82.566c0.14-0.818,0.622-1.518,1.544-1.518c0.962,0,1.494,0.559,1.494,1.479v2.898
		c0,0.459,0.05,0.799,0.13,0.92h-0.752l-0.09-0.439c-0.281,0.279-0.782,0.539-1.113,0.539c-0.812,0-1.353-0.52-1.353-1.34
		c0-1.279,1.413-1.928,2.456-2.158v-0.369c0-0.57-0.291-0.93-0.752-0.93c-0.551,0-0.822,0.549-0.902,1.02L169.342,82.566z
		 M171.658,83.547c-0.662,0.199-1.734,0.68-1.734,1.5c0,0.488,0.22,0.799,0.742,0.799c0.391,0,0.732-0.27,0.993-0.539V83.547z"/>
	<path fill="#3F3F3E" d="M173.991,79.129h0.722v7.217h-0.722V79.129z"/>
	<path fill="#3F3F3E" d="M176.606,83.867v0.289c0,1.27,0.291,1.689,0.972,1.689c0.552,0,0.782-0.51,0.873-0.98l0.682,0.08
		c-0.11,0.779-0.702,1.5-1.654,1.5c-1.093,0-1.594-0.82-1.594-2.699s0.501-2.697,1.594-2.697c1.103,0,1.594,0.979,1.594,2.479v0.34
		H176.606z M178.35,83.268c-0.02-1.119-0.22-1.619-0.872-1.619c-0.521,0-0.862,0.379-0.872,1.619H178.35z"/>
	<path fill="#3F3F3E" d="M185.043,80.988c-0.06-0.74-0.361-1.299-1.113-1.299c-0.602,0-0.992,0.398-0.992,0.949
		c0,1.629,2.907,1.648,2.907,3.967c0,1.15-0.662,1.84-1.855,1.84c-1.133,0-1.814-0.83-1.834-2.039h0.722
		c0.02,0.85,0.421,1.379,1.193,1.379c0.651,0,1.072-0.42,1.072-1.189c0-1.639-2.907-1.828-2.907-3.887c0-1.02,0.702-1.68,1.745-1.68
		s1.724,0.699,1.784,1.959H185.043z"/>
	<path fill="#3F3F3E" d="M188.258,81.049c1.093,0,1.594,0.818,1.594,2.697s-0.501,2.699-1.594,2.699s-1.594-0.82-1.594-2.699
		S187.166,81.049,188.258,81.049z M188.258,85.846c0.611,0,0.872-0.381,0.872-2.1s-0.261-2.098-0.872-2.098
		s-0.872,0.379-0.872,2.098S187.647,85.846,188.258,85.846z"/>
	<path fill="#3F3F3E" d="M193.048,82.688c-0.07-0.779-0.381-1.039-0.822-1.039c-0.611,0-0.872,0.379-0.872,2.098
		s0.261,2.1,0.872,2.1c0.461,0,0.722-0.24,0.842-1.139h0.702c-0.121,1.018-0.602,1.738-1.544,1.738c-1.093,0-1.594-0.82-1.594-2.699
		s0.501-2.697,1.594-2.697c0.942,0,1.383,0.619,1.524,1.639H193.048z"/>
	<path fill="#3F3F3E" d="M195.001,79.129h0.722v0.84h-0.722V79.129z M195.001,81.148h0.722v5.197h-0.722V81.148z"/>
	<path fill="#3F3F3E" d="M197.165,82.566c0.14-0.818,0.622-1.518,1.544-1.518c0.962,0,1.494,0.559,1.494,1.479v2.898
		c0,0.459,0.05,0.799,0.13,0.92h-0.752l-0.09-0.439c-0.281,0.279-0.782,0.539-1.113,0.539c-0.812,0-1.353-0.52-1.353-1.34
		c0-1.279,1.413-1.928,2.456-2.158v-0.369c0-0.57-0.291-0.93-0.752-0.93c-0.551,0-0.822,0.549-0.902,1.02L197.165,82.566z
		 M199.48,83.547c-0.662,0.199-1.734,0.68-1.734,1.5c0,0.488,0.22,0.799,0.742,0.799c0.391,0,0.732-0.27,0.993-0.539V83.547z"/>
	<path fill="#3F3F3E" d="M201.813,79.129h0.722v7.217h-0.722V79.129z"/>
	<path fill="#3F3F3E" d="M204.428,83.867v0.289c0,1.27,0.291,1.689,0.972,1.689c0.552,0,0.782-0.51,0.873-0.98l0.682,0.08
		c-0.11,0.779-0.702,1.5-1.654,1.5c-1.093,0-1.594-0.82-1.594-2.699s0.501-2.697,1.594-2.697c1.103,0,1.594,0.979,1.594,2.479v0.34
		H204.428z M206.172,83.268c-0.02-1.119-0.22-1.619-0.872-1.619c-0.521,0-0.862,0.379-0.872,1.619H206.172z"/>
	<path fill="#3F3F3E" d="M210.68,86.346v-0.6h0.882v-5.797l-0.902,0.08V79.59c0.411-0.102,0.812-0.281,1.143-0.561h0.481v6.717
		h0.842v0.6H210.68z"/>
	<path fill="#3F3F3E" d="M216.361,86.445c-1.183,0-1.744-1.1-1.744-3.709c0-2.607,0.561-3.707,1.744-3.707s1.744,1.1,1.744,3.707
		C218.105,85.346,217.544,86.445,216.361,86.445z M216.361,79.629c-0.662,0-1.022,0.74-1.022,3.107c0,2.369,0.361,3.109,1.022,3.109
		s1.022-0.74,1.022-3.109C217.384,80.369,217.023,79.629,216.361,79.629z"/>
	<path fill="#3F3F3E" d="M220.88,86.445c-1.183,0-1.744-1.1-1.744-3.709c0-2.607,0.561-3.707,1.744-3.707s1.744,1.1,1.744,3.707
		C222.624,85.346,222.063,86.445,220.88,86.445z M220.88,79.629c-0.662,0-1.022,0.74-1.022,3.107c0,2.369,0.361,3.109,1.022,3.109
		s1.022-0.74,1.022-3.109C221.902,80.369,221.542,79.629,220.88,79.629z"/>
	<path fill="#3F3F3E" d="M224.707,85.406v0.939h-0.842v-0.939H224.707z"/>
	<path fill="#3F3F3E" d="M227.692,86.445c-1.183,0-1.744-1.1-1.744-3.709c0-2.607,0.561-3.707,1.744-3.707s1.744,1.1,1.744,3.707
		C229.437,85.346,228.875,86.445,227.692,86.445z M227.692,79.629c-0.662,0-1.022,0.74-1.022,3.107c0,2.369,0.361,3.109,1.022,3.109
		s1.022-0.74,1.022-3.109C228.715,80.369,228.354,79.629,227.692,79.629z"/>
	<path fill="#3F3F3E" d="M232.211,86.445c-1.183,0-1.744-1.1-1.744-3.709c0-2.607,0.561-3.707,1.744-3.707s1.744,1.1,1.744,3.707
		C233.955,85.346,233.394,86.445,232.211,86.445z M232.211,79.629c-0.662,0-1.022,0.74-1.022,3.107c0,2.369,0.361,3.109,1.022,3.109
		s1.022-0.74,1.022-3.109C233.233,80.369,232.873,79.629,232.211,79.629z"/>
	<path fill="#3F3F3E" d="M236.729,86.445c-1.183,0-1.744-1.1-1.744-3.709c0-2.607,0.561-3.707,1.744-3.707s1.744,1.1,1.744,3.707
		C238.474,85.346,237.913,86.445,236.729,86.445z M236.729,79.629c-0.662,0-1.022,0.74-1.022,3.107c0,2.369,0.361,3.109,1.022,3.109
		s1.022-0.74,1.022-3.109C237.752,80.369,237.391,79.629,236.729,79.629z"/>
	<path fill="#3F3F3E" d="M240.556,85.406v0.998l-0.602,1.439h-0.301l0.461-1.498h-0.401v-0.939H240.556z"/>
	<path fill="#3F3F3E" d="M243.542,86.445c-1.183,0-1.744-1.1-1.744-3.709c0-2.607,0.561-3.707,1.744-3.707s1.744,1.1,1.744,3.707
		C245.286,85.346,244.725,86.445,243.542,86.445z M243.542,79.629c-0.662,0-1.022,0.74-1.022,3.107c0,2.369,0.361,3.109,1.022,3.109
		s1.022-0.74,1.022-3.109C244.564,80.369,244.204,79.629,243.542,79.629z"/>
	<path fill="#3F3F3E" d="M248.06,86.445c-1.183,0-1.745-1.1-1.745-3.709c0-2.607,0.562-3.707,1.745-3.707s1.744,1.1,1.744,3.707
		C249.804,85.346,249.243,86.445,248.06,86.445z M248.06,79.629c-0.662,0-1.022,0.74-1.022,3.107c0,2.369,0.361,3.109,1.022,3.109
		s1.022-0.74,1.022-3.109C249.083,80.369,248.722,79.629,248.06,79.629z"/>
	<path fill="#3F3F3E" d="M253.72,83.867v0.289c0,1.27,0.291,1.689,0.972,1.689c0.552,0,0.782-0.51,0.873-0.98l0.682,0.08
		c-0.11,0.779-0.702,1.5-1.654,1.5c-1.093,0-1.594-0.82-1.594-2.699s0.501-2.697,1.594-2.697c1.103,0,1.594,0.979,1.594,2.479v0.34
		H253.72z M255.464,83.268c-0.02-1.119-0.22-1.619-0.872-1.619c-0.521,0-0.862,0.379-0.872,1.619H255.464z"/>
	<path fill="#3F3F3E" d="M260.344,86.346h-0.682v-0.57c-0.341,0.35-0.842,0.67-1.183,0.67c-0.722,0-1.143-0.4-1.143-1.359v-3.938
		h0.722v3.838c0,0.6,0.18,0.859,0.571,0.859c0.351,0,0.671-0.24,0.992-0.641v-4.057h0.722V86.346z"/>
	<path fill="#3F3F3E" d="M261.795,81.148h0.722v0.629h0.02c0.431-0.629,0.752-0.729,1.324-0.729v0.68
		c-0.542,0-0.953,0.18-1.344,0.918v3.699h-0.722V81.148z"/>
	<path fill="#3F3F3E" d="M265.934,81.049c1.093,0,1.594,0.818,1.594,2.697s-0.501,2.699-1.594,2.699s-1.594-0.82-1.594-2.699
		S264.841,81.049,265.934,81.049z M265.934,85.846c0.611,0,0.872-0.381,0.872-2.1s-0.261-2.098-0.872-2.098
		s-0.872,0.379-0.872,2.098S265.322,85.846,265.934,85.846z"/>
	<path fill="#3F3F3E" d="M271.002,79.129h0.722v0.84h-0.722V79.129z M271.002,81.148h0.722v5.197h-0.722V81.148z"/>
	<path fill="#3F3F3E" d="M274.079,85.406v0.939h-0.842v-0.939H274.079z"/>
	<path fill="#3F3F3E" d="M275.741,81.148l1.042,4.477h0.02l1.022-4.477h0.722l-1.283,5.197h-0.962l-1.283-5.197H275.741z"/>
	<path fill="#3F3F3E" d="M280.34,85.406v0.939h-0.842v-0.939H280.34z"/>
	<path fill="#3F3F3E" d="M283.826,84.076v-0.66h2.466v0.66H283.826z"/>
	<path fill="#3F3F3E" d="M289.657,79.129h1.704c1.163,0,1.925,0.779,1.925,1.979s-0.762,1.98-1.925,1.98h-0.922v3.258h-0.782V79.129
		z M290.439,82.428h0.822c0.782,0,1.243-0.42,1.243-1.32c0-0.898-0.461-1.318-1.243-1.318h-0.822V82.428z"/>
	<path fill="#3F3F3E" d="M295.148,85.406v0.939h-0.842v-0.939H295.148z"/>
	<path fill="#3F3F3E" d="M297.412,79.129v7.217h-0.781v-7.217H297.412z"/>
	<path fill="#3F3F3E" d="M299.146,79.129l1.273,5.717h0.02l1.273-5.717h0.781l-1.703,7.217h-0.723l-1.705-7.217H299.146z"/>
	<path fill="#3F3F3E" d="M305.488,79.129l1.596,7.217H306.3l-0.432-2.139h-1.844l-0.432,2.139h-0.781l1.594-7.217H305.488z
		 M304.134,83.547h1.625l-0.803-3.879h-0.02L304.134,83.547z"/>
	<path fill="#3F3F3E" d="M313.332,79.129v7.217h-0.783v-7.217H313.332z"/>
	<path fill="#3F3F3E" d="M317.941,79.129v0.66h-1.484v6.557h-0.781v-6.557h-1.484v-0.66H317.941z"/>
	<path fill="#3F3F3E" d="M321.445,86.346v-0.6h0.883v-5.797l-0.902,0.08V79.59c0.412-0.102,0.812-0.281,1.143-0.561h0.482v6.717
		h0.842v0.6H321.445z"/>
	<path fill="#3F3F3E" d="M327.126,86.445c-1.182,0-1.744-1.1-1.744-3.709c0-2.607,0.562-3.707,1.744-3.707
		c1.184,0,1.744,1.1,1.744,3.707C328.871,85.346,328.31,86.445,327.126,86.445z M327.126,79.629c-0.662,0-1.021,0.74-1.021,3.107
		c0,2.369,0.359,3.109,1.021,3.109s1.023-0.74,1.023-3.109C328.15,80.369,327.789,79.629,327.126,79.629z"/>
	<path fill="#3F3F3E" d="M330.021,79.129h3.248v0.381l-2.105,6.836h-0.762l2.105-6.617h-2.486V79.129z"/>
	<path fill="#3F3F3E" d="M334.539,79.129h3.248v0.381l-2.105,6.836h-0.762l2.105-6.617h-2.486V79.129z"/>
	<path fill="#3F3F3E" d="M340.681,86.445c-1.123,0-1.783-0.879-1.783-1.92c0-0.889,0.471-1.529,1.162-2.018
		c-0.643-0.51-1.002-1.01-1.002-1.859c0-0.949,0.721-1.619,1.623-1.619s1.625,0.67,1.625,1.619c0,0.85-0.361,1.35-1.004,1.859
		c0.693,0.488,1.164,1.129,1.164,2.018C342.466,85.566,341.804,86.445,340.681,86.445z M340.681,82.887
		c-0.58,0.43-1.062,0.891-1.062,1.67c0,0.59,0.32,1.289,1.062,1.289s1.062-0.699,1.062-1.289
		C341.744,83.777,341.263,83.316,340.681,82.887z M340.681,79.629c-0.621,0-0.902,0.48-0.902,0.939c0,0.73,0.361,1.27,0.902,1.6
		c0.541-0.33,0.902-0.869,0.902-1.6C341.583,80.109,341.302,79.629,340.681,79.629z"/>
	<path fill="#3F3F3E" d="M346.082,80.469c-0.1-0.721-0.5-0.84-0.781-0.84c-0.641,0-1.043,0.879-1.062,2.889
		c0.291-0.311,0.682-0.551,1.113-0.551c0.811,0,1.553,0.58,1.553,2.219c0,1.4-0.602,2.26-1.553,2.26
		c-1.254,0-1.855-0.721-1.855-3.318c0-2.898,0.682-4.098,1.824-4.098c0.934,0,1.283,0.561,1.424,1.398L346.082,80.469z
		 M344.218,83.867c0,1.459,0.381,1.979,1.021,1.979c0.562,0,0.943-0.42,0.943-1.67c0-1.289-0.441-1.609-0.902-1.609
		s-0.822,0.301-1.062,0.621V83.867z"/>
	<path fill="#3F3F3E" d="M349.718,86.445c-1.123,0-1.783-0.879-1.783-1.92c0-0.889,0.471-1.529,1.162-2.018
		c-0.643-0.51-1.002-1.01-1.002-1.859c0-0.949,0.721-1.619,1.623-1.619s1.625,0.67,1.625,1.619c0,0.85-0.361,1.35-1.004,1.859
		c0.693,0.488,1.164,1.129,1.164,2.018C351.503,85.566,350.841,86.445,349.718,86.445z M349.718,82.887
		c-0.58,0.43-1.062,0.891-1.062,1.67c0,0.59,0.32,1.289,1.062,1.289s1.062-0.699,1.062-1.289
		C350.781,83.777,350.3,83.316,349.718,82.887z M349.718,79.629c-0.621,0-0.902,0.48-0.902,0.939c0,0.73,0.361,1.27,0.902,1.6
		c0.541-0.33,0.902-0.869,0.902-1.6C350.621,80.109,350.339,79.629,349.718,79.629z"/>
	<path fill="#3F3F3E" d="M354.238,86.445c-1.184,0-1.744-1.1-1.744-3.709c0-2.607,0.561-3.707,1.744-3.707
		c1.182,0,1.744,1.1,1.744,3.707C355.982,85.346,355.419,86.445,354.238,86.445z M354.238,79.629c-0.662,0-1.023,0.74-1.023,3.107
		c0,2.369,0.361,3.109,1.023,3.109c0.66,0,1.021-0.74,1.021-3.109C355.259,80.369,354.898,79.629,354.238,79.629z"/>
	<path fill="#3F3F3E" d="M358.755,86.445c-1.184,0-1.744-1.1-1.744-3.709c0-2.607,0.561-3.707,1.744-3.707
		c1.182,0,1.744,1.1,1.744,3.707C360.5,85.346,359.937,86.445,358.755,86.445z M358.755,79.629c-0.662,0-1.023,0.74-1.023,3.107
		c0,2.369,0.361,3.109,1.023,3.109c0.66,0,1.021-0.74,1.021-3.109C359.777,80.369,359.416,79.629,358.755,79.629z"/>
	<path fill="#3F3F3E" d="M362.111,86.346v-0.6h0.883v-5.797l-0.902,0.08V79.59c0.41-0.102,0.811-0.281,1.143-0.561h0.48v6.717h0.842
		v0.6H362.111z"/>
	<path fill="#3F3F3E" d="M368.673,80.469c-0.1-0.721-0.5-0.84-0.781-0.84c-0.641,0-1.043,0.879-1.062,2.889
		c0.291-0.311,0.682-0.551,1.113-0.551c0.811,0,1.553,0.58,1.553,2.219c0,1.4-0.602,2.26-1.553,2.26
		c-1.254,0-1.855-0.721-1.855-3.318c0-2.898,0.682-4.098,1.824-4.098c0.934,0,1.283,0.561,1.424,1.398L368.673,80.469z
		 M366.81,83.867c0,1.459,0.381,1.979,1.021,1.979c0.562,0,0.943-0.42,0.943-1.67c0-1.289-0.441-1.609-0.902-1.609
		s-0.822,0.301-1.062,0.621V83.867z"/>
	<path fill="#3F3F3E" d="M372.81,84.076v-0.66h2.467v0.66H372.81z"/>
	<path fill="#3F3F3E" d="M378.74,79.129h1.744c1.164,0,1.984,0.68,1.984,1.869c0,0.811-0.359,1.49-1.162,1.77l1.223,3.578h-0.822
		l-1.162-3.418l-1.023,0.039v3.379h-0.781V79.129z M379.521,82.287h0.682c1.123,0,1.484-0.439,1.484-1.248
		c0-0.811-0.361-1.25-1.484-1.25h-0.682V82.287z"/>
	<path fill="#3F3F3E" d="M384.693,85.406v0.939h-0.844v-0.939H384.693z"/>
	<path fill="#3F3F3E" d="M389.421,79.129v0.66h-2.525v2.459h1.865v0.658h-1.865v2.779h2.646v0.66h-3.428v-7.217H389.421z"/>
	<path fill="#3F3F3E" d="M391.505,85.406v0.939h-0.844v-0.939H391.505z"/>
	<path fill="#3F3F3E" d="M395.031,79.129l1.596,7.217h-0.783l-0.432-2.139h-1.844l-0.432,2.139h-0.781l1.594-7.217H395.031z
		 M393.677,83.547h1.625l-0.803-3.879h-0.02L393.677,83.547z"/>
	<path fill="#3F3F3E" d="M398.316,85.406v0.939h-0.842v-0.939H398.316z"/>
	<path fill="#3F3F3E" d="M402.091,81.148h0.682v0.568c0.342-0.35,0.842-0.668,1.184-0.668c0.723,0,1.143,0.398,1.143,1.359v3.938
		h-0.721v-3.838c0-0.6-0.182-0.859-0.572-0.859c-0.352,0-0.672,0.238-0.992,0.639v4.059h-0.723V81.148z"/>
	<path fill="#3F3F3E" d="M407.894,79.029c0.822,0,1.482,0.67,1.482,1.479c0,0.811-0.66,1.48-1.482,1.48s-1.484-0.67-1.484-1.48
		C406.41,79.699,407.072,79.029,407.894,79.029z M407.894,79.488c-0.551,0-0.963,0.471-0.963,1.02c0,0.551,0.412,1.02,0.963,1.02
		s0.963-0.469,0.963-1.02C408.857,79.959,408.445,79.488,407.894,79.488z"/>
	<path fill="#3F3F3E" d="M413.322,86.346v-0.6h0.883v-5.797l-0.902,0.08V79.59c0.412-0.102,0.812-0.281,1.143-0.561h0.482v6.717
		h0.842v0.6H413.322z"/>
	<path fill="#3F3F3E" d="M417.841,86.346v-0.6h0.883v-5.797l-0.902,0.08V79.59c0.41-0.102,0.811-0.281,1.143-0.561h0.48v6.717h0.842
		v0.6H417.841z"/>
	<path fill="#3F3F3E" d="M424.404,80.469c-0.1-0.721-0.5-0.84-0.781-0.84c-0.641,0-1.043,0.879-1.062,2.889
		c0.291-0.311,0.682-0.551,1.113-0.551c0.811,0,1.553,0.58,1.553,2.219c0,1.4-0.602,2.26-1.553,2.26
		c-1.254,0-1.855-0.721-1.855-3.318c0-2.898,0.682-4.098,1.824-4.098c0.934,0,1.283,0.561,1.424,1.398L424.404,80.469z
		 M422.541,83.867c0,1.459,0.381,1.979,1.021,1.979c0.562,0,0.943-0.42,0.943-1.67c0-1.289-0.441-1.609-0.902-1.609
		s-0.822,0.301-1.062,0.621V83.867z"/>
	<path fill="#3F3F3E" d="M426.878,86.346v-0.6h0.883v-5.797l-0.902,0.08V79.59c0.41-0.102,0.811-0.281,1.143-0.561h0.48v6.717h0.842
		v0.6H426.878z"/>
	<path fill="#3F3F3E" d="M431.396,86.346v-0.6h0.883v-5.797l-0.902,0.08V79.59c0.412-0.102,0.812-0.281,1.143-0.561h0.482v6.717
		h0.842v0.6H431.396z"/>
	<path fill="#3F3F3E" d="M438.13,79.129v4.979h0.752v0.6h-0.752v1.639h-0.723v-1.639h-2.316v-0.34l1.986-5.238H438.13z
		 M435.773,84.107h1.635v-4.318h-0.02L435.773,84.107z"/>
	<path fill="#3F3F3E" d="M442.478,80.469c-0.1-0.721-0.502-0.84-0.781-0.84c-0.643,0-1.043,0.879-1.064,2.889
		c0.291-0.311,0.684-0.551,1.113-0.551c0.812,0,1.555,0.58,1.555,2.219c0,1.4-0.602,2.26-1.555,2.26
		c-1.252,0-1.854-0.721-1.854-3.318c0-2.898,0.682-4.098,1.824-4.098c0.932,0,1.283,0.561,1.424,1.398L442.478,80.469z
		 M440.613,83.867c0,1.459,0.381,1.979,1.023,1.979c0.561,0,0.941-0.42,0.941-1.67c0-1.289-0.441-1.609-0.902-1.609
		s-0.822,0.301-1.062,0.621V83.867z"/>
</g>
</svg>
