<?xml version="1.0" encoding="utf-8"?>
<!-- Generator: Adobe Illustrator 16.0.0, SVG Export Plug-In . SVG Version: 6.00 Build 0)  -->
<!DOCTYPE svg PUBLIC "-//W3C//DTD SVG 1.1//EN" "http://www.w3.org/Graphics/SVG/1.1/DTD/svg11.dtd">
<svg version="1.1" id="Calque_1" xmlns="http://www.w3.org/2000/svg" xmlns:xlink="http://www.w3.org/1999/xlink" x="0px" y="0px"
	 width="3056px" height="593px" viewBox="0 0 3056 593" enable-background="new 0 0 3056 593" xml:space="preserve">
<g id="Calque_1_1_">
</g>
<g id="Calque_2">
	<polygon fill="#AEC90B" points="670.851,559.764 982.163,465.963 1130.089,481.696 707.832,559.764 	"/>
	<polygon fill="#941B80" points="1492.679,554.229 1327.834,554.229 1835.36,474.483 1878.387,474.483 	"/>
	<polygon fill="#F2987A" points="2191.165,554.229 2093.255,554.229 2384.514,465.976 2417.362,465.976 	"/>
	<polygon fill="#E5005B" points="1492.619,554.229 1327.834,554.229 982.163,465.963 1130.089,481.696 	"/>
	<polygon fill="#0094DA" points="49.785,565.297 343.291,483.304 380.272,479.365 118.335,565.297 	"/>
	<polygon fill="#0094DA" points="2093.255,554.229 2191.165,554.229 1878.387,474.483 1835.36,474.483 	"/>
	<polygon fill="#E1061B" points="670.851,559.764 707.832,559.764 380.272,479.365 343.291,483.304 	"/>
	<g>
		<polygon fill="#A61680" points="2767.783,554.229 2696.114,554.229 2755.876,451.976 2800.617,475.433 		"/>
	</g>
	<polygon fill="#EB6608" points="2417.362,465.976 2384.514,465.976 2696.114,554.229 2767.783,554.229 	"/>
	<polygon fill="#93C01F" points="2655.868,359.332 2695.344,357.711 2627.806,183.47 2610.058,224.485 	"/>
	<polygon fill="#005CA8" points="2610.058,224.485 2615.13,146.886 2689.392,86.042 2744.366,82.365 	"/>
	<polygon fill="#C7D300" points="2755.647,188.375 2846.182,160.961 2747.239,79.143 2689.386,86.039 	"/>
	<polygon fill="#EB6608" points="2846.182,160.961 2755.647,188.382 2871.123,35.659 2968.418,13.891 	"/>
	<polygon fill="#522582" points="2715.446,348.383 2700.156,345.34 2655.868,359.332 2696.89,361.693 	"/>
	<polygon fill="#EB609E" points="2790.738,459.599 2755.876,451.976 2700.156,345.34 2719.544,345.449 	"/>
	<polygon fill="#A61680" points="2800.617,475.433 2755.872,451.979 2810.45,354.406 2860.64,333.729 	"/>
	<polygon fill="#009540" points="2859.473,379.107 2810.445,354.402 2862.867,328.486 2969.142,329.385 	"/>
	<polygon fill="#009EE2" points="2977.043,329.455 2859.473,379.107 3027.642,62.058 3035.125,227.879 	"/>
	<polygon fill="#E4005B" points="3035.125,227.879 3032.521,52.838 2973.396,7.587 2870.851,35.746 	"/>
	<g>
		<path fill="#1D1D1B" d="M1813.26,279.663V257.38h1.689v20.776h11.841v1.506L1813.26,279.663L1813.26,279.663z"/>
	</g>
	<g>
		<path fill="#1D1D1B" d="M1914.203,277.567c-1.472,1.476-3.476,2.283-5.576,2.283c-2.099,0-4.092-0.808-5.563-2.283
			c-2.039-2.035-2.076-4.006-2.076-9.046c0-5.034,0.037-7.013,2.076-9.045c1.473-1.467,3.467-2.284,5.563-2.284
			c2.101,0,4.104,0.817,5.576,2.284c2.041,2.032,2.063,4.011,2.063,9.045C1916.269,273.561,1916.244,275.532,1914.203,277.567z
			 M1912.853,260.417c-1.123-1.13-2.631-1.722-4.226-1.722s-3.092,0.592-4.233,1.722c-1.588,1.591-1.701,3.311-1.701,8.104
			c0,4.796,0.113,6.509,1.701,8.108c1.143,1.123,2.64,1.715,4.233,1.715c1.595,0,3.103-0.592,4.226-1.715
			c1.608-1.6,1.725-3.312,1.725-8.108C1914.576,263.728,1914.461,262.008,1912.853,260.417z"/>
	</g>
	<g>
		<path fill="#1D1D1B" d="M1999.521,279.663h-1.455l-7.312-22.282h1.783l6.252,19.308l6.256-19.308h1.791L1999.521,279.663z"/>
		<path fill="#1D1D1B" d="M2082.562,279.663V257.38h13.509v1.503h-11.822v8.795h10.081v1.499h-10.081v8.979h11.822v1.506
			L2082.562,279.663L2082.562,279.663z"/>
	</g>
	<g>
		<path fill="#1D1D1B" d="M2209.16,270.21h-6.502v9.452h-1.688V257.38h8.188c3.839,0,6.719,2.345,6.719,6.409
			C2215.879,267.861,2212.999,270.21,2209.16,270.21z M2208.953,258.883h-6.295v9.821h6.295c3.062,0,5.241-1.558,5.241-4.915
			C2214.195,260.451,2212.017,258.883,2208.953,258.883z"/>
	</g>
	<g>
		<path fill="#1D1D1B" d="M2305.762,279.663l-5.321-10.26h-6.145v10.26h-1.688V257.38h8.49c3.625,0,6.381,2.096,6.381,5.979
			c0,3.317-2.006,5.472-5.125,6.005l5.379,10.298L2305.762,279.663L2305.762,279.663z M2300.884,258.883h-6.588v9.013h6.588
			c2.836,0,4.911-1.439,4.911-4.511C2305.795,260.317,2303.72,258.883,2300.884,258.883z"/>
	</g>
	<g>
		<path fill="#1D1D1B" d="M2385.137,279.663V257.38h1.686v22.282L2385.137,279.663L2385.137,279.663z"/>
	</g>
	<g>
		<path fill="#1D1D1B" d="M2480.216,279.663l-12.865-19.369v19.369h-1.709V257.38h1.709l12.865,19.308V257.38h1.688v22.282
			L2480.216,279.663L2480.216,279.663z"/>
	</g>
	<g>
		<path fill="#1D1D1B" d="M2566.555,258.883v20.779h-1.688v-20.779h-6.63v-1.503h14.984v1.503H2566.555z"/>
	</g>
	<g>
		<path fill="#E5005B" d="M1225.106,137.831h-139.951v40.147h49.978v119.655h39.979V177.978h49.994V137.831z M1079.3,187.769
			c0-13.693-4.85-25.328-14.736-35.205c-9.707-9.79-21.494-14.733-35.125-14.733H919.455v159.803h40.031V177.978h65.939
			c3.804,0,7.058,1.29,9.779,4.041c2.751,2.721,4.093,5.968,4.093,9.81v105.805h40.002V187.769z M905.612,137.831h-40.078v159.803
			h40.078V137.831z M807.624,213.552c-2.682,2.688-5.986,4.109-9.792,4.109h-65.87v-39.684h65.87c3.844,0,7.112,1.29,9.741,4.041
			c2.801,2.682,4.133,5.968,4.133,9.729v11.997C811.705,207.603,810.373,210.883,807.624,213.552 M851.772,187.769
			c0-13.719-4.922-25.396-14.735-35.205c-9.767-9.79-21.542-14.733-35.185-14.733H691.879l0.019,159.803h40.063v-39.899
			l51.954,39.899h57.929l-55.942-39.899h15.972c13.674,0,25.397-4.934,35.139-14.658c9.839-9.818,14.763-21.562,14.763-35.374
			v-19.934H851.772z M635.994,213.552c-2.763,2.688-5.996,4.109-9.819,4.109h-65.91v-39.684l65.91-0.107
			c3.823,0.107,7.057,1.397,9.819,4.148c2.681,2.682,4.09,5.968,4.09,9.729v11.997C640.084,207.603,638.675,210.85,635.994,213.552
			 M680.104,187.769c0-13.719-4.875-25.396-14.815-35.205c-9.696-9.79-21.44-14.733-35.063-14.733H520.197v159.803h40.067v-39.899
			l70.043-0.07c13.59,0.07,25.285-4.863,34.981-14.588c9.913-9.818,14.815-21.59,14.815-35.374V187.769z M400.598,257.734
			c-3.28,0-6.095-1.203-8.489-3.655c-2.429-2.321-3.642-5.115-3.642-8.308c0.027-3.14,1.212-5.851,3.642-8.245
			c2.395-2.38,5.242-3.583,8.489-3.583l67.771,0.031v23.76H400.598z M508.44,187.769c0-13.693-4.916-25.328-14.777-35.205
			c-9.778-9.79-21.528-14.733-35.194-14.733h-99.915v40.147h97.93c3.216,0,5.946,1.154,8.281,3.586
			c2.413,2.293,3.604,5.112,3.604,8.268v12.064h-73.817c-12.604,0-23.464,4.816-32.475,14.536
			c-9.01,9.718-13.512,20.868-13.512,33.356c0.037,12.638,4.502,23.81,13.512,33.558c9.01,9.569,19.871,14.287,32.475,14.287
			h113.891V187.769H508.44z M293.241,217.76l54.419-79.93h-51.05l-28.85,46.522l-28.928-46.522l-50.825,0.068l54.324,79.861
			l-54.324,79.873h50.825l28.928-46.454l28.85,46.454h51.05L293.241,217.76z M187.035,257.734H87.121v-23.791h79.926v-32.047H87.121
			v-23.918h89.866v-40.147l-130.09,0.068v159.734h140.138V257.734z"/>
	</g>
	<g>
		<path d="M54.789,366.5v-34.592h3.692V366.5H54.789z"/>
		<path d="M73.834,366.5c-4.179,0-6.073-2.721-6.073-6.364v-28.228h3.498v28.081c0,2.332,0.777,3.498,3.207,3.498h1.895v3.013
			H73.834z"/>
		<path d="M107.89,352.265h-9.183V366.5h-3.692v-34.592h12.875c6.316,0,10.688,3.936,10.688,10.154S114.206,352.265,107.89,352.265z
			 M107.55,335.212h-8.843v13.749h8.843c4.324,0,7.336-2.332,7.336-6.898C114.886,337.495,111.874,335.212,107.55,335.212z"/>
		<path d="M138.545,366.5v-2.283c-1.943,1.943-3.692,2.575-6.899,2.575c-3.304,0-5.247-0.632-6.753-2.187
			c-1.166-1.166-1.798-2.964-1.798-4.858c0-4.179,2.915-6.899,8.26-6.899h7.19v-2.283c0-3.498-1.749-5.247-6.122-5.247
			c-3.061,0-4.615,0.729-6.024,2.721l-2.38-2.187c2.138-2.769,4.567-3.546,8.454-3.546c6.413,0,9.571,2.769,9.571,7.967V366.5
			H138.545z M138.545,355.472h-6.705c-3.595,0-5.344,1.457-5.344,4.227s1.7,4.081,5.49,4.081c2.041,0,3.838-0.146,5.344-1.604
			c0.826-0.777,1.215-2.138,1.215-4.13V355.472z"/>
		<path d="M163.904,347.163c-1.312-1.312-2.284-1.748-4.13-1.748c-3.498,0-5.733,2.769-5.733,6.412V366.5h-3.498v-23.903h3.498
			v2.915c1.312-1.992,3.935-3.206,6.705-3.206c2.283,0,4.032,0.534,5.733,2.234L163.904,347.163z"/>
		<path d="M177.701,366.5c-4.081,0-6.122-2.866-6.122-6.413v-14.672h-3.012v-2.673h3.012v-7.481h3.498v7.481h5.102v2.673h-5.102
			v14.574c0,2.187,1.021,3.498,3.255,3.498h1.847v3.013H177.701z"/>
		<path d="M202.429,366.5v-14.721c0-4.228-2.284-6.364-5.879-6.364s-5.927,2.186-5.927,6.364V366.5h-3.498v-23.903h3.498v2.623
			c1.701-1.943,4.033-2.914,6.705-2.914c2.575,0,4.664,0.777,6.122,2.234c1.701,1.652,2.478,3.887,2.478,6.656V366.5H202.429z"/>
		<path d="M216.614,355.472c0,5.247,2.478,8.259,7.044,8.259c2.769,0,4.373-0.825,6.267-2.721l2.381,2.089
			c-2.429,2.43-4.664,3.693-8.745,3.693c-6.316,0-10.445-3.79-10.445-12.244c0-7.725,3.741-12.242,9.813-12.242
			c6.17,0,9.814,4.469,9.814,11.562v1.604H216.614z M228.517,348.864c-0.923-2.187-3.061-3.596-5.587-3.596
			s-4.664,1.409-5.587,3.596c-0.534,1.312-0.632,2.04-0.729,3.983h12.632C229.148,350.904,229.052,350.176,228.517,348.864z"/>
		<path d="M253.537,347.163c-1.312-1.312-2.284-1.748-4.13-1.748c-3.498,0-5.733,2.769-5.733,6.412V366.5h-3.498v-23.903h3.498
			v2.915c1.312-1.992,3.935-3.206,6.705-3.206c2.283,0,4.032,0.534,5.733,2.234L253.537,347.163z"/>
		<path d="M286.086,347.163c-1.312-1.312-2.283-1.748-4.129-1.748c-3.498,0-5.733,2.769-5.733,6.412V366.5h-3.498v-23.903h3.498
			v2.915c1.312-1.992,3.936-3.206,6.705-3.206c2.284,0,4.033,0.534,5.733,2.234L286.086,347.163z"/>
		<path d="M292.984,335.795v-3.936h3.935v3.936H292.984z M293.178,366.5v-23.903h3.498V366.5H293.178z"/>
		<path d="M313,366.792c-4.033,0-7.19-0.924-9.814-3.45l2.332-2.332c1.895,1.992,4.47,2.77,7.434,2.77
			c3.936,0,6.364-1.409,6.364-4.227c0-2.089-1.214-3.255-3.983-3.498l-3.936-0.341c-4.664-0.389-7.142-2.478-7.142-6.412
			c0-4.373,3.692-6.996,8.793-6.996c3.401,0,6.461,0.825,8.599,2.574l-2.283,2.283c-1.7-1.312-3.887-1.895-6.364-1.895
			c-3.498,0-5.345,1.506-5.345,3.936c0,2.041,1.166,3.255,4.179,3.498l3.838,0.34c4.178,0.389,7.045,1.992,7.045,6.462
			C322.717,364.119,318.781,366.792,313,366.792z"/>
		<path d="M331.752,355.472c0,5.247,2.478,8.259,7.044,8.259c2.769,0,4.373-0.825,6.267-2.721l2.381,2.089
			c-2.429,2.43-4.664,3.693-8.745,3.693c-6.316,0-10.445-3.79-10.445-12.244c0-7.725,3.741-12.242,9.813-12.242
			c6.17,0,9.814,4.469,9.814,11.562v1.604H331.752z M343.655,348.864c-0.923-2.187-3.061-3.596-5.587-3.596
			s-4.664,1.409-5.587,3.596c-0.534,1.312-0.632,2.04-0.729,3.983h12.632C344.286,350.904,344.189,350.176,343.655,348.864z"/>
		<path d="M368.675,347.163c-1.312-1.312-2.284-1.748-4.13-1.748c-3.498,0-5.733,2.769-5.733,6.412V366.5h-3.498v-23.903h3.498
			v2.915c1.312-1.992,3.935-3.206,6.705-3.206c2.283,0,4.032,0.534,5.733,2.234L368.675,347.163z"/>
		<path d="M383.783,366.5h-3.109l-8.745-23.903h3.789l6.511,19.19l6.559-19.19h3.79L383.783,366.5z"/>
		<path d="M411.037,366.5v-2.283c-1.943,1.943-3.692,2.575-6.898,2.575c-3.304,0-5.247-0.632-6.753-2.187
			c-1.166-1.166-1.797-2.964-1.797-4.858c0-4.179,2.915-6.899,8.259-6.899h7.19v-2.283c0-3.498-1.749-5.247-6.121-5.247
			c-3.061,0-4.616,0.729-6.024,2.721l-2.381-2.187c2.138-2.769,4.567-3.546,8.454-3.546c6.413,0,9.571,2.769,9.571,7.967V366.5
			H411.037z M411.037,355.472h-6.704c-3.596,0-5.345,1.457-5.345,4.227s1.701,4.081,5.49,4.081c2.041,0,3.838-0.146,5.344-1.604
			c0.826-0.777,1.214-2.138,1.214-4.13V355.472z"/>
		<path d="M429.741,366.5c-4.081,0-6.122-2.866-6.122-6.413v-14.672h-3.012v-2.673h3.012v-7.481h3.498v7.481h5.102v2.673h-5.102
			v14.574c0,2.187,1.021,3.498,3.255,3.498h1.847v3.013H429.741z"/>
		<path d="M454.517,364.071c-1.652,1.651-3.935,2.721-6.85,2.721s-5.199-1.069-6.851-2.721c-2.429-2.479-2.915-5.83-2.915-9.523
			c0-3.691,0.486-7.044,2.915-9.521c1.652-1.652,3.936-2.721,6.851-2.721s5.198,1.068,6.85,2.721
			c2.429,2.478,2.915,5.83,2.915,9.521C457.432,358.241,456.946,361.593,454.517,364.071z M452.039,347.163
			c-1.117-1.117-2.672-1.748-4.372-1.748c-1.701,0-3.207,0.631-4.324,1.748c-1.749,1.75-1.943,4.713-1.943,7.385
			c0,2.673,0.194,5.637,1.943,7.385c1.117,1.118,2.624,1.75,4.324,1.75c1.7,0,3.255-0.632,4.372-1.75
			c1.749-1.748,1.895-4.712,1.895-7.385C453.934,351.876,453.788,348.913,452.039,347.163z"/>
		<path d="M490.565,366.5v-2.283c-1.943,1.943-3.692,2.575-6.899,2.575c-3.304,0-5.247-0.632-6.753-2.187
			c-1.166-1.166-1.798-2.964-1.798-4.858c0-4.179,2.915-6.899,8.26-6.899h7.19v-2.283c0-3.498-1.749-5.247-6.122-5.247
			c-3.061,0-4.615,0.729-6.024,2.721l-2.38-2.187c2.138-2.769,4.567-3.546,8.454-3.546c6.413,0,9.571,2.769,9.571,7.967V366.5
			H490.565z M490.565,355.472h-6.705c-3.595,0-5.344,1.457-5.344,4.227s1.7,4.081,5.49,4.081c2.041,0,3.838-0.146,5.344-1.604
			c0.826-0.777,1.215-2.138,1.215-4.13V355.472z"/>
		<path d="M502.369,335.795v-3.936h3.936v3.936H502.369z M502.563,366.5v-23.903h3.498V366.5H502.563z"/>
		<path d="M540.458,352.265h-9.182V366.5h-3.692v-34.592h12.875c6.316,0,10.688,3.936,10.688,10.154
			S546.773,352.265,540.458,352.265z M540.117,335.212h-8.842v13.749h8.842c4.324,0,7.336-2.332,7.336-6.898
			C547.454,337.495,544.441,335.212,540.117,335.212z"/>
		<path d="M570.918,347.163c-1.312-1.312-2.283-1.748-4.129-1.748c-3.498,0-5.733,2.769-5.733,6.412V366.5h-3.498v-23.903h3.498
			v2.915c1.312-1.992,3.936-3.206,6.705-3.206c2.284,0,4.033,0.534,5.733,2.234L570.918,347.163z"/>
		<path d="M593.363,364.071c-1.652,1.651-3.935,2.721-6.85,2.721s-5.199-1.069-6.851-2.721c-2.429-2.479-2.915-5.83-2.915-9.523
			c0-3.691,0.486-7.044,2.915-9.521c1.652-1.652,3.936-2.721,6.851-2.721s5.198,1.068,6.85,2.721
			c2.429,2.478,2.915,5.83,2.915,9.521C596.278,358.241,595.792,361.593,593.363,364.071z M590.885,347.163
			c-1.117-1.117-2.672-1.748-4.372-1.748c-1.701,0-3.207,0.631-4.324,1.748c-1.749,1.75-1.943,4.713-1.943,7.385
			c0,2.673,0.194,5.637,1.943,7.385c1.117,1.118,2.624,1.75,4.324,1.75c1.7,0,3.255-0.632,4.372-1.75
			c1.749-1.748,1.895-4.712,1.895-7.385C592.78,351.876,592.634,348.913,590.885,347.163z"/>
		<path d="M608.034,345.415V366.5h-3.498v-21.085h-3.061v-2.673h3.061v-4.518c0-3.547,1.992-6.414,6.073-6.414h2.526v3.013h-1.895
			c-2.235,0-3.207,1.312-3.207,3.498v4.421h5.102v2.673H608.034z"/>
		<path d="M621.2,355.472c0,5.247,2.478,8.259,7.044,8.259c2.769,0,4.373-0.825,6.267-2.721l2.381,2.089
			c-2.429,2.43-4.664,3.693-8.745,3.693c-6.316,0-10.445-3.79-10.445-12.244c0-7.725,3.741-12.242,9.813-12.242
			c6.17,0,9.814,4.469,9.814,11.562v1.604H621.2z M633.103,348.864c-0.923-2.187-3.061-3.596-5.587-3.596s-4.664,1.409-5.587,3.596
			c-0.534,1.312-0.632,2.04-0.729,3.983h12.632C633.734,350.904,633.638,350.176,633.103,348.864z"/>
		<path d="M652.293,366.792c-4.033,0-7.19-0.924-9.814-3.45l2.332-2.332c1.895,1.992,4.47,2.77,7.434,2.77
			c3.936,0,6.364-1.409,6.364-4.227c0-2.089-1.214-3.255-3.983-3.498l-3.936-0.341c-4.664-0.389-7.142-2.478-7.142-6.412
			c0-4.373,3.692-6.996,8.793-6.996c3.401,0,6.461,0.825,8.599,2.574l-2.283,2.283c-1.7-1.312-3.887-1.895-6.364-1.895
			c-3.498,0-5.345,1.506-5.345,3.936c0,2.041,1.166,3.255,4.179,3.498l3.838,0.34c4.178,0.389,7.045,1.992,7.045,6.462
			C662.01,364.119,658.074,366.792,652.293,366.792z"/>
		<path d="M676.389,366.792c-4.032,0-7.19-0.924-9.813-3.45l2.332-2.332c1.895,1.992,4.47,2.77,7.433,2.77
			c3.935,0,6.365-1.409,6.365-4.227c0-2.089-1.215-3.255-3.984-3.498l-3.935-0.341c-4.664-0.389-7.142-2.478-7.142-6.412
			c0-4.373,3.692-6.996,8.794-6.996c3.401,0,6.462,0.825,8.6,2.574l-2.284,2.283c-1.701-1.312-3.887-1.895-6.365-1.895
			c-3.498,0-5.344,1.506-5.344,3.936c0,2.041,1.166,3.255,4.178,3.498l3.838,0.34c4.178,0.389,7.044,1.992,7.044,6.462
			C686.105,364.119,682.17,366.792,676.389,366.792z"/>
		<path d="M692.76,335.795v-3.936h3.935v3.936H692.76z M692.955,366.5v-23.903h3.498V366.5H692.955z"/>
		<path d="M720.598,364.071c-1.652,1.651-3.935,2.721-6.85,2.721s-5.199-1.069-6.851-2.721c-2.429-2.479-2.915-5.83-2.915-9.523
			c0-3.691,0.486-7.044,2.915-9.521c1.652-1.652,3.936-2.721,6.851-2.721s5.198,1.068,6.85,2.721
			c2.429,2.478,2.915,5.83,2.915,9.521C723.513,358.241,723.027,361.593,720.598,364.071z M718.12,347.163
			c-1.117-1.117-2.672-1.748-4.372-1.748c-1.701,0-3.207,0.631-4.324,1.748c-1.749,1.75-1.943,4.713-1.943,7.385
			c0,2.673,0.194,5.637,1.943,7.385c1.117,1.118,2.624,1.75,4.324,1.75c1.7,0,3.255-0.632,4.372-1.75
			c1.749-1.748,1.895-4.712,1.895-7.385C720.015,351.876,719.869,348.913,718.12,347.163z"/>
		<path d="M746.298,366.5v-14.721c0-4.228-2.283-6.364-5.878-6.364s-5.927,2.186-5.927,6.364V366.5h-3.498v-23.903h3.498v2.623
			c1.7-1.943,4.032-2.914,6.705-2.914c2.575,0,4.664,0.777,6.122,2.234c1.7,1.652,2.478,3.887,2.478,6.656V366.5H746.298z"/>
		<path d="M758.103,335.795v-3.936h3.936v3.936H758.103z M758.297,366.5v-23.903h3.498V366.5H758.297z"/>
		<path d="M778.118,366.792c-4.032,0-7.19-0.924-9.813-3.45l2.332-2.332c1.895,1.992,4.47,2.77,7.433,2.77
			c3.935,0,6.365-1.409,6.365-4.227c0-2.089-1.215-3.255-3.984-3.498l-3.935-0.341c-4.664-0.389-7.142-2.478-7.142-6.412
			c0-4.373,3.692-6.996,8.794-6.996c3.401,0,6.462,0.825,8.6,2.574l-2.284,2.283c-1.701-1.312-3.887-1.895-6.365-1.895
			c-3.498,0-5.344,1.506-5.344,3.936c0,2.041,1.166,3.255,4.178,3.498l3.838,0.34c4.178,0.389,7.044,1.992,7.044,6.462
			C787.835,364.119,783.9,366.792,778.118,366.792z"/>
		<path d="M801.389,366.5c-4.081,0-6.122-2.866-6.122-6.413v-14.672h-3.012v-2.673h3.012v-7.481h3.498v7.481h5.101v2.673h-5.101
			v14.574c0,2.187,1.02,3.498,3.255,3.498h1.846v3.013H801.389z"/>
		<path d="M810.619,335.795v-3.936h3.935v3.936H810.619z M810.813,366.5v-23.903h3.498V366.5H810.813z"/>
		<path d="M849.484,366.5v-2.866c-1.943,2.526-4.178,3.158-6.802,3.158c-2.429,0-4.567-0.826-5.83-2.09
			c-2.429-2.429-2.915-6.413-2.915-10.154c0-3.74,0.486-7.725,2.915-10.153c1.263-1.264,3.401-2.089,5.83-2.089
			c2.624,0,4.81,0.582,6.753,3.061v-13.458h3.498V366.5H849.484z M843.459,345.415c-5.199,0-6.024,4.469-6.024,9.133
			s0.826,9.135,6.024,9.135s5.976-4.471,5.976-9.135S848.658,345.415,843.459,345.415z"/>
		<path d="M863.864,355.472c0,5.247,2.478,8.259,7.044,8.259c2.769,0,4.373-0.825,6.267-2.721l2.381,2.089
			c-2.429,2.43-4.664,3.693-8.745,3.693c-6.316,0-10.445-3.79-10.445-12.244c0-7.725,3.741-12.242,9.813-12.242
			c6.17,0,9.814,4.469,9.814,11.562v1.604H863.864z M875.767,348.864c-0.923-2.187-3.061-3.596-5.587-3.596
			s-4.664,1.409-5.587,3.596c-0.534,1.312-0.632,2.04-0.729,3.983h12.632C876.398,350.904,876.302,350.176,875.767,348.864z"/>
		<path d="M893.402,366.5c-4.179,0-6.073-2.721-6.073-6.364v-28.228h3.498v28.081c0,2.332,0.777,3.498,3.207,3.498h1.895v3.013
			H893.402z"/>
		<path d="M907.831,366.5c-4.179,0-6.073-2.721-6.073-6.364v-28.228h3.498v28.081c0,2.332,0.777,3.498,3.207,3.498h1.895v3.013
			H907.831z"/>
		<path d="M918.47,355.472c0,5.247,2.478,8.259,7.045,8.259c2.77,0,4.373-0.825,6.268-2.721l2.38,2.089
			c-2.429,2.43-4.664,3.693-8.745,3.693c-6.316,0-10.446-3.79-10.446-12.244c0-7.725,3.741-12.242,9.814-12.242
			c6.17,0,9.813,4.469,9.813,11.562v1.604H918.47z M930.373,348.864c-0.923-2.187-3.061-3.596-5.587-3.596s-4.664,1.409-5.587,3.596
			c-0.535,1.312-0.631,2.04-0.729,3.983h12.632C931.005,350.904,930.907,350.176,930.373,348.864z"/>
		<path d="M974.923,366.5l-2.77-7.822h-15.109l-2.77,7.822h-3.935l12.729-34.592h3.109l12.681,34.592H974.923z M964.672,337.204
			l-6.511,18.268h12.924L964.672,337.204z"/>
		<path d="M997.173,347.163c-1.312-1.312-2.283-1.748-4.129-1.748c-3.498,0-5.733,2.769-5.733,6.412V366.5h-3.498v-23.903h3.498
			v2.915c1.312-1.992,3.936-3.206,6.705-3.206c2.284,0,4.033,0.534,5.733,2.234L997.173,347.163z"/>
		<path d="M1010.97,366.5c-4.081,0-6.122-2.866-6.122-6.413v-14.672h-3.012v-2.673h3.012v-7.481h3.498v7.481h5.101v2.673h-5.101
			v14.574c0,2.187,1.02,3.498,3.255,3.498h1.846v3.013H1010.97z"/>
		<path d="M1020.2,335.795v-3.936h3.935v3.936H1020.2z M1020.394,366.5v-23.903h3.498V366.5H1020.394z"/>
		<path d="M1065.43,362.808c-2.43,2.623-5.685,3.984-9.231,3.984c-3.4,0-6.51-1.264-8.842-3.596
			c-3.255-3.255-3.255-6.656-3.255-13.992s0-10.737,3.255-13.992c2.332-2.332,5.393-3.595,8.842-3.595
			c6.607,0,11.077,4.275,12.098,10.348h-3.692c-0.972-4.372-4.081-7.045-8.405-7.045c-2.283,0-4.47,0.924-5.976,2.479
			c-2.187,2.234-2.429,4.566-2.429,11.806s0.243,9.619,2.429,11.854c1.506,1.555,3.692,2.429,5.976,2.429
			c2.526,0,4.956-1.02,6.559-2.963c1.409-1.701,1.943-3.596,1.943-6.268v-2.623h-8.502v-3.256h12.195v5.49
			C1068.393,357.853,1067.567,360.524,1065.43,362.808z"/>
		<path d="M1089.721,347.163c-1.312-1.312-2.284-1.748-4.13-1.748c-3.498,0-5.733,2.769-5.733,6.412V366.5h-3.498v-23.903h3.498
			v2.915c1.312-1.992,3.935-3.206,6.705-3.206c2.283,0,4.032,0.534,5.733,2.234L1089.721,347.163z"/>
		<path d="M1110.367,366.5v-2.283c-1.943,1.943-3.692,2.575-6.899,2.575c-3.304,0-5.247-0.632-6.753-2.187
			c-1.166-1.166-1.798-2.964-1.798-4.858c0-4.179,2.915-6.899,8.26-6.899h7.19v-2.283c0-3.498-1.749-5.247-6.122-5.247
			c-3.061,0-4.615,0.729-6.024,2.721l-2.38-2.187c2.138-2.769,4.567-3.546,8.454-3.546c6.413,0,9.571,2.769,9.571,7.967V366.5
			H1110.367z M1110.367,355.472h-6.705c-3.595,0-5.344,1.457-5.344,4.227s1.7,4.081,5.49,4.081c2.041,0,3.838-0.146,5.344-1.604
			c0.826-0.777,1.215-2.138,1.215-4.13V355.472z"/>
		<path d="M1126.593,345.415V366.5h-3.498v-21.085h-3.061v-2.673h3.061v-4.518c0-3.547,1.992-6.414,6.073-6.414h2.526v3.013h-1.895
			c-2.234,0-3.206,1.312-3.206,3.498v4.421h5.101v2.673H1126.593z M1137.135,335.455v-3.596h3.984v3.596H1137.135z M1137.378,366.5
			v-23.758h3.498V366.5H1137.378z"/>
		<path d="M1158.948,366.792c-6.024,0-10.591-4.082-10.591-12.244s4.566-12.242,10.591-12.242c3.304,0,5.393,0.874,7.871,3.546
			l-2.381,2.235c-1.798-1.992-3.207-2.672-5.49-2.672c-2.332,0-4.275,0.923-5.538,2.721c-1.118,1.555-1.555,3.4-1.555,6.412
			c0,3.013,0.437,4.859,1.555,6.414c1.263,1.797,3.206,2.721,5.538,2.721c2.284,0,3.692-0.729,5.49-2.721l2.381,2.283
			C1164.341,365.917,1162.252,366.792,1158.948,366.792z"/>
		<path d="M1188.778,366.5v-14.77c0-4.179-2.235-6.315-5.83-6.315c-3.596,0-5.976,2.186-5.976,6.315v14.77h-3.498v-34.592h3.498
			v13.312c1.749-1.991,4.033-2.914,6.705-2.914c5.393,0,8.6,3.449,8.6,8.842V366.5H1188.778z"/>
		<path d="M1202.963,355.472c0,5.247,2.478,8.259,7.045,8.259c2.77,0,4.373-0.825,6.268-2.721l2.38,2.089
			c-2.429,2.43-4.664,3.693-8.745,3.693c-6.316,0-10.446-3.79-10.446-12.244c0-7.725,3.741-12.242,9.814-12.242
			c6.17,0,9.813,4.469,9.813,11.562v1.604H1202.963z M1214.866,348.864c-0.923-2.187-3.061-3.596-5.587-3.596
			s-4.664,1.409-5.587,3.596c-0.535,1.312-0.631,2.04-0.729,3.983h12.632C1215.498,350.904,1215.4,350.176,1214.866,348.864z"/>
	</g>
</g>
</svg>
