<?xml version="1.0" encoding="UTF-8" standalone="no"?>
<!-- Generator: Adobe Illustrator 16.0.0, SVG Export Plug-In . SVG Version: 6.00 Build 0)  -->

<svg
   xmlns:dc="http://purl.org/dc/elements/1.1/"
   xmlns:cc="http://creativecommons.org/ns#"
   xmlns:rdf="http://www.w3.org/1999/02/22-rdf-syntax-ns#"
   xmlns:svg="http://www.w3.org/2000/svg"
   xmlns="http://www.w3.org/2000/svg"
   xmlns:sodipodi="http://sodipodi.sourceforge.net/DTD/sodipodi-0.dtd"
   xmlns:inkscape="http://www.inkscape.org/namespaces/inkscape"
   version="1.1"
   id="Calque_1"
   x="0px"
   y="0px"
   width="744.09448"
   height="106.29921"
   viewBox="0 0 744.09448 106.29921"
   enable-background="new 0 0 3056 593"
   xml:space="preserve"
   inkscape:version="0.48.2 r9819"
   sodipodi:docname="header.svg"><metadata
   id="metadata13410"><rdf:RDF><cc:Work
       rdf:about=""><dc:format>image/svg+xml</dc:format><dc:type
         rdf:resource="http://purl.org/dc/dcmitype/StillImage" /></cc:Work></rdf:RDF></metadata><defs
   id="defs13408" /><sodipodi:namedview
   pagecolor="#ffffff"
   bordercolor="#666666"
   borderopacity="1"
   objecttolerance="10"
   gridtolerance="10"
   guidetolerance="10"
   inkscape:pageopacity="0"
   inkscape:pageshadow="2"
   inkscape:window-width="1680"
   inkscape:window-height="948"
   id="namedview13406"
   showgrid="false"
   units="cm"
   inkscape:zoom="1.1780105"
   inkscape:cx="327.48982"
   inkscape:cy="8.3775565"
   inkscape:window-x="0"
   inkscape:window-y="0"
   inkscape:window-maximized="0"
   inkscape:current-layer="Calque_1" />
<g
   id="Calque_1_1_"
   transform="matrix(1.1228718,0,0,1.1228718,-24.762319,-528.34649)">
</g>
<g
   id="Calque_2"
   transform="matrix(0.1898863,0,0,0.1898863,78.991902,-0.93257888)">
	<polygon
   points="670.851,559.764 982.163,465.963 1130.089,481.696 707.832,559.764 "
   id="polygon13226"
   style="fill:#aec90b" />
	<polygon
   points="1492.679,554.229 1327.834,554.229 1835.36,474.483 1878.387,474.483 "
   id="polygon13228"
   style="fill:#941b80" />
	<polygon
   points="2191.165,554.229 2093.255,554.229 2384.514,465.976 2417.362,465.976 "
   id="polygon13230"
   style="fill:#f2987a" />
	<polygon
   points="1492.619,554.229 1327.834,554.229 982.163,465.963 1130.089,481.696 "
   id="polygon13232"
   style="fill:#e5005b" />
	<polygon
   points="49.785,565.297 343.291,483.304 380.272,479.365 118.335,565.297 "
   id="polygon13234"
   style="fill:#0094da" />
	<polygon
   points="2093.255,554.229 2191.165,554.229 1878.387,474.483 1835.36,474.483 "
   id="polygon13236"
   style="fill:#0094da" />
	<polygon
   points="670.851,559.764 707.832,559.764 380.272,479.365 343.291,483.304 "
   id="polygon13238"
   style="fill:#e1061b" />
	<g
   id="g13240">
		<polygon
   points="2767.783,554.229 2696.114,554.229 2755.876,451.976 2800.617,475.433 "
   id="polygon13242"
   style="fill:#a61680" />
	</g>
	<polygon
   points="2417.362,465.976 2384.514,465.976 2696.114,554.229 2767.783,554.229 "
   id="polygon13244"
   style="fill:#eb6608" />
	<polygon
   points="2655.868,359.332 2695.344,357.711 2627.806,183.47 2610.058,224.485 "
   id="polygon13246"
   style="fill:#93c01f" />
	<polygon
   points="2610.058,224.485 2615.13,146.886 2689.392,86.042 2744.366,82.365 "
   id="polygon13248"
   style="fill:#005ca8" />
	<polygon
   points="2755.647,188.375 2846.182,160.961 2747.239,79.143 2689.386,86.039 "
   id="polygon13250"
   style="fill:#c7d300" />
	<polygon
   points="2846.182,160.961 2755.647,188.382 2871.123,35.659 2968.418,13.891 "
   id="polygon13252"
   style="fill:#eb6608" />
	<polygon
   points="2715.446,348.383 2700.156,345.34 2655.868,359.332 2696.89,361.693 "
   id="polygon13254"
   style="fill:#522582" />
	<polygon
   points="2790.738,459.599 2755.876,451.976 2700.156,345.34 2719.544,345.449 "
   id="polygon13256"
   style="fill:#eb609e" />
	<polygon
   points="2800.617,475.433 2755.872,451.979 2810.45,354.406 2860.64,333.729 "
   id="polygon13258"
   style="fill:#a61680" />
	<polygon
   points="2859.473,379.107 2810.445,354.402 2862.867,328.486 2969.142,329.385 "
   id="polygon13260"
   style="fill:#009540" />
	<polygon
   points="2977.043,329.455 2859.473,379.107 3027.642,62.058 3035.125,227.879 "
   id="polygon13262"
   style="fill:#009ee2" />
	<polygon
   points="3035.125,227.879 3032.521,52.838 2973.396,7.587 2870.851,35.746 "
   id="polygon13264"
   style="fill:#e4005b" />
	<g
   id="g13266">
		<path
   d="M 1813.26,279.663 V 257.38 h 1.689 v 20.776 h 11.841 v 1.506 l -13.53,0.001 0,0 z"
   id="path13268"
   inkscape:connector-curvature="0"
   style="fill:#1d1d1b" />
	</g>
	<g
   id="g13270">
		<path
   d="m 1914.203,277.567 c -1.472,1.476 -3.476,2.283 -5.576,2.283 -2.099,0 -4.092,-0.808 -5.563,-2.283 -2.039,-2.035 -2.076,-4.006 -2.076,-9.046 0,-5.034 0.037,-7.013 2.076,-9.045 1.473,-1.467 3.467,-2.284 5.563,-2.284 2.101,0 4.104,0.817 5.576,2.284 2.041,2.032 2.063,4.011 2.063,9.045 0,5.04 -0.022,7.011 -2.063,9.046 z m -1.35,-17.15 c -1.123,-1.13 -2.631,-1.722 -4.226,-1.722 -1.595,0 -3.092,0.592 -4.233,1.722 -1.588,1.591 -1.701,3.311 -1.701,8.104 0,4.796 0.113,6.509 1.701,8.108 1.143,1.123 2.64,1.715 4.233,1.715 1.595,0 3.103,-0.592 4.226,-1.715 1.608,-1.6 1.725,-3.312 1.725,-8.108 0,-4.793 -0.117,-6.513 -1.725,-8.104 z"
   id="path13272"
   inkscape:connector-curvature="0"
   style="fill:#1d1d1b" />
	</g>
	<g
   id="g13274">
		<path
   d="m 1999.521,279.663 h -1.455 l -7.312,-22.282 h 1.783 l 6.252,19.308 6.256,-19.308 h 1.791 l -7.315,22.282 z"
   id="path13276"
   inkscape:connector-curvature="0"
   style="fill:#1d1d1b" />
		<path
   d="M 2082.562,279.663 V 257.38 h 13.509 v 1.503 h -11.822 v 8.795 h 10.081 v 1.499 h -10.081 v 8.979 h 11.822 v 1.506 l -13.509,0.001 0,0 z"
   id="path13278"
   inkscape:connector-curvature="0"
   style="fill:#1d1d1b" />
	</g>
	<g
   id="g13280">
		<path
   d="m 2209.16,270.21 h -6.502 v 9.452 h -1.688 V 257.38 h 8.188 c 3.839,0 6.719,2.345 6.719,6.409 0,4.072 -2.878,6.421 -6.717,6.421 z m -0.207,-11.327 h -6.295 v 9.821 h 6.295 c 3.062,0 5.241,-1.558 5.241,-4.915 0,-3.338 -2.177,-4.906 -5.241,-4.906 z"
   id="path13282"
   inkscape:connector-curvature="0"
   style="fill:#1d1d1b" />
	</g>
	<g
   id="g13284">
		<path
   d="m 2305.762,279.663 -5.321,-10.26 h -6.145 v 10.26 h -1.688 V 257.38 h 8.49 c 3.625,0 6.381,2.096 6.381,5.979 0,3.317 -2.006,5.472 -5.125,6.005 l 5.379,10.298 -1.971,0.001 0,0 z m -4.878,-20.78 h -6.588 v 9.013 h 6.588 c 2.836,0 4.911,-1.439 4.911,-4.511 0,-3.068 -2.075,-4.502 -4.911,-4.502 z"
   id="path13286"
   inkscape:connector-curvature="0"
   style="fill:#1d1d1b" />
	</g>
	<g
   id="g13288">
		<path
   d="M 2385.137,279.663 V 257.38 h 1.686 v 22.282 l -1.686,0.001 0,0 z"
   id="path13290"
   inkscape:connector-curvature="0"
   style="fill:#1d1d1b" />
	</g>
	<g
   id="g13292">
		<path
   d="m 2480.216,279.663 -12.865,-19.369 v 19.369 h -1.709 V 257.38 h 1.709 l 12.865,19.308 V 257.38 h 1.688 v 22.282 l -1.688,0.001 0,0 z"
   id="path13294"
   inkscape:connector-curvature="0"
   style="fill:#1d1d1b" />
	</g>
	<g
   id="g13296">
		<path
   d="m 2566.555,258.883 v 20.779 h -1.688 v -20.779 h -6.63 v -1.503 h 14.984 v 1.503 h -6.666 z"
   id="path13298"
   inkscape:connector-curvature="0"
   style="fill:#1d1d1b" />
	</g>
	<g
   id="g13300">
		<path
   d="m 1225.106,137.831 h -139.951 v 40.147 h 49.978 v 119.655 h 39.979 V 177.978 h 49.994 V 137.831 z M 1079.3,187.769 c 0,-13.693 -4.85,-25.328 -14.736,-35.205 -9.707,-9.79 -21.494,-14.733 -35.125,-14.733 H 919.455 v 159.803 h 40.031 V 177.978 h 65.939 c 3.804,0 7.058,1.29 9.779,4.041 2.751,2.721 4.093,5.968 4.093,9.81 v 105.805 h 40.002 V 187.769 z M 905.612,137.831 h -40.078 v 159.803 h 40.078 V 137.831 z m -97.988,75.721 c -2.682,2.688 -5.986,4.109 -9.792,4.109 h -65.87 v -39.684 h 65.87 c 3.844,0 7.112,1.29 9.741,4.041 2.801,2.682 4.133,5.968 4.133,9.729 v 11.997 c -10e-4,3.859 -1.333,7.139 -4.082,9.808 m 44.148,-25.783 c 0,-13.719 -4.922,-25.396 -14.735,-35.205 -9.767,-9.79 -21.542,-14.733 -35.185,-14.733 H 691.879 l 0.019,159.803 h 40.063 v -39.899 l 51.954,39.899 h 57.929 l -55.942,-39.899 h 15.972 c 13.674,0 25.397,-4.934 35.139,-14.658 9.839,-9.818 14.763,-21.562 14.763,-35.374 v -19.934 h -0.004 z m -215.778,25.783 c -2.763,2.688 -5.996,4.109 -9.819,4.109 h -65.91 v -39.684 l 65.91,-0.107 c 3.823,0.107 7.057,1.397 9.819,4.148 2.681,2.682 4.09,5.968 4.09,9.729 v 11.997 c 0,3.859 -1.409,7.106 -4.09,9.808 m 44.11,-25.783 c 0,-13.719 -4.875,-25.396 -14.815,-35.205 -9.696,-9.79 -21.44,-14.733 -35.063,-14.733 H 520.197 v 159.803 h 40.067 v -39.899 l 70.043,-0.07 c 13.59,0.07 25.285,-4.863 34.981,-14.588 9.913,-9.818 14.815,-21.59 14.815,-35.374 v -19.934 z m -279.506,69.965 c -3.28,0 -6.095,-1.203 -8.489,-3.655 -2.429,-2.321 -3.642,-5.115 -3.642,-8.308 0.027,-3.14 1.212,-5.851 3.642,-8.245 2.395,-2.38 5.242,-3.583 8.489,-3.583 l 67.771,0.031 v 23.76 H 400.598 z M 508.44,187.769 c 0,-13.693 -4.916,-25.328 -14.777,-35.205 -9.778,-9.79 -21.528,-14.733 -35.194,-14.733 h -99.915 v 40.147 h 97.93 c 3.216,0 5.946,1.154 8.281,3.586 2.413,2.293 3.604,5.112 3.604,8.268 v 12.064 h -73.817 c -12.604,0 -23.464,4.816 -32.475,14.536 -9.01,9.718 -13.512,20.868 -13.512,33.356 0.037,12.638 4.502,23.81 13.512,33.558 9.01,9.569 19.871,14.287 32.475,14.287 H 508.443 V 187.769 H 508.44 z M 293.241,217.76 347.66,137.83 h -51.05 l -28.85,46.522 -28.928,-46.522 -50.825,0.068 54.324,79.861 -54.324,79.873 h 50.825 l 28.928,-46.454 28.85,46.454 h 51.05 L 293.241,217.76 z M 187.035,257.734 H 87.121 v -23.791 h 79.926 V 201.896 H 87.121 v -23.918 h 89.866 v -40.147 l -130.09,0.068 v 159.734 h 140.138 v -39.899 z"
   id="path13302"
   inkscape:connector-curvature="0"
   style="fill:#e5005b" />
	</g>
	<g
   id="g13304">
		<path
   d="m 54.789,366.5 v -34.592 h 3.692 V 366.5 h -3.692 z"
   id="path13306"
   inkscape:connector-curvature="0" />
		<path
   d="m 73.834,366.5 c -4.179,0 -6.073,-2.721 -6.073,-6.364 v -28.228 h 3.498 v 28.081 c 0,2.332 0.777,3.498 3.207,3.498 h 1.895 v 3.013 h -2.527 z"
   id="path13308"
   inkscape:connector-curvature="0" />
		<path
   d="M 107.89,352.265 H 98.707 V 366.5 h -3.692 v -34.592 h 12.875 c 6.316,0 10.688,3.936 10.688,10.154 0,6.218 -4.372,10.203 -10.688,10.203 z m -0.34,-17.053 h -8.843 v 13.749 h 8.843 c 4.324,0 7.336,-2.332 7.336,-6.898 0,-4.568 -3.012,-6.851 -7.336,-6.851 z"
   id="path13310"
   inkscape:connector-curvature="0" />
		<path
   d="m 138.545,366.5 v -2.283 c -1.943,1.943 -3.692,2.575 -6.899,2.575 -3.304,0 -5.247,-0.632 -6.753,-2.187 -1.166,-1.166 -1.798,-2.964 -1.798,-4.858 0,-4.179 2.915,-6.899 8.26,-6.899 h 7.19 v -2.283 c 0,-3.498 -1.749,-5.247 -6.122,-5.247 -3.061,0 -4.615,0.729 -6.024,2.721 l -2.38,-2.187 c 2.138,-2.769 4.567,-3.546 8.454,-3.546 6.413,0 9.571,2.769 9.571,7.967 V 366.5 h -3.499 z m 0,-11.028 h -6.705 c -3.595,0 -5.344,1.457 -5.344,4.227 0,2.77 1.7,4.081 5.49,4.081 2.041,0 3.838,-0.146 5.344,-1.604 0.826,-0.777 1.215,-2.138 1.215,-4.13 v -2.574 z"
   id="path13312"
   inkscape:connector-curvature="0" />
		<path
   d="m 163.904,347.163 c -1.312,-1.312 -2.284,-1.748 -4.13,-1.748 -3.498,0 -5.733,2.769 -5.733,6.412 V 366.5 h -3.498 v -23.903 h 3.498 v 2.915 c 1.312,-1.992 3.935,-3.206 6.705,-3.206 2.283,0 4.032,0.534 5.733,2.234 l -2.575,2.623 z"
   id="path13314"
   inkscape:connector-curvature="0" />
		<path
   d="m 177.701,366.5 c -4.081,0 -6.122,-2.866 -6.122,-6.413 v -14.672 h -3.012 v -2.673 h 3.012 v -7.481 h 3.498 v 7.481 h 5.102 v 2.673 h -5.102 v 14.574 c 0,2.187 1.021,3.498 3.255,3.498 h 1.847 v 3.013 h -2.478 z"
   id="path13316"
   inkscape:connector-curvature="0" />
		<path
   d="m 202.429,366.5 v -14.721 c 0,-4.228 -2.284,-6.364 -5.879,-6.364 -3.595,0 -5.927,2.186 -5.927,6.364 V 366.5 h -3.498 v -23.903 h 3.498 v 2.623 c 1.701,-1.943 4.033,-2.914 6.705,-2.914 2.575,0 4.664,0.777 6.122,2.234 1.701,1.652 2.478,3.887 2.478,6.656 V 366.5 h -3.499 z"
   id="path13318"
   inkscape:connector-curvature="0" />
		<path
   d="m 216.614,355.472 c 0,5.247 2.478,8.259 7.044,8.259 2.769,0 4.373,-0.825 6.267,-2.721 l 2.381,2.089 c -2.429,2.43 -4.664,3.693 -8.745,3.693 -6.316,0 -10.445,-3.79 -10.445,-12.244 0,-7.725 3.741,-12.242 9.813,-12.242 6.17,0 9.814,4.469 9.814,11.562 v 1.604 h -16.129 z m 11.903,-6.608 c -0.923,-2.187 -3.061,-3.596 -5.587,-3.596 -2.526,0 -4.664,1.409 -5.587,3.596 -0.534,1.312 -0.632,2.04 -0.729,3.983 h 12.632 c -0.098,-1.943 -0.194,-2.671 -0.729,-3.983 z"
   id="path13320"
   inkscape:connector-curvature="0" />
		<path
   d="m 253.537,347.163 c -1.312,-1.312 -2.284,-1.748 -4.13,-1.748 -3.498,0 -5.733,2.769 -5.733,6.412 V 366.5 h -3.498 v -23.903 h 3.498 v 2.915 c 1.312,-1.992 3.935,-3.206 6.705,-3.206 2.283,0 4.032,0.534 5.733,2.234 l -2.575,2.623 z"
   id="path13322"
   inkscape:connector-curvature="0" />
		<path
   d="m 286.086,347.163 c -1.312,-1.312 -2.283,-1.748 -4.129,-1.748 -3.498,0 -5.733,2.769 -5.733,6.412 V 366.5 h -3.498 v -23.903 h 3.498 v 2.915 c 1.312,-1.992 3.936,-3.206 6.705,-3.206 2.284,0 4.033,0.534 5.733,2.234 l -2.576,2.623 z"
   id="path13324"
   inkscape:connector-curvature="0" />
		<path
   d="m 292.984,335.795 v -3.936 h 3.935 v 3.936 h -3.935 z m 0.194,30.705 v -23.903 h 3.498 V 366.5 h -3.498 z"
   id="path13326"
   inkscape:connector-curvature="0" />
		<path
   d="m 313,366.792 c -4.033,0 -7.19,-0.924 -9.814,-3.45 l 2.332,-2.332 c 1.895,1.992 4.47,2.77 7.434,2.77 3.936,0 6.364,-1.409 6.364,-4.227 0,-2.089 -1.214,-3.255 -3.983,-3.498 l -3.936,-0.341 c -4.664,-0.389 -7.142,-2.478 -7.142,-6.412 0,-4.373 3.692,-6.996 8.793,-6.996 3.401,0 6.461,0.825 8.599,2.574 l -2.283,2.283 c -1.7,-1.312 -3.887,-1.895 -6.364,-1.895 -3.498,0 -5.345,1.506 -5.345,3.936 0,2.041 1.166,3.255 4.179,3.498 l 3.838,0.34 c 4.178,0.389 7.045,1.992 7.045,6.462 0,4.615 -3.936,7.288 -9.717,7.288 z"
   id="path13328"
   inkscape:connector-curvature="0" />
		<path
   d="m 331.752,355.472 c 0,5.247 2.478,8.259 7.044,8.259 2.769,0 4.373,-0.825 6.267,-2.721 l 2.381,2.089 c -2.429,2.43 -4.664,3.693 -8.745,3.693 -6.316,0 -10.445,-3.79 -10.445,-12.244 0,-7.725 3.741,-12.242 9.813,-12.242 6.17,0 9.814,4.469 9.814,11.562 v 1.604 h -16.129 z m 11.903,-6.608 c -0.923,-2.187 -3.061,-3.596 -5.587,-3.596 -2.526,0 -4.664,1.409 -5.587,3.596 -0.534,1.312 -0.632,2.04 -0.729,3.983 h 12.632 c -0.098,-1.943 -0.195,-2.671 -0.729,-3.983 z"
   id="path13330"
   inkscape:connector-curvature="0" />
		<path
   d="m 368.675,347.163 c -1.312,-1.312 -2.284,-1.748 -4.13,-1.748 -3.498,0 -5.733,2.769 -5.733,6.412 V 366.5 h -3.498 v -23.903 h 3.498 v 2.915 c 1.312,-1.992 3.935,-3.206 6.705,-3.206 2.283,0 4.032,0.534 5.733,2.234 l -2.575,2.623 z"
   id="path13332"
   inkscape:connector-curvature="0" />
		<path
   d="m 383.783,366.5 h -3.109 l -8.745,-23.903 h 3.789 l 6.511,19.19 6.559,-19.19 h 3.79 l -8.795,23.903 z"
   id="path13334"
   inkscape:connector-curvature="0" />
		<path
   d="m 411.037,366.5 v -2.283 c -1.943,1.943 -3.692,2.575 -6.898,2.575 -3.304,0 -5.247,-0.632 -6.753,-2.187 -1.166,-1.166 -1.797,-2.964 -1.797,-4.858 0,-4.179 2.915,-6.899 8.259,-6.899 h 7.19 v -2.283 c 0,-3.498 -1.749,-5.247 -6.121,-5.247 -3.061,0 -4.616,0.729 -6.024,2.721 l -2.381,-2.187 c 2.138,-2.769 4.567,-3.546 8.454,-3.546 6.413,0 9.571,2.769 9.571,7.967 V 366.5 h -3.5 z m 0,-11.028 h -6.704 c -3.596,0 -5.345,1.457 -5.345,4.227 0,2.77 1.701,4.081 5.49,4.081 2.041,0 3.838,-0.146 5.344,-1.604 0.826,-0.777 1.214,-2.138 1.214,-4.13 v -2.574 z"
   id="path13336"
   inkscape:connector-curvature="0" />
		<path
   d="m 429.741,366.5 c -4.081,0 -6.122,-2.866 -6.122,-6.413 v -14.672 h -3.012 v -2.673 h 3.012 v -7.481 h 3.498 v 7.481 h 5.102 v 2.673 h -5.102 v 14.574 c 0,2.187 1.021,3.498 3.255,3.498 h 1.847 v 3.013 h -2.478 z"
   id="path13338"
   inkscape:connector-curvature="0" />
		<path
   d="m 454.517,364.071 c -1.652,1.651 -3.935,2.721 -6.85,2.721 -2.915,0 -5.199,-1.069 -6.851,-2.721 -2.429,-2.479 -2.915,-5.83 -2.915,-9.523 0,-3.691 0.486,-7.044 2.915,-9.521 1.652,-1.652 3.936,-2.721 6.851,-2.721 2.915,0 5.198,1.068 6.85,2.721 2.429,2.478 2.915,5.83 2.915,9.521 0,3.693 -0.486,7.045 -2.915,9.523 z m -2.478,-16.908 c -1.117,-1.117 -2.672,-1.748 -4.372,-1.748 -1.701,0 -3.207,0.631 -4.324,1.748 -1.749,1.75 -1.943,4.713 -1.943,7.385 0,2.673 0.194,5.637 1.943,7.385 1.117,1.118 2.624,1.75 4.324,1.75 1.7,0 3.255,-0.632 4.372,-1.75 1.749,-1.748 1.895,-4.712 1.895,-7.385 0,-2.672 -0.146,-5.635 -1.895,-7.385 z"
   id="path13340"
   inkscape:connector-curvature="0" />
		<path
   d="m 490.565,366.5 v -2.283 c -1.943,1.943 -3.692,2.575 -6.899,2.575 -3.304,0 -5.247,-0.632 -6.753,-2.187 -1.166,-1.166 -1.798,-2.964 -1.798,-4.858 0,-4.179 2.915,-6.899 8.26,-6.899 h 7.19 v -2.283 c 0,-3.498 -1.749,-5.247 -6.122,-5.247 -3.061,0 -4.615,0.729 -6.024,2.721 l -2.38,-2.187 c 2.138,-2.769 4.567,-3.546 8.454,-3.546 6.413,0 9.571,2.769 9.571,7.967 V 366.5 h -3.499 z m 0,-11.028 h -6.705 c -3.595,0 -5.344,1.457 -5.344,4.227 0,2.77 1.7,4.081 5.49,4.081 2.041,0 3.838,-0.146 5.344,-1.604 0.826,-0.777 1.215,-2.138 1.215,-4.13 v -2.574 z"
   id="path13342"
   inkscape:connector-curvature="0" />
		<path
   d="m 502.369,335.795 v -3.936 h 3.936 v 3.936 h -3.936 z m 0.194,30.705 v -23.903 h 3.498 V 366.5 h -3.498 z"
   id="path13344"
   inkscape:connector-curvature="0" />
		<path
   d="m 540.458,352.265 h -9.182 V 366.5 h -3.692 v -34.592 h 12.875 c 6.316,0 10.688,3.936 10.688,10.154 0,6.218 -4.374,10.203 -10.689,10.203 z m -0.341,-17.053 h -8.842 v 13.749 h 8.842 c 4.324,0 7.336,-2.332 7.336,-6.898 10e-4,-4.568 -3.012,-6.851 -7.336,-6.851 z"
   id="path13346"
   inkscape:connector-curvature="0" />
		<path
   d="m 570.918,347.163 c -1.312,-1.312 -2.283,-1.748 -4.129,-1.748 -3.498,0 -5.733,2.769 -5.733,6.412 V 366.5 h -3.498 v -23.903 h 3.498 v 2.915 c 1.312,-1.992 3.936,-3.206 6.705,-3.206 2.284,0 4.033,0.534 5.733,2.234 l -2.576,2.623 z"
   id="path13348"
   inkscape:connector-curvature="0" />
		<path
   d="m 593.363,364.071 c -1.652,1.651 -3.935,2.721 -6.85,2.721 -2.915,0 -5.199,-1.069 -6.851,-2.721 -2.429,-2.479 -2.915,-5.83 -2.915,-9.523 0,-3.691 0.486,-7.044 2.915,-9.521 1.652,-1.652 3.936,-2.721 6.851,-2.721 2.915,0 5.198,1.068 6.85,2.721 2.429,2.478 2.915,5.83 2.915,9.521 0,3.693 -0.486,7.045 -2.915,9.523 z m -2.478,-16.908 c -1.117,-1.117 -2.672,-1.748 -4.372,-1.748 -1.701,0 -3.207,0.631 -4.324,1.748 -1.749,1.75 -1.943,4.713 -1.943,7.385 0,2.673 0.194,5.637 1.943,7.385 1.117,1.118 2.624,1.75 4.324,1.75 1.7,0 3.255,-0.632 4.372,-1.75 1.749,-1.748 1.895,-4.712 1.895,-7.385 0,-2.672 -0.146,-5.635 -1.895,-7.385 z"
   id="path13350"
   inkscape:connector-curvature="0" />
		<path
   d="M 608.034,345.415 V 366.5 h -3.498 v -21.085 h -3.061 v -2.673 h 3.061 v -4.518 c 0,-3.547 1.992,-6.414 6.073,-6.414 h 2.526 v 3.013 h -1.895 c -2.235,0 -3.207,1.312 -3.207,3.498 v 4.421 h 5.102 v 2.673 h -5.101 z"
   id="path13352"
   inkscape:connector-curvature="0" />
		<path
   d="m 621.2,355.472 c 0,5.247 2.478,8.259 7.044,8.259 2.769,0 4.373,-0.825 6.267,-2.721 l 2.381,2.089 c -2.429,2.43 -4.664,3.693 -8.745,3.693 -6.316,0 -10.445,-3.79 -10.445,-12.244 0,-7.725 3.741,-12.242 9.813,-12.242 6.17,0 9.814,4.469 9.814,11.562 v 1.604 H 621.2 z m 11.903,-6.608 c -0.923,-2.187 -3.061,-3.596 -5.587,-3.596 -2.526,0 -4.664,1.409 -5.587,3.596 -0.534,1.312 -0.632,2.04 -0.729,3.983 h 12.632 c -0.098,-1.943 -0.194,-2.671 -0.729,-3.983 z"
   id="path13354"
   inkscape:connector-curvature="0" />
		<path
   d="m 652.293,366.792 c -4.033,0 -7.19,-0.924 -9.814,-3.45 l 2.332,-2.332 c 1.895,1.992 4.47,2.77 7.434,2.77 3.936,0 6.364,-1.409 6.364,-4.227 0,-2.089 -1.214,-3.255 -3.983,-3.498 l -3.936,-0.341 c -4.664,-0.389 -7.142,-2.478 -7.142,-6.412 0,-4.373 3.692,-6.996 8.793,-6.996 3.401,0 6.461,0.825 8.599,2.574 l -2.283,2.283 c -1.7,-1.312 -3.887,-1.895 -6.364,-1.895 -3.498,0 -5.345,1.506 -5.345,3.936 0,2.041 1.166,3.255 4.179,3.498 l 3.838,0.34 c 4.178,0.389 7.045,1.992 7.045,6.462 0,4.615 -3.936,7.288 -9.717,7.288 z"
   id="path13356"
   inkscape:connector-curvature="0" />
		<path
   d="m 676.389,366.792 c -4.032,0 -7.19,-0.924 -9.813,-3.45 l 2.332,-2.332 c 1.895,1.992 4.47,2.77 7.433,2.77 3.935,0 6.365,-1.409 6.365,-4.227 0,-2.089 -1.215,-3.255 -3.984,-3.498 l -3.935,-0.341 c -4.664,-0.389 -7.142,-2.478 -7.142,-6.412 0,-4.373 3.692,-6.996 8.794,-6.996 3.401,0 6.462,0.825 8.6,2.574 l -2.284,2.283 c -1.701,-1.312 -3.887,-1.895 -6.365,-1.895 -3.498,0 -5.344,1.506 -5.344,3.936 0,2.041 1.166,3.255 4.178,3.498 l 3.838,0.34 c 4.178,0.389 7.044,1.992 7.044,6.462 -10e-4,4.615 -3.936,7.288 -9.717,7.288 z"
   id="path13358"
   inkscape:connector-curvature="0" />
		<path
   d="m 692.76,335.795 v -3.936 h 3.935 v 3.936 h -3.935 z m 0.195,30.705 v -23.903 h 3.498 V 366.5 h -3.498 z"
   id="path13360"
   inkscape:connector-curvature="0" />
		<path
   d="m 720.598,364.071 c -1.652,1.651 -3.935,2.721 -6.85,2.721 -2.915,0 -5.199,-1.069 -6.851,-2.721 -2.429,-2.479 -2.915,-5.83 -2.915,-9.523 0,-3.691 0.486,-7.044 2.915,-9.521 1.652,-1.652 3.936,-2.721 6.851,-2.721 2.915,0 5.198,1.068 6.85,2.721 2.429,2.478 2.915,5.83 2.915,9.521 0,3.693 -0.486,7.045 -2.915,9.523 z m -2.478,-16.908 c -1.117,-1.117 -2.672,-1.748 -4.372,-1.748 -1.701,0 -3.207,0.631 -4.324,1.748 -1.749,1.75 -1.943,4.713 -1.943,7.385 0,2.673 0.194,5.637 1.943,7.385 1.117,1.118 2.624,1.75 4.324,1.75 1.7,0 3.255,-0.632 4.372,-1.75 1.749,-1.748 1.895,-4.712 1.895,-7.385 0,-2.672 -0.146,-5.635 -1.895,-7.385 z"
   id="path13362"
   inkscape:connector-curvature="0" />
		<path
   d="m 746.298,366.5 v -14.721 c 0,-4.228 -2.283,-6.364 -5.878,-6.364 -3.595,0 -5.927,2.186 -5.927,6.364 V 366.5 h -3.498 v -23.903 h 3.498 v 2.623 c 1.7,-1.943 4.032,-2.914 6.705,-2.914 2.575,0 4.664,0.777 6.122,2.234 1.7,1.652 2.478,3.887 2.478,6.656 V 366.5 h -3.5 z"
   id="path13364"
   inkscape:connector-curvature="0" />
		<path
   d="m 758.103,335.795 v -3.936 h 3.936 v 3.936 h -3.936 z m 0.194,30.705 v -23.903 h 3.498 V 366.5 h -3.498 z"
   id="path13366"
   inkscape:connector-curvature="0" />
		<path
   d="m 778.118,366.792 c -4.032,0 -7.19,-0.924 -9.813,-3.45 l 2.332,-2.332 c 1.895,1.992 4.47,2.77 7.433,2.77 3.935,0 6.365,-1.409 6.365,-4.227 0,-2.089 -1.215,-3.255 -3.984,-3.498 l -3.935,-0.341 c -4.664,-0.389 -7.142,-2.478 -7.142,-6.412 0,-4.373 3.692,-6.996 8.794,-6.996 3.401,0 6.462,0.825 8.6,2.574 l -2.284,2.283 c -1.701,-1.312 -3.887,-1.895 -6.365,-1.895 -3.498,0 -5.344,1.506 -5.344,3.936 0,2.041 1.166,3.255 4.178,3.498 l 3.838,0.34 c 4.178,0.389 7.044,1.992 7.044,6.462 0,4.615 -3.935,7.288 -9.717,7.288 z"
   id="path13368"
   inkscape:connector-curvature="0" />
		<path
   d="m 801.389,366.5 c -4.081,0 -6.122,-2.866 -6.122,-6.413 v -14.672 h -3.012 v -2.673 h 3.012 v -7.481 h 3.498 v 7.481 h 5.101 v 2.673 h -5.101 v 14.574 c 0,2.187 1.02,3.498 3.255,3.498 h 1.846 v 3.013 h -2.477 z"
   id="path13370"
   inkscape:connector-curvature="0" />
		<path
   d="m 810.619,335.795 v -3.936 h 3.935 v 3.936 h -3.935 z m 0.194,30.705 v -23.903 h 3.498 V 366.5 h -3.498 z"
   id="path13372"
   inkscape:connector-curvature="0" />
		<path
   d="m 849.484,366.5 v -2.866 c -1.943,2.526 -4.178,3.158 -6.802,3.158 -2.429,0 -4.567,-0.826 -5.83,-2.09 -2.429,-2.429 -2.915,-6.413 -2.915,-10.154 0,-3.74 0.486,-7.725 2.915,-10.153 1.263,-1.264 3.401,-2.089 5.83,-2.089 2.624,0 4.81,0.582 6.753,3.061 v -13.458 h 3.498 V 366.5 h -3.449 z m -6.025,-21.085 c -5.199,0 -6.024,4.469 -6.024,9.133 0,4.664 0.826,9.135 6.024,9.135 5.198,0 5.976,-4.471 5.976,-9.135 0,-4.664 -0.777,-9.133 -5.976,-9.133 z"
   id="path13374"
   inkscape:connector-curvature="0" />
		<path
   d="m 863.864,355.472 c 0,5.247 2.478,8.259 7.044,8.259 2.769,0 4.373,-0.825 6.267,-2.721 l 2.381,2.089 c -2.429,2.43 -4.664,3.693 -8.745,3.693 -6.316,0 -10.445,-3.79 -10.445,-12.244 0,-7.725 3.741,-12.242 9.813,-12.242 6.17,0 9.814,4.469 9.814,11.562 v 1.604 h -16.129 z m 11.903,-6.608 c -0.923,-2.187 -3.061,-3.596 -5.587,-3.596 -2.526,0 -4.664,1.409 -5.587,3.596 -0.534,1.312 -0.632,2.04 -0.729,3.983 h 12.632 c -0.098,-1.943 -0.194,-2.671 -0.729,-3.983 z"
   id="path13376"
   inkscape:connector-curvature="0" />
		<path
   d="m 893.402,366.5 c -4.179,0 -6.073,-2.721 -6.073,-6.364 v -28.228 h 3.498 v 28.081 c 0,2.332 0.777,3.498 3.207,3.498 h 1.895 v 3.013 h -2.527 z"
   id="path13378"
   inkscape:connector-curvature="0" />
		<path
   d="m 907.831,366.5 c -4.179,0 -6.073,-2.721 -6.073,-6.364 v -28.228 h 3.498 v 28.081 c 0,2.332 0.777,3.498 3.207,3.498 h 1.895 v 3.013 h -2.527 z"
   id="path13380"
   inkscape:connector-curvature="0" />
		<path
   d="m 918.47,355.472 c 0,5.247 2.478,8.259 7.045,8.259 2.77,0 4.373,-0.825 6.268,-2.721 l 2.38,2.089 c -2.429,2.43 -4.664,3.693 -8.745,3.693 -6.316,0 -10.446,-3.79 -10.446,-12.244 0,-7.725 3.741,-12.242 9.814,-12.242 6.17,0 9.813,4.469 9.813,11.562 v 1.604 H 918.47 z m 11.903,-6.608 c -0.923,-2.187 -3.061,-3.596 -5.587,-3.596 -2.526,0 -4.664,1.409 -5.587,3.596 -0.535,1.312 -0.631,2.04 -0.729,3.983 h 12.632 c -0.097,-1.943 -0.195,-2.671 -0.729,-3.983 z"
   id="path13382"
   inkscape:connector-curvature="0" />
		<path
   d="m 974.923,366.5 -2.77,-7.822 h -15.109 l -2.77,7.822 h -3.935 l 12.729,-34.592 h 3.109 l 12.681,34.592 h -3.935 z m -10.251,-29.296 -6.511,18.268 h 12.924 l -6.413,-18.268 z"
   id="path13384"
   inkscape:connector-curvature="0" />
		<path
   d="m 997.173,347.163 c -1.312,-1.312 -2.283,-1.748 -4.129,-1.748 -3.498,0 -5.733,2.769 -5.733,6.412 V 366.5 h -3.498 v -23.903 h 3.498 v 2.915 c 1.312,-1.992 3.936,-3.206 6.705,-3.206 2.284,0 4.033,0.534 5.733,2.234 l -2.576,2.623 z"
   id="path13386"
   inkscape:connector-curvature="0" />
		<path
   d="m 1010.97,366.5 c -4.081,0 -6.122,-2.866 -6.122,-6.413 v -14.672 h -3.012 v -2.673 h 3.012 v -7.481 h 3.498 v 7.481 h 5.101 v 2.673 h -5.101 v 14.574 c 0,2.187 1.02,3.498 3.255,3.498 h 1.846 v 3.013 h -2.477 z"
   id="path13388"
   inkscape:connector-curvature="0" />
		<path
   d="m 1020.2,335.795 v -3.936 h 3.935 v 3.936 h -3.935 z m 0.194,30.705 v -23.903 h 3.498 V 366.5 h -3.498 z"
   id="path13390"
   inkscape:connector-curvature="0" />
		<path
   d="m 1065.43,362.808 c -2.43,2.623 -5.685,3.984 -9.231,3.984 -3.4,0 -6.51,-1.264 -8.842,-3.596 -3.255,-3.255 -3.255,-6.656 -3.255,-13.992 0,-7.336 0,-10.737 3.255,-13.992 2.332,-2.332 5.393,-3.595 8.842,-3.595 6.607,0 11.077,4.275 12.098,10.348 h -3.692 c -0.972,-4.372 -4.081,-7.045 -8.405,-7.045 -2.283,0 -4.47,0.924 -5.976,2.479 -2.187,2.234 -2.429,4.566 -2.429,11.806 0,7.24 0.243,9.619 2.429,11.854 1.506,1.555 3.692,2.429 5.976,2.429 2.526,0 4.956,-1.02 6.559,-2.963 1.409,-1.701 1.943,-3.596 1.943,-6.268 v -2.623 h -8.502 v -3.256 h 12.195 v 5.49 c 0,3.985 -0.828,6.656 -2.965,8.94 z"
   id="path13392"
   inkscape:connector-curvature="0" />
		<path
   d="m 1089.721,347.163 c -1.312,-1.312 -2.284,-1.748 -4.13,-1.748 -3.498,0 -5.733,2.769 -5.733,6.412 V 366.5 h -3.498 v -23.903 h 3.498 v 2.915 c 1.312,-1.992 3.935,-3.206 6.705,-3.206 2.283,0 4.032,0.534 5.733,2.234 l -2.575,2.623 z"
   id="path13394"
   inkscape:connector-curvature="0" />
		<path
   d="m 1110.367,366.5 v -2.283 c -1.943,1.943 -3.692,2.575 -6.899,2.575 -3.304,0 -5.247,-0.632 -6.753,-2.187 -1.166,-1.166 -1.798,-2.964 -1.798,-4.858 0,-4.179 2.915,-6.899 8.26,-6.899 h 7.19 v -2.283 c 0,-3.498 -1.749,-5.247 -6.122,-5.247 -3.061,0 -4.615,0.729 -6.024,2.721 l -2.38,-2.187 c 2.138,-2.769 4.567,-3.546 8.454,-3.546 6.413,0 9.571,2.769 9.571,7.967 V 366.5 h -3.499 z m 0,-11.028 h -6.705 c -3.595,0 -5.344,1.457 -5.344,4.227 0,2.77 1.7,4.081 5.49,4.081 2.041,0 3.838,-0.146 5.344,-1.604 0.826,-0.777 1.215,-2.138 1.215,-4.13 v -2.574 z"
   id="path13396"
   inkscape:connector-curvature="0" />
		<path
   d="M 1126.593,345.415 V 366.5 h -3.498 v -21.085 h -3.061 v -2.673 h 3.061 v -4.518 c 0,-3.547 1.992,-6.414 6.073,-6.414 h 2.526 v 3.013 h -1.895 c -2.234,0 -3.206,1.312 -3.206,3.498 v 4.421 h 5.101 v 2.673 h -5.101 z m 10.542,-9.96 v -3.596 h 3.984 v 3.596 h -3.984 z m 0.243,31.045 v -23.758 h 3.498 V 366.5 h -3.498 z"
   id="path13398"
   inkscape:connector-curvature="0" />
		<path
   d="m 1158.948,366.792 c -6.024,0 -10.591,-4.082 -10.591,-12.244 0,-8.162 4.566,-12.242 10.591,-12.242 3.304,0 5.393,0.874 7.871,3.546 l -2.381,2.235 c -1.798,-1.992 -3.207,-2.672 -5.49,-2.672 -2.332,0 -4.275,0.923 -5.538,2.721 -1.118,1.555 -1.555,3.4 -1.555,6.412 0,3.013 0.437,4.859 1.555,6.414 1.263,1.797 3.206,2.721 5.538,2.721 2.284,0 3.692,-0.729 5.49,-2.721 l 2.381,2.283 c -2.478,2.672 -4.567,3.547 -7.871,3.547 z"
   id="path13400"
   inkscape:connector-curvature="0" />
		<path
   d="m 1188.778,366.5 v -14.77 c 0,-4.179 -2.235,-6.315 -5.83,-6.315 -3.596,0 -5.976,2.186 -5.976,6.315 v 14.77 h -3.498 v -34.592 h 3.498 v 13.312 c 1.749,-1.991 4.033,-2.914 6.705,-2.914 5.393,0 8.6,3.449 8.6,8.842 V 366.5 h -3.499 z"
   id="path13402"
   inkscape:connector-curvature="0" />
		<path
   d="m 1202.963,355.472 c 0,5.247 2.478,8.259 7.045,8.259 2.77,0 4.373,-0.825 6.268,-2.721 l 2.38,2.089 c -2.429,2.43 -4.664,3.693 -8.745,3.693 -6.316,0 -10.446,-3.79 -10.446,-12.244 0,-7.725 3.741,-12.242 9.814,-12.242 6.17,0 9.813,4.469 9.813,11.562 v 1.604 h -16.129 z m 11.903,-6.608 c -0.923,-2.187 -3.061,-3.596 -5.587,-3.596 -2.526,0 -4.664,1.409 -5.587,3.596 -0.535,1.312 -0.631,2.04 -0.729,3.983 h 12.632 c -0.097,-1.943 -0.195,-2.671 -0.729,-3.983 z"
   id="path13404"
   inkscape:connector-curvature="0" />
	</g>
</g>
</svg>